%TF.GenerationSoftware,KiCad,Pcbnew,7.0.10*%
%TF.CreationDate,2024-03-15T10:23:38-04:00*%
%TF.ProjectId,Kicad V7,4b696361-6420-4563-972e-6b696361645f,v2*%
%TF.SameCoordinates,Original*%
%TF.FileFunction,Plated,1,2,PTH,Mixed*%
%TF.FilePolarity,Positive*%
%FSLAX46Y46*%
G04 Gerber Fmt 4.6, Leading zero omitted, Abs format (unit mm)*
G04 Created by KiCad (PCBNEW 7.0.10) date 2024-03-15 10:23:38*
%MOMM*%
%LPD*%
G01*
G04 APERTURE LIST*
%TA.AperFunction,ComponentDrill*%
%ADD10C,0.762000*%
%TD*%
G04 aperture for slot hole*
%TA.AperFunction,ComponentDrill*%
%ADD11O,1.000000X0.762000*%
%TD*%
%TA.AperFunction,ComponentDrill*%
%ADD12C,0.800000*%
%TD*%
%TA.AperFunction,ComponentDrill*%
%ADD13C,0.900000*%
%TD*%
%TA.AperFunction,ComponentDrill*%
%ADD14C,0.950000*%
%TD*%
%TA.AperFunction,ComponentDrill*%
%ADD15C,1.000000*%
%TD*%
%TA.AperFunction,ComponentDrill*%
%ADD16C,2.700000*%
%TD*%
G04 APERTURE END LIST*
D10*
%TO.C,SW1*%
X106683000Y-66750000D03*
X106683000Y-71250000D03*
D11*
X109133000Y-65500000D03*
X109133000Y-72500000D03*
D10*
%TO.C,A2*%
X117360000Y-65250000D03*
X119900000Y-65250000D03*
X122440000Y-65250000D03*
X124980000Y-65250000D03*
X127520000Y-65250000D03*
X130060000Y-65250000D03*
X132600000Y-65250000D03*
X135140000Y-65250000D03*
D12*
%TO.C,A1*%
X107000000Y-122802500D03*
%TO.C,R5*%
X108190000Y-88250000D03*
%TO.C,R6*%
X108190000Y-91500000D03*
%TO.C,R7*%
X108190000Y-94750000D03*
%TO.C,A1*%
X109540000Y-122802500D03*
X112080000Y-122802500D03*
X114620000Y-122802500D03*
%TO.C,R5*%
X115810000Y-88250000D03*
%TO.C,R6*%
X115810000Y-91500000D03*
%TO.C,R7*%
X115810000Y-94750000D03*
%TO.C,A1*%
X117160000Y-102482500D03*
X117160000Y-122802500D03*
X119700000Y-102482500D03*
X119700000Y-122802500D03*
X122240000Y-102482500D03*
X122240000Y-122802500D03*
X124780000Y-102482500D03*
X124780000Y-122802500D03*
%TO.C,U1*%
X127163553Y-90336446D03*
X127163553Y-97956446D03*
%TO.C,A1*%
X127320000Y-102482500D03*
X127320000Y-122802500D03*
%TO.C,U1*%
X129703553Y-90336446D03*
X129703553Y-97956446D03*
%TO.C,A1*%
X129860000Y-102482500D03*
X129860000Y-122802500D03*
%TO.C,U1*%
X132243553Y-90336446D03*
X132243553Y-97956446D03*
%TO.C,A1*%
X132400000Y-102482500D03*
X132400000Y-122802500D03*
%TO.C,U1*%
X134783553Y-90336446D03*
X134783553Y-97956446D03*
%TO.C,A1*%
X134940000Y-102482500D03*
X134940000Y-122802500D03*
%TO.C,R1*%
X137000000Y-70455000D03*
X137000000Y-72995000D03*
%TO.C,U1*%
X137323553Y-90336446D03*
X137323553Y-97956446D03*
%TO.C,A1*%
X137480000Y-102482500D03*
X137480000Y-122802500D03*
%TO.C,U1*%
X139863553Y-90336446D03*
X139863553Y-97956446D03*
%TO.C,A1*%
X140020000Y-102482500D03*
X140020000Y-122802500D03*
%TO.C,R2*%
X140500000Y-70455000D03*
X140500000Y-72995000D03*
%TO.C,U1*%
X142403553Y-90336446D03*
X142403553Y-97956446D03*
%TO.C,A1*%
X142560000Y-102482500D03*
X142560000Y-122802500D03*
%TO.C,R3*%
X144000000Y-70455000D03*
X144000000Y-72995000D03*
%TO.C,U1*%
X144943553Y-90336446D03*
X144943553Y-97956446D03*
%TO.C,A1*%
X145100000Y-102482500D03*
X145100000Y-122802500D03*
%TO.C,R4*%
X147500000Y-70460000D03*
X147500000Y-73000000D03*
%TO.C,C1*%
X148413553Y-92836446D03*
X148413553Y-95336446D03*
D13*
%TO.C,D5*%
X112250000Y-75023000D03*
X112250000Y-77182000D03*
X112250000Y-79341000D03*
X112250000Y-81500000D03*
%TO.C,D1*%
X132000000Y-77210000D03*
X132000000Y-79750000D03*
%TO.C,D2*%
X137250000Y-77210000D03*
X137250000Y-79750000D03*
%TO.C,D3*%
X142500000Y-77210000D03*
X142500000Y-79750000D03*
%TO.C,D4*%
X147750000Y-77210000D03*
X147750000Y-79750000D03*
D14*
%TO.C,J2*%
X137000000Y-85750000D03*
X139500000Y-85750000D03*
X142000000Y-85750000D03*
X144500000Y-85750000D03*
X147000000Y-85750000D03*
D15*
%TO.C,J3*%
X121000000Y-84250000D03*
X121000000Y-86790000D03*
X121000000Y-89330000D03*
X121000000Y-91870000D03*
%TO.C,J1*%
X122550000Y-73750000D03*
X122550000Y-76250000D03*
D16*
%TO.C,H3*%
X105750000Y-61250000D03*
%TO.C,H1*%
X105750000Y-127750000D03*
%TO.C,H4*%
X147000000Y-61250000D03*
%TO.C,H2*%
X147000000Y-127750000D03*
M02*
