%TF.GenerationSoftware,KiCad,Pcbnew,7.0.10*%
%TF.CreationDate,2024-03-15T10:23:30-04:00*%
%TF.ProjectId,Kicad V7,4b696361-6420-4563-972e-6b696361645f,v2*%
%TF.SameCoordinates,Original*%
%TF.FileFunction,Copper,L2,Bot*%
%TF.FilePolarity,Positive*%
%FSLAX46Y46*%
G04 Gerber Fmt 4.6, Leading zero omitted, Abs format (unit mm)*
G04 Created by KiCad (PCBNEW 7.0.10) date 2024-03-15 10:23:30*
%MOMM*%
%LPD*%
G01*
G04 APERTURE LIST*
G04 Aperture macros list*
%AMRoundRect*
0 Rectangle with rounded corners*
0 $1 Rounding radius*
0 $2 $3 $4 $5 $6 $7 $8 $9 X,Y pos of 4 corners*
0 Add a 4 corners polygon primitive as box body*
4,1,4,$2,$3,$4,$5,$6,$7,$8,$9,$2,$3,0*
0 Add four circle primitives for the rounded corners*
1,1,$1+$1,$2,$3*
1,1,$1+$1,$4,$5*
1,1,$1+$1,$6,$7*
1,1,$1+$1,$8,$9*
0 Add four rect primitives between the rounded corners*
20,1,$1+$1,$2,$3,$4,$5,0*
20,1,$1+$1,$4,$5,$6,$7,0*
20,1,$1+$1,$6,$7,$8,$9,0*
20,1,$1+$1,$8,$9,$2,$3,0*%
G04 Aperture macros list end*
%TA.AperFunction,ComponentPad*%
%ADD10C,1.600000*%
%TD*%
%TA.AperFunction,ComponentPad*%
%ADD11O,1.600000X1.600000*%
%TD*%
%TA.AperFunction,ComponentPad*%
%ADD12R,1.600000X1.600000*%
%TD*%
%TA.AperFunction,ComponentPad*%
%ADD13R,1.700000X1.700000*%
%TD*%
%TA.AperFunction,ComponentPad*%
%ADD14O,1.700000X1.700000*%
%TD*%
%TA.AperFunction,ComponentPad*%
%ADD15C,3.100000*%
%TD*%
%TA.AperFunction,ConnectorPad*%
%ADD16C,4.700000*%
%TD*%
%TA.AperFunction,ComponentPad*%
%ADD17RoundRect,0.381000X-0.381000X0.381000X-0.381000X-0.381000X0.381000X-0.381000X0.381000X0.381000X0*%
%TD*%
%TA.AperFunction,ComponentPad*%
%ADD18C,1.524000*%
%TD*%
%TA.AperFunction,ComponentPad*%
%ADD19R,1.800000X1.800000*%
%TD*%
%TA.AperFunction,ComponentPad*%
%ADD20C,1.800000*%
%TD*%
%TA.AperFunction,ComponentPad*%
%ADD21RoundRect,0.250000X-0.750000X0.600000X-0.750000X-0.600000X0.750000X-0.600000X0.750000X0.600000X0*%
%TD*%
%TA.AperFunction,ComponentPad*%
%ADD22O,2.000000X1.700000*%
%TD*%
%TA.AperFunction,ComponentPad*%
%ADD23RoundRect,0.250000X-0.600000X-0.725000X0.600000X-0.725000X0.600000X0.725000X-0.600000X0.725000X0*%
%TD*%
%TA.AperFunction,ComponentPad*%
%ADD24O,1.700000X1.950000*%
%TD*%
%TA.AperFunction,ComponentPad*%
%ADD25R,1.524000X1.524000*%
%TD*%
%TA.AperFunction,Conductor*%
%ADD26C,0.500000*%
%TD*%
%TA.AperFunction,Conductor*%
%ADD27C,0.300000*%
%TD*%
G04 APERTURE END LIST*
D10*
%TO.P,R4,1*%
%TO.N,+5V*%
X147500000Y-70460000D03*
D11*
%TO.P,R4,2*%
%TO.N,Net-(D4-A)*%
X147500000Y-73000000D03*
%TD*%
D12*
%TO.P,U1,1,I1*%
%TO.N,/Phase 1*%
X127163553Y-97956446D03*
D11*
%TO.P,U1,2,I2*%
%TO.N,/Phase 2*%
X129703553Y-97956446D03*
%TO.P,U1,3,I3*%
%TO.N,/Phase 3*%
X132243553Y-97956446D03*
%TO.P,U1,4,I4*%
%TO.N,/Phase 4*%
X134783553Y-97956446D03*
%TO.P,U1,5,I5*%
%TO.N,unconnected-(U1-I5-Pad5)*%
X137323553Y-97956446D03*
%TO.P,U1,6,I6*%
%TO.N,unconnected-(U1-I6-Pad6)*%
X139863553Y-97956446D03*
%TO.P,U1,7,I7*%
%TO.N,unconnected-(U1-I7-Pad7)*%
X142403553Y-97956446D03*
%TO.P,U1,8,GND*%
%TO.N,GND*%
X144943553Y-97956446D03*
%TO.P,U1,9,COM*%
%TO.N,+5V*%
X144943553Y-90336446D03*
%TO.P,U1,10,O7*%
%TO.N,unconnected-(U1-O7-Pad10)*%
X142403553Y-90336446D03*
%TO.P,U1,11,O6*%
%TO.N,unconnected-(U1-O6-Pad11)*%
X139863553Y-90336446D03*
%TO.P,U1,12,O5*%
%TO.N,unconnected-(U1-O5-Pad12)*%
X137323553Y-90336446D03*
%TO.P,U1,13,O4*%
%TO.N,Net-(D4-K)*%
X134783553Y-90336446D03*
%TO.P,U1,14,O3*%
%TO.N,Net-(D3-K)*%
X132243553Y-90336446D03*
%TO.P,U1,15,O2*%
%TO.N,Net-(D2-K)*%
X129703553Y-90336446D03*
%TO.P,U1,16,O1*%
%TO.N,Net-(D1-K)*%
X127163553Y-90336446D03*
%TD*%
D13*
%TO.P,J3,1,Pin_1*%
%TO.N,/Aux 1*%
X121000000Y-84250000D03*
D14*
%TO.P,J3,2,Pin_2*%
%TO.N,/Aux 2*%
X121000000Y-86790000D03*
%TO.P,J3,3,Pin_3*%
%TO.N,+5V*%
X121000000Y-89330000D03*
%TO.P,J3,4,Pin_4*%
%TO.N,GND*%
X121000000Y-91870000D03*
%TD*%
D15*
%TO.P,H4,1,1*%
%TO.N,GND*%
X147000000Y-61250000D03*
D16*
X147000000Y-61250000D03*
%TD*%
D17*
%TO.P,SW1,1,1*%
%TO.N,GND*%
X106683000Y-66750000D03*
D18*
%TO.P,SW1,2,2*%
%TO.N,/PB*%
X106683000Y-71250000D03*
%TO.P,SW1,3*%
%TO.N,N/C*%
X109133000Y-65500000D03*
%TO.P,SW1,4*%
X109133000Y-72500000D03*
%TD*%
D10*
%TO.P,R2,1*%
%TO.N,+5V*%
X140500000Y-70455000D03*
D11*
%TO.P,R2,2*%
%TO.N,Net-(D2-A)*%
X140500000Y-72995000D03*
%TD*%
D19*
%TO.P,D1,1,K*%
%TO.N,Net-(D1-K)*%
X132000000Y-79750000D03*
D20*
%TO.P,D1,2,A*%
%TO.N,Net-(D1-A)*%
X132000000Y-77210000D03*
%TD*%
D10*
%TO.P,R7,1*%
%TO.N,/Red*%
X115810000Y-94750000D03*
D11*
%TO.P,R7,2*%
%TO.N,Net-(D5-RK)*%
X108190000Y-94750000D03*
%TD*%
D21*
%TO.P,J1,1,Pin_1*%
%TO.N,/Home*%
X122550000Y-73750000D03*
D22*
%TO.P,J1,2,Pin_2*%
%TO.N,GND*%
X122550000Y-76250000D03*
%TD*%
D19*
%TO.P,D4,1,K*%
%TO.N,Net-(D4-K)*%
X147750000Y-79750000D03*
D20*
%TO.P,D4,2,A*%
%TO.N,Net-(D4-A)*%
X147750000Y-77210000D03*
%TD*%
D19*
%TO.P,D3,1,K*%
%TO.N,Net-(D3-K)*%
X142500000Y-79750000D03*
D20*
%TO.P,D3,2,A*%
%TO.N,Net-(D3-A)*%
X142500000Y-77210000D03*
%TD*%
D23*
%TO.P,J2,1,Pin_1*%
%TO.N,+5V*%
X137000000Y-85750000D03*
D24*
%TO.P,J2,2,Pin_2*%
%TO.N,Net-(D1-K)*%
X139500000Y-85750000D03*
%TO.P,J2,3,Pin_3*%
%TO.N,Net-(D2-K)*%
X142000000Y-85750000D03*
%TO.P,J2,4,Pin_4*%
%TO.N,Net-(D3-K)*%
X144500000Y-85750000D03*
%TO.P,J2,5,Pin_5*%
%TO.N,Net-(D4-K)*%
X147000000Y-85750000D03*
%TD*%
D10*
%TO.P,R6,1*%
%TO.N,/Green*%
X115810000Y-91500000D03*
D11*
%TO.P,R6,2*%
%TO.N,Net-(D5-GK)*%
X108190000Y-91500000D03*
%TD*%
D19*
%TO.P,D2,1,K*%
%TO.N,Net-(D2-K)*%
X137250000Y-79750000D03*
D20*
%TO.P,D2,2,A*%
%TO.N,Net-(D2-A)*%
X137250000Y-77210000D03*
%TD*%
D19*
%TO.P,D5,1,RK*%
%TO.N,Net-(D5-RK)*%
X112250000Y-81500000D03*
D20*
%TO.P,D5,2,A*%
%TO.N,GND*%
X112250000Y-79341000D03*
%TO.P,D5,3,GK*%
%TO.N,Net-(D5-GK)*%
X112250000Y-77182000D03*
%TO.P,D5,4,BK*%
%TO.N,Net-(D5-BK)*%
X112250000Y-75023000D03*
%TD*%
D10*
%TO.P,R1,1*%
%TO.N,+5V*%
X137000000Y-70455000D03*
D11*
%TO.P,R1,2*%
%TO.N,Net-(D1-A)*%
X137000000Y-72995000D03*
%TD*%
D15*
%TO.P,H2,1,1*%
%TO.N,GND*%
X147000000Y-127750000D03*
D16*
X147000000Y-127750000D03*
%TD*%
D15*
%TO.P,H3,1,1*%
%TO.N,GND*%
X105750000Y-61250000D03*
D16*
X105750000Y-61250000D03*
%TD*%
D10*
%TO.P,R3,1*%
%TO.N,+5V*%
X144000000Y-70455000D03*
D11*
%TO.P,R3,2*%
%TO.N,Net-(D3-A)*%
X144000000Y-72995000D03*
%TD*%
D25*
%TO.P,A2,1,VIN*%
%TO.N,+5V*%
X117360000Y-65250000D03*
D18*
%TO.P,A2,2,GND*%
%TO.N,GND*%
X119900000Y-65250000D03*
%TO.P,A2,3,SCL*%
%TO.N,/SCL*%
X122440000Y-65250000D03*
%TO.P,A2,4,SDA*%
%TO.N,/SDA*%
X124980000Y-65250000D03*
%TO.P,A2,5,BAT*%
%TO.N,unconnected-(A2-BAT-Pad5)*%
X127520000Y-65250000D03*
%TO.P,A2,6,32K*%
%TO.N,unconnected-(A2-32K-Pad6)*%
X130060000Y-65250000D03*
%TO.P,A2,7,SQW*%
%TO.N,unconnected-(A2-SQW-Pad7)*%
X132600000Y-65250000D03*
%TO.P,A2,8,RST*%
%TO.N,unconnected-(A2-RST-Pad8)*%
X135140000Y-65250000D03*
%TD*%
D10*
%TO.P,R5,1*%
%TO.N,/Blue*%
X115810000Y-88250000D03*
D11*
%TO.P,R5,2*%
%TO.N,Net-(D5-BK)*%
X108190000Y-88250000D03*
%TD*%
D15*
%TO.P,H1,1,1*%
%TO.N,GND*%
X105750000Y-127750000D03*
D16*
X105750000Y-127750000D03*
%TD*%
D10*
%TO.P,C1,1*%
%TO.N,+5V*%
X148413553Y-92836446D03*
%TO.P,C1,2*%
%TO.N,GND*%
X148413553Y-95336446D03*
%TD*%
D12*
%TO.P,A1,1,~{RESET}*%
%TO.N,unconnected-(A1-~{RESET}-Pad1)*%
X107000000Y-122802500D03*
D10*
%TO.P,A1,2,3V3*%
%TO.N,unconnected-(A1-3V3-Pad2)*%
X109540000Y-122802500D03*
%TO.P,A1,3,NC*%
%TO.N,unconnected-(A1-NC-Pad3)*%
X112080000Y-122802500D03*
%TO.P,A1,4,GND*%
%TO.N,GND*%
X114620000Y-122802500D03*
%TO.P,A1,5,DAC2/A0*%
%TO.N,/PB*%
X117160000Y-122802500D03*
%TO.P,A1,6,DAC1/A1*%
%TO.N,unconnected-(A1-DAC1{slash}A1-Pad6)*%
X119700000Y-122802500D03*
%TO.P,A1,7,I34/A2*%
%TO.N,unconnected-(A1-I34{slash}A2-Pad7)*%
X122240000Y-122802500D03*
%TO.P,A1,8,I39/A3*%
%TO.N,unconnected-(A1-I39{slash}A3-Pad8)*%
X124780000Y-122802500D03*
%TO.P,A1,9,IO36/A4*%
%TO.N,unconnected-(A1-IO36{slash}A4-Pad9)*%
X127320000Y-122802500D03*
%TO.P,A1,10,IO4/A5*%
%TO.N,unconnected-(A1-IO4{slash}A5-Pad10)*%
X129860000Y-122802500D03*
%TO.P,A1,11,SCK/IO5*%
%TO.N,unconnected-(A1-SCK{slash}IO5-Pad11)*%
X132400000Y-122802500D03*
%TO.P,A1,12,MOSI/IO18*%
%TO.N,unconnected-(A1-MOSI{slash}IO18-Pad12)*%
X134940000Y-122802500D03*
%TO.P,A1,13,MISO/IO19*%
%TO.N,/Phase 1*%
X137480000Y-122802500D03*
%TO.P,A1,14,RX/IO16*%
%TO.N,/Phase 2*%
X140020000Y-122802500D03*
%TO.P,A1,15,TX/IO17*%
%TO.N,/Phase 3*%
X142560000Y-122802500D03*
%TO.P,A1,16,IO21*%
%TO.N,/Phase 4*%
X145100000Y-122802500D03*
%TO.P,A1,17,SDA/IO23*%
%TO.N,/SDA*%
X145100000Y-102482500D03*
%TO.P,A1,18,SCL/IO22*%
%TO.N,/SCL*%
X142560000Y-102482500D03*
%TO.P,A1,19,A6/IO14*%
%TO.N,unconnected-(A1-A6{slash}IO14-Pad19)*%
X140020000Y-102482500D03*
%TO.P,A1,20,A7/IO32*%
%TO.N,/Home*%
X137480000Y-102482500D03*
%TO.P,A1,21,A8/IO15*%
%TO.N,/Aux 1*%
X134940000Y-102482500D03*
%TO.P,A1,22,A9/IO33*%
%TO.N,/Aux 2*%
X132400000Y-102482500D03*
%TO.P,A1,23,A10/IO27*%
%TO.N,/Blue*%
X129860000Y-102482500D03*
%TO.P,A1,24,A11/IO12*%
%TO.N,/Green*%
X127320000Y-102482500D03*
%TO.P,A1,25,A12/IO13*%
%TO.N,/Red*%
X124780000Y-102482500D03*
%TO.P,A1,26,USB*%
%TO.N,+5V*%
X122240000Y-102482500D03*
%TO.P,A1,27,EN*%
%TO.N,unconnected-(A1-EN-Pad27)*%
X119700000Y-102482500D03*
%TO.P,A1,28,VBAT*%
%TO.N,unconnected-(A1-VBAT-Pad28)*%
X117160000Y-102482500D03*
%TD*%
D26*
%TO.N,GND*%
X115870000Y-121552500D02*
X127947500Y-121552500D01*
X113050000Y-66750000D02*
X122550000Y-76250000D01*
X118750000Y-84568208D02*
X113522792Y-79341000D01*
X114620000Y-122802500D02*
X113820001Y-122002501D01*
X106683000Y-62183000D02*
X105750000Y-61250000D01*
X146350000Y-103150000D02*
X146350000Y-99362893D01*
X113820001Y-122002501D02*
X113820001Y-79638209D01*
X112250000Y-79341000D02*
X119459000Y-79341000D01*
X114620000Y-122802500D02*
X115870000Y-121552500D01*
X148413553Y-95336446D02*
X145793553Y-97956446D01*
X106683000Y-66750000D02*
X113050000Y-66750000D01*
X119459000Y-79341000D02*
X122550000Y-76250000D01*
X145793553Y-97956446D02*
X144943553Y-97956446D01*
X118880000Y-89750000D02*
X118750000Y-89750000D01*
X113820001Y-79638209D02*
X113522792Y-79341000D01*
X106683000Y-66750000D02*
X106683000Y-62183000D01*
X113522792Y-79341000D02*
X112250000Y-79341000D01*
D27*
X119900000Y-65250000D02*
X115900000Y-61250000D01*
X119900000Y-65250000D02*
X123900000Y-61250000D01*
D26*
X118750000Y-89750000D02*
X118750000Y-84568208D01*
X146350000Y-99362893D02*
X144943553Y-97956446D01*
X121000000Y-91870000D02*
X118880000Y-89750000D01*
D27*
X115900000Y-61250000D02*
X105750000Y-61250000D01*
X123900000Y-61250000D02*
X147000000Y-61250000D01*
D26*
X127947500Y-121552500D02*
X146350000Y-103150000D01*
%TO.N,+5V*%
X124580000Y-85750000D02*
X121000000Y-89330000D01*
X137000000Y-85750000D02*
X134750000Y-83500000D01*
X123039999Y-91369999D02*
X121000000Y-89330000D01*
X139250000Y-88000000D02*
X142607107Y-88000000D01*
X137000000Y-85750000D02*
X139250000Y-88000000D01*
X137000000Y-70455000D02*
X122565000Y-70455000D01*
X122240000Y-102482500D02*
X123039999Y-101682501D01*
X123039999Y-101682501D02*
X123039999Y-91369999D01*
X134750000Y-83500000D02*
X134750000Y-72705000D01*
X137000000Y-85750000D02*
X124580000Y-85750000D01*
X122565000Y-70455000D02*
X117360000Y-65250000D01*
X134750000Y-72705000D02*
X137000000Y-70455000D01*
X142607107Y-88000000D02*
X144943553Y-90336446D01*
%TD*%
%TA.AperFunction,Conductor*%
%TO.N,GND*%
G36*
X149253471Y-58000695D02*
G01*
X149294188Y-58002981D01*
X149550900Y-58017397D01*
X149564703Y-58018953D01*
X149854953Y-58068269D01*
X149868510Y-58071363D01*
X150151413Y-58152866D01*
X150164537Y-58157459D01*
X150436527Y-58270120D01*
X150449049Y-58276149D01*
X150647673Y-58385925D01*
X150706726Y-58418563D01*
X150718500Y-58425961D01*
X150958604Y-58596323D01*
X150969476Y-58604993D01*
X151188997Y-58801169D01*
X151198830Y-58811002D01*
X151395006Y-59030523D01*
X151403676Y-59041395D01*
X151574038Y-59281499D01*
X151581436Y-59293273D01*
X151723846Y-59550943D01*
X151729879Y-59563472D01*
X151842540Y-59835462D01*
X151847133Y-59848586D01*
X151928636Y-60131489D01*
X151931730Y-60145046D01*
X151981045Y-60435288D01*
X151982602Y-60449106D01*
X151999305Y-60746527D01*
X151999500Y-60753480D01*
X151999500Y-128246519D01*
X151999305Y-128253472D01*
X151982602Y-128550893D01*
X151981045Y-128564711D01*
X151931730Y-128854953D01*
X151928636Y-128868510D01*
X151847133Y-129151413D01*
X151842540Y-129164537D01*
X151729879Y-129436527D01*
X151723846Y-129449056D01*
X151581436Y-129706726D01*
X151574038Y-129718500D01*
X151403676Y-129958604D01*
X151395006Y-129969476D01*
X151198830Y-130188997D01*
X151188997Y-130198830D01*
X150969476Y-130395006D01*
X150958604Y-130403676D01*
X150718500Y-130574038D01*
X150706726Y-130581436D01*
X150449056Y-130723846D01*
X150436527Y-130729879D01*
X150164537Y-130842540D01*
X150151413Y-130847133D01*
X149868510Y-130928636D01*
X149854953Y-130931730D01*
X149564711Y-130981045D01*
X149550893Y-130982602D01*
X149253472Y-130999305D01*
X149246519Y-130999500D01*
X103253481Y-130999500D01*
X103246528Y-130999305D01*
X102949106Y-130982602D01*
X102935288Y-130981045D01*
X102645046Y-130931730D01*
X102631489Y-130928636D01*
X102348586Y-130847133D01*
X102335462Y-130842540D01*
X102063472Y-130729879D01*
X102050943Y-130723846D01*
X101793273Y-130581436D01*
X101781499Y-130574038D01*
X101541395Y-130403676D01*
X101530523Y-130395006D01*
X101311002Y-130198830D01*
X101301169Y-130188997D01*
X101152627Y-130022779D01*
X101104993Y-129969476D01*
X101096323Y-129958604D01*
X100925961Y-129718500D01*
X100918563Y-129706726D01*
X100850783Y-129584088D01*
X100776149Y-129449049D01*
X100770120Y-129436527D01*
X100657459Y-129164537D01*
X100652866Y-129151413D01*
X100571363Y-128868510D01*
X100568269Y-128854953D01*
X100546428Y-128726408D01*
X100518953Y-128564703D01*
X100517397Y-128550900D01*
X100500695Y-128253471D01*
X100500500Y-128246519D01*
X100500500Y-127750003D01*
X102895170Y-127750003D01*
X102914473Y-128081426D01*
X102914474Y-128081437D01*
X102972118Y-128408351D01*
X102972121Y-128408365D01*
X103067336Y-128726408D01*
X103198827Y-129031236D01*
X103198833Y-129031249D01*
X103364824Y-129318755D01*
X103562357Y-129584087D01*
X104635073Y-128511372D01*
X104711890Y-128621078D01*
X104878922Y-128788110D01*
X104988626Y-128864925D01*
X103919289Y-129934263D01*
X104045215Y-130039925D01*
X104322588Y-130222356D01*
X104619252Y-130371347D01*
X104619258Y-130371350D01*
X104931213Y-130484892D01*
X104931234Y-130484899D01*
X105254248Y-130561456D01*
X105254263Y-130561458D01*
X105584012Y-130599999D01*
X105584013Y-130600000D01*
X105915987Y-130600000D01*
X105915987Y-130599999D01*
X106245736Y-130561458D01*
X106245751Y-130561456D01*
X106568765Y-130484899D01*
X106568786Y-130484892D01*
X106880741Y-130371350D01*
X106880747Y-130371347D01*
X107177411Y-130222356D01*
X107454789Y-130039922D01*
X107580708Y-129934263D01*
X107580709Y-129934262D01*
X106511373Y-128864925D01*
X106621078Y-128788110D01*
X106788110Y-128621078D01*
X106864926Y-128511373D01*
X107937641Y-129584088D01*
X108135175Y-129318756D01*
X108301166Y-129031249D01*
X108301172Y-129031236D01*
X108432663Y-128726408D01*
X108527878Y-128408365D01*
X108527881Y-128408351D01*
X108585525Y-128081437D01*
X108585526Y-128081426D01*
X108604830Y-127750003D01*
X144145170Y-127750003D01*
X144164473Y-128081426D01*
X144164474Y-128081437D01*
X144222118Y-128408351D01*
X144222121Y-128408365D01*
X144317336Y-128726408D01*
X144448827Y-129031236D01*
X144448833Y-129031249D01*
X144614824Y-129318755D01*
X144812357Y-129584087D01*
X145885072Y-128511371D01*
X145961890Y-128621078D01*
X146128922Y-128788110D01*
X146238626Y-128864925D01*
X145169289Y-129934263D01*
X145295215Y-130039925D01*
X145572588Y-130222356D01*
X145869252Y-130371347D01*
X145869258Y-130371350D01*
X146181213Y-130484892D01*
X146181234Y-130484899D01*
X146504248Y-130561456D01*
X146504263Y-130561458D01*
X146834012Y-130599999D01*
X146834013Y-130600000D01*
X147165987Y-130600000D01*
X147165987Y-130599999D01*
X147495736Y-130561458D01*
X147495751Y-130561456D01*
X147818765Y-130484899D01*
X147818786Y-130484892D01*
X148130741Y-130371350D01*
X148130747Y-130371347D01*
X148427411Y-130222356D01*
X148704789Y-130039922D01*
X148830708Y-129934263D01*
X148830709Y-129934262D01*
X147761373Y-128864925D01*
X147871078Y-128788110D01*
X148038110Y-128621078D01*
X148114926Y-128511373D01*
X149187641Y-129584088D01*
X149385175Y-129318756D01*
X149551166Y-129031249D01*
X149551172Y-129031236D01*
X149682663Y-128726408D01*
X149777878Y-128408365D01*
X149777881Y-128408351D01*
X149835525Y-128081437D01*
X149835526Y-128081426D01*
X149854830Y-127750003D01*
X149854830Y-127749996D01*
X149835526Y-127418573D01*
X149835525Y-127418562D01*
X149777881Y-127091648D01*
X149777878Y-127091634D01*
X149682663Y-126773591D01*
X149551172Y-126468763D01*
X149551166Y-126468750D01*
X149385172Y-126181239D01*
X149187642Y-125915910D01*
X148114925Y-126988626D01*
X148038110Y-126878922D01*
X147871078Y-126711890D01*
X147761372Y-126635073D01*
X148830709Y-125565736D01*
X148830709Y-125565735D01*
X148704784Y-125460074D01*
X148427411Y-125277643D01*
X148130747Y-125128652D01*
X148130741Y-125128649D01*
X147818786Y-125015107D01*
X147818765Y-125015100D01*
X147495751Y-124938543D01*
X147495736Y-124938541D01*
X147165987Y-124900000D01*
X146834013Y-124900000D01*
X146504263Y-124938541D01*
X146504248Y-124938543D01*
X146181234Y-125015100D01*
X146181213Y-125015107D01*
X145869258Y-125128649D01*
X145869252Y-125128652D01*
X145572581Y-125277646D01*
X145295220Y-125460070D01*
X145295213Y-125460075D01*
X145169289Y-125565735D01*
X146238627Y-126635073D01*
X146128922Y-126711890D01*
X145961890Y-126878922D01*
X145885073Y-126988627D01*
X144812357Y-125915911D01*
X144812356Y-125915911D01*
X144614829Y-126181236D01*
X144614825Y-126181242D01*
X144448833Y-126468750D01*
X144448827Y-126468763D01*
X144317336Y-126773591D01*
X144222121Y-127091634D01*
X144222118Y-127091648D01*
X144164474Y-127418562D01*
X144164473Y-127418573D01*
X144145170Y-127749996D01*
X144145170Y-127750003D01*
X108604830Y-127750003D01*
X108604830Y-127749996D01*
X108585526Y-127418573D01*
X108585525Y-127418562D01*
X108527881Y-127091648D01*
X108527878Y-127091634D01*
X108432663Y-126773591D01*
X108301172Y-126468763D01*
X108301166Y-126468750D01*
X108135172Y-126181239D01*
X107937642Y-125915910D01*
X106864925Y-126988626D01*
X106788110Y-126878922D01*
X106621078Y-126711890D01*
X106511372Y-126635073D01*
X107580709Y-125565736D01*
X107580709Y-125565735D01*
X107454784Y-125460074D01*
X107177411Y-125277643D01*
X106880747Y-125128652D01*
X106880741Y-125128649D01*
X106568786Y-125015107D01*
X106568765Y-125015100D01*
X106245751Y-124938543D01*
X106245736Y-124938541D01*
X105915987Y-124900000D01*
X105584013Y-124900000D01*
X105254263Y-124938541D01*
X105254248Y-124938543D01*
X104931234Y-125015100D01*
X104931213Y-125015107D01*
X104619258Y-125128649D01*
X104619252Y-125128652D01*
X104322581Y-125277646D01*
X104045220Y-125460070D01*
X104045213Y-125460075D01*
X103919289Y-125565735D01*
X104988627Y-126635073D01*
X104878922Y-126711890D01*
X104711890Y-126878922D01*
X104635073Y-126988627D01*
X103562357Y-125915911D01*
X103562356Y-125915911D01*
X103364829Y-126181236D01*
X103364825Y-126181242D01*
X103198833Y-126468750D01*
X103198827Y-126468763D01*
X103067336Y-126773591D01*
X102972121Y-127091634D01*
X102972118Y-127091648D01*
X102914474Y-127418562D01*
X102914473Y-127418573D01*
X102895170Y-127749996D01*
X102895170Y-127750003D01*
X100500500Y-127750003D01*
X100500500Y-123650370D01*
X105699500Y-123650370D01*
X105699501Y-123650376D01*
X105705908Y-123709983D01*
X105756202Y-123844828D01*
X105756206Y-123844835D01*
X105842452Y-123960044D01*
X105842455Y-123960047D01*
X105957664Y-124046293D01*
X105957671Y-124046297D01*
X106092517Y-124096591D01*
X106092516Y-124096591D01*
X106099444Y-124097335D01*
X106152127Y-124103000D01*
X107847872Y-124102999D01*
X107907483Y-124096591D01*
X108042331Y-124046296D01*
X108157546Y-123960046D01*
X108243796Y-123844831D01*
X108294091Y-123709983D01*
X108297862Y-123674901D01*
X108324599Y-123610355D01*
X108381990Y-123570506D01*
X108451816Y-123568011D01*
X108511905Y-123603663D01*
X108522726Y-123617036D01*
X108539956Y-123641643D01*
X108700858Y-123802545D01*
X108700861Y-123802547D01*
X108887266Y-123933068D01*
X109093504Y-124029239D01*
X109313308Y-124088135D01*
X109475230Y-124102301D01*
X109539998Y-124107968D01*
X109540000Y-124107968D01*
X109540002Y-124107968D01*
X109596807Y-124102998D01*
X109766692Y-124088135D01*
X109986496Y-124029239D01*
X110192734Y-123933068D01*
X110379139Y-123802547D01*
X110540047Y-123641639D01*
X110670568Y-123455234D01*
X110697618Y-123397224D01*
X110743790Y-123344785D01*
X110810983Y-123325633D01*
X110877865Y-123345848D01*
X110922382Y-123397225D01*
X110949429Y-123455228D01*
X110949432Y-123455234D01*
X111079954Y-123641641D01*
X111240858Y-123802545D01*
X111240861Y-123802547D01*
X111427266Y-123933068D01*
X111633504Y-124029239D01*
X111853308Y-124088135D01*
X112015230Y-124102301D01*
X112079998Y-124107968D01*
X112080000Y-124107968D01*
X112080002Y-124107968D01*
X112136807Y-124102998D01*
X112306692Y-124088135D01*
X112526496Y-124029239D01*
X112732734Y-123933068D01*
X112919139Y-123802547D01*
X113080047Y-123641639D01*
X113210568Y-123455234D01*
X113237893Y-123396634D01*
X113284065Y-123344195D01*
X113351258Y-123325043D01*
X113418139Y-123345258D01*
X113462657Y-123396634D01*
X113489864Y-123454980D01*
X113540974Y-123527972D01*
X114222046Y-122846900D01*
X114234835Y-122927648D01*
X114292359Y-123040545D01*
X114381955Y-123130141D01*
X114494852Y-123187665D01*
X114575599Y-123200453D01*
X113894526Y-123881525D01*
X113967513Y-123932632D01*
X113967521Y-123932636D01*
X114173668Y-124028764D01*
X114173682Y-124028769D01*
X114393389Y-124087639D01*
X114393400Y-124087641D01*
X114619998Y-124107466D01*
X114620002Y-124107466D01*
X114846599Y-124087641D01*
X114846610Y-124087639D01*
X115066317Y-124028769D01*
X115066331Y-124028764D01*
X115272478Y-123932636D01*
X115345471Y-123881524D01*
X114664400Y-123200453D01*
X114745148Y-123187665D01*
X114858045Y-123130141D01*
X114947641Y-123040545D01*
X115005165Y-122927648D01*
X115017953Y-122846900D01*
X115699024Y-123527971D01*
X115750133Y-123454982D01*
X115777341Y-123396635D01*
X115823513Y-123344196D01*
X115890707Y-123325043D01*
X115957588Y-123345258D01*
X116002105Y-123396632D01*
X116029432Y-123455234D01*
X116029433Y-123455235D01*
X116159954Y-123641641D01*
X116320858Y-123802545D01*
X116320861Y-123802547D01*
X116507266Y-123933068D01*
X116713504Y-124029239D01*
X116933308Y-124088135D01*
X117095230Y-124102301D01*
X117159998Y-124107968D01*
X117160000Y-124107968D01*
X117160002Y-124107968D01*
X117216807Y-124102998D01*
X117386692Y-124088135D01*
X117606496Y-124029239D01*
X117812734Y-123933068D01*
X117999139Y-123802547D01*
X118160047Y-123641639D01*
X118290568Y-123455234D01*
X118317618Y-123397224D01*
X118363790Y-123344785D01*
X118430983Y-123325633D01*
X118497865Y-123345848D01*
X118542382Y-123397225D01*
X118569429Y-123455228D01*
X118569432Y-123455234D01*
X118699954Y-123641641D01*
X118860858Y-123802545D01*
X118860861Y-123802547D01*
X119047266Y-123933068D01*
X119253504Y-124029239D01*
X119473308Y-124088135D01*
X119635230Y-124102301D01*
X119699998Y-124107968D01*
X119700000Y-124107968D01*
X119700002Y-124107968D01*
X119756807Y-124102998D01*
X119926692Y-124088135D01*
X120146496Y-124029239D01*
X120352734Y-123933068D01*
X120539139Y-123802547D01*
X120700047Y-123641639D01*
X120830568Y-123455234D01*
X120857618Y-123397224D01*
X120903790Y-123344785D01*
X120970983Y-123325633D01*
X121037865Y-123345848D01*
X121082382Y-123397225D01*
X121109429Y-123455228D01*
X121109432Y-123455234D01*
X121239954Y-123641641D01*
X121400858Y-123802545D01*
X121400861Y-123802547D01*
X121587266Y-123933068D01*
X121793504Y-124029239D01*
X122013308Y-124088135D01*
X122175230Y-124102301D01*
X122239998Y-124107968D01*
X122240000Y-124107968D01*
X122240002Y-124107968D01*
X122296807Y-124102998D01*
X122466692Y-124088135D01*
X122686496Y-124029239D01*
X122892734Y-123933068D01*
X123079139Y-123802547D01*
X123240047Y-123641639D01*
X123370568Y-123455234D01*
X123397618Y-123397224D01*
X123443790Y-123344785D01*
X123510983Y-123325633D01*
X123577865Y-123345848D01*
X123622382Y-123397225D01*
X123649429Y-123455228D01*
X123649432Y-123455234D01*
X123779954Y-123641641D01*
X123940858Y-123802545D01*
X123940861Y-123802547D01*
X124127266Y-123933068D01*
X124333504Y-124029239D01*
X124553308Y-124088135D01*
X124715230Y-124102301D01*
X124779998Y-124107968D01*
X124780000Y-124107968D01*
X124780002Y-124107968D01*
X124836807Y-124102998D01*
X125006692Y-124088135D01*
X125226496Y-124029239D01*
X125432734Y-123933068D01*
X125619139Y-123802547D01*
X125780047Y-123641639D01*
X125910568Y-123455234D01*
X125937618Y-123397224D01*
X125983790Y-123344785D01*
X126050983Y-123325633D01*
X126117865Y-123345848D01*
X126162382Y-123397225D01*
X126189429Y-123455228D01*
X126189432Y-123455234D01*
X126319954Y-123641641D01*
X126480858Y-123802545D01*
X126480861Y-123802547D01*
X126667266Y-123933068D01*
X126873504Y-124029239D01*
X127093308Y-124088135D01*
X127255230Y-124102301D01*
X127319998Y-124107968D01*
X127320000Y-124107968D01*
X127320002Y-124107968D01*
X127376807Y-124102998D01*
X127546692Y-124088135D01*
X127766496Y-124029239D01*
X127972734Y-123933068D01*
X128159139Y-123802547D01*
X128320047Y-123641639D01*
X128450568Y-123455234D01*
X128477618Y-123397224D01*
X128523790Y-123344785D01*
X128590983Y-123325633D01*
X128657865Y-123345848D01*
X128702382Y-123397225D01*
X128729429Y-123455228D01*
X128729432Y-123455234D01*
X128859954Y-123641641D01*
X129020858Y-123802545D01*
X129020861Y-123802547D01*
X129207266Y-123933068D01*
X129413504Y-124029239D01*
X129633308Y-124088135D01*
X129795230Y-124102301D01*
X129859998Y-124107968D01*
X129860000Y-124107968D01*
X129860002Y-124107968D01*
X129916807Y-124102998D01*
X130086692Y-124088135D01*
X130306496Y-124029239D01*
X130512734Y-123933068D01*
X130699139Y-123802547D01*
X130860047Y-123641639D01*
X130990568Y-123455234D01*
X131017618Y-123397224D01*
X131063790Y-123344785D01*
X131130983Y-123325633D01*
X131197865Y-123345848D01*
X131242382Y-123397225D01*
X131269429Y-123455228D01*
X131269432Y-123455234D01*
X131399954Y-123641641D01*
X131560858Y-123802545D01*
X131560861Y-123802547D01*
X131747266Y-123933068D01*
X131953504Y-124029239D01*
X132173308Y-124088135D01*
X132335230Y-124102301D01*
X132399998Y-124107968D01*
X132400000Y-124107968D01*
X132400002Y-124107968D01*
X132456807Y-124102998D01*
X132626692Y-124088135D01*
X132846496Y-124029239D01*
X133052734Y-123933068D01*
X133239139Y-123802547D01*
X133400047Y-123641639D01*
X133530568Y-123455234D01*
X133557618Y-123397224D01*
X133603790Y-123344785D01*
X133670983Y-123325633D01*
X133737865Y-123345848D01*
X133782382Y-123397225D01*
X133809429Y-123455228D01*
X133809432Y-123455234D01*
X133939954Y-123641641D01*
X134100858Y-123802545D01*
X134100861Y-123802547D01*
X134287266Y-123933068D01*
X134493504Y-124029239D01*
X134713308Y-124088135D01*
X134875230Y-124102301D01*
X134939998Y-124107968D01*
X134940000Y-124107968D01*
X134940002Y-124107968D01*
X134996807Y-124102998D01*
X135166692Y-124088135D01*
X135386496Y-124029239D01*
X135592734Y-123933068D01*
X135779139Y-123802547D01*
X135940047Y-123641639D01*
X136070568Y-123455234D01*
X136097618Y-123397224D01*
X136143790Y-123344785D01*
X136210983Y-123325633D01*
X136277865Y-123345848D01*
X136322382Y-123397225D01*
X136349429Y-123455228D01*
X136349432Y-123455234D01*
X136479954Y-123641641D01*
X136640858Y-123802545D01*
X136640861Y-123802547D01*
X136827266Y-123933068D01*
X137033504Y-124029239D01*
X137253308Y-124088135D01*
X137415230Y-124102301D01*
X137479998Y-124107968D01*
X137480000Y-124107968D01*
X137480002Y-124107968D01*
X137536807Y-124102998D01*
X137706692Y-124088135D01*
X137926496Y-124029239D01*
X138132734Y-123933068D01*
X138319139Y-123802547D01*
X138480047Y-123641639D01*
X138610568Y-123455234D01*
X138637618Y-123397224D01*
X138683790Y-123344785D01*
X138750983Y-123325633D01*
X138817865Y-123345848D01*
X138862382Y-123397225D01*
X138889429Y-123455228D01*
X138889432Y-123455234D01*
X139019954Y-123641641D01*
X139180858Y-123802545D01*
X139180861Y-123802547D01*
X139367266Y-123933068D01*
X139573504Y-124029239D01*
X139793308Y-124088135D01*
X139955230Y-124102301D01*
X140019998Y-124107968D01*
X140020000Y-124107968D01*
X140020002Y-124107968D01*
X140076807Y-124102998D01*
X140246692Y-124088135D01*
X140466496Y-124029239D01*
X140672734Y-123933068D01*
X140859139Y-123802547D01*
X141020047Y-123641639D01*
X141150568Y-123455234D01*
X141177618Y-123397224D01*
X141223790Y-123344785D01*
X141290983Y-123325633D01*
X141357865Y-123345848D01*
X141402382Y-123397225D01*
X141429429Y-123455228D01*
X141429432Y-123455234D01*
X141559954Y-123641641D01*
X141720858Y-123802545D01*
X141720861Y-123802547D01*
X141907266Y-123933068D01*
X142113504Y-124029239D01*
X142333308Y-124088135D01*
X142495230Y-124102301D01*
X142559998Y-124107968D01*
X142560000Y-124107968D01*
X142560002Y-124107968D01*
X142616807Y-124102998D01*
X142786692Y-124088135D01*
X143006496Y-124029239D01*
X143212734Y-123933068D01*
X143399139Y-123802547D01*
X143560047Y-123641639D01*
X143690568Y-123455234D01*
X143717618Y-123397224D01*
X143763790Y-123344785D01*
X143830983Y-123325633D01*
X143897865Y-123345848D01*
X143942382Y-123397225D01*
X143969429Y-123455228D01*
X143969432Y-123455234D01*
X144099954Y-123641641D01*
X144260858Y-123802545D01*
X144260861Y-123802547D01*
X144447266Y-123933068D01*
X144653504Y-124029239D01*
X144873308Y-124088135D01*
X145035230Y-124102301D01*
X145099998Y-124107968D01*
X145100000Y-124107968D01*
X145100002Y-124107968D01*
X145156807Y-124102998D01*
X145326692Y-124088135D01*
X145546496Y-124029239D01*
X145752734Y-123933068D01*
X145939139Y-123802547D01*
X146100047Y-123641639D01*
X146230568Y-123455234D01*
X146326739Y-123248996D01*
X146385635Y-123029192D01*
X146405468Y-122802500D01*
X146385635Y-122575808D01*
X146326739Y-122356004D01*
X146230568Y-122149766D01*
X146100047Y-121963361D01*
X146100045Y-121963358D01*
X145939141Y-121802454D01*
X145752734Y-121671932D01*
X145752732Y-121671931D01*
X145546497Y-121575761D01*
X145546488Y-121575758D01*
X145326697Y-121516866D01*
X145326693Y-121516865D01*
X145326692Y-121516865D01*
X145326691Y-121516864D01*
X145326686Y-121516864D01*
X145100002Y-121497032D01*
X145099998Y-121497032D01*
X144873313Y-121516864D01*
X144873302Y-121516866D01*
X144653511Y-121575758D01*
X144653502Y-121575761D01*
X144447267Y-121671931D01*
X144447265Y-121671932D01*
X144260858Y-121802454D01*
X144099954Y-121963358D01*
X143969432Y-122149765D01*
X143969431Y-122149767D01*
X143942382Y-122207775D01*
X143896209Y-122260214D01*
X143829016Y-122279366D01*
X143762135Y-122259150D01*
X143717618Y-122207775D01*
X143690568Y-122149766D01*
X143560047Y-121963361D01*
X143560045Y-121963358D01*
X143399141Y-121802454D01*
X143212734Y-121671932D01*
X143212732Y-121671931D01*
X143006497Y-121575761D01*
X143006488Y-121575758D01*
X142786697Y-121516866D01*
X142786693Y-121516865D01*
X142786692Y-121516865D01*
X142786691Y-121516864D01*
X142786686Y-121516864D01*
X142560002Y-121497032D01*
X142559998Y-121497032D01*
X142333313Y-121516864D01*
X142333302Y-121516866D01*
X142113511Y-121575758D01*
X142113502Y-121575761D01*
X141907267Y-121671931D01*
X141907265Y-121671932D01*
X141720858Y-121802454D01*
X141559954Y-121963358D01*
X141429432Y-122149765D01*
X141429431Y-122149767D01*
X141402382Y-122207775D01*
X141356209Y-122260214D01*
X141289016Y-122279366D01*
X141222135Y-122259150D01*
X141177618Y-122207775D01*
X141150568Y-122149766D01*
X141020047Y-121963361D01*
X141020045Y-121963358D01*
X140859141Y-121802454D01*
X140672734Y-121671932D01*
X140672732Y-121671931D01*
X140466497Y-121575761D01*
X140466488Y-121575758D01*
X140246697Y-121516866D01*
X140246693Y-121516865D01*
X140246692Y-121516865D01*
X140246691Y-121516864D01*
X140246686Y-121516864D01*
X140020002Y-121497032D01*
X140019998Y-121497032D01*
X139793313Y-121516864D01*
X139793302Y-121516866D01*
X139573511Y-121575758D01*
X139573502Y-121575761D01*
X139367267Y-121671931D01*
X139367265Y-121671932D01*
X139180858Y-121802454D01*
X139019954Y-121963358D01*
X138889432Y-122149765D01*
X138889431Y-122149767D01*
X138862382Y-122207775D01*
X138816209Y-122260214D01*
X138749016Y-122279366D01*
X138682135Y-122259150D01*
X138637618Y-122207775D01*
X138610568Y-122149766D01*
X138480047Y-121963361D01*
X138480045Y-121963358D01*
X138319141Y-121802454D01*
X138132734Y-121671932D01*
X138132732Y-121671931D01*
X137926497Y-121575761D01*
X137926488Y-121575758D01*
X137706697Y-121516866D01*
X137706693Y-121516865D01*
X137706692Y-121516865D01*
X137706691Y-121516864D01*
X137706686Y-121516864D01*
X137480002Y-121497032D01*
X137479998Y-121497032D01*
X137253313Y-121516864D01*
X137253302Y-121516866D01*
X137033511Y-121575758D01*
X137033502Y-121575761D01*
X136827267Y-121671931D01*
X136827265Y-121671932D01*
X136640858Y-121802454D01*
X136479954Y-121963358D01*
X136349432Y-122149765D01*
X136349431Y-122149767D01*
X136322382Y-122207775D01*
X136276209Y-122260214D01*
X136209016Y-122279366D01*
X136142135Y-122259150D01*
X136097618Y-122207775D01*
X136070568Y-122149766D01*
X135940047Y-121963361D01*
X135940045Y-121963358D01*
X135779141Y-121802454D01*
X135592734Y-121671932D01*
X135592732Y-121671931D01*
X135386497Y-121575761D01*
X135386488Y-121575758D01*
X135166697Y-121516866D01*
X135166693Y-121516865D01*
X135166692Y-121516865D01*
X135166691Y-121516864D01*
X135166686Y-121516864D01*
X134940002Y-121497032D01*
X134939998Y-121497032D01*
X134713313Y-121516864D01*
X134713302Y-121516866D01*
X134493511Y-121575758D01*
X134493502Y-121575761D01*
X134287267Y-121671931D01*
X134287265Y-121671932D01*
X134100858Y-121802454D01*
X133939954Y-121963358D01*
X133809432Y-122149765D01*
X133809431Y-122149767D01*
X133782382Y-122207775D01*
X133736209Y-122260214D01*
X133669016Y-122279366D01*
X133602135Y-122259150D01*
X133557618Y-122207775D01*
X133530568Y-122149766D01*
X133400047Y-121963361D01*
X133400045Y-121963358D01*
X133239141Y-121802454D01*
X133052734Y-121671932D01*
X133052732Y-121671931D01*
X132846497Y-121575761D01*
X132846488Y-121575758D01*
X132626697Y-121516866D01*
X132626693Y-121516865D01*
X132626692Y-121516865D01*
X132626691Y-121516864D01*
X132626686Y-121516864D01*
X132400002Y-121497032D01*
X132399998Y-121497032D01*
X132173313Y-121516864D01*
X132173302Y-121516866D01*
X131953511Y-121575758D01*
X131953502Y-121575761D01*
X131747267Y-121671931D01*
X131747265Y-121671932D01*
X131560858Y-121802454D01*
X131399954Y-121963358D01*
X131269432Y-122149765D01*
X131269431Y-122149767D01*
X131242382Y-122207775D01*
X131196209Y-122260214D01*
X131129016Y-122279366D01*
X131062135Y-122259150D01*
X131017618Y-122207775D01*
X130990568Y-122149766D01*
X130860047Y-121963361D01*
X130860045Y-121963358D01*
X130699141Y-121802454D01*
X130512734Y-121671932D01*
X130512732Y-121671931D01*
X130306497Y-121575761D01*
X130306488Y-121575758D01*
X130086697Y-121516866D01*
X130086693Y-121516865D01*
X130086692Y-121516865D01*
X130086691Y-121516864D01*
X130086686Y-121516864D01*
X129860002Y-121497032D01*
X129859998Y-121497032D01*
X129633313Y-121516864D01*
X129633302Y-121516866D01*
X129413511Y-121575758D01*
X129413502Y-121575761D01*
X129207267Y-121671931D01*
X129207265Y-121671932D01*
X129020858Y-121802454D01*
X128859954Y-121963358D01*
X128729432Y-122149765D01*
X128729431Y-122149767D01*
X128702382Y-122207775D01*
X128656209Y-122260214D01*
X128589016Y-122279366D01*
X128522135Y-122259150D01*
X128477618Y-122207775D01*
X128450568Y-122149766D01*
X128320047Y-121963361D01*
X128320045Y-121963358D01*
X128159141Y-121802454D01*
X127972734Y-121671932D01*
X127972732Y-121671931D01*
X127766497Y-121575761D01*
X127766488Y-121575758D01*
X127546697Y-121516866D01*
X127546693Y-121516865D01*
X127546692Y-121516865D01*
X127546691Y-121516864D01*
X127546686Y-121516864D01*
X127320002Y-121497032D01*
X127319998Y-121497032D01*
X127093313Y-121516864D01*
X127093302Y-121516866D01*
X126873511Y-121575758D01*
X126873502Y-121575761D01*
X126667267Y-121671931D01*
X126667265Y-121671932D01*
X126480858Y-121802454D01*
X126319954Y-121963358D01*
X126189432Y-122149765D01*
X126189431Y-122149767D01*
X126162382Y-122207775D01*
X126116209Y-122260214D01*
X126049016Y-122279366D01*
X125982135Y-122259150D01*
X125937618Y-122207775D01*
X125910568Y-122149766D01*
X125780047Y-121963361D01*
X125780045Y-121963358D01*
X125619141Y-121802454D01*
X125432734Y-121671932D01*
X125432732Y-121671931D01*
X125226497Y-121575761D01*
X125226488Y-121575758D01*
X125006697Y-121516866D01*
X125006693Y-121516865D01*
X125006692Y-121516865D01*
X125006691Y-121516864D01*
X125006686Y-121516864D01*
X124780002Y-121497032D01*
X124779998Y-121497032D01*
X124553313Y-121516864D01*
X124553302Y-121516866D01*
X124333511Y-121575758D01*
X124333502Y-121575761D01*
X124127267Y-121671931D01*
X124127265Y-121671932D01*
X123940858Y-121802454D01*
X123779954Y-121963358D01*
X123649432Y-122149765D01*
X123649431Y-122149767D01*
X123622382Y-122207775D01*
X123576209Y-122260214D01*
X123509016Y-122279366D01*
X123442135Y-122259150D01*
X123397618Y-122207775D01*
X123370568Y-122149766D01*
X123240047Y-121963361D01*
X123240045Y-121963358D01*
X123079141Y-121802454D01*
X122892734Y-121671932D01*
X122892732Y-121671931D01*
X122686497Y-121575761D01*
X122686488Y-121575758D01*
X122466697Y-121516866D01*
X122466693Y-121516865D01*
X122466692Y-121516865D01*
X122466691Y-121516864D01*
X122466686Y-121516864D01*
X122240002Y-121497032D01*
X122239998Y-121497032D01*
X122013313Y-121516864D01*
X122013302Y-121516866D01*
X121793511Y-121575758D01*
X121793502Y-121575761D01*
X121587267Y-121671931D01*
X121587265Y-121671932D01*
X121400858Y-121802454D01*
X121239954Y-121963358D01*
X121109432Y-122149765D01*
X121109431Y-122149767D01*
X121082382Y-122207775D01*
X121036209Y-122260214D01*
X120969016Y-122279366D01*
X120902135Y-122259150D01*
X120857618Y-122207775D01*
X120830568Y-122149766D01*
X120700047Y-121963361D01*
X120700045Y-121963358D01*
X120539141Y-121802454D01*
X120352734Y-121671932D01*
X120352732Y-121671931D01*
X120146497Y-121575761D01*
X120146488Y-121575758D01*
X119926697Y-121516866D01*
X119926693Y-121516865D01*
X119926692Y-121516865D01*
X119926691Y-121516864D01*
X119926686Y-121516864D01*
X119700002Y-121497032D01*
X119699998Y-121497032D01*
X119473313Y-121516864D01*
X119473302Y-121516866D01*
X119253511Y-121575758D01*
X119253502Y-121575761D01*
X119047267Y-121671931D01*
X119047265Y-121671932D01*
X118860858Y-121802454D01*
X118699954Y-121963358D01*
X118569432Y-122149765D01*
X118569431Y-122149767D01*
X118542382Y-122207775D01*
X118496209Y-122260214D01*
X118429016Y-122279366D01*
X118362135Y-122259150D01*
X118317618Y-122207775D01*
X118290568Y-122149766D01*
X118160047Y-121963361D01*
X118160045Y-121963358D01*
X117999141Y-121802454D01*
X117812734Y-121671932D01*
X117812732Y-121671931D01*
X117606497Y-121575761D01*
X117606488Y-121575758D01*
X117386697Y-121516866D01*
X117386693Y-121516865D01*
X117386692Y-121516865D01*
X117386691Y-121516864D01*
X117386686Y-121516864D01*
X117160002Y-121497032D01*
X117159998Y-121497032D01*
X116933313Y-121516864D01*
X116933302Y-121516866D01*
X116713511Y-121575758D01*
X116713502Y-121575761D01*
X116507267Y-121671931D01*
X116507265Y-121671932D01*
X116320858Y-121802454D01*
X116159954Y-121963358D01*
X116029432Y-122149765D01*
X116029428Y-122149772D01*
X116002105Y-122208366D01*
X115955932Y-122260805D01*
X115888738Y-122279956D01*
X115821858Y-122259739D01*
X115777342Y-122208364D01*
X115750136Y-122150021D01*
X115750132Y-122150013D01*
X115699025Y-122077026D01*
X115017953Y-122758098D01*
X115005165Y-122677352D01*
X114947641Y-122564455D01*
X114858045Y-122474859D01*
X114745148Y-122417335D01*
X114664401Y-122404546D01*
X115345472Y-121723474D01*
X115272478Y-121672363D01*
X115066331Y-121576235D01*
X115066317Y-121576230D01*
X114846610Y-121517360D01*
X114846599Y-121517358D01*
X114620002Y-121497534D01*
X114619998Y-121497534D01*
X114393400Y-121517358D01*
X114393389Y-121517360D01*
X114173682Y-121576230D01*
X114173673Y-121576234D01*
X113967516Y-121672366D01*
X113967512Y-121672368D01*
X113894526Y-121723473D01*
X113894526Y-121723474D01*
X114575599Y-122404546D01*
X114494852Y-122417335D01*
X114381955Y-122474859D01*
X114292359Y-122564455D01*
X114234835Y-122677352D01*
X114222046Y-122758098D01*
X113540974Y-122077026D01*
X113540973Y-122077026D01*
X113489868Y-122150012D01*
X113489868Y-122150013D01*
X113462657Y-122208367D01*
X113416484Y-122260806D01*
X113349290Y-122279957D01*
X113282409Y-122259741D01*
X113237893Y-122208365D01*
X113210682Y-122150012D01*
X113210568Y-122149766D01*
X113080047Y-121963361D01*
X113080045Y-121963358D01*
X112919141Y-121802454D01*
X112732734Y-121671932D01*
X112732732Y-121671931D01*
X112526497Y-121575761D01*
X112526488Y-121575758D01*
X112306697Y-121516866D01*
X112306693Y-121516865D01*
X112306692Y-121516865D01*
X112306691Y-121516864D01*
X112306686Y-121516864D01*
X112080002Y-121497032D01*
X112079998Y-121497032D01*
X111853313Y-121516864D01*
X111853302Y-121516866D01*
X111633511Y-121575758D01*
X111633502Y-121575761D01*
X111427267Y-121671931D01*
X111427265Y-121671932D01*
X111240858Y-121802454D01*
X111079954Y-121963358D01*
X110949432Y-122149765D01*
X110949431Y-122149767D01*
X110922382Y-122207775D01*
X110876209Y-122260214D01*
X110809016Y-122279366D01*
X110742135Y-122259150D01*
X110697618Y-122207775D01*
X110670568Y-122149766D01*
X110540047Y-121963361D01*
X110540045Y-121963358D01*
X110379141Y-121802454D01*
X110192734Y-121671932D01*
X110192732Y-121671931D01*
X109986497Y-121575761D01*
X109986488Y-121575758D01*
X109766697Y-121516866D01*
X109766693Y-121516865D01*
X109766692Y-121516865D01*
X109766691Y-121516864D01*
X109766686Y-121516864D01*
X109540002Y-121497032D01*
X109539998Y-121497032D01*
X109313313Y-121516864D01*
X109313302Y-121516866D01*
X109093511Y-121575758D01*
X109093502Y-121575761D01*
X108887267Y-121671931D01*
X108887265Y-121671932D01*
X108700858Y-121802454D01*
X108539954Y-121963358D01*
X108522725Y-121987964D01*
X108468147Y-122031588D01*
X108398648Y-122038780D01*
X108336294Y-122007257D01*
X108300882Y-121947026D01*
X108297861Y-121930091D01*
X108294091Y-121895016D01*
X108243797Y-121760171D01*
X108243793Y-121760164D01*
X108157547Y-121644955D01*
X108157544Y-121644952D01*
X108042335Y-121558706D01*
X108042328Y-121558702D01*
X107907482Y-121508408D01*
X107907483Y-121508408D01*
X107847883Y-121502001D01*
X107847881Y-121502000D01*
X107847873Y-121502000D01*
X107847864Y-121502000D01*
X106152129Y-121502000D01*
X106152123Y-121502001D01*
X106092516Y-121508408D01*
X105957671Y-121558702D01*
X105957664Y-121558706D01*
X105842455Y-121644952D01*
X105842452Y-121644955D01*
X105756206Y-121760164D01*
X105756202Y-121760171D01*
X105705908Y-121895017D01*
X105699501Y-121954616D01*
X105699500Y-121954635D01*
X105699500Y-123650370D01*
X100500500Y-123650370D01*
X100500500Y-102482501D01*
X115854532Y-102482501D01*
X115874364Y-102709186D01*
X115874366Y-102709197D01*
X115933258Y-102928988D01*
X115933261Y-102928997D01*
X116029431Y-103135232D01*
X116029432Y-103135234D01*
X116159954Y-103321641D01*
X116320858Y-103482545D01*
X116320861Y-103482547D01*
X116507266Y-103613068D01*
X116713504Y-103709239D01*
X116933308Y-103768135D01*
X117095230Y-103782301D01*
X117159998Y-103787968D01*
X117160000Y-103787968D01*
X117160002Y-103787968D01*
X117216673Y-103783009D01*
X117386692Y-103768135D01*
X117606496Y-103709239D01*
X117812734Y-103613068D01*
X117999139Y-103482547D01*
X118160047Y-103321639D01*
X118290568Y-103135234D01*
X118317618Y-103077224D01*
X118363790Y-103024785D01*
X118430983Y-103005633D01*
X118497865Y-103025848D01*
X118542382Y-103077225D01*
X118569429Y-103135228D01*
X118569432Y-103135234D01*
X118699954Y-103321641D01*
X118860858Y-103482545D01*
X118860861Y-103482547D01*
X119047266Y-103613068D01*
X119253504Y-103709239D01*
X119473308Y-103768135D01*
X119635230Y-103782301D01*
X119699998Y-103787968D01*
X119700000Y-103787968D01*
X119700002Y-103787968D01*
X119756673Y-103783009D01*
X119926692Y-103768135D01*
X120146496Y-103709239D01*
X120352734Y-103613068D01*
X120539139Y-103482547D01*
X120700047Y-103321639D01*
X120830568Y-103135234D01*
X120857618Y-103077224D01*
X120903790Y-103024785D01*
X120970983Y-103005633D01*
X121037865Y-103025848D01*
X121082382Y-103077225D01*
X121109429Y-103135228D01*
X121109432Y-103135234D01*
X121239954Y-103321641D01*
X121400858Y-103482545D01*
X121400861Y-103482547D01*
X121587266Y-103613068D01*
X121793504Y-103709239D01*
X122013308Y-103768135D01*
X122175230Y-103782301D01*
X122239998Y-103787968D01*
X122240000Y-103787968D01*
X122240002Y-103787968D01*
X122296673Y-103783009D01*
X122466692Y-103768135D01*
X122686496Y-103709239D01*
X122892734Y-103613068D01*
X123079139Y-103482547D01*
X123240047Y-103321639D01*
X123370568Y-103135234D01*
X123397618Y-103077224D01*
X123443790Y-103024785D01*
X123510983Y-103005633D01*
X123577865Y-103025848D01*
X123622382Y-103077225D01*
X123649429Y-103135228D01*
X123649432Y-103135234D01*
X123779954Y-103321641D01*
X123940858Y-103482545D01*
X123940861Y-103482547D01*
X124127266Y-103613068D01*
X124333504Y-103709239D01*
X124553308Y-103768135D01*
X124715230Y-103782301D01*
X124779998Y-103787968D01*
X124780000Y-103787968D01*
X124780002Y-103787968D01*
X124836673Y-103783009D01*
X125006692Y-103768135D01*
X125226496Y-103709239D01*
X125432734Y-103613068D01*
X125619139Y-103482547D01*
X125780047Y-103321639D01*
X125910568Y-103135234D01*
X125937618Y-103077224D01*
X125983790Y-103024785D01*
X126050983Y-103005633D01*
X126117865Y-103025848D01*
X126162382Y-103077225D01*
X126189429Y-103135228D01*
X126189432Y-103135234D01*
X126319954Y-103321641D01*
X126480858Y-103482545D01*
X126480861Y-103482547D01*
X126667266Y-103613068D01*
X126873504Y-103709239D01*
X127093308Y-103768135D01*
X127255230Y-103782301D01*
X127319998Y-103787968D01*
X127320000Y-103787968D01*
X127320002Y-103787968D01*
X127376673Y-103783009D01*
X127546692Y-103768135D01*
X127766496Y-103709239D01*
X127972734Y-103613068D01*
X128159139Y-103482547D01*
X128320047Y-103321639D01*
X128450568Y-103135234D01*
X128477618Y-103077224D01*
X128523790Y-103024785D01*
X128590983Y-103005633D01*
X128657865Y-103025848D01*
X128702382Y-103077225D01*
X128729429Y-103135228D01*
X128729432Y-103135234D01*
X128859954Y-103321641D01*
X129020858Y-103482545D01*
X129020861Y-103482547D01*
X129207266Y-103613068D01*
X129413504Y-103709239D01*
X129633308Y-103768135D01*
X129795230Y-103782301D01*
X129859998Y-103787968D01*
X129860000Y-103787968D01*
X129860002Y-103787968D01*
X129916673Y-103783009D01*
X130086692Y-103768135D01*
X130306496Y-103709239D01*
X130512734Y-103613068D01*
X130699139Y-103482547D01*
X130860047Y-103321639D01*
X130990568Y-103135234D01*
X131017618Y-103077224D01*
X131063790Y-103024785D01*
X131130983Y-103005633D01*
X131197865Y-103025848D01*
X131242382Y-103077225D01*
X131269429Y-103135228D01*
X131269432Y-103135234D01*
X131399954Y-103321641D01*
X131560858Y-103482545D01*
X131560861Y-103482547D01*
X131747266Y-103613068D01*
X131953504Y-103709239D01*
X132173308Y-103768135D01*
X132335230Y-103782301D01*
X132399998Y-103787968D01*
X132400000Y-103787968D01*
X132400002Y-103787968D01*
X132456673Y-103783009D01*
X132626692Y-103768135D01*
X132846496Y-103709239D01*
X133052734Y-103613068D01*
X133239139Y-103482547D01*
X133400047Y-103321639D01*
X133530568Y-103135234D01*
X133557618Y-103077224D01*
X133603790Y-103024785D01*
X133670983Y-103005633D01*
X133737865Y-103025848D01*
X133782382Y-103077225D01*
X133809429Y-103135228D01*
X133809432Y-103135234D01*
X133939954Y-103321641D01*
X134100858Y-103482545D01*
X134100861Y-103482547D01*
X134287266Y-103613068D01*
X134493504Y-103709239D01*
X134713308Y-103768135D01*
X134875230Y-103782301D01*
X134939998Y-103787968D01*
X134940000Y-103787968D01*
X134940002Y-103787968D01*
X134996673Y-103783009D01*
X135166692Y-103768135D01*
X135386496Y-103709239D01*
X135592734Y-103613068D01*
X135779139Y-103482547D01*
X135940047Y-103321639D01*
X136070568Y-103135234D01*
X136097618Y-103077224D01*
X136143790Y-103024785D01*
X136210983Y-103005633D01*
X136277865Y-103025848D01*
X136322382Y-103077225D01*
X136349429Y-103135228D01*
X136349432Y-103135234D01*
X136479954Y-103321641D01*
X136640858Y-103482545D01*
X136640861Y-103482547D01*
X136827266Y-103613068D01*
X137033504Y-103709239D01*
X137253308Y-103768135D01*
X137415230Y-103782301D01*
X137479998Y-103787968D01*
X137480000Y-103787968D01*
X137480002Y-103787968D01*
X137536673Y-103783009D01*
X137706692Y-103768135D01*
X137926496Y-103709239D01*
X138132734Y-103613068D01*
X138319139Y-103482547D01*
X138480047Y-103321639D01*
X138610568Y-103135234D01*
X138637618Y-103077224D01*
X138683790Y-103024785D01*
X138750983Y-103005633D01*
X138817865Y-103025848D01*
X138862382Y-103077225D01*
X138889429Y-103135228D01*
X138889432Y-103135234D01*
X139019954Y-103321641D01*
X139180858Y-103482545D01*
X139180861Y-103482547D01*
X139367266Y-103613068D01*
X139573504Y-103709239D01*
X139793308Y-103768135D01*
X139955230Y-103782301D01*
X140019998Y-103787968D01*
X140020000Y-103787968D01*
X140020002Y-103787968D01*
X140076673Y-103783009D01*
X140246692Y-103768135D01*
X140466496Y-103709239D01*
X140672734Y-103613068D01*
X140859139Y-103482547D01*
X141020047Y-103321639D01*
X141150568Y-103135234D01*
X141177618Y-103077224D01*
X141223790Y-103024785D01*
X141290983Y-103005633D01*
X141357865Y-103025848D01*
X141402382Y-103077225D01*
X141429429Y-103135228D01*
X141429432Y-103135234D01*
X141559954Y-103321641D01*
X141720858Y-103482545D01*
X141720861Y-103482547D01*
X141907266Y-103613068D01*
X142113504Y-103709239D01*
X142333308Y-103768135D01*
X142495230Y-103782301D01*
X142559998Y-103787968D01*
X142560000Y-103787968D01*
X142560002Y-103787968D01*
X142616673Y-103783009D01*
X142786692Y-103768135D01*
X143006496Y-103709239D01*
X143212734Y-103613068D01*
X143399139Y-103482547D01*
X143560047Y-103321639D01*
X143690568Y-103135234D01*
X143717618Y-103077224D01*
X143763790Y-103024785D01*
X143830983Y-103005633D01*
X143897865Y-103025848D01*
X143942382Y-103077225D01*
X143969429Y-103135228D01*
X143969432Y-103135234D01*
X144099954Y-103321641D01*
X144260858Y-103482545D01*
X144260861Y-103482547D01*
X144447266Y-103613068D01*
X144653504Y-103709239D01*
X144873308Y-103768135D01*
X145035230Y-103782301D01*
X145099998Y-103787968D01*
X145100000Y-103787968D01*
X145100002Y-103787968D01*
X145156673Y-103783009D01*
X145326692Y-103768135D01*
X145546496Y-103709239D01*
X145752734Y-103613068D01*
X145939139Y-103482547D01*
X146100047Y-103321639D01*
X146230568Y-103135234D01*
X146326739Y-102928996D01*
X146385635Y-102709192D01*
X146405468Y-102482500D01*
X146385635Y-102255808D01*
X146326739Y-102036004D01*
X146230568Y-101829766D01*
X146100047Y-101643361D01*
X146100045Y-101643358D01*
X145939141Y-101482454D01*
X145752734Y-101351932D01*
X145752732Y-101351931D01*
X145546497Y-101255761D01*
X145546488Y-101255758D01*
X145326697Y-101196866D01*
X145326693Y-101196865D01*
X145326692Y-101196865D01*
X145326691Y-101196864D01*
X145326686Y-101196864D01*
X145100002Y-101177032D01*
X145099998Y-101177032D01*
X144873313Y-101196864D01*
X144873302Y-101196866D01*
X144653511Y-101255758D01*
X144653502Y-101255761D01*
X144447267Y-101351931D01*
X144447265Y-101351932D01*
X144260858Y-101482454D01*
X144099954Y-101643358D01*
X143969432Y-101829765D01*
X143969431Y-101829767D01*
X143942382Y-101887775D01*
X143896209Y-101940214D01*
X143829016Y-101959366D01*
X143762135Y-101939150D01*
X143717618Y-101887775D01*
X143690568Y-101829767D01*
X143690567Y-101829765D01*
X143560045Y-101643358D01*
X143399141Y-101482454D01*
X143212734Y-101351932D01*
X143212732Y-101351931D01*
X143006497Y-101255761D01*
X143006488Y-101255758D01*
X142786697Y-101196866D01*
X142786693Y-101196865D01*
X142786692Y-101196865D01*
X142786691Y-101196864D01*
X142786686Y-101196864D01*
X142560002Y-101177032D01*
X142559998Y-101177032D01*
X142333313Y-101196864D01*
X142333302Y-101196866D01*
X142113511Y-101255758D01*
X142113502Y-101255761D01*
X141907267Y-101351931D01*
X141907265Y-101351932D01*
X141720858Y-101482454D01*
X141559954Y-101643358D01*
X141429432Y-101829765D01*
X141429431Y-101829767D01*
X141402382Y-101887775D01*
X141356209Y-101940214D01*
X141289016Y-101959366D01*
X141222135Y-101939150D01*
X141177618Y-101887775D01*
X141150568Y-101829767D01*
X141150567Y-101829765D01*
X141020045Y-101643358D01*
X140859141Y-101482454D01*
X140672734Y-101351932D01*
X140672732Y-101351931D01*
X140466497Y-101255761D01*
X140466488Y-101255758D01*
X140246697Y-101196866D01*
X140246693Y-101196865D01*
X140246692Y-101196865D01*
X140246691Y-101196864D01*
X140246686Y-101196864D01*
X140020002Y-101177032D01*
X140019998Y-101177032D01*
X139793313Y-101196864D01*
X139793302Y-101196866D01*
X139573511Y-101255758D01*
X139573502Y-101255761D01*
X139367267Y-101351931D01*
X139367265Y-101351932D01*
X139180858Y-101482454D01*
X139019954Y-101643358D01*
X138889432Y-101829765D01*
X138889431Y-101829767D01*
X138862382Y-101887775D01*
X138816209Y-101940214D01*
X138749016Y-101959366D01*
X138682135Y-101939150D01*
X138637618Y-101887775D01*
X138610568Y-101829767D01*
X138610567Y-101829765D01*
X138480045Y-101643358D01*
X138319141Y-101482454D01*
X138132734Y-101351932D01*
X138132732Y-101351931D01*
X137926497Y-101255761D01*
X137926488Y-101255758D01*
X137706697Y-101196866D01*
X137706693Y-101196865D01*
X137706692Y-101196865D01*
X137706691Y-101196864D01*
X137706686Y-101196864D01*
X137480002Y-101177032D01*
X137479998Y-101177032D01*
X137253313Y-101196864D01*
X137253302Y-101196866D01*
X137033511Y-101255758D01*
X137033502Y-101255761D01*
X136827267Y-101351931D01*
X136827265Y-101351932D01*
X136640858Y-101482454D01*
X136479954Y-101643358D01*
X136349432Y-101829765D01*
X136349431Y-101829767D01*
X136322382Y-101887775D01*
X136276209Y-101940214D01*
X136209016Y-101959366D01*
X136142135Y-101939150D01*
X136097618Y-101887775D01*
X136070568Y-101829767D01*
X136070567Y-101829765D01*
X135940045Y-101643358D01*
X135779141Y-101482454D01*
X135592734Y-101351932D01*
X135592732Y-101351931D01*
X135386497Y-101255761D01*
X135386488Y-101255758D01*
X135166697Y-101196866D01*
X135166693Y-101196865D01*
X135166692Y-101196865D01*
X135166691Y-101196864D01*
X135166686Y-101196864D01*
X134940002Y-101177032D01*
X134939998Y-101177032D01*
X134713313Y-101196864D01*
X134713302Y-101196866D01*
X134493511Y-101255758D01*
X134493502Y-101255761D01*
X134287267Y-101351931D01*
X134287265Y-101351932D01*
X134100858Y-101482454D01*
X133939954Y-101643358D01*
X133809432Y-101829765D01*
X133809431Y-101829767D01*
X133782382Y-101887775D01*
X133736209Y-101940214D01*
X133669016Y-101959366D01*
X133602135Y-101939150D01*
X133557618Y-101887775D01*
X133530568Y-101829767D01*
X133530567Y-101829765D01*
X133400045Y-101643358D01*
X133239141Y-101482454D01*
X133052734Y-101351932D01*
X133052732Y-101351931D01*
X132846497Y-101255761D01*
X132846488Y-101255758D01*
X132626697Y-101196866D01*
X132626693Y-101196865D01*
X132626692Y-101196865D01*
X132626691Y-101196864D01*
X132626686Y-101196864D01*
X132400002Y-101177032D01*
X132399998Y-101177032D01*
X132173313Y-101196864D01*
X132173302Y-101196866D01*
X131953511Y-101255758D01*
X131953502Y-101255761D01*
X131747267Y-101351931D01*
X131747265Y-101351932D01*
X131560858Y-101482454D01*
X131399954Y-101643358D01*
X131269432Y-101829765D01*
X131269431Y-101829767D01*
X131242382Y-101887775D01*
X131196209Y-101940214D01*
X131129016Y-101959366D01*
X131062135Y-101939150D01*
X131017618Y-101887775D01*
X130990568Y-101829767D01*
X130990567Y-101829765D01*
X130860045Y-101643358D01*
X130699141Y-101482454D01*
X130512734Y-101351932D01*
X130512732Y-101351931D01*
X130306497Y-101255761D01*
X130306488Y-101255758D01*
X130086697Y-101196866D01*
X130086693Y-101196865D01*
X130086692Y-101196865D01*
X130086691Y-101196864D01*
X130086686Y-101196864D01*
X129860002Y-101177032D01*
X129859998Y-101177032D01*
X129633313Y-101196864D01*
X129633302Y-101196866D01*
X129413511Y-101255758D01*
X129413502Y-101255761D01*
X129207267Y-101351931D01*
X129207265Y-101351932D01*
X129020858Y-101482454D01*
X128859954Y-101643358D01*
X128729432Y-101829765D01*
X128729431Y-101829767D01*
X128702382Y-101887775D01*
X128656209Y-101940214D01*
X128589016Y-101959366D01*
X128522135Y-101939150D01*
X128477618Y-101887775D01*
X128450568Y-101829767D01*
X128450567Y-101829765D01*
X128320045Y-101643358D01*
X128159141Y-101482454D01*
X127972734Y-101351932D01*
X127972732Y-101351931D01*
X127766497Y-101255761D01*
X127766488Y-101255758D01*
X127546697Y-101196866D01*
X127546693Y-101196865D01*
X127546692Y-101196865D01*
X127546691Y-101196864D01*
X127546686Y-101196864D01*
X127320002Y-101177032D01*
X127319998Y-101177032D01*
X127093313Y-101196864D01*
X127093302Y-101196866D01*
X126873511Y-101255758D01*
X126873502Y-101255761D01*
X126667267Y-101351931D01*
X126667265Y-101351932D01*
X126480858Y-101482454D01*
X126319954Y-101643358D01*
X126189432Y-101829765D01*
X126189431Y-101829767D01*
X126162382Y-101887775D01*
X126116209Y-101940214D01*
X126049016Y-101959366D01*
X125982135Y-101939150D01*
X125937618Y-101887775D01*
X125910568Y-101829767D01*
X125910567Y-101829765D01*
X125780045Y-101643358D01*
X125619141Y-101482454D01*
X125432734Y-101351932D01*
X125432732Y-101351931D01*
X125226497Y-101255761D01*
X125226488Y-101255758D01*
X125006697Y-101196866D01*
X125006693Y-101196865D01*
X125006692Y-101196865D01*
X125006691Y-101196864D01*
X125006686Y-101196864D01*
X124780002Y-101177032D01*
X124779998Y-101177032D01*
X124553313Y-101196864D01*
X124553302Y-101196866D01*
X124333511Y-101255758D01*
X124333502Y-101255761D01*
X124127267Y-101351931D01*
X124127265Y-101351932D01*
X123985622Y-101451111D01*
X123919415Y-101473438D01*
X123851648Y-101456427D01*
X123803836Y-101405479D01*
X123790499Y-101349536D01*
X123790499Y-98804316D01*
X125863053Y-98804316D01*
X125863054Y-98804322D01*
X125869461Y-98863929D01*
X125919755Y-98998774D01*
X125919759Y-98998781D01*
X126006005Y-99113990D01*
X126006008Y-99113993D01*
X126121217Y-99200239D01*
X126121224Y-99200243D01*
X126256070Y-99250537D01*
X126256069Y-99250537D01*
X126262997Y-99251281D01*
X126315680Y-99256946D01*
X128011425Y-99256945D01*
X128071036Y-99250537D01*
X128205884Y-99200242D01*
X128321099Y-99113992D01*
X128407349Y-98998777D01*
X128457644Y-98863929D01*
X128461415Y-98828847D01*
X128488152Y-98764301D01*
X128545543Y-98724452D01*
X128615369Y-98721957D01*
X128675458Y-98757609D01*
X128686279Y-98770982D01*
X128703509Y-98795589D01*
X128864411Y-98956491D01*
X128864414Y-98956493D01*
X129050819Y-99087014D01*
X129257057Y-99183185D01*
X129476861Y-99242081D01*
X129638783Y-99256247D01*
X129703551Y-99261914D01*
X129703553Y-99261914D01*
X129703555Y-99261914D01*
X129760360Y-99256944D01*
X129930245Y-99242081D01*
X130150049Y-99183185D01*
X130356287Y-99087014D01*
X130542692Y-98956493D01*
X130703600Y-98795585D01*
X130834121Y-98609180D01*
X130861171Y-98551170D01*
X130907343Y-98498731D01*
X130974536Y-98479579D01*
X131041418Y-98499794D01*
X131085935Y-98551171D01*
X131112982Y-98609174D01*
X131112985Y-98609180D01*
X131243507Y-98795587D01*
X131404411Y-98956491D01*
X131404414Y-98956493D01*
X131590819Y-99087014D01*
X131797057Y-99183185D01*
X132016861Y-99242081D01*
X132178783Y-99256247D01*
X132243551Y-99261914D01*
X132243553Y-99261914D01*
X132243555Y-99261914D01*
X132300360Y-99256944D01*
X132470245Y-99242081D01*
X132690049Y-99183185D01*
X132896287Y-99087014D01*
X133082692Y-98956493D01*
X133243600Y-98795585D01*
X133374121Y-98609180D01*
X133401171Y-98551170D01*
X133447343Y-98498731D01*
X133514536Y-98479579D01*
X133581418Y-98499794D01*
X133625935Y-98551171D01*
X133652982Y-98609174D01*
X133652985Y-98609180D01*
X133783507Y-98795587D01*
X133944411Y-98956491D01*
X133944414Y-98956493D01*
X134130819Y-99087014D01*
X134337057Y-99183185D01*
X134556861Y-99242081D01*
X134718783Y-99256247D01*
X134783551Y-99261914D01*
X134783553Y-99261914D01*
X134783555Y-99261914D01*
X134840360Y-99256944D01*
X135010245Y-99242081D01*
X135230049Y-99183185D01*
X135436287Y-99087014D01*
X135622692Y-98956493D01*
X135783600Y-98795585D01*
X135914121Y-98609180D01*
X135941171Y-98551170D01*
X135987343Y-98498731D01*
X136054536Y-98479579D01*
X136121418Y-98499794D01*
X136165935Y-98551171D01*
X136192982Y-98609174D01*
X136192985Y-98609180D01*
X136323507Y-98795587D01*
X136484411Y-98956491D01*
X136484414Y-98956493D01*
X136670819Y-99087014D01*
X136877057Y-99183185D01*
X137096861Y-99242081D01*
X137258783Y-99256247D01*
X137323551Y-99261914D01*
X137323553Y-99261914D01*
X137323555Y-99261914D01*
X137380360Y-99256944D01*
X137550245Y-99242081D01*
X137770049Y-99183185D01*
X137976287Y-99087014D01*
X138162692Y-98956493D01*
X138323600Y-98795585D01*
X138454121Y-98609180D01*
X138481171Y-98551170D01*
X138527343Y-98498731D01*
X138594536Y-98479579D01*
X138661418Y-98499794D01*
X138705935Y-98551171D01*
X138732982Y-98609174D01*
X138732985Y-98609180D01*
X138863507Y-98795587D01*
X139024411Y-98956491D01*
X139024414Y-98956493D01*
X139210819Y-99087014D01*
X139417057Y-99183185D01*
X139636861Y-99242081D01*
X139798783Y-99256247D01*
X139863551Y-99261914D01*
X139863553Y-99261914D01*
X139863555Y-99261914D01*
X139920360Y-99256944D01*
X140090245Y-99242081D01*
X140310049Y-99183185D01*
X140516287Y-99087014D01*
X140702692Y-98956493D01*
X140863600Y-98795585D01*
X140994121Y-98609180D01*
X141021171Y-98551170D01*
X141067343Y-98498731D01*
X141134536Y-98479579D01*
X141201418Y-98499794D01*
X141245935Y-98551171D01*
X141272982Y-98609174D01*
X141272985Y-98609180D01*
X141403507Y-98795587D01*
X141564411Y-98956491D01*
X141564414Y-98956493D01*
X141750819Y-99087014D01*
X141957057Y-99183185D01*
X142176861Y-99242081D01*
X142338783Y-99256247D01*
X142403551Y-99261914D01*
X142403553Y-99261914D01*
X142403555Y-99261914D01*
X142460360Y-99256944D01*
X142630245Y-99242081D01*
X142850049Y-99183185D01*
X143056287Y-99087014D01*
X143242692Y-98956493D01*
X143403600Y-98795585D01*
X143534121Y-98609180D01*
X143561448Y-98550575D01*
X143607617Y-98498141D01*
X143674810Y-98478988D01*
X143741692Y-98499203D01*
X143786210Y-98550579D01*
X143813418Y-98608928D01*
X143943895Y-98795266D01*
X144104732Y-98956103D01*
X144291070Y-99086580D01*
X144497226Y-99182711D01*
X144497235Y-99182715D01*
X144693552Y-99235318D01*
X144693553Y-99235317D01*
X144693553Y-98272132D01*
X144705508Y-98284087D01*
X144818405Y-98341611D01*
X144912072Y-98356446D01*
X144975034Y-98356446D01*
X145068701Y-98341611D01*
X145181598Y-98284087D01*
X145193553Y-98272132D01*
X145193553Y-99235318D01*
X145389870Y-99182715D01*
X145389879Y-99182711D01*
X145596035Y-99086580D01*
X145782373Y-98956103D01*
X145943210Y-98795266D01*
X146073687Y-98608928D01*
X146169818Y-98402772D01*
X146169822Y-98402763D01*
X146222425Y-98206446D01*
X145259239Y-98206446D01*
X145271194Y-98194491D01*
X145328718Y-98081594D01*
X145348539Y-97956446D01*
X145328718Y-97831298D01*
X145271194Y-97718401D01*
X145259239Y-97706446D01*
X146222425Y-97706446D01*
X146222425Y-97706445D01*
X146169822Y-97510128D01*
X146169818Y-97510119D01*
X146073687Y-97303963D01*
X145943210Y-97117625D01*
X145782373Y-96956788D01*
X145596035Y-96826311D01*
X145389881Y-96730180D01*
X145193553Y-96677573D01*
X145193553Y-97640760D01*
X145181598Y-97628805D01*
X145068701Y-97571281D01*
X144975034Y-97556446D01*
X144912072Y-97556446D01*
X144818405Y-97571281D01*
X144705508Y-97628805D01*
X144693553Y-97640760D01*
X144693553Y-96677573D01*
X144497224Y-96730180D01*
X144291070Y-96826311D01*
X144104732Y-96956788D01*
X143943895Y-97117625D01*
X143813420Y-97303961D01*
X143786210Y-97362313D01*
X143740037Y-97414752D01*
X143672843Y-97433903D01*
X143605962Y-97413687D01*
X143561446Y-97362311D01*
X143534123Y-97303717D01*
X143534120Y-97303711D01*
X143403598Y-97117304D01*
X143242694Y-96956400D01*
X143056287Y-96825878D01*
X143056285Y-96825877D01*
X142850050Y-96729707D01*
X142850041Y-96729704D01*
X142630250Y-96670812D01*
X142630246Y-96670811D01*
X142630245Y-96670811D01*
X142630244Y-96670810D01*
X142630239Y-96670810D01*
X142403555Y-96650978D01*
X142403551Y-96650978D01*
X142176866Y-96670810D01*
X142176855Y-96670812D01*
X141957064Y-96729704D01*
X141957055Y-96729707D01*
X141750820Y-96825877D01*
X141750818Y-96825878D01*
X141564411Y-96956400D01*
X141403507Y-97117304D01*
X141272985Y-97303711D01*
X141272984Y-97303713D01*
X141245935Y-97361721D01*
X141199762Y-97414160D01*
X141132569Y-97433312D01*
X141065688Y-97413096D01*
X141021171Y-97361721D01*
X140994121Y-97303713D01*
X140994120Y-97303711D01*
X140863598Y-97117304D01*
X140702694Y-96956400D01*
X140516287Y-96825878D01*
X140516285Y-96825877D01*
X140310050Y-96729707D01*
X140310041Y-96729704D01*
X140090250Y-96670812D01*
X140090246Y-96670811D01*
X140090245Y-96670811D01*
X140090244Y-96670810D01*
X140090239Y-96670810D01*
X139863555Y-96650978D01*
X139863551Y-96650978D01*
X139636866Y-96670810D01*
X139636855Y-96670812D01*
X139417064Y-96729704D01*
X139417055Y-96729707D01*
X139210820Y-96825877D01*
X139210818Y-96825878D01*
X139024411Y-96956400D01*
X138863507Y-97117304D01*
X138732985Y-97303711D01*
X138732984Y-97303713D01*
X138705935Y-97361721D01*
X138659762Y-97414160D01*
X138592569Y-97433312D01*
X138525688Y-97413096D01*
X138481171Y-97361721D01*
X138454121Y-97303713D01*
X138454120Y-97303711D01*
X138323598Y-97117304D01*
X138162694Y-96956400D01*
X137976287Y-96825878D01*
X137976285Y-96825877D01*
X137770050Y-96729707D01*
X137770041Y-96729704D01*
X137550250Y-96670812D01*
X137550246Y-96670811D01*
X137550245Y-96670811D01*
X137550244Y-96670810D01*
X137550239Y-96670810D01*
X137323555Y-96650978D01*
X137323551Y-96650978D01*
X137096866Y-96670810D01*
X137096855Y-96670812D01*
X136877064Y-96729704D01*
X136877055Y-96729707D01*
X136670820Y-96825877D01*
X136670818Y-96825878D01*
X136484411Y-96956400D01*
X136323507Y-97117304D01*
X136192985Y-97303711D01*
X136192984Y-97303713D01*
X136165935Y-97361721D01*
X136119762Y-97414160D01*
X136052569Y-97433312D01*
X135985688Y-97413096D01*
X135941171Y-97361721D01*
X135914121Y-97303713D01*
X135914120Y-97303711D01*
X135783598Y-97117304D01*
X135622694Y-96956400D01*
X135436287Y-96825878D01*
X135436285Y-96825877D01*
X135230050Y-96729707D01*
X135230041Y-96729704D01*
X135010250Y-96670812D01*
X135010246Y-96670811D01*
X135010245Y-96670811D01*
X135010244Y-96670810D01*
X135010239Y-96670810D01*
X134783555Y-96650978D01*
X134783551Y-96650978D01*
X134556866Y-96670810D01*
X134556855Y-96670812D01*
X134337064Y-96729704D01*
X134337055Y-96729707D01*
X134130820Y-96825877D01*
X134130818Y-96825878D01*
X133944411Y-96956400D01*
X133783507Y-97117304D01*
X133652985Y-97303711D01*
X133652984Y-97303713D01*
X133625935Y-97361721D01*
X133579762Y-97414160D01*
X133512569Y-97433312D01*
X133445688Y-97413096D01*
X133401171Y-97361721D01*
X133374121Y-97303713D01*
X133374120Y-97303711D01*
X133243598Y-97117304D01*
X133082694Y-96956400D01*
X132896287Y-96825878D01*
X132896285Y-96825877D01*
X132690050Y-96729707D01*
X132690041Y-96729704D01*
X132470250Y-96670812D01*
X132470246Y-96670811D01*
X132470245Y-96670811D01*
X132470244Y-96670810D01*
X132470239Y-96670810D01*
X132243555Y-96650978D01*
X132243551Y-96650978D01*
X132016866Y-96670810D01*
X132016855Y-96670812D01*
X131797064Y-96729704D01*
X131797055Y-96729707D01*
X131590820Y-96825877D01*
X131590818Y-96825878D01*
X131404411Y-96956400D01*
X131243507Y-97117304D01*
X131112985Y-97303711D01*
X131112984Y-97303713D01*
X131085935Y-97361721D01*
X131039762Y-97414160D01*
X130972569Y-97433312D01*
X130905688Y-97413096D01*
X130861171Y-97361721D01*
X130834121Y-97303713D01*
X130834120Y-97303711D01*
X130703598Y-97117304D01*
X130542694Y-96956400D01*
X130356287Y-96825878D01*
X130356285Y-96825877D01*
X130150050Y-96729707D01*
X130150041Y-96729704D01*
X129930250Y-96670812D01*
X129930246Y-96670811D01*
X129930245Y-96670811D01*
X129930244Y-96670810D01*
X129930239Y-96670810D01*
X129703555Y-96650978D01*
X129703551Y-96650978D01*
X129476866Y-96670810D01*
X129476855Y-96670812D01*
X129257064Y-96729704D01*
X129257055Y-96729707D01*
X129050820Y-96825877D01*
X129050818Y-96825878D01*
X128864411Y-96956400D01*
X128703507Y-97117304D01*
X128686278Y-97141910D01*
X128631700Y-97185534D01*
X128562201Y-97192726D01*
X128499847Y-97161203D01*
X128464435Y-97100972D01*
X128461414Y-97084037D01*
X128457644Y-97048962D01*
X128407350Y-96914117D01*
X128407346Y-96914110D01*
X128321100Y-96798901D01*
X128321097Y-96798898D01*
X128205888Y-96712652D01*
X128205881Y-96712648D01*
X128071035Y-96662354D01*
X128071036Y-96662354D01*
X128011436Y-96655947D01*
X128011434Y-96655946D01*
X128011426Y-96655946D01*
X128011417Y-96655946D01*
X126315682Y-96655946D01*
X126315676Y-96655947D01*
X126256069Y-96662354D01*
X126121224Y-96712648D01*
X126121217Y-96712652D01*
X126006008Y-96798898D01*
X126006005Y-96798901D01*
X125919759Y-96914110D01*
X125919755Y-96914117D01*
X125869461Y-97048963D01*
X125863054Y-97108562D01*
X125863053Y-97108581D01*
X125863053Y-98804316D01*
X123790499Y-98804316D01*
X123790499Y-92836447D01*
X147108085Y-92836447D01*
X147127917Y-93063132D01*
X147127919Y-93063143D01*
X147186811Y-93282934D01*
X147186814Y-93282943D01*
X147282984Y-93489178D01*
X147282985Y-93489180D01*
X147413507Y-93675587D01*
X147574411Y-93836491D01*
X147574414Y-93836493D01*
X147760819Y-93967014D01*
X147776528Y-93974339D01*
X147828967Y-94020510D01*
X147848120Y-94087703D01*
X147827905Y-94154584D01*
X147776532Y-94199102D01*
X147761067Y-94206313D01*
X147761065Y-94206314D01*
X147688079Y-94257419D01*
X147688079Y-94257420D01*
X148369152Y-94938492D01*
X148288405Y-94951281D01*
X148175508Y-95008805D01*
X148085912Y-95098401D01*
X148028388Y-95211298D01*
X148015599Y-95292044D01*
X147334527Y-94610972D01*
X147334526Y-94610972D01*
X147283421Y-94683958D01*
X147283419Y-94683962D01*
X147187287Y-94890119D01*
X147187283Y-94890128D01*
X147128413Y-95109835D01*
X147128411Y-95109846D01*
X147108587Y-95336443D01*
X147108587Y-95336448D01*
X147128411Y-95563045D01*
X147128413Y-95563056D01*
X147187283Y-95782763D01*
X147187288Y-95782777D01*
X147283416Y-95988924D01*
X147334527Y-96061918D01*
X148015599Y-95380846D01*
X148028388Y-95461594D01*
X148085912Y-95574491D01*
X148175508Y-95664087D01*
X148288405Y-95721611D01*
X148369152Y-95734399D01*
X147688079Y-96415471D01*
X147761066Y-96466578D01*
X147761074Y-96466582D01*
X147967221Y-96562710D01*
X147967235Y-96562715D01*
X148186942Y-96621585D01*
X148186953Y-96621587D01*
X148413551Y-96641412D01*
X148413555Y-96641412D01*
X148640152Y-96621587D01*
X148640163Y-96621585D01*
X148859870Y-96562715D01*
X148859884Y-96562710D01*
X149066031Y-96466582D01*
X149139024Y-96415470D01*
X148457953Y-95734399D01*
X148538701Y-95721611D01*
X148651598Y-95664087D01*
X148741194Y-95574491D01*
X148798718Y-95461594D01*
X148811506Y-95380846D01*
X149492577Y-96061917D01*
X149543689Y-95988924D01*
X149639817Y-95782777D01*
X149639822Y-95782763D01*
X149698692Y-95563056D01*
X149698694Y-95563045D01*
X149718519Y-95336448D01*
X149718519Y-95336443D01*
X149698694Y-95109846D01*
X149698692Y-95109835D01*
X149639822Y-94890128D01*
X149639817Y-94890114D01*
X149543689Y-94683967D01*
X149543685Y-94683959D01*
X149492578Y-94610972D01*
X148811506Y-95292044D01*
X148798718Y-95211298D01*
X148741194Y-95098401D01*
X148651598Y-95008805D01*
X148538701Y-94951281D01*
X148457954Y-94938492D01*
X149139025Y-94257420D01*
X149066033Y-94206310D01*
X149050577Y-94199103D01*
X148998138Y-94152930D01*
X148978986Y-94085736D01*
X148999202Y-94018855D01*
X149050576Y-93974339D01*
X149066287Y-93967014D01*
X149252692Y-93836493D01*
X149413600Y-93675585D01*
X149544121Y-93489180D01*
X149640292Y-93282942D01*
X149699188Y-93063138D01*
X149719021Y-92836446D01*
X149699188Y-92609754D01*
X149640292Y-92389950D01*
X149544121Y-92183712D01*
X149413600Y-91997307D01*
X149413598Y-91997304D01*
X149252694Y-91836400D01*
X149066287Y-91705878D01*
X149066285Y-91705877D01*
X148860050Y-91609707D01*
X148860041Y-91609704D01*
X148640250Y-91550812D01*
X148640246Y-91550811D01*
X148640245Y-91550811D01*
X148640244Y-91550810D01*
X148640239Y-91550810D01*
X148413555Y-91530978D01*
X148413551Y-91530978D01*
X148186866Y-91550810D01*
X148186855Y-91550812D01*
X147967064Y-91609704D01*
X147967055Y-91609707D01*
X147760820Y-91705877D01*
X147760818Y-91705878D01*
X147574411Y-91836400D01*
X147413507Y-91997304D01*
X147282985Y-92183711D01*
X147282984Y-92183713D01*
X147186814Y-92389948D01*
X147186811Y-92389957D01*
X147127919Y-92609748D01*
X147127917Y-92609759D01*
X147108085Y-92836444D01*
X147108085Y-92836447D01*
X123790499Y-92836447D01*
X123790499Y-91433704D01*
X123791808Y-91415734D01*
X123792222Y-91412904D01*
X123795288Y-91391976D01*
X123790970Y-91342631D01*
X123790499Y-91331825D01*
X123790499Y-91326295D01*
X123790499Y-91326290D01*
X123786893Y-91295442D01*
X123786533Y-91291915D01*
X123784905Y-91273308D01*
X123779997Y-91217202D01*
X123779996Y-91217200D01*
X123778537Y-91210134D01*
X123778597Y-91210121D01*
X123776964Y-91202756D01*
X123776905Y-91202771D01*
X123775240Y-91195750D01*
X123775240Y-91195744D01*
X123749568Y-91125210D01*
X123748421Y-91121912D01*
X123724813Y-91050664D01*
X123724808Y-91050657D01*
X123721760Y-91044117D01*
X123721814Y-91044091D01*
X123718532Y-91037311D01*
X123718479Y-91037339D01*
X123715237Y-91030884D01*
X123694214Y-90998920D01*
X123674025Y-90968224D01*
X123672106Y-90965211D01*
X123632713Y-90901346D01*
X123628233Y-90895680D01*
X123628279Y-90895642D01*
X123623518Y-90889798D01*
X123623473Y-90889837D01*
X123618830Y-90884304D01*
X123564289Y-90832847D01*
X123561702Y-90830334D01*
X122372869Y-89641501D01*
X122339384Y-89580178D01*
X122337022Y-89543012D01*
X122337668Y-89535635D01*
X122355659Y-89330000D01*
X122337022Y-89116985D01*
X122350788Y-89048486D01*
X122372866Y-89018500D01*
X124854548Y-86536819D01*
X124915871Y-86503334D01*
X124942229Y-86500500D01*
X135535019Y-86500500D01*
X135602058Y-86520185D01*
X135647813Y-86572989D01*
X135658377Y-86611899D01*
X135660000Y-86627796D01*
X135660001Y-86627799D01*
X135713750Y-86790000D01*
X135715186Y-86794334D01*
X135807288Y-86943656D01*
X135931344Y-87067712D01*
X136080666Y-87159814D01*
X136247203Y-87214999D01*
X136349991Y-87225500D01*
X137362769Y-87225499D01*
X137429808Y-87245183D01*
X137450450Y-87261818D01*
X138674267Y-88485634D01*
X138686048Y-88499266D01*
X138700390Y-88518530D01*
X138738343Y-88550376D01*
X138746319Y-88557686D01*
X138750220Y-88561588D01*
X138774543Y-88580820D01*
X138777304Y-88583069D01*
X138814302Y-88614114D01*
X138834789Y-88631305D01*
X138840818Y-88635270D01*
X138840785Y-88635319D01*
X138847143Y-88639369D01*
X138847175Y-88639319D01*
X138853317Y-88643107D01*
X138853319Y-88643108D01*
X138853323Y-88643111D01*
X138921315Y-88674816D01*
X138924560Y-88676388D01*
X138964583Y-88696488D01*
X138991567Y-88710040D01*
X138991569Y-88710040D01*
X138998361Y-88712513D01*
X138998340Y-88712570D01*
X139005455Y-88715043D01*
X139005475Y-88714986D01*
X139012323Y-88717254D01*
X139012328Y-88717257D01*
X139085852Y-88732437D01*
X139089286Y-88733199D01*
X139134563Y-88743931D01*
X139162274Y-88750499D01*
X139162275Y-88750499D01*
X139162279Y-88750500D01*
X139162283Y-88750500D01*
X139169452Y-88751338D01*
X139169444Y-88751397D01*
X139176945Y-88752164D01*
X139176951Y-88752105D01*
X139184140Y-88752734D01*
X139184144Y-88752733D01*
X139184145Y-88752734D01*
X139259131Y-88750552D01*
X139262738Y-88750500D01*
X142244877Y-88750500D01*
X142311916Y-88770185D01*
X142332558Y-88786819D01*
X142374753Y-88829014D01*
X142408238Y-88890337D01*
X142403254Y-88960029D01*
X142361382Y-89015962D01*
X142297880Y-89040223D01*
X142176865Y-89050810D01*
X142176855Y-89050812D01*
X141957064Y-89109704D01*
X141957055Y-89109707D01*
X141750820Y-89205877D01*
X141750818Y-89205878D01*
X141564411Y-89336400D01*
X141403507Y-89497304D01*
X141272985Y-89683711D01*
X141272984Y-89683713D01*
X141245935Y-89741721D01*
X141199762Y-89794160D01*
X141132569Y-89813312D01*
X141065688Y-89793096D01*
X141021171Y-89741721D01*
X140994121Y-89683713D01*
X140994120Y-89683711D01*
X140863598Y-89497304D01*
X140702694Y-89336400D01*
X140516287Y-89205878D01*
X140516285Y-89205877D01*
X140310050Y-89109707D01*
X140310041Y-89109704D01*
X140090250Y-89050812D01*
X140090246Y-89050811D01*
X140090245Y-89050811D01*
X140090244Y-89050810D01*
X140090239Y-89050810D01*
X139863555Y-89030978D01*
X139863551Y-89030978D01*
X139636866Y-89050810D01*
X139636855Y-89050812D01*
X139417064Y-89109704D01*
X139417055Y-89109707D01*
X139210820Y-89205877D01*
X139210818Y-89205878D01*
X139024411Y-89336400D01*
X138863507Y-89497304D01*
X138732985Y-89683711D01*
X138732984Y-89683713D01*
X138705935Y-89741721D01*
X138659762Y-89794160D01*
X138592569Y-89813312D01*
X138525688Y-89793096D01*
X138481171Y-89741721D01*
X138454121Y-89683713D01*
X138454120Y-89683711D01*
X138323598Y-89497304D01*
X138162694Y-89336400D01*
X137976287Y-89205878D01*
X137976285Y-89205877D01*
X137770050Y-89109707D01*
X137770041Y-89109704D01*
X137550250Y-89050812D01*
X137550246Y-89050811D01*
X137550245Y-89050811D01*
X137550244Y-89050810D01*
X137550239Y-89050810D01*
X137323555Y-89030978D01*
X137323551Y-89030978D01*
X137096866Y-89050810D01*
X137096855Y-89050812D01*
X136877064Y-89109704D01*
X136877055Y-89109707D01*
X136670820Y-89205877D01*
X136670818Y-89205878D01*
X136484411Y-89336400D01*
X136323507Y-89497304D01*
X136192985Y-89683711D01*
X136192984Y-89683713D01*
X136165935Y-89741721D01*
X136119762Y-89794160D01*
X136052569Y-89813312D01*
X135985688Y-89793096D01*
X135941171Y-89741721D01*
X135914121Y-89683713D01*
X135914120Y-89683711D01*
X135783598Y-89497304D01*
X135622694Y-89336400D01*
X135436287Y-89205878D01*
X135436285Y-89205877D01*
X135230050Y-89109707D01*
X135230041Y-89109704D01*
X135010250Y-89050812D01*
X135010246Y-89050811D01*
X135010245Y-89050811D01*
X135010244Y-89050810D01*
X135010239Y-89050810D01*
X134783555Y-89030978D01*
X134783551Y-89030978D01*
X134556866Y-89050810D01*
X134556855Y-89050812D01*
X134337064Y-89109704D01*
X134337055Y-89109707D01*
X134130820Y-89205877D01*
X134130818Y-89205878D01*
X133944411Y-89336400D01*
X133783507Y-89497304D01*
X133652985Y-89683711D01*
X133652984Y-89683713D01*
X133625935Y-89741721D01*
X133579762Y-89794160D01*
X133512569Y-89813312D01*
X133445688Y-89793096D01*
X133401171Y-89741721D01*
X133374121Y-89683713D01*
X133374120Y-89683711D01*
X133243598Y-89497304D01*
X133082694Y-89336400D01*
X132896287Y-89205878D01*
X132896285Y-89205877D01*
X132690050Y-89109707D01*
X132690041Y-89109704D01*
X132470250Y-89050812D01*
X132470246Y-89050811D01*
X132470245Y-89050811D01*
X132470244Y-89050810D01*
X132470239Y-89050810D01*
X132243555Y-89030978D01*
X132243551Y-89030978D01*
X132016866Y-89050810D01*
X132016855Y-89050812D01*
X131797064Y-89109704D01*
X131797055Y-89109707D01*
X131590820Y-89205877D01*
X131590818Y-89205878D01*
X131404411Y-89336400D01*
X131243507Y-89497304D01*
X131112985Y-89683711D01*
X131112984Y-89683713D01*
X131085935Y-89741721D01*
X131039762Y-89794160D01*
X130972569Y-89813312D01*
X130905688Y-89793096D01*
X130861171Y-89741721D01*
X130834121Y-89683713D01*
X130834120Y-89683711D01*
X130703598Y-89497304D01*
X130542694Y-89336400D01*
X130356287Y-89205878D01*
X130356285Y-89205877D01*
X130150050Y-89109707D01*
X130150041Y-89109704D01*
X129930250Y-89050812D01*
X129930246Y-89050811D01*
X129930245Y-89050811D01*
X129930244Y-89050810D01*
X129930239Y-89050810D01*
X129703555Y-89030978D01*
X129703551Y-89030978D01*
X129476866Y-89050810D01*
X129476855Y-89050812D01*
X129257064Y-89109704D01*
X129257055Y-89109707D01*
X129050820Y-89205877D01*
X129050818Y-89205878D01*
X128864411Y-89336400D01*
X128703507Y-89497304D01*
X128572985Y-89683711D01*
X128572984Y-89683713D01*
X128545935Y-89741721D01*
X128499762Y-89794160D01*
X128432569Y-89813312D01*
X128365688Y-89793096D01*
X128321171Y-89741721D01*
X128294121Y-89683713D01*
X128294120Y-89683711D01*
X128163598Y-89497304D01*
X128002694Y-89336400D01*
X127816287Y-89205878D01*
X127816285Y-89205877D01*
X127610050Y-89109707D01*
X127610041Y-89109704D01*
X127390250Y-89050812D01*
X127390246Y-89050811D01*
X127390245Y-89050811D01*
X127390244Y-89050810D01*
X127390239Y-89050810D01*
X127163555Y-89030978D01*
X127163551Y-89030978D01*
X126936866Y-89050810D01*
X126936855Y-89050812D01*
X126717064Y-89109704D01*
X126717055Y-89109707D01*
X126510820Y-89205877D01*
X126510818Y-89205878D01*
X126324411Y-89336400D01*
X126163507Y-89497304D01*
X126032985Y-89683711D01*
X126032984Y-89683713D01*
X125936814Y-89889948D01*
X125936811Y-89889957D01*
X125877919Y-90109748D01*
X125877917Y-90109759D01*
X125858085Y-90336444D01*
X125858085Y-90336447D01*
X125877917Y-90563132D01*
X125877919Y-90563143D01*
X125936811Y-90782934D01*
X125936814Y-90782943D01*
X126032984Y-90989178D01*
X126032985Y-90989180D01*
X126163507Y-91175587D01*
X126324411Y-91336491D01*
X126324414Y-91336493D01*
X126510819Y-91467014D01*
X126717057Y-91563185D01*
X126936861Y-91622081D01*
X127098783Y-91636247D01*
X127163551Y-91641914D01*
X127163553Y-91641914D01*
X127163555Y-91641914D01*
X127220226Y-91636955D01*
X127390245Y-91622081D01*
X127610049Y-91563185D01*
X127816287Y-91467014D01*
X128002692Y-91336493D01*
X128163600Y-91175585D01*
X128294121Y-90989180D01*
X128321171Y-90931170D01*
X128367343Y-90878731D01*
X128434536Y-90859579D01*
X128501418Y-90879794D01*
X128545935Y-90931171D01*
X128572982Y-90989174D01*
X128572985Y-90989180D01*
X128703507Y-91175587D01*
X128864411Y-91336491D01*
X128864414Y-91336493D01*
X129050819Y-91467014D01*
X129257057Y-91563185D01*
X129476861Y-91622081D01*
X129638783Y-91636247D01*
X129703551Y-91641914D01*
X129703553Y-91641914D01*
X129703555Y-91641914D01*
X129760226Y-91636955D01*
X129930245Y-91622081D01*
X130150049Y-91563185D01*
X130356287Y-91467014D01*
X130542692Y-91336493D01*
X130703600Y-91175585D01*
X130834121Y-90989180D01*
X130861171Y-90931170D01*
X130907343Y-90878731D01*
X130974536Y-90859579D01*
X131041418Y-90879794D01*
X131085935Y-90931171D01*
X131112982Y-90989174D01*
X131112985Y-90989180D01*
X131243507Y-91175587D01*
X131404411Y-91336491D01*
X131404414Y-91336493D01*
X131590819Y-91467014D01*
X131797057Y-91563185D01*
X132016861Y-91622081D01*
X132178783Y-91636247D01*
X132243551Y-91641914D01*
X132243553Y-91641914D01*
X132243555Y-91641914D01*
X132300226Y-91636955D01*
X132470245Y-91622081D01*
X132690049Y-91563185D01*
X132896287Y-91467014D01*
X133082692Y-91336493D01*
X133243600Y-91175585D01*
X133374121Y-90989180D01*
X133401171Y-90931170D01*
X133447343Y-90878731D01*
X133514536Y-90859579D01*
X133581418Y-90879794D01*
X133625935Y-90931171D01*
X133652982Y-90989174D01*
X133652985Y-90989180D01*
X133783507Y-91175587D01*
X133944411Y-91336491D01*
X133944414Y-91336493D01*
X134130819Y-91467014D01*
X134337057Y-91563185D01*
X134556861Y-91622081D01*
X134718783Y-91636247D01*
X134783551Y-91641914D01*
X134783553Y-91641914D01*
X134783555Y-91641914D01*
X134840226Y-91636955D01*
X135010245Y-91622081D01*
X135230049Y-91563185D01*
X135436287Y-91467014D01*
X135622692Y-91336493D01*
X135783600Y-91175585D01*
X135914121Y-90989180D01*
X135941171Y-90931170D01*
X135987343Y-90878731D01*
X136054536Y-90859579D01*
X136121418Y-90879794D01*
X136165935Y-90931171D01*
X136192982Y-90989174D01*
X136192985Y-90989180D01*
X136323507Y-91175587D01*
X136484411Y-91336491D01*
X136484414Y-91336493D01*
X136670819Y-91467014D01*
X136877057Y-91563185D01*
X137096861Y-91622081D01*
X137258783Y-91636247D01*
X137323551Y-91641914D01*
X137323553Y-91641914D01*
X137323555Y-91641914D01*
X137380226Y-91636955D01*
X137550245Y-91622081D01*
X137770049Y-91563185D01*
X137976287Y-91467014D01*
X138162692Y-91336493D01*
X138323600Y-91175585D01*
X138454121Y-90989180D01*
X138481171Y-90931170D01*
X138527343Y-90878731D01*
X138594536Y-90859579D01*
X138661418Y-90879794D01*
X138705935Y-90931171D01*
X138732982Y-90989174D01*
X138732985Y-90989180D01*
X138863507Y-91175587D01*
X139024411Y-91336491D01*
X139024414Y-91336493D01*
X139210819Y-91467014D01*
X139417057Y-91563185D01*
X139636861Y-91622081D01*
X139798783Y-91636247D01*
X139863551Y-91641914D01*
X139863553Y-91641914D01*
X139863555Y-91641914D01*
X139920226Y-91636955D01*
X140090245Y-91622081D01*
X140310049Y-91563185D01*
X140516287Y-91467014D01*
X140702692Y-91336493D01*
X140863600Y-91175585D01*
X140994121Y-90989180D01*
X141021171Y-90931170D01*
X141067343Y-90878731D01*
X141134536Y-90859579D01*
X141201418Y-90879794D01*
X141245935Y-90931171D01*
X141272982Y-90989174D01*
X141272985Y-90989180D01*
X141403507Y-91175587D01*
X141564411Y-91336491D01*
X141564414Y-91336493D01*
X141750819Y-91467014D01*
X141957057Y-91563185D01*
X142176861Y-91622081D01*
X142338783Y-91636247D01*
X142403551Y-91641914D01*
X142403553Y-91641914D01*
X142403555Y-91641914D01*
X142460226Y-91636955D01*
X142630245Y-91622081D01*
X142850049Y-91563185D01*
X143056287Y-91467014D01*
X143242692Y-91336493D01*
X143403600Y-91175585D01*
X143534121Y-90989180D01*
X143561171Y-90931170D01*
X143607343Y-90878731D01*
X143674536Y-90859579D01*
X143741418Y-90879794D01*
X143785935Y-90931171D01*
X143812982Y-90989174D01*
X143812985Y-90989180D01*
X143943507Y-91175587D01*
X144104411Y-91336491D01*
X144104414Y-91336493D01*
X144290819Y-91467014D01*
X144497057Y-91563185D01*
X144716861Y-91622081D01*
X144878783Y-91636247D01*
X144943551Y-91641914D01*
X144943553Y-91641914D01*
X144943555Y-91641914D01*
X145000226Y-91636955D01*
X145170245Y-91622081D01*
X145390049Y-91563185D01*
X145596287Y-91467014D01*
X145782692Y-91336493D01*
X145943600Y-91175585D01*
X146074121Y-90989180D01*
X146170292Y-90782942D01*
X146229188Y-90563138D01*
X146249021Y-90336446D01*
X146229188Y-90109754D01*
X146170292Y-89889950D01*
X146074121Y-89683712D01*
X145943600Y-89497307D01*
X145943598Y-89497304D01*
X145782694Y-89336400D01*
X145596287Y-89205878D01*
X145596285Y-89205877D01*
X145390050Y-89109707D01*
X145390041Y-89109704D01*
X145170250Y-89050812D01*
X145170246Y-89050811D01*
X145170245Y-89050811D01*
X145170244Y-89050810D01*
X145170239Y-89050810D01*
X144943555Y-89030978D01*
X144943550Y-89030978D01*
X144776690Y-89045575D01*
X144708190Y-89031808D01*
X144678203Y-89009728D01*
X143182836Y-87514361D01*
X143171056Y-87500730D01*
X143156717Y-87481470D01*
X143118758Y-87449619D01*
X143110793Y-87442318D01*
X143106887Y-87438411D01*
X143082550Y-87419168D01*
X143079754Y-87416890D01*
X143022321Y-87368698D01*
X143016287Y-87364729D01*
X143016319Y-87364680D01*
X143009960Y-87360628D01*
X143009929Y-87360679D01*
X143003787Y-87356891D01*
X143003785Y-87356890D01*
X143003784Y-87356889D01*
X142935795Y-87325184D01*
X142932554Y-87323615D01*
X142901637Y-87308088D01*
X142865540Y-87289960D01*
X142865538Y-87289959D01*
X142865537Y-87289959D01*
X142858752Y-87287489D01*
X142858772Y-87287433D01*
X142851656Y-87284959D01*
X142851638Y-87285015D01*
X142844781Y-87282743D01*
X142771317Y-87267573D01*
X142767802Y-87266794D01*
X142742414Y-87260777D01*
X142737130Y-87259525D01*
X142676437Y-87224913D01*
X142644091Y-87162982D01*
X142650362Y-87093394D01*
X142693259Y-87038244D01*
X142694600Y-87037292D01*
X142855307Y-86924764D01*
X142871401Y-86913495D01*
X143038495Y-86746401D01*
X143148426Y-86589401D01*
X143203001Y-86545778D01*
X143272500Y-86538584D01*
X143334855Y-86570106D01*
X143351571Y-86589398D01*
X143422144Y-86690187D01*
X143461506Y-86746403D01*
X143628597Y-86913493D01*
X143628599Y-86913495D01*
X143701249Y-86964365D01*
X143822165Y-87049032D01*
X143822167Y-87049033D01*
X143822170Y-87049035D01*
X144036337Y-87148903D01*
X144264592Y-87210063D01*
X144441034Y-87225500D01*
X144499999Y-87230659D01*
X144500000Y-87230659D01*
X144500001Y-87230659D01*
X144558966Y-87225500D01*
X144735408Y-87210063D01*
X144963663Y-87148903D01*
X145177829Y-87049035D01*
X145371401Y-86913495D01*
X145538495Y-86746401D01*
X145648426Y-86589401D01*
X145703001Y-86545778D01*
X145772500Y-86538584D01*
X145834855Y-86570106D01*
X145851571Y-86589398D01*
X145922144Y-86690187D01*
X145961506Y-86746403D01*
X146128597Y-86913493D01*
X146128599Y-86913495D01*
X146201249Y-86964365D01*
X146322165Y-87049032D01*
X146322167Y-87049033D01*
X146322170Y-87049035D01*
X146536337Y-87148903D01*
X146764592Y-87210063D01*
X146941034Y-87225500D01*
X146999999Y-87230659D01*
X147000000Y-87230659D01*
X147000001Y-87230659D01*
X147058966Y-87225500D01*
X147235408Y-87210063D01*
X147463663Y-87148903D01*
X147677829Y-87049035D01*
X147871401Y-86913495D01*
X148038495Y-86746401D01*
X148174035Y-86552829D01*
X148273903Y-86338663D01*
X148335063Y-86110408D01*
X148350500Y-85933966D01*
X148350500Y-85566034D01*
X148335063Y-85389592D01*
X148273903Y-85161337D01*
X148174035Y-84947171D01*
X148161936Y-84929891D01*
X148038494Y-84753597D01*
X147871402Y-84586506D01*
X147871395Y-84586501D01*
X147677834Y-84450967D01*
X147677830Y-84450965D01*
X147637777Y-84432288D01*
X147463663Y-84351097D01*
X147463659Y-84351096D01*
X147463655Y-84351094D01*
X147235413Y-84289938D01*
X147235403Y-84289936D01*
X147000001Y-84269341D01*
X146999999Y-84269341D01*
X146764596Y-84289936D01*
X146764586Y-84289938D01*
X146536344Y-84351094D01*
X146536335Y-84351098D01*
X146322171Y-84450964D01*
X146322169Y-84450965D01*
X146128597Y-84586505D01*
X145961505Y-84753597D01*
X145851575Y-84910595D01*
X145796998Y-84954220D01*
X145727500Y-84961414D01*
X145665145Y-84929891D01*
X145648425Y-84910595D01*
X145538494Y-84753597D01*
X145371402Y-84586506D01*
X145371395Y-84586501D01*
X145177834Y-84450967D01*
X145177830Y-84450965D01*
X145137777Y-84432288D01*
X144963663Y-84351097D01*
X144963659Y-84351096D01*
X144963655Y-84351094D01*
X144735413Y-84289938D01*
X144735403Y-84289936D01*
X144500001Y-84269341D01*
X144499999Y-84269341D01*
X144264596Y-84289936D01*
X144264586Y-84289938D01*
X144036344Y-84351094D01*
X144036335Y-84351098D01*
X143822171Y-84450964D01*
X143822169Y-84450965D01*
X143628597Y-84586505D01*
X143461505Y-84753597D01*
X143351575Y-84910595D01*
X143296998Y-84954220D01*
X143227500Y-84961414D01*
X143165145Y-84929891D01*
X143148425Y-84910595D01*
X143038494Y-84753597D01*
X142871402Y-84586506D01*
X142871395Y-84586501D01*
X142677834Y-84450967D01*
X142677830Y-84450965D01*
X142637777Y-84432288D01*
X142463663Y-84351097D01*
X142463659Y-84351096D01*
X142463655Y-84351094D01*
X142235413Y-84289938D01*
X142235403Y-84289936D01*
X142000001Y-84269341D01*
X141999999Y-84269341D01*
X141764596Y-84289936D01*
X141764586Y-84289938D01*
X141536344Y-84351094D01*
X141536335Y-84351098D01*
X141322171Y-84450964D01*
X141322169Y-84450965D01*
X141128597Y-84586505D01*
X140961505Y-84753597D01*
X140851575Y-84910595D01*
X140796998Y-84954220D01*
X140727500Y-84961414D01*
X140665145Y-84929891D01*
X140648425Y-84910595D01*
X140538494Y-84753597D01*
X140371402Y-84586506D01*
X140371395Y-84586501D01*
X140177834Y-84450967D01*
X140177830Y-84450965D01*
X140137777Y-84432288D01*
X139963663Y-84351097D01*
X139963659Y-84351096D01*
X139963655Y-84351094D01*
X139735413Y-84289938D01*
X139735403Y-84289936D01*
X139500001Y-84269341D01*
X139499999Y-84269341D01*
X139264596Y-84289936D01*
X139264586Y-84289938D01*
X139036344Y-84351094D01*
X139036335Y-84351098D01*
X138822171Y-84450964D01*
X138822169Y-84450965D01*
X138628597Y-84586505D01*
X138481398Y-84733705D01*
X138420075Y-84767190D01*
X138350383Y-84762206D01*
X138294450Y-84720334D01*
X138288178Y-84711120D01*
X138192712Y-84556344D01*
X138068657Y-84432289D01*
X138068656Y-84432288D01*
X137975888Y-84375069D01*
X137919336Y-84340187D01*
X137919331Y-84340185D01*
X137917862Y-84339698D01*
X137752797Y-84285001D01*
X137752795Y-84285000D01*
X137650016Y-84274500D01*
X137650009Y-84274500D01*
X136637230Y-84274500D01*
X136570191Y-84254815D01*
X136549549Y-84238181D01*
X135536819Y-83225451D01*
X135503334Y-83164128D01*
X135500500Y-83137770D01*
X135500500Y-77210006D01*
X135844700Y-77210006D01*
X135863864Y-77441297D01*
X135863866Y-77441308D01*
X135920842Y-77666300D01*
X136014075Y-77878848D01*
X136141016Y-78073147D01*
X136141019Y-78073151D01*
X136141021Y-78073153D01*
X136235803Y-78176114D01*
X136266724Y-78238767D01*
X136258864Y-78308193D01*
X136214716Y-78362348D01*
X136187906Y-78376277D01*
X136107669Y-78406203D01*
X136107664Y-78406206D01*
X135992455Y-78492452D01*
X135992452Y-78492455D01*
X135906206Y-78607664D01*
X135906202Y-78607671D01*
X135855908Y-78742517D01*
X135849501Y-78802116D01*
X135849501Y-78802123D01*
X135849500Y-78802135D01*
X135849500Y-80697870D01*
X135849501Y-80697876D01*
X135855908Y-80757483D01*
X135906202Y-80892328D01*
X135906206Y-80892335D01*
X135992452Y-81007544D01*
X135992455Y-81007547D01*
X136107664Y-81093793D01*
X136107671Y-81093797D01*
X136242517Y-81144091D01*
X136242516Y-81144091D01*
X136249444Y-81144835D01*
X136302127Y-81150500D01*
X138197872Y-81150499D01*
X138257483Y-81144091D01*
X138392331Y-81093796D01*
X138507546Y-81007546D01*
X138593796Y-80892331D01*
X138644091Y-80757483D01*
X138650500Y-80697873D01*
X138650499Y-78802128D01*
X138644091Y-78742517D01*
X138617936Y-78672393D01*
X138593797Y-78607671D01*
X138593793Y-78607664D01*
X138507547Y-78492455D01*
X138507544Y-78492452D01*
X138392335Y-78406206D01*
X138392328Y-78406202D01*
X138312094Y-78376277D01*
X138256160Y-78334406D01*
X138231743Y-78268941D01*
X138246595Y-78200668D01*
X138264190Y-78176121D01*
X138358979Y-78073153D01*
X138485924Y-77878849D01*
X138579157Y-77666300D01*
X138636134Y-77441305D01*
X138655300Y-77210006D01*
X141094700Y-77210006D01*
X141113864Y-77441297D01*
X141113866Y-77441308D01*
X141170842Y-77666300D01*
X141264075Y-77878848D01*
X141391016Y-78073147D01*
X141391019Y-78073151D01*
X141391021Y-78073153D01*
X141485803Y-78176114D01*
X141516724Y-78238767D01*
X141508864Y-78308193D01*
X141464716Y-78362348D01*
X141437906Y-78376277D01*
X141357669Y-78406203D01*
X141357664Y-78406206D01*
X141242455Y-78492452D01*
X141242452Y-78492455D01*
X141156206Y-78607664D01*
X141156202Y-78607671D01*
X141105908Y-78742517D01*
X141099501Y-78802116D01*
X141099501Y-78802123D01*
X141099500Y-78802135D01*
X141099500Y-80697870D01*
X141099501Y-80697876D01*
X141105908Y-80757483D01*
X141156202Y-80892328D01*
X141156206Y-80892335D01*
X141242452Y-81007544D01*
X141242455Y-81007547D01*
X141357664Y-81093793D01*
X141357671Y-81093797D01*
X141492517Y-81144091D01*
X141492516Y-81144091D01*
X141499444Y-81144835D01*
X141552127Y-81150500D01*
X143447872Y-81150499D01*
X143507483Y-81144091D01*
X143642331Y-81093796D01*
X143757546Y-81007546D01*
X143843796Y-80892331D01*
X143894091Y-80757483D01*
X143900500Y-80697873D01*
X143900499Y-78802128D01*
X143894091Y-78742517D01*
X143867936Y-78672393D01*
X143843797Y-78607671D01*
X143843793Y-78607664D01*
X143757547Y-78492455D01*
X143757544Y-78492452D01*
X143642335Y-78406206D01*
X143642328Y-78406202D01*
X143562094Y-78376277D01*
X143506160Y-78334406D01*
X143481743Y-78268941D01*
X143496595Y-78200668D01*
X143514190Y-78176121D01*
X143608979Y-78073153D01*
X143735924Y-77878849D01*
X143829157Y-77666300D01*
X143886134Y-77441305D01*
X143905300Y-77210006D01*
X146344700Y-77210006D01*
X146363864Y-77441297D01*
X146363866Y-77441308D01*
X146420842Y-77666300D01*
X146514075Y-77878848D01*
X146641016Y-78073147D01*
X146641019Y-78073151D01*
X146641021Y-78073153D01*
X146735803Y-78176114D01*
X146766724Y-78238767D01*
X146758864Y-78308193D01*
X146714716Y-78362348D01*
X146687906Y-78376277D01*
X146607669Y-78406203D01*
X146607664Y-78406206D01*
X146492455Y-78492452D01*
X146492452Y-78492455D01*
X146406206Y-78607664D01*
X146406202Y-78607671D01*
X146355908Y-78742517D01*
X146349501Y-78802116D01*
X146349501Y-78802123D01*
X146349500Y-78802135D01*
X146349500Y-80697870D01*
X146349501Y-80697876D01*
X146355908Y-80757483D01*
X146406202Y-80892328D01*
X146406206Y-80892335D01*
X146492452Y-81007544D01*
X146492455Y-81007547D01*
X146607664Y-81093793D01*
X146607671Y-81093797D01*
X146742517Y-81144091D01*
X146742516Y-81144091D01*
X146749444Y-81144835D01*
X146802127Y-81150500D01*
X148697872Y-81150499D01*
X148757483Y-81144091D01*
X148892331Y-81093796D01*
X149007546Y-81007546D01*
X149093796Y-80892331D01*
X149144091Y-80757483D01*
X149150500Y-80697873D01*
X149150499Y-78802128D01*
X149144091Y-78742517D01*
X149117936Y-78672393D01*
X149093797Y-78607671D01*
X149093793Y-78607664D01*
X149007547Y-78492455D01*
X149007544Y-78492452D01*
X148892335Y-78406206D01*
X148892328Y-78406202D01*
X148812094Y-78376277D01*
X148756160Y-78334406D01*
X148731743Y-78268941D01*
X148746595Y-78200668D01*
X148764190Y-78176121D01*
X148858979Y-78073153D01*
X148985924Y-77878849D01*
X149079157Y-77666300D01*
X149136134Y-77441305D01*
X149155300Y-77210000D01*
X149155300Y-77209993D01*
X149136135Y-76978702D01*
X149136133Y-76978691D01*
X149079157Y-76753699D01*
X148985924Y-76541151D01*
X148858983Y-76346852D01*
X148858980Y-76346849D01*
X148858979Y-76346847D01*
X148701784Y-76176087D01*
X148701779Y-76176083D01*
X148701777Y-76176081D01*
X148518634Y-76033535D01*
X148518628Y-76033531D01*
X148314504Y-75923064D01*
X148314495Y-75923061D01*
X148094984Y-75847702D01*
X147923282Y-75819050D01*
X147866049Y-75809500D01*
X147633951Y-75809500D01*
X147588164Y-75817140D01*
X147405015Y-75847702D01*
X147185504Y-75923061D01*
X147185495Y-75923064D01*
X146981371Y-76033531D01*
X146981365Y-76033535D01*
X146798222Y-76176081D01*
X146798219Y-76176084D01*
X146641016Y-76346852D01*
X146514075Y-76541151D01*
X146420842Y-76753699D01*
X146363866Y-76978691D01*
X146363864Y-76978702D01*
X146344700Y-77209993D01*
X146344700Y-77210006D01*
X143905300Y-77210006D01*
X143905300Y-77210000D01*
X143905300Y-77209993D01*
X143886135Y-76978702D01*
X143886133Y-76978691D01*
X143829157Y-76753699D01*
X143735924Y-76541151D01*
X143608983Y-76346852D01*
X143608980Y-76346849D01*
X143608979Y-76346847D01*
X143451784Y-76176087D01*
X143451779Y-76176083D01*
X143451777Y-76176081D01*
X143268634Y-76033535D01*
X143268628Y-76033531D01*
X143064504Y-75923064D01*
X143064495Y-75923061D01*
X142844984Y-75847702D01*
X142673282Y-75819050D01*
X142616049Y-75809500D01*
X142383951Y-75809500D01*
X142338164Y-75817140D01*
X142155015Y-75847702D01*
X141935504Y-75923061D01*
X141935495Y-75923064D01*
X141731371Y-76033531D01*
X141731365Y-76033535D01*
X141548222Y-76176081D01*
X141548219Y-76176084D01*
X141391016Y-76346852D01*
X141264075Y-76541151D01*
X141170842Y-76753699D01*
X141113866Y-76978691D01*
X141113864Y-76978702D01*
X141094700Y-77209993D01*
X141094700Y-77210006D01*
X138655300Y-77210006D01*
X138655300Y-77210000D01*
X138655300Y-77209993D01*
X138636135Y-76978702D01*
X138636133Y-76978691D01*
X138579157Y-76753699D01*
X138485924Y-76541151D01*
X138358983Y-76346852D01*
X138358980Y-76346849D01*
X138358979Y-76346847D01*
X138201784Y-76176087D01*
X138201779Y-76176083D01*
X138201777Y-76176081D01*
X138018634Y-76033535D01*
X138018628Y-76033531D01*
X137814504Y-75923064D01*
X137814495Y-75923061D01*
X137594984Y-75847702D01*
X137423282Y-75819050D01*
X137366049Y-75809500D01*
X137133951Y-75809500D01*
X137088164Y-75817140D01*
X136905015Y-75847702D01*
X136685504Y-75923061D01*
X136685495Y-75923064D01*
X136481371Y-76033531D01*
X136481365Y-76033535D01*
X136298222Y-76176081D01*
X136298219Y-76176084D01*
X136141016Y-76346852D01*
X136014075Y-76541151D01*
X135920842Y-76753699D01*
X135863866Y-76978691D01*
X135863864Y-76978702D01*
X135844700Y-77209993D01*
X135844700Y-77210006D01*
X135500500Y-77210006D01*
X135500500Y-73365411D01*
X135520185Y-73298372D01*
X135572989Y-73252617D01*
X135642147Y-73242673D01*
X135705703Y-73271698D01*
X135743477Y-73330476D01*
X135744275Y-73333318D01*
X135773258Y-73441488D01*
X135773261Y-73441497D01*
X135869431Y-73647732D01*
X135869432Y-73647734D01*
X135999954Y-73834141D01*
X136160858Y-73995045D01*
X136160861Y-73995047D01*
X136347266Y-74125568D01*
X136553504Y-74221739D01*
X136553509Y-74221740D01*
X136553511Y-74221741D01*
X136572164Y-74226739D01*
X136773308Y-74280635D01*
X136935230Y-74294801D01*
X136999998Y-74300468D01*
X137000000Y-74300468D01*
X137000002Y-74300468D01*
X137056673Y-74295509D01*
X137226692Y-74280635D01*
X137446496Y-74221739D01*
X137652734Y-74125568D01*
X137839139Y-73995047D01*
X138000047Y-73834139D01*
X138130568Y-73647734D01*
X138226739Y-73441496D01*
X138285635Y-73221692D01*
X138303642Y-73015867D01*
X138305468Y-72995001D01*
X139194532Y-72995001D01*
X139214364Y-73221686D01*
X139214366Y-73221697D01*
X139273258Y-73441488D01*
X139273261Y-73441497D01*
X139369431Y-73647732D01*
X139369432Y-73647734D01*
X139499954Y-73834141D01*
X139660858Y-73995045D01*
X139660861Y-73995047D01*
X139847266Y-74125568D01*
X140053504Y-74221739D01*
X140053509Y-74221740D01*
X140053511Y-74221741D01*
X140072164Y-74226739D01*
X140273308Y-74280635D01*
X140435230Y-74294801D01*
X140499998Y-74300468D01*
X140500000Y-74300468D01*
X140500002Y-74300468D01*
X140556673Y-74295509D01*
X140726692Y-74280635D01*
X140946496Y-74221739D01*
X141152734Y-74125568D01*
X141339139Y-73995047D01*
X141500047Y-73834139D01*
X141630568Y-73647734D01*
X141726739Y-73441496D01*
X141785635Y-73221692D01*
X141803642Y-73015867D01*
X141805468Y-72995001D01*
X142694532Y-72995001D01*
X142714364Y-73221686D01*
X142714366Y-73221697D01*
X142773258Y-73441488D01*
X142773261Y-73441497D01*
X142869431Y-73647732D01*
X142869432Y-73647734D01*
X142999954Y-73834141D01*
X143160858Y-73995045D01*
X143160861Y-73995047D01*
X143347266Y-74125568D01*
X143553504Y-74221739D01*
X143553509Y-74221740D01*
X143553511Y-74221741D01*
X143572164Y-74226739D01*
X143773308Y-74280635D01*
X143935230Y-74294801D01*
X143999998Y-74300468D01*
X144000000Y-74300468D01*
X144000002Y-74300468D01*
X144056673Y-74295509D01*
X144226692Y-74280635D01*
X144446496Y-74221739D01*
X144652734Y-74125568D01*
X144839139Y-73995047D01*
X145000047Y-73834139D01*
X145130568Y-73647734D01*
X145226739Y-73441496D01*
X145285635Y-73221692D01*
X145303642Y-73015867D01*
X145305030Y-73000001D01*
X146194532Y-73000001D01*
X146214364Y-73226686D01*
X146214366Y-73226697D01*
X146273258Y-73446488D01*
X146273261Y-73446497D01*
X146369431Y-73652732D01*
X146369432Y-73652734D01*
X146499954Y-73839141D01*
X146660858Y-74000045D01*
X146660861Y-74000047D01*
X146847266Y-74130568D01*
X147053504Y-74226739D01*
X147273308Y-74285635D01*
X147435230Y-74299801D01*
X147499998Y-74305468D01*
X147500000Y-74305468D01*
X147500002Y-74305468D01*
X147557150Y-74300468D01*
X147726692Y-74285635D01*
X147946496Y-74226739D01*
X148152734Y-74130568D01*
X148339139Y-74000047D01*
X148500047Y-73839139D01*
X148630568Y-73652734D01*
X148726739Y-73446496D01*
X148785635Y-73226692D01*
X148805468Y-73000000D01*
X148805223Y-72997204D01*
X148785635Y-72773313D01*
X148785635Y-72773308D01*
X148726739Y-72553504D01*
X148630568Y-72347266D01*
X148500047Y-72160861D01*
X148500045Y-72160858D01*
X148339141Y-71999954D01*
X148152734Y-71869432D01*
X148152728Y-71869429D01*
X148094725Y-71842382D01*
X148042285Y-71796210D01*
X148023133Y-71729017D01*
X148043348Y-71662135D01*
X148094725Y-71617618D01*
X148152734Y-71590568D01*
X148339139Y-71460047D01*
X148500047Y-71299139D01*
X148630568Y-71112734D01*
X148726739Y-70906496D01*
X148785635Y-70686692D01*
X148805468Y-70460000D01*
X148805030Y-70454998D01*
X148789648Y-70279175D01*
X148785635Y-70233308D01*
X148726739Y-70013504D01*
X148630568Y-69807266D01*
X148500047Y-69620861D01*
X148500045Y-69620858D01*
X148339141Y-69459954D01*
X148152734Y-69329432D01*
X148152732Y-69329431D01*
X147946497Y-69233261D01*
X147946488Y-69233258D01*
X147726697Y-69174366D01*
X147726693Y-69174365D01*
X147726692Y-69174365D01*
X147726691Y-69174364D01*
X147726686Y-69174364D01*
X147500002Y-69154532D01*
X147499998Y-69154532D01*
X147273313Y-69174364D01*
X147273302Y-69174366D01*
X147053511Y-69233258D01*
X147053502Y-69233261D01*
X146847267Y-69329431D01*
X146847265Y-69329432D01*
X146660858Y-69459954D01*
X146499954Y-69620858D01*
X146369432Y-69807265D01*
X146369431Y-69807267D01*
X146273261Y-70013502D01*
X146273258Y-70013511D01*
X146214366Y-70233302D01*
X146214364Y-70233313D01*
X146194532Y-70459998D01*
X146194532Y-70460001D01*
X146214364Y-70686686D01*
X146214366Y-70686697D01*
X146273258Y-70906488D01*
X146273261Y-70906497D01*
X146369431Y-71112732D01*
X146369432Y-71112734D01*
X146499954Y-71299141D01*
X146660858Y-71460045D01*
X146660861Y-71460047D01*
X146847266Y-71590568D01*
X146905275Y-71617618D01*
X146957714Y-71663791D01*
X146976866Y-71730984D01*
X146956650Y-71797865D01*
X146905275Y-71842382D01*
X146847267Y-71869431D01*
X146847265Y-71869432D01*
X146660858Y-71999954D01*
X146499954Y-72160858D01*
X146369432Y-72347265D01*
X146369431Y-72347267D01*
X146273261Y-72553502D01*
X146273258Y-72553511D01*
X146214366Y-72773302D01*
X146214364Y-72773313D01*
X146194532Y-72999998D01*
X146194532Y-73000001D01*
X145305030Y-73000001D01*
X145305468Y-72995001D01*
X145305468Y-72994998D01*
X145291091Y-72830668D01*
X145285635Y-72768308D01*
X145226739Y-72548504D01*
X145130568Y-72342266D01*
X145000047Y-72155861D01*
X145000045Y-72155858D01*
X144839141Y-71994954D01*
X144652734Y-71864432D01*
X144652728Y-71864429D01*
X144594725Y-71837382D01*
X144542285Y-71791210D01*
X144523133Y-71724017D01*
X144543348Y-71657135D01*
X144594725Y-71612618D01*
X144652734Y-71585568D01*
X144839139Y-71455047D01*
X145000047Y-71294139D01*
X145130568Y-71107734D01*
X145226739Y-70901496D01*
X145285635Y-70681692D01*
X145302634Y-70487384D01*
X145305468Y-70455001D01*
X145305468Y-70454998D01*
X145290085Y-70279170D01*
X145285635Y-70228308D01*
X145226739Y-70008504D01*
X145130568Y-69802266D01*
X145000047Y-69615861D01*
X145000045Y-69615858D01*
X144839141Y-69454954D01*
X144652734Y-69324432D01*
X144652732Y-69324431D01*
X144446497Y-69228261D01*
X144446488Y-69228258D01*
X144226697Y-69169366D01*
X144226693Y-69169365D01*
X144226692Y-69169365D01*
X144226691Y-69169364D01*
X144226686Y-69169364D01*
X144000002Y-69149532D01*
X143999998Y-69149532D01*
X143773313Y-69169364D01*
X143773302Y-69169366D01*
X143553511Y-69228258D01*
X143553502Y-69228261D01*
X143347267Y-69324431D01*
X143347265Y-69324432D01*
X143160858Y-69454954D01*
X142999954Y-69615858D01*
X142869432Y-69802265D01*
X142869431Y-69802267D01*
X142773261Y-70008502D01*
X142773258Y-70008511D01*
X142714366Y-70228302D01*
X142714364Y-70228313D01*
X142694532Y-70454998D01*
X142694532Y-70455001D01*
X142714364Y-70681686D01*
X142714366Y-70681697D01*
X142773258Y-70901488D01*
X142773261Y-70901497D01*
X142869431Y-71107732D01*
X142869432Y-71107734D01*
X142999954Y-71294141D01*
X143160858Y-71455045D01*
X143160861Y-71455047D01*
X143347266Y-71585568D01*
X143405275Y-71612618D01*
X143457714Y-71658791D01*
X143476866Y-71725984D01*
X143456650Y-71792865D01*
X143405275Y-71837382D01*
X143347267Y-71864431D01*
X143347265Y-71864432D01*
X143160858Y-71994954D01*
X142999954Y-72155858D01*
X142869432Y-72342265D01*
X142869431Y-72342267D01*
X142773261Y-72548502D01*
X142773258Y-72548511D01*
X142714366Y-72768302D01*
X142714364Y-72768313D01*
X142694532Y-72994998D01*
X142694532Y-72995001D01*
X141805468Y-72995001D01*
X141805468Y-72994998D01*
X141791091Y-72830668D01*
X141785635Y-72768308D01*
X141726739Y-72548504D01*
X141630568Y-72342266D01*
X141500047Y-72155861D01*
X141500045Y-72155858D01*
X141339141Y-71994954D01*
X141152734Y-71864432D01*
X141152728Y-71864429D01*
X141094725Y-71837382D01*
X141042285Y-71791210D01*
X141023133Y-71724017D01*
X141043348Y-71657135D01*
X141094725Y-71612618D01*
X141152734Y-71585568D01*
X141339139Y-71455047D01*
X141500047Y-71294139D01*
X141630568Y-71107734D01*
X141726739Y-70901496D01*
X141785635Y-70681692D01*
X141802634Y-70487384D01*
X141805468Y-70455001D01*
X141805468Y-70454998D01*
X141790085Y-70279170D01*
X141785635Y-70228308D01*
X141726739Y-70008504D01*
X141630568Y-69802266D01*
X141500047Y-69615861D01*
X141500045Y-69615858D01*
X141339141Y-69454954D01*
X141152734Y-69324432D01*
X141152732Y-69324431D01*
X140946497Y-69228261D01*
X140946488Y-69228258D01*
X140726697Y-69169366D01*
X140726693Y-69169365D01*
X140726692Y-69169365D01*
X140726691Y-69169364D01*
X140726686Y-69169364D01*
X140500002Y-69149532D01*
X140499998Y-69149532D01*
X140273313Y-69169364D01*
X140273302Y-69169366D01*
X140053511Y-69228258D01*
X140053502Y-69228261D01*
X139847267Y-69324431D01*
X139847265Y-69324432D01*
X139660858Y-69454954D01*
X139499954Y-69615858D01*
X139369432Y-69802265D01*
X139369431Y-69802267D01*
X139273261Y-70008502D01*
X139273258Y-70008511D01*
X139214366Y-70228302D01*
X139214364Y-70228313D01*
X139194532Y-70454998D01*
X139194532Y-70455001D01*
X139214364Y-70681686D01*
X139214366Y-70681697D01*
X139273258Y-70901488D01*
X139273261Y-70901497D01*
X139369431Y-71107732D01*
X139369432Y-71107734D01*
X139499954Y-71294141D01*
X139660858Y-71455045D01*
X139660861Y-71455047D01*
X139847266Y-71585568D01*
X139905275Y-71612618D01*
X139957714Y-71658791D01*
X139976866Y-71725984D01*
X139956650Y-71792865D01*
X139905275Y-71837382D01*
X139847267Y-71864431D01*
X139847265Y-71864432D01*
X139660858Y-71994954D01*
X139499954Y-72155858D01*
X139369432Y-72342265D01*
X139369431Y-72342267D01*
X139273261Y-72548502D01*
X139273258Y-72548511D01*
X139214366Y-72768302D01*
X139214364Y-72768313D01*
X139194532Y-72994998D01*
X139194532Y-72995001D01*
X138305468Y-72995001D01*
X138305468Y-72994998D01*
X138291091Y-72830668D01*
X138285635Y-72768308D01*
X138226739Y-72548504D01*
X138130568Y-72342266D01*
X138000047Y-72155861D01*
X138000045Y-72155858D01*
X137839141Y-71994954D01*
X137652734Y-71864432D01*
X137652728Y-71864429D01*
X137594725Y-71837382D01*
X137542285Y-71791210D01*
X137523133Y-71724017D01*
X137543348Y-71657135D01*
X137594725Y-71612618D01*
X137652734Y-71585568D01*
X137839139Y-71455047D01*
X138000047Y-71294139D01*
X138130568Y-71107734D01*
X138226739Y-70901496D01*
X138285635Y-70681692D01*
X138302634Y-70487384D01*
X138305468Y-70455001D01*
X138305468Y-70454998D01*
X138290085Y-70279170D01*
X138285635Y-70228308D01*
X138226739Y-70008504D01*
X138130568Y-69802266D01*
X138000047Y-69615861D01*
X138000045Y-69615858D01*
X137839141Y-69454954D01*
X137652734Y-69324432D01*
X137652732Y-69324431D01*
X137446497Y-69228261D01*
X137446488Y-69228258D01*
X137226697Y-69169366D01*
X137226693Y-69169365D01*
X137226692Y-69169365D01*
X137226691Y-69169364D01*
X137226686Y-69169364D01*
X137000002Y-69149532D01*
X136999998Y-69149532D01*
X136773313Y-69169364D01*
X136773302Y-69169366D01*
X136553511Y-69228258D01*
X136553502Y-69228261D01*
X136347267Y-69324431D01*
X136347265Y-69324432D01*
X136160858Y-69454954D01*
X135999954Y-69615858D01*
X135974912Y-69651623D01*
X135920335Y-69695248D01*
X135873337Y-69704500D01*
X122927229Y-69704500D01*
X122860190Y-69684815D01*
X122839548Y-69668181D01*
X119893261Y-66721893D01*
X119859776Y-66660570D01*
X119864760Y-66590878D01*
X119906632Y-66534945D01*
X119970135Y-66510684D01*
X120119975Y-66497575D01*
X120119986Y-66497573D01*
X120333270Y-66440424D01*
X120333284Y-66440419D01*
X120533407Y-66347100D01*
X120533417Y-66347094D01*
X120598188Y-66301741D01*
X119927447Y-65631000D01*
X119931569Y-65631000D01*
X120025421Y-65615339D01*
X120137251Y-65554820D01*
X120223371Y-65461269D01*
X120274448Y-65344823D01*
X120280105Y-65276552D01*
X120951741Y-65948188D01*
X120997094Y-65883417D01*
X120997095Y-65883416D01*
X121057340Y-65754219D01*
X121103512Y-65701780D01*
X121170706Y-65682627D01*
X121237587Y-65702842D01*
X121282105Y-65754218D01*
X121342466Y-65883662D01*
X121342468Y-65883666D01*
X121469170Y-66064615D01*
X121469175Y-66064621D01*
X121625378Y-66220824D01*
X121625384Y-66220829D01*
X121806333Y-66347531D01*
X121806335Y-66347532D01*
X121806338Y-66347534D01*
X122006550Y-66440894D01*
X122219932Y-66498070D01*
X122377123Y-66511822D01*
X122439998Y-66517323D01*
X122440000Y-66517323D01*
X122440002Y-66517323D01*
X122495151Y-66512498D01*
X122660068Y-66498070D01*
X122873450Y-66440894D01*
X123073662Y-66347534D01*
X123254620Y-66220826D01*
X123410826Y-66064620D01*
X123537534Y-65883662D01*
X123597618Y-65754811D01*
X123643790Y-65702371D01*
X123710983Y-65683219D01*
X123777865Y-65703435D01*
X123822382Y-65754811D01*
X123882464Y-65883658D01*
X123882468Y-65883666D01*
X124009170Y-66064615D01*
X124009175Y-66064621D01*
X124165378Y-66220824D01*
X124165384Y-66220829D01*
X124346333Y-66347531D01*
X124346335Y-66347532D01*
X124346338Y-66347534D01*
X124546550Y-66440894D01*
X124759932Y-66498070D01*
X124917123Y-66511822D01*
X124979998Y-66517323D01*
X124980000Y-66517323D01*
X124980002Y-66517323D01*
X125035151Y-66512498D01*
X125200068Y-66498070D01*
X125413450Y-66440894D01*
X125613662Y-66347534D01*
X125794620Y-66220826D01*
X125950826Y-66064620D01*
X126077534Y-65883662D01*
X126137618Y-65754811D01*
X126183790Y-65702371D01*
X126250983Y-65683219D01*
X126317865Y-65703435D01*
X126362382Y-65754811D01*
X126422464Y-65883658D01*
X126422468Y-65883666D01*
X126549170Y-66064615D01*
X126549175Y-66064621D01*
X126705378Y-66220824D01*
X126705384Y-66220829D01*
X126886333Y-66347531D01*
X126886335Y-66347532D01*
X126886338Y-66347534D01*
X127086550Y-66440894D01*
X127299932Y-66498070D01*
X127457123Y-66511822D01*
X127519998Y-66517323D01*
X127520000Y-66517323D01*
X127520002Y-66517323D01*
X127575151Y-66512498D01*
X127740068Y-66498070D01*
X127953450Y-66440894D01*
X128153662Y-66347534D01*
X128334620Y-66220826D01*
X128490826Y-66064620D01*
X128617534Y-65883662D01*
X128677618Y-65754811D01*
X128723790Y-65702371D01*
X128790983Y-65683219D01*
X128857865Y-65703435D01*
X128902382Y-65754811D01*
X128962464Y-65883658D01*
X128962468Y-65883666D01*
X129089170Y-66064615D01*
X129089175Y-66064621D01*
X129245378Y-66220824D01*
X129245384Y-66220829D01*
X129426333Y-66347531D01*
X129426335Y-66347532D01*
X129426338Y-66347534D01*
X129626550Y-66440894D01*
X129839932Y-66498070D01*
X129997123Y-66511822D01*
X130059998Y-66517323D01*
X130060000Y-66517323D01*
X130060002Y-66517323D01*
X130115151Y-66512498D01*
X130280068Y-66498070D01*
X130493450Y-66440894D01*
X130693662Y-66347534D01*
X130874620Y-66220826D01*
X131030826Y-66064620D01*
X131157534Y-65883662D01*
X131217618Y-65754811D01*
X131263790Y-65702371D01*
X131330983Y-65683219D01*
X131397865Y-65703435D01*
X131442382Y-65754811D01*
X131502464Y-65883658D01*
X131502468Y-65883666D01*
X131629170Y-66064615D01*
X131629175Y-66064621D01*
X131785378Y-66220824D01*
X131785384Y-66220829D01*
X131966333Y-66347531D01*
X131966335Y-66347532D01*
X131966338Y-66347534D01*
X132166550Y-66440894D01*
X132379932Y-66498070D01*
X132537123Y-66511822D01*
X132599998Y-66517323D01*
X132600000Y-66517323D01*
X132600002Y-66517323D01*
X132655151Y-66512498D01*
X132820068Y-66498070D01*
X133033450Y-66440894D01*
X133233662Y-66347534D01*
X133414620Y-66220826D01*
X133570826Y-66064620D01*
X133697534Y-65883662D01*
X133757618Y-65754811D01*
X133803790Y-65702371D01*
X133870983Y-65683219D01*
X133937865Y-65703435D01*
X133982382Y-65754811D01*
X134042464Y-65883658D01*
X134042468Y-65883666D01*
X134169170Y-66064615D01*
X134169175Y-66064621D01*
X134325378Y-66220824D01*
X134325384Y-66220829D01*
X134506333Y-66347531D01*
X134506335Y-66347532D01*
X134506338Y-66347534D01*
X134706550Y-66440894D01*
X134919932Y-66498070D01*
X135077123Y-66511822D01*
X135139998Y-66517323D01*
X135140000Y-66517323D01*
X135140002Y-66517323D01*
X135195151Y-66512498D01*
X135360068Y-66498070D01*
X135573450Y-66440894D01*
X135773662Y-66347534D01*
X135954620Y-66220826D01*
X136110826Y-66064620D01*
X136237534Y-65883662D01*
X136330894Y-65683450D01*
X136388070Y-65470068D01*
X136407323Y-65250000D01*
X136404532Y-65218102D01*
X136391274Y-65066554D01*
X136388070Y-65029932D01*
X136330894Y-64816550D01*
X136237534Y-64616339D01*
X136142734Y-64480950D01*
X136110827Y-64435381D01*
X136055962Y-64380516D01*
X135954620Y-64279174D01*
X135954616Y-64279171D01*
X135954615Y-64279170D01*
X135773666Y-64152468D01*
X135773662Y-64152466D01*
X135726457Y-64130454D01*
X135573450Y-64059106D01*
X135573447Y-64059105D01*
X135573445Y-64059104D01*
X135360070Y-64001930D01*
X135360062Y-64001929D01*
X135140002Y-63982677D01*
X135139998Y-63982677D01*
X134919937Y-64001929D01*
X134919929Y-64001930D01*
X134706554Y-64059104D01*
X134706550Y-64059106D01*
X134701506Y-64061458D01*
X134506340Y-64152465D01*
X134506338Y-64152466D01*
X134325377Y-64279175D01*
X134169175Y-64435377D01*
X134042466Y-64616338D01*
X134042465Y-64616340D01*
X133982382Y-64745189D01*
X133936209Y-64797628D01*
X133869016Y-64816780D01*
X133802135Y-64796564D01*
X133757618Y-64745189D01*
X133729727Y-64685377D01*
X133697534Y-64616339D01*
X133602734Y-64480950D01*
X133570827Y-64435381D01*
X133515962Y-64380516D01*
X133414620Y-64279174D01*
X133414616Y-64279171D01*
X133414615Y-64279170D01*
X133233666Y-64152468D01*
X133233662Y-64152466D01*
X133186457Y-64130454D01*
X133033450Y-64059106D01*
X133033447Y-64059105D01*
X133033445Y-64059104D01*
X132820070Y-64001930D01*
X132820062Y-64001929D01*
X132600002Y-63982677D01*
X132599998Y-63982677D01*
X132379937Y-64001929D01*
X132379929Y-64001930D01*
X132166554Y-64059104D01*
X132166550Y-64059106D01*
X132161506Y-64061458D01*
X131966340Y-64152465D01*
X131966338Y-64152466D01*
X131785377Y-64279175D01*
X131629175Y-64435377D01*
X131502466Y-64616338D01*
X131502465Y-64616340D01*
X131442382Y-64745189D01*
X131396209Y-64797628D01*
X131329016Y-64816780D01*
X131262135Y-64796564D01*
X131217618Y-64745189D01*
X131189727Y-64685377D01*
X131157534Y-64616339D01*
X131062734Y-64480950D01*
X131030827Y-64435381D01*
X130975962Y-64380516D01*
X130874620Y-64279174D01*
X130874616Y-64279171D01*
X130874615Y-64279170D01*
X130693666Y-64152468D01*
X130693662Y-64152466D01*
X130646457Y-64130454D01*
X130493450Y-64059106D01*
X130493447Y-64059105D01*
X130493445Y-64059104D01*
X130280070Y-64001930D01*
X130280062Y-64001929D01*
X130060002Y-63982677D01*
X130059998Y-63982677D01*
X129839937Y-64001929D01*
X129839929Y-64001930D01*
X129626554Y-64059104D01*
X129626550Y-64059106D01*
X129621506Y-64061458D01*
X129426340Y-64152465D01*
X129426338Y-64152466D01*
X129245377Y-64279175D01*
X129089175Y-64435377D01*
X128962466Y-64616338D01*
X128962465Y-64616340D01*
X128902382Y-64745189D01*
X128856209Y-64797628D01*
X128789016Y-64816780D01*
X128722135Y-64796564D01*
X128677618Y-64745189D01*
X128649727Y-64685377D01*
X128617534Y-64616339D01*
X128522734Y-64480950D01*
X128490827Y-64435381D01*
X128435962Y-64380516D01*
X128334620Y-64279174D01*
X128334616Y-64279171D01*
X128334615Y-64279170D01*
X128153666Y-64152468D01*
X128153662Y-64152466D01*
X128106457Y-64130454D01*
X127953450Y-64059106D01*
X127953447Y-64059105D01*
X127953445Y-64059104D01*
X127740070Y-64001930D01*
X127740062Y-64001929D01*
X127520002Y-63982677D01*
X127519998Y-63982677D01*
X127299937Y-64001929D01*
X127299929Y-64001930D01*
X127086554Y-64059104D01*
X127086550Y-64059106D01*
X127081506Y-64061458D01*
X126886340Y-64152465D01*
X126886338Y-64152466D01*
X126705377Y-64279175D01*
X126549175Y-64435377D01*
X126422466Y-64616338D01*
X126422465Y-64616340D01*
X126362382Y-64745189D01*
X126316209Y-64797628D01*
X126249016Y-64816780D01*
X126182135Y-64796564D01*
X126137618Y-64745189D01*
X126109727Y-64685377D01*
X126077534Y-64616339D01*
X125982734Y-64480950D01*
X125950827Y-64435381D01*
X125895962Y-64380516D01*
X125794620Y-64279174D01*
X125794616Y-64279171D01*
X125794615Y-64279170D01*
X125613666Y-64152468D01*
X125613662Y-64152466D01*
X125566457Y-64130454D01*
X125413450Y-64059106D01*
X125413447Y-64059105D01*
X125413445Y-64059104D01*
X125200070Y-64001930D01*
X125200062Y-64001929D01*
X124980002Y-63982677D01*
X124979998Y-63982677D01*
X124759937Y-64001929D01*
X124759929Y-64001930D01*
X124546554Y-64059104D01*
X124546550Y-64059106D01*
X124541506Y-64061458D01*
X124346340Y-64152465D01*
X124346338Y-64152466D01*
X124165377Y-64279175D01*
X124009175Y-64435377D01*
X123882466Y-64616338D01*
X123882465Y-64616340D01*
X123822382Y-64745189D01*
X123776209Y-64797628D01*
X123709016Y-64816780D01*
X123642135Y-64796564D01*
X123597618Y-64745189D01*
X123569727Y-64685377D01*
X123537534Y-64616339D01*
X123442734Y-64480950D01*
X123410827Y-64435381D01*
X123355962Y-64380516D01*
X123254620Y-64279174D01*
X123254616Y-64279171D01*
X123254615Y-64279170D01*
X123073666Y-64152468D01*
X123073662Y-64152466D01*
X123026457Y-64130454D01*
X122873450Y-64059106D01*
X122873447Y-64059105D01*
X122873445Y-64059104D01*
X122660070Y-64001930D01*
X122660062Y-64001929D01*
X122440002Y-63982677D01*
X122439998Y-63982677D01*
X122219937Y-64001929D01*
X122219929Y-64001930D01*
X122006554Y-64059104D01*
X122006550Y-64059106D01*
X122001506Y-64061458D01*
X121806340Y-64152465D01*
X121806338Y-64152466D01*
X121625377Y-64279175D01*
X121469175Y-64435377D01*
X121342467Y-64616337D01*
X121282105Y-64745782D01*
X121235932Y-64798221D01*
X121168738Y-64817372D01*
X121101857Y-64797156D01*
X121057341Y-64745780D01*
X120997098Y-64616589D01*
X120997097Y-64616587D01*
X120951741Y-64551811D01*
X120951740Y-64551810D01*
X120284903Y-65218648D01*
X120284949Y-65218102D01*
X120253734Y-65094838D01*
X120184187Y-64988388D01*
X120083843Y-64910287D01*
X119963578Y-64869000D01*
X119927448Y-64869000D01*
X120598188Y-64198259D01*
X120598187Y-64198258D01*
X120533411Y-64152901D01*
X120533405Y-64152898D01*
X120333284Y-64059580D01*
X120333270Y-64059575D01*
X120119986Y-64002426D01*
X120119976Y-64002424D01*
X119900001Y-63983179D01*
X119899999Y-63983179D01*
X119680023Y-64002424D01*
X119680013Y-64002426D01*
X119466729Y-64059575D01*
X119466720Y-64059579D01*
X119266590Y-64152901D01*
X119201811Y-64198258D01*
X119872553Y-64869000D01*
X119868431Y-64869000D01*
X119774579Y-64884661D01*
X119662749Y-64945180D01*
X119576629Y-65038731D01*
X119525552Y-65155177D01*
X119519894Y-65223447D01*
X118848257Y-64551810D01*
X118848075Y-64552072D01*
X118793498Y-64595698D01*
X118724000Y-64602892D01*
X118661645Y-64571370D01*
X118626230Y-64511141D01*
X118622499Y-64480950D01*
X118622499Y-64440129D01*
X118622498Y-64440123D01*
X118622497Y-64440116D01*
X118616091Y-64380517D01*
X118589456Y-64309106D01*
X118565797Y-64245671D01*
X118565793Y-64245664D01*
X118479547Y-64130455D01*
X118479544Y-64130452D01*
X118364335Y-64044206D01*
X118364328Y-64044202D01*
X118229482Y-63993908D01*
X118229483Y-63993908D01*
X118169883Y-63987501D01*
X118169881Y-63987500D01*
X118169873Y-63987500D01*
X118169864Y-63987500D01*
X116550129Y-63987500D01*
X116550123Y-63987501D01*
X116490516Y-63993908D01*
X116355671Y-64044202D01*
X116355664Y-64044206D01*
X116240455Y-64130452D01*
X116240452Y-64130455D01*
X116154206Y-64245664D01*
X116154202Y-64245671D01*
X116103908Y-64380517D01*
X116098010Y-64435380D01*
X116097501Y-64440123D01*
X116097500Y-64440135D01*
X116097500Y-66059870D01*
X116097501Y-66059876D01*
X116103908Y-66119483D01*
X116154202Y-66254328D01*
X116154206Y-66254335D01*
X116240452Y-66369544D01*
X116240455Y-66369547D01*
X116355664Y-66455793D01*
X116355671Y-66455797D01*
X116490517Y-66506091D01*
X116490516Y-66506091D01*
X116497444Y-66506835D01*
X116550127Y-66512500D01*
X117509769Y-66512499D01*
X117576808Y-66532183D01*
X117597450Y-66548818D01*
X121989267Y-70940634D01*
X122001048Y-70954266D01*
X122015390Y-70973530D01*
X122053343Y-71005376D01*
X122061319Y-71012686D01*
X122065220Y-71016588D01*
X122089543Y-71035820D01*
X122092304Y-71038069D01*
X122129302Y-71069114D01*
X122149789Y-71086305D01*
X122155818Y-71090270D01*
X122155785Y-71090319D01*
X122162143Y-71094369D01*
X122162175Y-71094319D01*
X122168317Y-71098107D01*
X122168319Y-71098108D01*
X122168323Y-71098111D01*
X122236315Y-71129816D01*
X122239560Y-71131388D01*
X122306565Y-71165039D01*
X122306567Y-71165040D01*
X122306569Y-71165040D01*
X122313361Y-71167513D01*
X122313340Y-71167570D01*
X122320455Y-71170043D01*
X122320475Y-71169986D01*
X122327323Y-71172254D01*
X122327328Y-71172257D01*
X122400852Y-71187437D01*
X122404286Y-71188199D01*
X122449563Y-71198931D01*
X122477274Y-71205499D01*
X122477275Y-71205499D01*
X122477279Y-71205500D01*
X122477283Y-71205500D01*
X122484452Y-71206338D01*
X122484444Y-71206397D01*
X122491945Y-71207164D01*
X122491951Y-71207105D01*
X122499140Y-71207734D01*
X122499144Y-71207733D01*
X122499145Y-71207734D01*
X122574131Y-71205552D01*
X122577738Y-71205500D01*
X134888770Y-71205500D01*
X134955809Y-71225185D01*
X135001564Y-71277989D01*
X135011508Y-71347147D01*
X134982483Y-71410703D01*
X134976451Y-71417181D01*
X134264358Y-72129272D01*
X134250729Y-72141051D01*
X134231469Y-72155390D01*
X134199632Y-72193331D01*
X134192346Y-72201284D01*
X134188407Y-72205224D01*
X134169176Y-72229545D01*
X134166902Y-72232337D01*
X134118694Y-72289790D01*
X134114729Y-72295819D01*
X134114682Y-72295788D01*
X134110630Y-72302147D01*
X134110679Y-72302177D01*
X134106889Y-72308321D01*
X134075192Y-72376294D01*
X134073623Y-72379536D01*
X134039957Y-72446572D01*
X134037488Y-72453357D01*
X134037432Y-72453336D01*
X134034960Y-72460450D01*
X134035015Y-72460469D01*
X134032743Y-72467325D01*
X134017573Y-72540788D01*
X134016793Y-72544304D01*
X133999499Y-72617279D01*
X133998661Y-72624454D01*
X133998601Y-72624447D01*
X133997835Y-72631945D01*
X133997895Y-72631951D01*
X133997265Y-72639140D01*
X133999448Y-72714128D01*
X133999500Y-72717735D01*
X133999500Y-83436294D01*
X133998191Y-83454263D01*
X133994710Y-83478025D01*
X133999028Y-83527368D01*
X133999500Y-83538176D01*
X133999500Y-83543711D01*
X134003098Y-83574495D01*
X134003464Y-83578083D01*
X134010000Y-83652791D01*
X134011461Y-83659867D01*
X134011403Y-83659878D01*
X134013034Y-83667237D01*
X134013092Y-83667224D01*
X134014757Y-83674249D01*
X134040400Y-83744705D01*
X134041582Y-83748107D01*
X134065182Y-83819326D01*
X134068236Y-83825874D01*
X134068182Y-83825898D01*
X134071470Y-83832688D01*
X134071521Y-83832663D01*
X134074761Y-83839114D01*
X134115979Y-83901784D01*
X134117889Y-83904782D01*
X134148972Y-83955174D01*
X134157289Y-83968658D01*
X134161766Y-83974319D01*
X134161719Y-83974356D01*
X134166482Y-83980202D01*
X134166528Y-83980164D01*
X134171173Y-83985699D01*
X134225708Y-84037150D01*
X134228296Y-84039664D01*
X134976451Y-84787819D01*
X135009936Y-84849142D01*
X135004952Y-84918834D01*
X134963080Y-84974767D01*
X134897616Y-84999184D01*
X134888770Y-84999500D01*
X124643708Y-84999500D01*
X124625737Y-84998191D01*
X124601979Y-84994711D01*
X124601973Y-84994710D01*
X124554979Y-84998822D01*
X124552630Y-84999028D01*
X124541824Y-84999500D01*
X124536284Y-84999500D01*
X124505501Y-85003098D01*
X124501916Y-85003464D01*
X124427199Y-85010001D01*
X124420132Y-85011460D01*
X124420120Y-85011404D01*
X124412763Y-85013035D01*
X124412777Y-85013092D01*
X124405740Y-85014760D01*
X124335231Y-85040421D01*
X124331854Y-85041595D01*
X124292848Y-85054521D01*
X124260668Y-85065185D01*
X124254126Y-85068236D01*
X124254101Y-85068183D01*
X124247308Y-85071471D01*
X124247334Y-85071523D01*
X124240880Y-85074764D01*
X124178221Y-85115975D01*
X124175181Y-85117912D01*
X124111348Y-85157285D01*
X124105683Y-85161765D01*
X124105647Y-85161719D01*
X124099798Y-85166484D01*
X124099835Y-85166528D01*
X124094310Y-85171164D01*
X124042831Y-85225727D01*
X124040319Y-85228312D01*
X122553584Y-86715047D01*
X122492261Y-86748532D01*
X122422569Y-86743548D01*
X122366636Y-86701676D01*
X122342375Y-86638174D01*
X122335063Y-86554592D01*
X122273903Y-86326337D01*
X122174035Y-86112171D01*
X122038495Y-85918599D01*
X121916567Y-85796671D01*
X121883084Y-85735351D01*
X121888068Y-85665659D01*
X121929939Y-85609725D01*
X121960915Y-85592810D01*
X122092331Y-85543796D01*
X122207546Y-85457546D01*
X122293796Y-85342331D01*
X122344091Y-85207483D01*
X122350500Y-85147873D01*
X122350499Y-83352128D01*
X122344091Y-83292517D01*
X122293796Y-83157669D01*
X122293795Y-83157668D01*
X122293793Y-83157664D01*
X122207547Y-83042455D01*
X122207544Y-83042452D01*
X122092335Y-82956206D01*
X122092328Y-82956202D01*
X121957482Y-82905908D01*
X121957483Y-82905908D01*
X121897883Y-82899501D01*
X121897881Y-82899500D01*
X121897873Y-82899500D01*
X121897864Y-82899500D01*
X120102129Y-82899500D01*
X120102123Y-82899501D01*
X120042516Y-82905908D01*
X119907671Y-82956202D01*
X119907664Y-82956206D01*
X119792455Y-83042452D01*
X119792452Y-83042455D01*
X119706206Y-83157664D01*
X119706202Y-83157671D01*
X119655908Y-83292517D01*
X119649501Y-83352116D01*
X119649501Y-83352123D01*
X119649500Y-83352135D01*
X119649500Y-85147870D01*
X119649501Y-85147876D01*
X119655908Y-85207483D01*
X119706202Y-85342328D01*
X119706206Y-85342335D01*
X119792452Y-85457544D01*
X119792455Y-85457547D01*
X119907664Y-85543793D01*
X119907671Y-85543797D01*
X120039081Y-85592810D01*
X120095015Y-85634681D01*
X120119432Y-85700145D01*
X120104580Y-85768418D01*
X120083430Y-85796673D01*
X119961503Y-85918600D01*
X119825965Y-86112169D01*
X119825964Y-86112171D01*
X119726098Y-86326335D01*
X119726094Y-86326344D01*
X119664938Y-86554586D01*
X119664936Y-86554596D01*
X119644341Y-86789999D01*
X119644341Y-86790000D01*
X119664936Y-87025403D01*
X119664938Y-87025413D01*
X119726094Y-87253655D01*
X119726096Y-87253659D01*
X119726097Y-87253663D01*
X119812246Y-87438409D01*
X119825965Y-87467830D01*
X119825967Y-87467834D01*
X119961501Y-87661395D01*
X119961506Y-87661402D01*
X120128597Y-87828493D01*
X120128603Y-87828498D01*
X120314158Y-87958425D01*
X120357783Y-88013002D01*
X120364977Y-88082500D01*
X120333454Y-88144855D01*
X120314158Y-88161575D01*
X120128597Y-88291505D01*
X119961505Y-88458597D01*
X119825965Y-88652169D01*
X119825964Y-88652171D01*
X119726098Y-88866335D01*
X119726094Y-88866344D01*
X119664938Y-89094586D01*
X119664936Y-89094596D01*
X119644341Y-89329999D01*
X119644341Y-89330000D01*
X119664936Y-89565403D01*
X119664938Y-89565413D01*
X119726094Y-89793655D01*
X119726096Y-89793659D01*
X119726097Y-89793663D01*
X119771000Y-89889957D01*
X119825965Y-90007830D01*
X119825967Y-90007834D01*
X119961501Y-90201395D01*
X119961506Y-90201402D01*
X120128597Y-90368493D01*
X120128603Y-90368498D01*
X120314594Y-90498730D01*
X120358219Y-90553307D01*
X120365413Y-90622805D01*
X120333890Y-90685160D01*
X120314595Y-90701880D01*
X120128922Y-90831890D01*
X120128920Y-90831891D01*
X119961891Y-90998920D01*
X119961886Y-90998926D01*
X119826400Y-91192420D01*
X119826399Y-91192422D01*
X119726570Y-91406507D01*
X119726567Y-91406513D01*
X119669364Y-91619999D01*
X119669364Y-91620000D01*
X120566314Y-91620000D01*
X120540507Y-91660156D01*
X120500000Y-91798111D01*
X120500000Y-91941889D01*
X120540507Y-92079844D01*
X120566314Y-92120000D01*
X119669364Y-92120000D01*
X119726567Y-92333486D01*
X119726570Y-92333492D01*
X119826399Y-92547578D01*
X119961894Y-92741082D01*
X120128917Y-92908105D01*
X120322421Y-93043600D01*
X120536507Y-93143429D01*
X120536516Y-93143433D01*
X120750000Y-93200634D01*
X120750000Y-92305501D01*
X120857685Y-92354680D01*
X120964237Y-92370000D01*
X121035763Y-92370000D01*
X121142315Y-92354680D01*
X121250000Y-92305501D01*
X121250000Y-93200633D01*
X121463483Y-93143433D01*
X121463492Y-93143429D01*
X121677578Y-93043600D01*
X121871082Y-92908105D01*
X122038105Y-92741082D01*
X122063924Y-92704210D01*
X122118501Y-92660586D01*
X122188000Y-92653393D01*
X122250354Y-92684915D01*
X122285768Y-92745145D01*
X122289499Y-92775334D01*
X122289499Y-101059076D01*
X122269814Y-101126115D01*
X122217010Y-101171870D01*
X122176307Y-101182604D01*
X122013312Y-101196864D01*
X122013302Y-101196866D01*
X121793511Y-101255758D01*
X121793502Y-101255761D01*
X121587267Y-101351931D01*
X121587265Y-101351932D01*
X121400858Y-101482454D01*
X121239954Y-101643358D01*
X121109432Y-101829765D01*
X121109431Y-101829767D01*
X121082382Y-101887775D01*
X121036209Y-101940214D01*
X120969016Y-101959366D01*
X120902135Y-101939150D01*
X120857618Y-101887775D01*
X120830568Y-101829767D01*
X120830567Y-101829765D01*
X120700045Y-101643358D01*
X120539141Y-101482454D01*
X120352734Y-101351932D01*
X120352732Y-101351931D01*
X120146497Y-101255761D01*
X120146488Y-101255758D01*
X119926697Y-101196866D01*
X119926693Y-101196865D01*
X119926692Y-101196865D01*
X119926691Y-101196864D01*
X119926686Y-101196864D01*
X119700002Y-101177032D01*
X119699998Y-101177032D01*
X119473313Y-101196864D01*
X119473302Y-101196866D01*
X119253511Y-101255758D01*
X119253502Y-101255761D01*
X119047267Y-101351931D01*
X119047265Y-101351932D01*
X118860858Y-101482454D01*
X118699954Y-101643358D01*
X118569432Y-101829765D01*
X118569431Y-101829767D01*
X118542382Y-101887775D01*
X118496209Y-101940214D01*
X118429016Y-101959366D01*
X118362135Y-101939150D01*
X118317618Y-101887775D01*
X118290568Y-101829767D01*
X118290567Y-101829765D01*
X118160045Y-101643358D01*
X117999141Y-101482454D01*
X117812734Y-101351932D01*
X117812732Y-101351931D01*
X117606497Y-101255761D01*
X117606488Y-101255758D01*
X117386697Y-101196866D01*
X117386693Y-101196865D01*
X117386692Y-101196865D01*
X117386691Y-101196864D01*
X117386686Y-101196864D01*
X117160002Y-101177032D01*
X117159998Y-101177032D01*
X116933313Y-101196864D01*
X116933302Y-101196866D01*
X116713511Y-101255758D01*
X116713502Y-101255761D01*
X116507267Y-101351931D01*
X116507265Y-101351932D01*
X116320858Y-101482454D01*
X116159954Y-101643358D01*
X116029432Y-101829765D01*
X116029431Y-101829767D01*
X115933261Y-102036002D01*
X115933258Y-102036011D01*
X115874366Y-102255802D01*
X115874364Y-102255813D01*
X115854532Y-102482498D01*
X115854532Y-102482501D01*
X100500500Y-102482501D01*
X100500500Y-94750001D01*
X106884532Y-94750001D01*
X106904364Y-94976686D01*
X106904366Y-94976697D01*
X106963258Y-95196488D01*
X106963261Y-95196497D01*
X107059431Y-95402732D01*
X107059432Y-95402734D01*
X107189954Y-95589141D01*
X107350858Y-95750045D01*
X107350861Y-95750047D01*
X107537266Y-95880568D01*
X107743504Y-95976739D01*
X107963308Y-96035635D01*
X108125230Y-96049801D01*
X108189998Y-96055468D01*
X108190000Y-96055468D01*
X108190002Y-96055468D01*
X108246673Y-96050509D01*
X108416692Y-96035635D01*
X108636496Y-95976739D01*
X108842734Y-95880568D01*
X109029139Y-95750047D01*
X109190047Y-95589139D01*
X109320568Y-95402734D01*
X109416739Y-95196496D01*
X109475635Y-94976692D01*
X109495468Y-94750001D01*
X114504532Y-94750001D01*
X114524364Y-94976686D01*
X114524366Y-94976697D01*
X114583258Y-95196488D01*
X114583261Y-95196497D01*
X114679431Y-95402732D01*
X114679432Y-95402734D01*
X114809954Y-95589141D01*
X114970858Y-95750045D01*
X114970861Y-95750047D01*
X115157266Y-95880568D01*
X115363504Y-95976739D01*
X115583308Y-96035635D01*
X115745230Y-96049801D01*
X115809998Y-96055468D01*
X115810000Y-96055468D01*
X115810002Y-96055468D01*
X115866673Y-96050509D01*
X116036692Y-96035635D01*
X116256496Y-95976739D01*
X116462734Y-95880568D01*
X116649139Y-95750047D01*
X116810047Y-95589139D01*
X116940568Y-95402734D01*
X117036739Y-95196496D01*
X117095635Y-94976692D01*
X117115468Y-94750000D01*
X117095635Y-94523308D01*
X117036739Y-94303504D01*
X116940568Y-94097266D01*
X116810047Y-93910861D01*
X116810045Y-93910858D01*
X116649141Y-93749954D01*
X116462734Y-93619432D01*
X116462732Y-93619431D01*
X116256497Y-93523261D01*
X116256488Y-93523258D01*
X116036697Y-93464366D01*
X116036693Y-93464365D01*
X116036692Y-93464365D01*
X116036691Y-93464364D01*
X116036686Y-93464364D01*
X115810002Y-93444532D01*
X115809998Y-93444532D01*
X115583313Y-93464364D01*
X115583302Y-93464366D01*
X115363511Y-93523258D01*
X115363502Y-93523261D01*
X115157267Y-93619431D01*
X115157265Y-93619432D01*
X114970858Y-93749954D01*
X114809954Y-93910858D01*
X114679432Y-94097265D01*
X114679431Y-94097267D01*
X114583261Y-94303502D01*
X114583258Y-94303511D01*
X114524366Y-94523302D01*
X114524364Y-94523313D01*
X114504532Y-94749998D01*
X114504532Y-94750001D01*
X109495468Y-94750001D01*
X109495468Y-94750000D01*
X109475635Y-94523308D01*
X109416739Y-94303504D01*
X109320568Y-94097266D01*
X109190047Y-93910861D01*
X109190045Y-93910858D01*
X109029141Y-93749954D01*
X108842734Y-93619432D01*
X108842732Y-93619431D01*
X108636497Y-93523261D01*
X108636488Y-93523258D01*
X108416697Y-93464366D01*
X108416693Y-93464365D01*
X108416692Y-93464365D01*
X108416691Y-93464364D01*
X108416686Y-93464364D01*
X108190002Y-93444532D01*
X108189998Y-93444532D01*
X107963313Y-93464364D01*
X107963302Y-93464366D01*
X107743511Y-93523258D01*
X107743502Y-93523261D01*
X107537267Y-93619431D01*
X107537265Y-93619432D01*
X107350858Y-93749954D01*
X107189954Y-93910858D01*
X107059432Y-94097265D01*
X107059431Y-94097267D01*
X106963261Y-94303502D01*
X106963258Y-94303511D01*
X106904366Y-94523302D01*
X106904364Y-94523313D01*
X106884532Y-94749998D01*
X106884532Y-94750001D01*
X100500500Y-94750001D01*
X100500500Y-91500001D01*
X106884532Y-91500001D01*
X106904364Y-91726686D01*
X106904366Y-91726697D01*
X106963258Y-91946488D01*
X106963261Y-91946497D01*
X107059431Y-92152732D01*
X107059432Y-92152734D01*
X107189954Y-92339141D01*
X107350858Y-92500045D01*
X107350861Y-92500047D01*
X107537266Y-92630568D01*
X107743504Y-92726739D01*
X107963308Y-92785635D01*
X108125230Y-92799801D01*
X108189998Y-92805468D01*
X108190000Y-92805468D01*
X108190002Y-92805468D01*
X108246673Y-92800509D01*
X108416692Y-92785635D01*
X108636496Y-92726739D01*
X108842734Y-92630568D01*
X109029139Y-92500047D01*
X109190047Y-92339139D01*
X109320568Y-92152734D01*
X109416739Y-91946496D01*
X109475635Y-91726692D01*
X109495468Y-91500001D01*
X114504532Y-91500001D01*
X114524364Y-91726686D01*
X114524366Y-91726697D01*
X114583258Y-91946488D01*
X114583261Y-91946497D01*
X114679431Y-92152732D01*
X114679432Y-92152734D01*
X114809954Y-92339141D01*
X114970858Y-92500045D01*
X114970861Y-92500047D01*
X115157266Y-92630568D01*
X115363504Y-92726739D01*
X115583308Y-92785635D01*
X115745230Y-92799801D01*
X115809998Y-92805468D01*
X115810000Y-92805468D01*
X115810002Y-92805468D01*
X115866673Y-92800509D01*
X116036692Y-92785635D01*
X116256496Y-92726739D01*
X116462734Y-92630568D01*
X116649139Y-92500047D01*
X116810047Y-92339139D01*
X116940568Y-92152734D01*
X117036739Y-91946496D01*
X117095635Y-91726692D01*
X117115468Y-91500000D01*
X117095635Y-91273308D01*
X117036739Y-91053504D01*
X116940568Y-90847266D01*
X116810047Y-90660861D01*
X116810045Y-90660858D01*
X116649141Y-90499954D01*
X116462734Y-90369432D01*
X116462732Y-90369431D01*
X116256497Y-90273261D01*
X116256488Y-90273258D01*
X116036697Y-90214366D01*
X116036693Y-90214365D01*
X116036692Y-90214365D01*
X116036691Y-90214364D01*
X116036686Y-90214364D01*
X115810002Y-90194532D01*
X115809998Y-90194532D01*
X115583313Y-90214364D01*
X115583302Y-90214366D01*
X115363511Y-90273258D01*
X115363502Y-90273261D01*
X115157267Y-90369431D01*
X115157265Y-90369432D01*
X114970858Y-90499954D01*
X114809954Y-90660858D01*
X114679432Y-90847265D01*
X114679431Y-90847267D01*
X114583261Y-91053502D01*
X114583258Y-91053511D01*
X114524366Y-91273302D01*
X114524364Y-91273313D01*
X114504532Y-91499998D01*
X114504532Y-91500001D01*
X109495468Y-91500001D01*
X109495468Y-91500000D01*
X109475635Y-91273308D01*
X109416739Y-91053504D01*
X109320568Y-90847266D01*
X109190047Y-90660861D01*
X109190045Y-90660858D01*
X109029141Y-90499954D01*
X108842734Y-90369432D01*
X108842732Y-90369431D01*
X108636497Y-90273261D01*
X108636488Y-90273258D01*
X108416697Y-90214366D01*
X108416693Y-90214365D01*
X108416692Y-90214365D01*
X108416691Y-90214364D01*
X108416686Y-90214364D01*
X108190002Y-90194532D01*
X108189998Y-90194532D01*
X107963313Y-90214364D01*
X107963302Y-90214366D01*
X107743511Y-90273258D01*
X107743502Y-90273261D01*
X107537267Y-90369431D01*
X107537265Y-90369432D01*
X107350858Y-90499954D01*
X107189954Y-90660858D01*
X107059432Y-90847265D01*
X107059431Y-90847267D01*
X106963261Y-91053502D01*
X106963258Y-91053511D01*
X106904366Y-91273302D01*
X106904364Y-91273313D01*
X106884532Y-91499998D01*
X106884532Y-91500001D01*
X100500500Y-91500001D01*
X100500500Y-88250001D01*
X106884532Y-88250001D01*
X106904364Y-88476686D01*
X106904366Y-88476697D01*
X106963258Y-88696488D01*
X106963261Y-88696497D01*
X107059431Y-88902732D01*
X107059432Y-88902734D01*
X107189954Y-89089141D01*
X107350858Y-89250045D01*
X107350861Y-89250047D01*
X107537266Y-89380568D01*
X107743504Y-89476739D01*
X107963308Y-89535635D01*
X108125230Y-89549801D01*
X108189998Y-89555468D01*
X108190000Y-89555468D01*
X108190002Y-89555468D01*
X108246673Y-89550509D01*
X108416692Y-89535635D01*
X108636496Y-89476739D01*
X108842734Y-89380568D01*
X109029139Y-89250047D01*
X109190047Y-89089139D01*
X109320568Y-88902734D01*
X109416739Y-88696496D01*
X109475635Y-88476692D01*
X109495468Y-88250001D01*
X114504532Y-88250001D01*
X114524364Y-88476686D01*
X114524366Y-88476697D01*
X114583258Y-88696488D01*
X114583261Y-88696497D01*
X114679431Y-88902732D01*
X114679432Y-88902734D01*
X114809954Y-89089141D01*
X114970858Y-89250045D01*
X114970861Y-89250047D01*
X115157266Y-89380568D01*
X115363504Y-89476739D01*
X115583308Y-89535635D01*
X115745230Y-89549801D01*
X115809998Y-89555468D01*
X115810000Y-89555468D01*
X115810002Y-89555468D01*
X115866673Y-89550509D01*
X116036692Y-89535635D01*
X116256496Y-89476739D01*
X116462734Y-89380568D01*
X116649139Y-89250047D01*
X116810047Y-89089139D01*
X116940568Y-88902734D01*
X117036739Y-88696496D01*
X117095635Y-88476692D01*
X117115468Y-88250000D01*
X117095635Y-88023308D01*
X117036739Y-87803504D01*
X116940568Y-87597266D01*
X116837196Y-87449634D01*
X116810045Y-87410858D01*
X116649141Y-87249954D01*
X116462734Y-87119432D01*
X116462732Y-87119431D01*
X116256497Y-87023261D01*
X116256488Y-87023258D01*
X116036697Y-86964366D01*
X116036693Y-86964365D01*
X116036692Y-86964365D01*
X116036691Y-86964364D01*
X116036686Y-86964364D01*
X115810002Y-86944532D01*
X115809998Y-86944532D01*
X115583313Y-86964364D01*
X115583302Y-86964366D01*
X115363511Y-87023258D01*
X115363502Y-87023261D01*
X115157267Y-87119431D01*
X115157265Y-87119432D01*
X114970858Y-87249954D01*
X114809954Y-87410858D01*
X114679432Y-87597265D01*
X114679431Y-87597267D01*
X114583261Y-87803502D01*
X114583258Y-87803511D01*
X114524366Y-88023302D01*
X114524364Y-88023313D01*
X114504532Y-88249998D01*
X114504532Y-88250001D01*
X109495468Y-88250001D01*
X109495468Y-88250000D01*
X109475635Y-88023308D01*
X109416739Y-87803504D01*
X109320568Y-87597266D01*
X109217196Y-87449634D01*
X109190045Y-87410858D01*
X109029141Y-87249954D01*
X108842734Y-87119432D01*
X108842732Y-87119431D01*
X108636497Y-87023261D01*
X108636488Y-87023258D01*
X108416697Y-86964366D01*
X108416693Y-86964365D01*
X108416692Y-86964365D01*
X108416691Y-86964364D01*
X108416686Y-86964364D01*
X108190002Y-86944532D01*
X108189998Y-86944532D01*
X107963313Y-86964364D01*
X107963302Y-86964366D01*
X107743511Y-87023258D01*
X107743502Y-87023261D01*
X107537267Y-87119431D01*
X107537265Y-87119432D01*
X107350858Y-87249954D01*
X107189954Y-87410858D01*
X107059432Y-87597265D01*
X107059431Y-87597267D01*
X106963261Y-87803502D01*
X106963258Y-87803511D01*
X106904366Y-88023302D01*
X106904364Y-88023313D01*
X106884532Y-88249998D01*
X106884532Y-88250001D01*
X100500500Y-88250001D01*
X100500500Y-77182006D01*
X110844700Y-77182006D01*
X110863864Y-77413297D01*
X110863866Y-77413308D01*
X110920842Y-77638300D01*
X111014075Y-77850848D01*
X111141016Y-78045147D01*
X111141019Y-78045151D01*
X111141021Y-78045153D01*
X111298216Y-78215913D01*
X111298219Y-78215915D01*
X111298222Y-78215918D01*
X111481365Y-78358464D01*
X111481371Y-78358468D01*
X111481374Y-78358470D01*
X111685497Y-78468936D01*
X111685500Y-78468937D01*
X111728401Y-78483665D01*
X111775819Y-78513265D01*
X112161769Y-78899215D01*
X112115862Y-78906135D01*
X111993643Y-78964993D01*
X111894202Y-79057260D01*
X111826375Y-79174740D01*
X111808500Y-79253054D01*
X111098811Y-78543365D01*
X111014516Y-78672390D01*
X110921317Y-78884864D01*
X110864361Y-79109781D01*
X110845202Y-79340994D01*
X110845202Y-79341005D01*
X110864361Y-79572218D01*
X110921317Y-79797135D01*
X111014517Y-80009611D01*
X111045808Y-80057505D01*
X111065996Y-80124395D01*
X111046817Y-80191580D01*
X111016314Y-80224592D01*
X111016313Y-80224593D01*
X110992454Y-80242454D01*
X110992453Y-80242455D01*
X110992452Y-80242456D01*
X110906206Y-80357664D01*
X110906202Y-80357671D01*
X110855908Y-80492517D01*
X110849501Y-80552116D01*
X110849501Y-80552123D01*
X110849500Y-80552135D01*
X110849500Y-82447870D01*
X110849501Y-82447876D01*
X110855908Y-82507483D01*
X110906202Y-82642328D01*
X110906206Y-82642335D01*
X110992452Y-82757544D01*
X110992455Y-82757547D01*
X111107664Y-82843793D01*
X111107671Y-82843797D01*
X111242517Y-82894091D01*
X111242516Y-82894091D01*
X111249444Y-82894835D01*
X111302127Y-82900500D01*
X113197872Y-82900499D01*
X113257483Y-82894091D01*
X113392331Y-82843796D01*
X113507546Y-82757546D01*
X113593796Y-82642331D01*
X113644091Y-82507483D01*
X113650500Y-82447873D01*
X113650499Y-80552128D01*
X113644091Y-80492517D01*
X113593796Y-80357669D01*
X113593795Y-80357668D01*
X113593793Y-80357664D01*
X113507547Y-80242455D01*
X113483687Y-80224593D01*
X113441816Y-80168658D01*
X113436833Y-80098967D01*
X113454191Y-80057504D01*
X113485484Y-80009607D01*
X113578682Y-79797135D01*
X113635638Y-79572218D01*
X113654798Y-79341005D01*
X113654798Y-79340994D01*
X113635638Y-79109781D01*
X113578682Y-78884864D01*
X113485484Y-78672393D01*
X113401186Y-78543365D01*
X112694449Y-79250101D01*
X112693673Y-79239735D01*
X112644113Y-79113459D01*
X112559535Y-79007401D01*
X112447453Y-78930984D01*
X112339699Y-78897746D01*
X112724179Y-78513265D01*
X112771595Y-78483666D01*
X112814503Y-78468936D01*
X113018626Y-78358470D01*
X113021917Y-78355909D01*
X113172421Y-78238767D01*
X113201784Y-78215913D01*
X113358979Y-78045153D01*
X113485924Y-77850849D01*
X113579157Y-77638300D01*
X113636134Y-77413305D01*
X113636135Y-77413297D01*
X113655300Y-77182006D01*
X113655300Y-77181993D01*
X113636135Y-76950702D01*
X113636133Y-76950691D01*
X113579157Y-76725699D01*
X113485924Y-76513151D01*
X113358983Y-76318852D01*
X113358980Y-76318849D01*
X113358979Y-76318847D01*
X113237128Y-76186480D01*
X113206207Y-76123828D01*
X113214067Y-76054402D01*
X113237127Y-76018520D01*
X113358979Y-75886153D01*
X113485924Y-75691849D01*
X113579157Y-75479300D01*
X113636134Y-75254305D01*
X113638010Y-75231668D01*
X113655300Y-75023006D01*
X113655300Y-75022993D01*
X113636135Y-74791702D01*
X113636133Y-74791691D01*
X113579157Y-74566699D01*
X113506036Y-74400001D01*
X121049500Y-74400001D01*
X121049501Y-74400018D01*
X121060000Y-74502796D01*
X121060001Y-74502799D01*
X121081176Y-74566699D01*
X121115186Y-74669334D01*
X121207288Y-74818656D01*
X121331344Y-74942712D01*
X121461512Y-75023000D01*
X121486558Y-75038448D01*
X121533283Y-75090396D01*
X121544506Y-75159358D01*
X121516663Y-75223441D01*
X121509144Y-75231668D01*
X121361891Y-75378921D01*
X121226399Y-75572421D01*
X121126570Y-75786507D01*
X121126567Y-75786513D01*
X121069364Y-75999999D01*
X121069364Y-76000000D01*
X122116314Y-76000000D01*
X122090507Y-76040156D01*
X122050000Y-76178111D01*
X122050000Y-76321889D01*
X122090507Y-76459844D01*
X122116314Y-76500000D01*
X121069364Y-76500000D01*
X121126567Y-76713486D01*
X121126570Y-76713492D01*
X121226399Y-76927577D01*
X121226400Y-76927579D01*
X121361886Y-77121073D01*
X121361891Y-77121079D01*
X121528920Y-77288108D01*
X121528926Y-77288113D01*
X121722420Y-77423599D01*
X121722422Y-77423600D01*
X121936507Y-77523429D01*
X121936516Y-77523433D01*
X122164673Y-77584567D01*
X122164684Y-77584569D01*
X122299999Y-77596407D01*
X122300000Y-77596407D01*
X122300000Y-76685501D01*
X122407685Y-76734680D01*
X122514237Y-76750000D01*
X122585763Y-76750000D01*
X122692315Y-76734680D01*
X122800000Y-76685501D01*
X122800000Y-77596407D01*
X122935315Y-77584569D01*
X122935326Y-77584567D01*
X123163483Y-77523433D01*
X123163492Y-77523429D01*
X123377577Y-77423600D01*
X123377579Y-77423599D01*
X123571073Y-77288113D01*
X123571079Y-77288108D01*
X123649181Y-77210006D01*
X130594700Y-77210006D01*
X130613864Y-77441297D01*
X130613866Y-77441308D01*
X130670842Y-77666300D01*
X130764075Y-77878848D01*
X130891016Y-78073147D01*
X130891019Y-78073151D01*
X130891021Y-78073153D01*
X130985803Y-78176114D01*
X131016724Y-78238767D01*
X131008864Y-78308193D01*
X130964716Y-78362348D01*
X130937906Y-78376277D01*
X130857669Y-78406203D01*
X130857664Y-78406206D01*
X130742455Y-78492452D01*
X130742452Y-78492455D01*
X130656206Y-78607664D01*
X130656202Y-78607671D01*
X130605908Y-78742517D01*
X130599501Y-78802116D01*
X130599501Y-78802123D01*
X130599500Y-78802135D01*
X130599500Y-80697870D01*
X130599501Y-80697876D01*
X130605908Y-80757483D01*
X130656202Y-80892328D01*
X130656206Y-80892335D01*
X130742452Y-81007544D01*
X130742455Y-81007547D01*
X130857664Y-81093793D01*
X130857671Y-81093797D01*
X130992517Y-81144091D01*
X130992516Y-81144091D01*
X130999444Y-81144835D01*
X131052127Y-81150500D01*
X132947872Y-81150499D01*
X133007483Y-81144091D01*
X133142331Y-81093796D01*
X133257546Y-81007546D01*
X133343796Y-80892331D01*
X133394091Y-80757483D01*
X133400500Y-80697873D01*
X133400499Y-78802128D01*
X133394091Y-78742517D01*
X133367936Y-78672393D01*
X133343797Y-78607671D01*
X133343793Y-78607664D01*
X133257547Y-78492455D01*
X133257544Y-78492452D01*
X133142335Y-78406206D01*
X133142328Y-78406202D01*
X133062094Y-78376277D01*
X133006160Y-78334406D01*
X132981743Y-78268941D01*
X132996595Y-78200668D01*
X133014190Y-78176121D01*
X133108979Y-78073153D01*
X133235924Y-77878849D01*
X133329157Y-77666300D01*
X133386134Y-77441305D01*
X133405300Y-77210000D01*
X133405300Y-77209993D01*
X133386135Y-76978702D01*
X133386133Y-76978691D01*
X133329157Y-76753699D01*
X133235924Y-76541151D01*
X133108983Y-76346852D01*
X133108980Y-76346849D01*
X133108979Y-76346847D01*
X132951784Y-76176087D01*
X132951779Y-76176083D01*
X132951777Y-76176081D01*
X132768634Y-76033535D01*
X132768628Y-76033531D01*
X132564504Y-75923064D01*
X132564495Y-75923061D01*
X132344984Y-75847702D01*
X132173282Y-75819050D01*
X132116049Y-75809500D01*
X131883951Y-75809500D01*
X131838164Y-75817140D01*
X131655015Y-75847702D01*
X131435504Y-75923061D01*
X131435495Y-75923064D01*
X131231371Y-76033531D01*
X131231365Y-76033535D01*
X131048222Y-76176081D01*
X131048219Y-76176084D01*
X130891016Y-76346852D01*
X130764075Y-76541151D01*
X130670842Y-76753699D01*
X130613866Y-76978691D01*
X130613864Y-76978702D01*
X130594700Y-77209993D01*
X130594700Y-77210006D01*
X123649181Y-77210006D01*
X123738105Y-77121082D01*
X123873600Y-76927578D01*
X123973429Y-76713492D01*
X123973432Y-76713486D01*
X124030636Y-76500000D01*
X122983686Y-76500000D01*
X123009493Y-76459844D01*
X123050000Y-76321889D01*
X123050000Y-76178111D01*
X123009493Y-76040156D01*
X122983686Y-76000000D01*
X124030636Y-76000000D01*
X124030635Y-75999999D01*
X123973432Y-75786513D01*
X123973429Y-75786507D01*
X123873600Y-75572422D01*
X123873599Y-75572420D01*
X123738113Y-75378926D01*
X123590856Y-75231668D01*
X123557372Y-75170345D01*
X123562356Y-75100653D01*
X123604228Y-75044720D01*
X123613442Y-75038448D01*
X123638478Y-75023006D01*
X123768656Y-74942712D01*
X123892712Y-74818656D01*
X123984814Y-74669334D01*
X124039999Y-74502797D01*
X124050500Y-74400009D01*
X124050499Y-73099992D01*
X124039999Y-72997203D01*
X123984814Y-72830666D01*
X123892712Y-72681344D01*
X123768656Y-72557288D01*
X123619334Y-72465186D01*
X123452797Y-72410001D01*
X123452795Y-72410000D01*
X123350010Y-72399500D01*
X121749998Y-72399500D01*
X121749981Y-72399501D01*
X121647203Y-72410000D01*
X121647200Y-72410001D01*
X121480668Y-72465185D01*
X121480663Y-72465187D01*
X121331342Y-72557289D01*
X121207289Y-72681342D01*
X121115187Y-72830663D01*
X121115186Y-72830666D01*
X121060001Y-72997203D01*
X121060001Y-72997204D01*
X121060000Y-72997204D01*
X121049500Y-73099983D01*
X121049500Y-74400001D01*
X113506036Y-74400001D01*
X113485924Y-74354151D01*
X113358983Y-74159852D01*
X113358980Y-74159849D01*
X113358979Y-74159847D01*
X113201784Y-73989087D01*
X113201779Y-73989083D01*
X113201777Y-73989081D01*
X113018634Y-73846535D01*
X113018628Y-73846531D01*
X112814504Y-73736064D01*
X112814495Y-73736061D01*
X112594984Y-73660702D01*
X112423282Y-73632050D01*
X112366049Y-73622500D01*
X112133951Y-73622500D01*
X112088164Y-73630140D01*
X111905015Y-73660702D01*
X111685504Y-73736061D01*
X111685495Y-73736064D01*
X111481371Y-73846531D01*
X111481365Y-73846535D01*
X111298222Y-73989081D01*
X111298219Y-73989084D01*
X111298216Y-73989086D01*
X111298216Y-73989087D01*
X111288127Y-74000047D01*
X111141016Y-74159852D01*
X111014075Y-74354151D01*
X110920842Y-74566699D01*
X110863866Y-74791691D01*
X110863864Y-74791702D01*
X110844700Y-75022993D01*
X110844700Y-75023006D01*
X110863864Y-75254297D01*
X110863866Y-75254308D01*
X110920842Y-75479300D01*
X111014075Y-75691848D01*
X111014076Y-75691849D01*
X111141021Y-75886153D01*
X111171445Y-75919202D01*
X111262870Y-76018518D01*
X111293792Y-76081173D01*
X111285931Y-76150599D01*
X111262870Y-76186482D01*
X111141019Y-76318849D01*
X111014075Y-76513151D01*
X110920842Y-76725699D01*
X110863866Y-76950691D01*
X110863864Y-76950702D01*
X110844700Y-77181993D01*
X110844700Y-77182006D01*
X100500500Y-77182006D01*
X100500500Y-71250002D01*
X105415677Y-71250002D01*
X105434929Y-71470062D01*
X105434930Y-71470070D01*
X105492104Y-71683445D01*
X105492105Y-71683447D01*
X105492106Y-71683450D01*
X105585466Y-71883662D01*
X105585468Y-71883666D01*
X105712170Y-72064615D01*
X105712175Y-72064621D01*
X105868378Y-72220824D01*
X105868384Y-72220829D01*
X106049333Y-72347531D01*
X106049335Y-72347532D01*
X106049338Y-72347534D01*
X106249550Y-72440894D01*
X106462932Y-72498070D01*
X106620123Y-72511822D01*
X106682998Y-72517323D01*
X106683000Y-72517323D01*
X106683002Y-72517323D01*
X106738017Y-72512509D01*
X106903068Y-72498070D01*
X107116450Y-72440894D01*
X107316662Y-72347534D01*
X107497620Y-72220826D01*
X107653826Y-72064620D01*
X107718281Y-71972567D01*
X107772857Y-71928943D01*
X107842356Y-71921749D01*
X107904711Y-71953271D01*
X107940125Y-72013501D01*
X107939631Y-72075784D01*
X107884931Y-72279926D01*
X107884929Y-72279937D01*
X107865677Y-72499997D01*
X107865677Y-72500002D01*
X107884929Y-72720062D01*
X107884930Y-72720070D01*
X107942104Y-72933445D01*
X107942105Y-72933447D01*
X107942106Y-72933450D01*
X108019768Y-73099998D01*
X108035466Y-73133662D01*
X108035468Y-73133666D01*
X108162170Y-73314615D01*
X108162175Y-73314621D01*
X108318378Y-73470824D01*
X108318384Y-73470829D01*
X108499333Y-73597531D01*
X108499335Y-73597532D01*
X108499338Y-73597534D01*
X108699550Y-73690894D01*
X108912932Y-73748070D01*
X109070123Y-73761822D01*
X109132998Y-73767323D01*
X109133000Y-73767323D01*
X109133002Y-73767323D01*
X109188017Y-73762509D01*
X109353068Y-73748070D01*
X109566450Y-73690894D01*
X109766662Y-73597534D01*
X109947620Y-73470826D01*
X110103826Y-73314620D01*
X110230534Y-73133662D01*
X110323894Y-72933450D01*
X110381070Y-72720068D01*
X110396755Y-72540788D01*
X110400323Y-72500002D01*
X110400323Y-72499997D01*
X110389784Y-72379536D01*
X110381070Y-72279932D01*
X110323894Y-72066550D01*
X110230534Y-71866339D01*
X110103826Y-71685380D01*
X109947620Y-71529174D01*
X109947616Y-71529171D01*
X109947615Y-71529170D01*
X109766666Y-71402468D01*
X109766662Y-71402466D01*
X109766660Y-71402465D01*
X109566450Y-71309106D01*
X109566447Y-71309105D01*
X109566445Y-71309104D01*
X109353070Y-71251930D01*
X109353062Y-71251929D01*
X109133002Y-71232677D01*
X109132998Y-71232677D01*
X108912937Y-71251929D01*
X108912929Y-71251930D01*
X108699554Y-71309104D01*
X108699548Y-71309107D01*
X108499340Y-71402465D01*
X108499338Y-71402466D01*
X108318377Y-71529175D01*
X108162177Y-71685375D01*
X108097718Y-71777433D01*
X108043141Y-71821057D01*
X107973642Y-71828250D01*
X107911288Y-71796728D01*
X107875874Y-71736498D01*
X107876367Y-71674217D01*
X107931070Y-71470068D01*
X107950323Y-71250000D01*
X107948807Y-71232677D01*
X107939875Y-71130572D01*
X107931070Y-71029932D01*
X107873894Y-70816550D01*
X107780534Y-70616339D01*
X107653826Y-70435380D01*
X107497620Y-70279174D01*
X107497616Y-70279171D01*
X107497615Y-70279170D01*
X107316666Y-70152468D01*
X107316662Y-70152466D01*
X107316660Y-70152465D01*
X107116450Y-70059106D01*
X107116447Y-70059105D01*
X107116445Y-70059104D01*
X106903070Y-70001930D01*
X106903062Y-70001929D01*
X106683002Y-69982677D01*
X106682998Y-69982677D01*
X106462937Y-70001929D01*
X106462929Y-70001930D01*
X106249554Y-70059104D01*
X106249548Y-70059107D01*
X106049340Y-70152465D01*
X106049338Y-70152466D01*
X105868377Y-70279175D01*
X105712175Y-70435377D01*
X105585466Y-70616338D01*
X105585465Y-70616340D01*
X105492107Y-70816548D01*
X105492104Y-70816554D01*
X105434930Y-71029929D01*
X105434929Y-71029937D01*
X105415677Y-71249997D01*
X105415677Y-71250002D01*
X100500500Y-71250002D01*
X100500500Y-66500000D01*
X105421000Y-66500000D01*
X106395283Y-66500000D01*
X106359629Y-66538731D01*
X106308552Y-66655177D01*
X106298051Y-66781898D01*
X106329266Y-66905162D01*
X106391227Y-67000000D01*
X105421001Y-67000000D01*
X105421001Y-67207609D01*
X105423917Y-67250632D01*
X105423917Y-67250634D01*
X105470165Y-67436602D01*
X105555307Y-67608275D01*
X105675365Y-67757633D01*
X105675366Y-67757634D01*
X105824725Y-67877692D01*
X105824724Y-67877692D01*
X105996397Y-67962834D01*
X106182361Y-68009081D01*
X106182357Y-68009081D01*
X106225395Y-68011999D01*
X106432999Y-68011999D01*
X106433000Y-68011998D01*
X106433000Y-67038220D01*
X106499157Y-67089713D01*
X106619422Y-67131000D01*
X106714569Y-67131000D01*
X106808421Y-67115339D01*
X106920251Y-67054820D01*
X106933000Y-67040970D01*
X106933000Y-68011999D01*
X107140607Y-68011999D01*
X107140609Y-68011998D01*
X107183632Y-68009082D01*
X107183634Y-68009082D01*
X107369602Y-67962834D01*
X107541275Y-67877692D01*
X107690633Y-67757634D01*
X107690634Y-67757633D01*
X107810692Y-67608275D01*
X107895834Y-67436602D01*
X107942081Y-67250640D01*
X107945000Y-67207604D01*
X107945000Y-67000000D01*
X106970717Y-67000000D01*
X107006371Y-66961269D01*
X107057448Y-66844823D01*
X107067949Y-66718102D01*
X107036734Y-66594838D01*
X106974773Y-66500000D01*
X107944999Y-66500000D01*
X107944999Y-66396487D01*
X107964684Y-66329448D01*
X108017488Y-66283693D01*
X108086646Y-66273749D01*
X108150202Y-66302774D01*
X108158218Y-66310919D01*
X108158346Y-66310792D01*
X108318378Y-66470824D01*
X108318384Y-66470829D01*
X108499333Y-66597531D01*
X108499335Y-66597532D01*
X108499338Y-66597534D01*
X108699550Y-66690894D01*
X108912932Y-66748070D01*
X109070123Y-66761822D01*
X109132998Y-66767323D01*
X109133000Y-66767323D01*
X109133002Y-66767323D01*
X109188017Y-66762509D01*
X109353068Y-66748070D01*
X109566450Y-66690894D01*
X109766662Y-66597534D01*
X109947620Y-66470826D01*
X110103826Y-66314620D01*
X110230534Y-66133662D01*
X110323894Y-65933450D01*
X110381070Y-65720068D01*
X110400323Y-65500000D01*
X110399528Y-65490918D01*
X110381070Y-65279937D01*
X110381070Y-65279932D01*
X110323894Y-65066550D01*
X110230534Y-64866339D01*
X110146118Y-64745780D01*
X110103827Y-64685381D01*
X110034783Y-64616337D01*
X109947620Y-64529174D01*
X109947616Y-64529171D01*
X109947615Y-64529170D01*
X109766666Y-64402468D01*
X109766662Y-64402466D01*
X109719590Y-64380516D01*
X109566450Y-64309106D01*
X109566447Y-64309105D01*
X109566445Y-64309104D01*
X109353070Y-64251930D01*
X109353062Y-64251929D01*
X109133002Y-64232677D01*
X109132998Y-64232677D01*
X108912937Y-64251929D01*
X108912929Y-64251930D01*
X108699554Y-64309104D01*
X108699548Y-64309107D01*
X108499340Y-64402465D01*
X108499338Y-64402466D01*
X108318377Y-64529175D01*
X108162175Y-64685377D01*
X108035466Y-64866338D01*
X108035465Y-64866340D01*
X107942107Y-65066548D01*
X107942104Y-65066554D01*
X107884930Y-65279929D01*
X107884929Y-65279937D01*
X107865677Y-65499997D01*
X107865677Y-65500002D01*
X107876393Y-65622488D01*
X107862626Y-65690988D01*
X107814011Y-65741171D01*
X107745982Y-65757104D01*
X107680139Y-65733729D01*
X107675178Y-65729942D01*
X107541274Y-65622307D01*
X107541275Y-65622307D01*
X107369602Y-65537165D01*
X107183638Y-65490918D01*
X107183642Y-65490918D01*
X107140605Y-65488000D01*
X106933000Y-65488000D01*
X106933000Y-66461779D01*
X106866843Y-66410287D01*
X106746578Y-66369000D01*
X106651431Y-66369000D01*
X106557579Y-66384661D01*
X106445749Y-66445180D01*
X106433000Y-66459029D01*
X106433000Y-65488000D01*
X106225394Y-65488000D01*
X106225390Y-65488001D01*
X106182367Y-65490917D01*
X106182365Y-65490917D01*
X105996397Y-65537165D01*
X105824724Y-65622307D01*
X105675366Y-65742365D01*
X105675365Y-65742366D01*
X105555307Y-65891724D01*
X105470165Y-66063397D01*
X105423918Y-66249359D01*
X105421000Y-66292395D01*
X105421000Y-66500000D01*
X100500500Y-66500000D01*
X100500500Y-61250003D01*
X102895170Y-61250003D01*
X102914473Y-61581426D01*
X102914474Y-61581437D01*
X102972118Y-61908351D01*
X102972121Y-61908365D01*
X103067336Y-62226408D01*
X103198827Y-62531236D01*
X103198833Y-62531249D01*
X103364824Y-62818755D01*
X103562357Y-63084087D01*
X104635073Y-62011372D01*
X104711890Y-62121078D01*
X104878922Y-62288110D01*
X104988626Y-62364925D01*
X103919289Y-63434263D01*
X104045215Y-63539925D01*
X104322588Y-63722356D01*
X104619252Y-63871347D01*
X104619258Y-63871350D01*
X104931213Y-63984892D01*
X104931234Y-63984899D01*
X105254248Y-64061456D01*
X105254263Y-64061458D01*
X105584012Y-64099999D01*
X105584013Y-64100000D01*
X105915987Y-64100000D01*
X105915987Y-64099999D01*
X106245736Y-64061458D01*
X106245751Y-64061456D01*
X106568765Y-63984899D01*
X106568786Y-63984892D01*
X106880741Y-63871350D01*
X106880747Y-63871347D01*
X107177411Y-63722356D01*
X107454789Y-63539922D01*
X107580708Y-63434263D01*
X107580709Y-63434262D01*
X106511373Y-62364925D01*
X106621078Y-62288110D01*
X106788110Y-62121078D01*
X106864926Y-62011373D01*
X107937641Y-63084088D01*
X108135175Y-62818756D01*
X108301166Y-62531249D01*
X108301172Y-62531236D01*
X108432663Y-62226408D01*
X108527878Y-61908365D01*
X108527881Y-61908351D01*
X108585525Y-61581437D01*
X108585526Y-61581426D01*
X108604830Y-61250003D01*
X144145170Y-61250003D01*
X144164473Y-61581426D01*
X144164474Y-61581437D01*
X144222118Y-61908351D01*
X144222121Y-61908365D01*
X144317336Y-62226408D01*
X144448827Y-62531236D01*
X144448833Y-62531249D01*
X144614824Y-62818755D01*
X144812357Y-63084087D01*
X145885072Y-62011371D01*
X145961890Y-62121078D01*
X146128922Y-62288110D01*
X146238626Y-62364925D01*
X145169289Y-63434263D01*
X145295215Y-63539925D01*
X145572588Y-63722356D01*
X145869252Y-63871347D01*
X145869258Y-63871350D01*
X146181213Y-63984892D01*
X146181234Y-63984899D01*
X146504248Y-64061456D01*
X146504263Y-64061458D01*
X146834012Y-64099999D01*
X146834013Y-64100000D01*
X147165987Y-64100000D01*
X147165987Y-64099999D01*
X147495736Y-64061458D01*
X147495751Y-64061456D01*
X147818765Y-63984899D01*
X147818786Y-63984892D01*
X148130741Y-63871350D01*
X148130747Y-63871347D01*
X148427411Y-63722356D01*
X148704789Y-63539922D01*
X148830708Y-63434263D01*
X148830709Y-63434262D01*
X147761373Y-62364925D01*
X147871078Y-62288110D01*
X148038110Y-62121078D01*
X148114926Y-62011373D01*
X149187641Y-63084088D01*
X149385175Y-62818756D01*
X149551166Y-62531249D01*
X149551172Y-62531236D01*
X149682663Y-62226408D01*
X149777878Y-61908365D01*
X149777881Y-61908351D01*
X149835525Y-61581437D01*
X149835526Y-61581426D01*
X149854830Y-61250003D01*
X149854830Y-61249996D01*
X149835526Y-60918573D01*
X149835525Y-60918562D01*
X149777881Y-60591648D01*
X149777878Y-60591634D01*
X149682663Y-60273591D01*
X149551172Y-59968763D01*
X149551166Y-59968750D01*
X149385172Y-59681239D01*
X149187642Y-59415910D01*
X148114925Y-60488626D01*
X148038110Y-60378922D01*
X147871078Y-60211890D01*
X147761372Y-60135073D01*
X148830709Y-59065736D01*
X148830709Y-59065735D01*
X148704784Y-58960074D01*
X148427411Y-58777643D01*
X148130747Y-58628652D01*
X148130741Y-58628649D01*
X147818786Y-58515107D01*
X147818765Y-58515100D01*
X147495751Y-58438543D01*
X147495736Y-58438541D01*
X147165987Y-58400000D01*
X146834013Y-58400000D01*
X146504263Y-58438541D01*
X146504248Y-58438543D01*
X146181234Y-58515100D01*
X146181213Y-58515107D01*
X145869258Y-58628649D01*
X145869252Y-58628652D01*
X145572581Y-58777646D01*
X145295220Y-58960070D01*
X145295213Y-58960075D01*
X145169289Y-59065735D01*
X146238627Y-60135073D01*
X146128922Y-60211890D01*
X145961890Y-60378922D01*
X145885073Y-60488627D01*
X144812357Y-59415911D01*
X144812356Y-59415911D01*
X144614829Y-59681236D01*
X144614825Y-59681242D01*
X144448833Y-59968750D01*
X144448827Y-59968763D01*
X144317336Y-60273591D01*
X144222121Y-60591634D01*
X144222118Y-60591648D01*
X144164474Y-60918562D01*
X144164473Y-60918573D01*
X144145170Y-61249996D01*
X144145170Y-61250003D01*
X108604830Y-61250003D01*
X108604830Y-61249996D01*
X108585526Y-60918573D01*
X108585525Y-60918562D01*
X108527881Y-60591648D01*
X108527878Y-60591634D01*
X108432663Y-60273591D01*
X108301172Y-59968763D01*
X108301166Y-59968750D01*
X108135172Y-59681239D01*
X107937642Y-59415910D01*
X106864925Y-60488626D01*
X106788110Y-60378922D01*
X106621078Y-60211890D01*
X106511372Y-60135073D01*
X107580709Y-59065736D01*
X107580709Y-59065735D01*
X107454784Y-58960074D01*
X107177411Y-58777643D01*
X106880747Y-58628652D01*
X106880741Y-58628649D01*
X106568786Y-58515107D01*
X106568765Y-58515100D01*
X106245751Y-58438543D01*
X106245736Y-58438541D01*
X105915987Y-58400000D01*
X105584013Y-58400000D01*
X105254263Y-58438541D01*
X105254248Y-58438543D01*
X104931234Y-58515100D01*
X104931213Y-58515107D01*
X104619258Y-58628649D01*
X104619252Y-58628652D01*
X104322581Y-58777646D01*
X104045220Y-58960070D01*
X104045213Y-58960075D01*
X103919289Y-59065735D01*
X104988627Y-60135073D01*
X104878922Y-60211890D01*
X104711890Y-60378922D01*
X104635073Y-60488627D01*
X103562357Y-59415911D01*
X103562356Y-59415911D01*
X103364829Y-59681236D01*
X103364825Y-59681242D01*
X103198833Y-59968750D01*
X103198827Y-59968763D01*
X103067336Y-60273591D01*
X102972121Y-60591634D01*
X102972118Y-60591648D01*
X102914474Y-60918562D01*
X102914473Y-60918573D01*
X102895170Y-61249996D01*
X102895170Y-61250003D01*
X100500500Y-61250003D01*
X100500500Y-60753480D01*
X100500695Y-60746528D01*
X100501886Y-60725326D01*
X100517398Y-60449097D01*
X100518952Y-60435298D01*
X100568269Y-60145041D01*
X100571363Y-60131489D01*
X100618248Y-59968750D01*
X100652867Y-59848582D01*
X100657459Y-59835462D01*
X100678981Y-59783502D01*
X100770123Y-59563463D01*
X100776145Y-59550957D01*
X100918566Y-59293267D01*
X100925961Y-59281499D01*
X100932503Y-59272279D01*
X101096330Y-59041385D01*
X101104985Y-59030531D01*
X101301179Y-58810991D01*
X101310991Y-58801179D01*
X101530531Y-58604985D01*
X101541385Y-58596330D01*
X101781504Y-58425957D01*
X101793267Y-58418566D01*
X102050957Y-58276145D01*
X102063463Y-58270123D01*
X102335462Y-58157459D01*
X102348582Y-58152867D01*
X102631494Y-58071361D01*
X102645041Y-58068269D01*
X102935298Y-58018952D01*
X102949097Y-58017398D01*
X103209562Y-58002770D01*
X103246529Y-58000695D01*
X103253481Y-58000500D01*
X103294170Y-58000500D01*
X149205830Y-58000500D01*
X149246519Y-58000500D01*
X149253471Y-58000695D01*
G37*
%TD.AperFunction*%
%TD*%
M02*
