%TF.GenerationSoftware,KiCad,Pcbnew,7.0.10*%
%TF.CreationDate,2024-03-15T10:23:29-04:00*%
%TF.ProjectId,Kicad V7,4b696361-6420-4563-972e-6b696361645f,v2*%
%TF.SameCoordinates,Original*%
%TF.FileFunction,Copper,L1,Top*%
%TF.FilePolarity,Positive*%
%FSLAX46Y46*%
G04 Gerber Fmt 4.6, Leading zero omitted, Abs format (unit mm)*
G04 Created by KiCad (PCBNEW 7.0.10) date 2024-03-15 10:23:29*
%MOMM*%
%LPD*%
G01*
G04 APERTURE LIST*
G04 Aperture macros list*
%AMRoundRect*
0 Rectangle with rounded corners*
0 $1 Rounding radius*
0 $2 $3 $4 $5 $6 $7 $8 $9 X,Y pos of 4 corners*
0 Add a 4 corners polygon primitive as box body*
4,1,4,$2,$3,$4,$5,$6,$7,$8,$9,$2,$3,0*
0 Add four circle primitives for the rounded corners*
1,1,$1+$1,$2,$3*
1,1,$1+$1,$4,$5*
1,1,$1+$1,$6,$7*
1,1,$1+$1,$8,$9*
0 Add four rect primitives between the rounded corners*
20,1,$1+$1,$2,$3,$4,$5,0*
20,1,$1+$1,$4,$5,$6,$7,0*
20,1,$1+$1,$6,$7,$8,$9,0*
20,1,$1+$1,$8,$9,$2,$3,0*%
G04 Aperture macros list end*
%TA.AperFunction,ComponentPad*%
%ADD10C,1.600000*%
%TD*%
%TA.AperFunction,ComponentPad*%
%ADD11O,1.600000X1.600000*%
%TD*%
%TA.AperFunction,ComponentPad*%
%ADD12R,1.600000X1.600000*%
%TD*%
%TA.AperFunction,ComponentPad*%
%ADD13R,1.700000X1.700000*%
%TD*%
%TA.AperFunction,ComponentPad*%
%ADD14O,1.700000X1.700000*%
%TD*%
%TA.AperFunction,ComponentPad*%
%ADD15C,3.100000*%
%TD*%
%TA.AperFunction,ConnectorPad*%
%ADD16C,4.700000*%
%TD*%
%TA.AperFunction,ComponentPad*%
%ADD17RoundRect,0.381000X-0.381000X0.381000X-0.381000X-0.381000X0.381000X-0.381000X0.381000X0.381000X0*%
%TD*%
%TA.AperFunction,ComponentPad*%
%ADD18C,1.524000*%
%TD*%
%TA.AperFunction,ComponentPad*%
%ADD19R,1.800000X1.800000*%
%TD*%
%TA.AperFunction,ComponentPad*%
%ADD20C,1.800000*%
%TD*%
%TA.AperFunction,ComponentPad*%
%ADD21RoundRect,0.250000X-0.750000X0.600000X-0.750000X-0.600000X0.750000X-0.600000X0.750000X0.600000X0*%
%TD*%
%TA.AperFunction,ComponentPad*%
%ADD22O,2.000000X1.700000*%
%TD*%
%TA.AperFunction,ComponentPad*%
%ADD23RoundRect,0.250000X-0.600000X-0.725000X0.600000X-0.725000X0.600000X0.725000X-0.600000X0.725000X0*%
%TD*%
%TA.AperFunction,ComponentPad*%
%ADD24O,1.700000X1.950000*%
%TD*%
%TA.AperFunction,ComponentPad*%
%ADD25R,1.524000X1.524000*%
%TD*%
%TA.AperFunction,Conductor*%
%ADD26C,0.500000*%
%TD*%
%TA.AperFunction,Conductor*%
%ADD27C,0.300000*%
%TD*%
G04 APERTURE END LIST*
D10*
%TO.P,R4,1*%
%TO.N,+5V*%
X147500000Y-70460000D03*
D11*
%TO.P,R4,2*%
%TO.N,Net-(D4-A)*%
X147500000Y-73000000D03*
%TD*%
D12*
%TO.P,U1,1,I1*%
%TO.N,/Phase 1*%
X127163553Y-97956446D03*
D11*
%TO.P,U1,2,I2*%
%TO.N,/Phase 2*%
X129703553Y-97956446D03*
%TO.P,U1,3,I3*%
%TO.N,/Phase 3*%
X132243553Y-97956446D03*
%TO.P,U1,4,I4*%
%TO.N,/Phase 4*%
X134783553Y-97956446D03*
%TO.P,U1,5,I5*%
%TO.N,unconnected-(U1-I5-Pad5)*%
X137323553Y-97956446D03*
%TO.P,U1,6,I6*%
%TO.N,unconnected-(U1-I6-Pad6)*%
X139863553Y-97956446D03*
%TO.P,U1,7,I7*%
%TO.N,unconnected-(U1-I7-Pad7)*%
X142403553Y-97956446D03*
%TO.P,U1,8,GND*%
%TO.N,GND*%
X144943553Y-97956446D03*
%TO.P,U1,9,COM*%
%TO.N,+5V*%
X144943553Y-90336446D03*
%TO.P,U1,10,O7*%
%TO.N,unconnected-(U1-O7-Pad10)*%
X142403553Y-90336446D03*
%TO.P,U1,11,O6*%
%TO.N,unconnected-(U1-O6-Pad11)*%
X139863553Y-90336446D03*
%TO.P,U1,12,O5*%
%TO.N,unconnected-(U1-O5-Pad12)*%
X137323553Y-90336446D03*
%TO.P,U1,13,O4*%
%TO.N,Net-(D4-K)*%
X134783553Y-90336446D03*
%TO.P,U1,14,O3*%
%TO.N,Net-(D3-K)*%
X132243553Y-90336446D03*
%TO.P,U1,15,O2*%
%TO.N,Net-(D2-K)*%
X129703553Y-90336446D03*
%TO.P,U1,16,O1*%
%TO.N,Net-(D1-K)*%
X127163553Y-90336446D03*
%TD*%
D13*
%TO.P,J3,1,Pin_1*%
%TO.N,/Aux 1*%
X121000000Y-84250000D03*
D14*
%TO.P,J3,2,Pin_2*%
%TO.N,/Aux 2*%
X121000000Y-86790000D03*
%TO.P,J3,3,Pin_3*%
%TO.N,+5V*%
X121000000Y-89330000D03*
%TO.P,J3,4,Pin_4*%
%TO.N,GND*%
X121000000Y-91870000D03*
%TD*%
D15*
%TO.P,H4,1,1*%
%TO.N,GND*%
X147000000Y-61250000D03*
D16*
X147000000Y-61250000D03*
%TD*%
D17*
%TO.P,SW1,1,1*%
%TO.N,GND*%
X106683000Y-66750000D03*
D18*
%TO.P,SW1,2,2*%
%TO.N,/PB*%
X106683000Y-71250000D03*
%TO.P,SW1,3*%
%TO.N,N/C*%
X109133000Y-65500000D03*
%TO.P,SW1,4*%
X109133000Y-72500000D03*
%TD*%
D10*
%TO.P,R2,1*%
%TO.N,+5V*%
X140500000Y-70455000D03*
D11*
%TO.P,R2,2*%
%TO.N,Net-(D2-A)*%
X140500000Y-72995000D03*
%TD*%
D19*
%TO.P,D1,1,K*%
%TO.N,Net-(D1-K)*%
X132000000Y-79750000D03*
D20*
%TO.P,D1,2,A*%
%TO.N,Net-(D1-A)*%
X132000000Y-77210000D03*
%TD*%
D10*
%TO.P,R7,1*%
%TO.N,/Red*%
X115810000Y-94750000D03*
D11*
%TO.P,R7,2*%
%TO.N,Net-(D5-RK)*%
X108190000Y-94750000D03*
%TD*%
D21*
%TO.P,J1,1,Pin_1*%
%TO.N,/Home*%
X122550000Y-73750000D03*
D22*
%TO.P,J1,2,Pin_2*%
%TO.N,GND*%
X122550000Y-76250000D03*
%TD*%
D19*
%TO.P,D4,1,K*%
%TO.N,Net-(D4-K)*%
X147750000Y-79750000D03*
D20*
%TO.P,D4,2,A*%
%TO.N,Net-(D4-A)*%
X147750000Y-77210000D03*
%TD*%
D19*
%TO.P,D3,1,K*%
%TO.N,Net-(D3-K)*%
X142500000Y-79750000D03*
D20*
%TO.P,D3,2,A*%
%TO.N,Net-(D3-A)*%
X142500000Y-77210000D03*
%TD*%
D23*
%TO.P,J2,1,Pin_1*%
%TO.N,+5V*%
X137000000Y-85750000D03*
D24*
%TO.P,J2,2,Pin_2*%
%TO.N,Net-(D1-K)*%
X139500000Y-85750000D03*
%TO.P,J2,3,Pin_3*%
%TO.N,Net-(D2-K)*%
X142000000Y-85750000D03*
%TO.P,J2,4,Pin_4*%
%TO.N,Net-(D3-K)*%
X144500000Y-85750000D03*
%TO.P,J2,5,Pin_5*%
%TO.N,Net-(D4-K)*%
X147000000Y-85750000D03*
%TD*%
D10*
%TO.P,R6,1*%
%TO.N,/Green*%
X115810000Y-91500000D03*
D11*
%TO.P,R6,2*%
%TO.N,Net-(D5-GK)*%
X108190000Y-91500000D03*
%TD*%
D19*
%TO.P,D2,1,K*%
%TO.N,Net-(D2-K)*%
X137250000Y-79750000D03*
D20*
%TO.P,D2,2,A*%
%TO.N,Net-(D2-A)*%
X137250000Y-77210000D03*
%TD*%
D19*
%TO.P,D5,1,RK*%
%TO.N,Net-(D5-RK)*%
X112250000Y-81500000D03*
D20*
%TO.P,D5,2,A*%
%TO.N,GND*%
X112250000Y-79341000D03*
%TO.P,D5,3,GK*%
%TO.N,Net-(D5-GK)*%
X112250000Y-77182000D03*
%TO.P,D5,4,BK*%
%TO.N,Net-(D5-BK)*%
X112250000Y-75023000D03*
%TD*%
D10*
%TO.P,R1,1*%
%TO.N,+5V*%
X137000000Y-70455000D03*
D11*
%TO.P,R1,2*%
%TO.N,Net-(D1-A)*%
X137000000Y-72995000D03*
%TD*%
D15*
%TO.P,H2,1,1*%
%TO.N,GND*%
X147000000Y-127750000D03*
D16*
X147000000Y-127750000D03*
%TD*%
D15*
%TO.P,H3,1,1*%
%TO.N,GND*%
X105750000Y-61250000D03*
D16*
X105750000Y-61250000D03*
%TD*%
D10*
%TO.P,R3,1*%
%TO.N,+5V*%
X144000000Y-70455000D03*
D11*
%TO.P,R3,2*%
%TO.N,Net-(D3-A)*%
X144000000Y-72995000D03*
%TD*%
D25*
%TO.P,A2,1,VIN*%
%TO.N,+5V*%
X117360000Y-65250000D03*
D18*
%TO.P,A2,2,GND*%
%TO.N,GND*%
X119900000Y-65250000D03*
%TO.P,A2,3,SCL*%
%TO.N,/SCL*%
X122440000Y-65250000D03*
%TO.P,A2,4,SDA*%
%TO.N,/SDA*%
X124980000Y-65250000D03*
%TO.P,A2,5,BAT*%
%TO.N,unconnected-(A2-BAT-Pad5)*%
X127520000Y-65250000D03*
%TO.P,A2,6,32K*%
%TO.N,unconnected-(A2-32K-Pad6)*%
X130060000Y-65250000D03*
%TO.P,A2,7,SQW*%
%TO.N,unconnected-(A2-SQW-Pad7)*%
X132600000Y-65250000D03*
%TO.P,A2,8,RST*%
%TO.N,unconnected-(A2-RST-Pad8)*%
X135140000Y-65250000D03*
%TD*%
D10*
%TO.P,R5,1*%
%TO.N,/Blue*%
X115810000Y-88250000D03*
D11*
%TO.P,R5,2*%
%TO.N,Net-(D5-BK)*%
X108190000Y-88250000D03*
%TD*%
D15*
%TO.P,H1,1,1*%
%TO.N,GND*%
X105750000Y-127750000D03*
D16*
X105750000Y-127750000D03*
%TD*%
D10*
%TO.P,C1,1*%
%TO.N,+5V*%
X148413553Y-92836446D03*
%TO.P,C1,2*%
%TO.N,GND*%
X148413553Y-95336446D03*
%TD*%
D12*
%TO.P,A1,1,~{RESET}*%
%TO.N,unconnected-(A1-~{RESET}-Pad1)*%
X107000000Y-122802500D03*
D10*
%TO.P,A1,2,3V3*%
%TO.N,unconnected-(A1-3V3-Pad2)*%
X109540000Y-122802500D03*
%TO.P,A1,3,NC*%
%TO.N,unconnected-(A1-NC-Pad3)*%
X112080000Y-122802500D03*
%TO.P,A1,4,GND*%
%TO.N,GND*%
X114620000Y-122802500D03*
%TO.P,A1,5,DAC2/A0*%
%TO.N,/PB*%
X117160000Y-122802500D03*
%TO.P,A1,6,DAC1/A1*%
%TO.N,unconnected-(A1-DAC1{slash}A1-Pad6)*%
X119700000Y-122802500D03*
%TO.P,A1,7,I34/A2*%
%TO.N,unconnected-(A1-I34{slash}A2-Pad7)*%
X122240000Y-122802500D03*
%TO.P,A1,8,I39/A3*%
%TO.N,unconnected-(A1-I39{slash}A3-Pad8)*%
X124780000Y-122802500D03*
%TO.P,A1,9,IO36/A4*%
%TO.N,unconnected-(A1-IO36{slash}A4-Pad9)*%
X127320000Y-122802500D03*
%TO.P,A1,10,IO4/A5*%
%TO.N,unconnected-(A1-IO4{slash}A5-Pad10)*%
X129860000Y-122802500D03*
%TO.P,A1,11,SCK/IO5*%
%TO.N,unconnected-(A1-SCK{slash}IO5-Pad11)*%
X132400000Y-122802500D03*
%TO.P,A1,12,MOSI/IO18*%
%TO.N,unconnected-(A1-MOSI{slash}IO18-Pad12)*%
X134940000Y-122802500D03*
%TO.P,A1,13,MISO/IO19*%
%TO.N,/Phase 1*%
X137480000Y-122802500D03*
%TO.P,A1,14,RX/IO16*%
%TO.N,/Phase 2*%
X140020000Y-122802500D03*
%TO.P,A1,15,TX/IO17*%
%TO.N,/Phase 3*%
X142560000Y-122802500D03*
%TO.P,A1,16,IO21*%
%TO.N,/Phase 4*%
X145100000Y-122802500D03*
%TO.P,A1,17,SDA/IO23*%
%TO.N,/SDA*%
X145100000Y-102482500D03*
%TO.P,A1,18,SCL/IO22*%
%TO.N,/SCL*%
X142560000Y-102482500D03*
%TO.P,A1,19,A6/IO14*%
%TO.N,unconnected-(A1-A6{slash}IO14-Pad19)*%
X140020000Y-102482500D03*
%TO.P,A1,20,A7/IO32*%
%TO.N,/Home*%
X137480000Y-102482500D03*
%TO.P,A1,21,A8/IO15*%
%TO.N,/Aux 1*%
X134940000Y-102482500D03*
%TO.P,A1,22,A9/IO33*%
%TO.N,/Aux 2*%
X132400000Y-102482500D03*
%TO.P,A1,23,A10/IO27*%
%TO.N,/Blue*%
X129860000Y-102482500D03*
%TO.P,A1,24,A11/IO12*%
%TO.N,/Green*%
X127320000Y-102482500D03*
%TO.P,A1,25,A12/IO13*%
%TO.N,/Red*%
X124780000Y-102482500D03*
%TO.P,A1,26,USB*%
%TO.N,+5V*%
X122240000Y-102482500D03*
%TO.P,A1,27,EN*%
%TO.N,unconnected-(A1-EN-Pad27)*%
X119700000Y-102482500D03*
%TO.P,A1,28,VBAT*%
%TO.N,unconnected-(A1-VBAT-Pad28)*%
X117160000Y-102482500D03*
%TD*%
D26*
%TO.N,GND*%
X147000000Y-127750000D02*
X119567500Y-127750000D01*
X105750000Y-127750000D02*
X109672500Y-127750000D01*
X109672500Y-127750000D02*
X114620000Y-122802500D01*
X119567500Y-127750000D02*
X114620000Y-122802500D01*
D27*
%TO.N,/Phase 4*%
X138630000Y-116332500D02*
X138630000Y-101802893D01*
X145100000Y-122802500D02*
X138630000Y-116332500D01*
X138630000Y-101802893D02*
X134783553Y-97956446D01*
%TO.N,/Phase 3*%
X136090000Y-101802893D02*
X132243553Y-97956446D01*
X142560000Y-122802500D02*
X136090000Y-116332500D01*
X136090000Y-116332500D02*
X136090000Y-101802893D01*
%TO.N,/Phase 2*%
X140020000Y-122802500D02*
X133550000Y-116332500D01*
X133550000Y-101802893D02*
X129703553Y-97956446D01*
X133550000Y-116332500D02*
X133550000Y-101802893D01*
%TO.N,/Phase 1*%
X131010000Y-116332500D02*
X131010000Y-101802893D01*
X131010000Y-101802893D02*
X127163553Y-97956446D01*
X137480000Y-122802500D02*
X131010000Y-116332500D01*
%TO.N,/SDA*%
X126250000Y-66520000D02*
X124980000Y-65250000D01*
X143553553Y-95053553D02*
X130254314Y-95053553D01*
X145100000Y-102482500D02*
X143553553Y-100936053D01*
X126013553Y-90812792D02*
X126013553Y-67486447D01*
X130254314Y-95053553D02*
X126013553Y-90812792D01*
X126013553Y-67486447D02*
X126250000Y-67250000D01*
X126250000Y-67250000D02*
X126250000Y-66520000D01*
X143553553Y-100936053D02*
X143553553Y-95053553D01*
%TO.N,/SCL*%
X136173553Y-97227106D02*
X134500000Y-95553553D01*
X130047208Y-95553553D02*
X125513553Y-91019899D01*
X125513553Y-91019899D02*
X125513553Y-67986447D01*
X134500000Y-95553553D02*
X130047208Y-95553553D01*
X125513553Y-67986447D02*
X124277106Y-66750000D01*
X142560000Y-102482500D02*
X139183946Y-99106446D01*
X136173553Y-98432792D02*
X136173553Y-97227106D01*
X124277106Y-66750000D02*
X122440000Y-66750000D01*
X122440000Y-66750000D02*
X122440000Y-65250000D01*
X139183946Y-99106446D02*
X136847207Y-99106446D01*
X136847207Y-99106446D02*
X136173553Y-98432792D01*
%TO.N,/PB*%
X117160000Y-122802500D02*
X106683000Y-112325500D01*
X106683000Y-112325500D02*
X106683000Y-71250000D01*
%TO.N,/Home*%
X137480000Y-102482500D02*
X137476713Y-102482500D01*
X125000000Y-76200000D02*
X122550000Y-73750000D01*
X129840102Y-96053553D02*
X125000000Y-91213451D01*
X137476713Y-102482500D02*
X133393553Y-98399340D01*
X131967006Y-96053553D02*
X129840102Y-96053553D01*
X133393553Y-97480100D02*
X131967006Y-96053553D01*
X133393553Y-98399340D02*
X133393553Y-97480100D01*
X125000000Y-91213451D02*
X125000000Y-76200000D01*
%TO.N,/Aux 1*%
X131093553Y-97397106D02*
X130250000Y-96553553D01*
X124500000Y-87750000D02*
X121000000Y-84250000D01*
X130250000Y-96553553D02*
X129632996Y-96553553D01*
X134940000Y-102482500D02*
X131093553Y-98636053D01*
X131093553Y-98636053D02*
X131093553Y-97397106D01*
X129632996Y-96553553D02*
X124500000Y-91420557D01*
X124500000Y-91420557D02*
X124500000Y-87750000D01*
%TO.N,/Aux 2*%
X124000000Y-91627663D02*
X124000000Y-89250000D01*
X128553553Y-96181216D02*
X124000000Y-91627663D01*
X124000000Y-89250000D02*
X123460000Y-89250000D01*
X132400000Y-102482500D02*
X128553553Y-98636053D01*
X128553553Y-98636053D02*
X128553553Y-96181216D01*
X123460000Y-89250000D02*
X121000000Y-86790000D01*
%TO.N,/Red*%
X124780000Y-102482500D02*
X117047500Y-94750000D01*
X117047500Y-94750000D02*
X115810000Y-94750000D01*
%TO.N,/Green*%
X127320000Y-102482500D02*
X116337500Y-91500000D01*
X116337500Y-91500000D02*
X115810000Y-91500000D01*
%TO.N,/Blue*%
X129860000Y-102482500D02*
X128982500Y-102482500D01*
X128982500Y-102482500D02*
X115810000Y-89310000D01*
X115810000Y-89310000D02*
X115810000Y-88250000D01*
D26*
%TO.N,+5V*%
X147495000Y-70455000D02*
X147500000Y-70460000D01*
X144000000Y-70455000D02*
X147495000Y-70455000D01*
X140500000Y-70455000D02*
X144000000Y-70455000D01*
X145913553Y-90336446D02*
X144943553Y-90336446D01*
X148413553Y-92836446D02*
X145913553Y-90336446D01*
X137000000Y-70455000D02*
X140500000Y-70455000D01*
D27*
%TO.N,Net-(D1-K)*%
X132000000Y-79750000D02*
X133500000Y-79750000D01*
X130424999Y-87075000D02*
X138175000Y-87075000D01*
X138175000Y-87075000D02*
X139500000Y-85750000D01*
X127163553Y-90336446D02*
X130424999Y-87075000D01*
X133500000Y-79750000D02*
X139500000Y-85750000D01*
%TO.N,Net-(D1-A)*%
X136215000Y-72995000D02*
X137000000Y-72995000D01*
X132000000Y-77210000D02*
X136215000Y-72995000D01*
%TO.N,Net-(D2-K)*%
X140175000Y-87575000D02*
X142000000Y-85750000D01*
X137250000Y-81000000D02*
X142000000Y-85750000D01*
X129703553Y-90336446D02*
X132464999Y-87575000D01*
X132464999Y-87575000D02*
X140175000Y-87575000D01*
X137250000Y-79750000D02*
X137250000Y-81000000D01*
%TO.N,Net-(D2-A)*%
X137250000Y-77210000D02*
X140500000Y-73960000D01*
X140500000Y-73960000D02*
X140500000Y-72995000D01*
%TO.N,Net-(D3-K)*%
X134504999Y-88075000D02*
X142175000Y-88075000D01*
X142500000Y-83750000D02*
X144500000Y-85750000D01*
X142175000Y-88075000D02*
X144500000Y-85750000D01*
X142500000Y-79750000D02*
X142500000Y-83750000D01*
X132243553Y-90336446D02*
X134504999Y-88075000D01*
%TO.N,Net-(D3-A)*%
X142500000Y-74495000D02*
X144000000Y-72995000D01*
X142500000Y-77210000D02*
X142500000Y-74495000D01*
%TO.N,Net-(D4-K)*%
X147750000Y-85000000D02*
X147000000Y-85750000D01*
X144175000Y-88575000D02*
X147000000Y-85750000D01*
X136544999Y-88575000D02*
X144175000Y-88575000D01*
X134783553Y-90336446D02*
X136544999Y-88575000D01*
X147750000Y-79750000D02*
X147750000Y-85000000D01*
%TO.N,Net-(D4-A)*%
X147750000Y-77210000D02*
X147750000Y-73250000D01*
X147750000Y-73250000D02*
X147500000Y-73000000D01*
%TO.N,Net-(D5-RK)*%
X112250000Y-90690000D02*
X112250000Y-81500000D01*
X108190000Y-94750000D02*
X112250000Y-90690000D01*
%TO.N,Net-(D5-GK)*%
X108190000Y-91500000D02*
X111000000Y-88690000D01*
X111000000Y-88690000D02*
X111000000Y-78432000D01*
X111000000Y-78432000D02*
X112250000Y-77182000D01*
%TO.N,Net-(D5-BK)*%
X108190000Y-79083000D02*
X112250000Y-75023000D01*
X108190000Y-88250000D02*
X108190000Y-79083000D01*
%TD*%
%TA.AperFunction,Conductor*%
%TO.N,GND*%
G36*
X122564962Y-89274908D02*
G01*
X122939564Y-89649510D01*
X122949635Y-89662080D01*
X122949822Y-89661926D01*
X122954795Y-89667937D01*
X122954797Y-89667939D01*
X122954798Y-89667940D01*
X123001578Y-89711869D01*
X123005832Y-89715864D01*
X123008629Y-89718575D01*
X123028967Y-89738913D01*
X123032450Y-89741615D01*
X123041326Y-89749196D01*
X123045735Y-89753336D01*
X123074607Y-89780448D01*
X123074609Y-89780449D01*
X123093205Y-89790672D01*
X123109470Y-89801357D01*
X123126232Y-89814360D01*
X123126235Y-89814361D01*
X123126236Y-89814362D01*
X123168140Y-89832495D01*
X123178612Y-89837625D01*
X123218632Y-89859627D01*
X123234340Y-89863659D01*
X123239186Y-89864904D01*
X123257595Y-89871206D01*
X123263453Y-89873741D01*
X123274744Y-89878627D01*
X123328452Y-89923315D01*
X123349475Y-89989946D01*
X123349500Y-89992429D01*
X123349500Y-91542157D01*
X123347732Y-91558168D01*
X123347974Y-91558191D01*
X123347240Y-91565957D01*
X123349439Y-91635925D01*
X123349500Y-91639820D01*
X123349500Y-91668583D01*
X123349501Y-91668601D01*
X123350053Y-91672974D01*
X123350968Y-91684604D01*
X123352402Y-91730230D01*
X123352403Y-91730233D01*
X123358323Y-91750611D01*
X123362268Y-91769659D01*
X123364928Y-91790717D01*
X123364931Y-91790728D01*
X123381737Y-91833177D01*
X123385520Y-91844226D01*
X123398254Y-91888058D01*
X123398255Y-91888060D01*
X123409060Y-91906329D01*
X123417617Y-91923797D01*
X123423226Y-91937963D01*
X123425432Y-91943535D01*
X123452266Y-91980469D01*
X123458678Y-91990231D01*
X123481919Y-92029528D01*
X123481923Y-92029532D01*
X123496925Y-92044534D01*
X123509563Y-92059332D01*
X123522033Y-92076496D01*
X123522036Y-92076500D01*
X123557213Y-92105600D01*
X123565854Y-92113463D01*
X127866734Y-96414343D01*
X127900219Y-96475666D01*
X127903053Y-96502024D01*
X127903053Y-96531946D01*
X127883368Y-96598985D01*
X127830564Y-96644740D01*
X127779053Y-96655946D01*
X126315682Y-96655946D01*
X126315676Y-96655947D01*
X126256069Y-96662354D01*
X126121224Y-96712648D01*
X126121217Y-96712652D01*
X126006008Y-96798898D01*
X126006005Y-96798901D01*
X125919759Y-96914110D01*
X125919755Y-96914117D01*
X125869461Y-97048963D01*
X125863054Y-97108562D01*
X125863053Y-97108581D01*
X125863053Y-98143745D01*
X125843368Y-98210784D01*
X125790564Y-98256539D01*
X125721406Y-98266483D01*
X125657850Y-98237458D01*
X125651372Y-98231426D01*
X120776752Y-93356806D01*
X120743267Y-93295483D01*
X120748251Y-93225791D01*
X120750000Y-93223425D01*
X120750000Y-92305501D01*
X120857685Y-92354680D01*
X120964237Y-92370000D01*
X121035763Y-92370000D01*
X121142315Y-92354680D01*
X121250000Y-92305501D01*
X121250000Y-93200633D01*
X121463483Y-93143433D01*
X121463492Y-93143429D01*
X121677578Y-93043600D01*
X121871082Y-92908105D01*
X122038105Y-92741082D01*
X122173600Y-92547578D01*
X122273429Y-92333492D01*
X122273432Y-92333486D01*
X122330636Y-92120000D01*
X121433686Y-92120000D01*
X121459493Y-92079844D01*
X121500000Y-91941889D01*
X121500000Y-91798111D01*
X121459493Y-91660156D01*
X121433686Y-91620000D01*
X122330636Y-91620000D01*
X122330635Y-91619999D01*
X122273432Y-91406513D01*
X122273429Y-91406507D01*
X122173600Y-91192422D01*
X122173599Y-91192420D01*
X122038113Y-90998926D01*
X122038108Y-90998920D01*
X121871078Y-90831890D01*
X121685405Y-90701879D01*
X121641780Y-90647302D01*
X121634588Y-90577804D01*
X121666110Y-90515449D01*
X121685406Y-90498730D01*
X121871401Y-90368495D01*
X122038495Y-90201401D01*
X122174035Y-90007830D01*
X122273903Y-89793663D01*
X122335063Y-89565408D01*
X122353753Y-89351781D01*
X122379205Y-89286713D01*
X122435796Y-89245734D01*
X122505558Y-89241856D01*
X122564962Y-89274908D01*
G37*
%TD.AperFunction*%
%TA.AperFunction,Conductor*%
G36*
X149253471Y-58000695D02*
G01*
X149294188Y-58002981D01*
X149550900Y-58017397D01*
X149564703Y-58018953D01*
X149854953Y-58068269D01*
X149868510Y-58071363D01*
X150151413Y-58152866D01*
X150164537Y-58157459D01*
X150436527Y-58270120D01*
X150449049Y-58276149D01*
X150647673Y-58385925D01*
X150706726Y-58418563D01*
X150718500Y-58425961D01*
X150958604Y-58596323D01*
X150969476Y-58604993D01*
X151188997Y-58801169D01*
X151198830Y-58811002D01*
X151395006Y-59030523D01*
X151403676Y-59041395D01*
X151574038Y-59281499D01*
X151581436Y-59293273D01*
X151723846Y-59550943D01*
X151729879Y-59563472D01*
X151842540Y-59835462D01*
X151847133Y-59848586D01*
X151928636Y-60131489D01*
X151931730Y-60145046D01*
X151981045Y-60435288D01*
X151982602Y-60449106D01*
X151999305Y-60746527D01*
X151999500Y-60753480D01*
X151999500Y-128246519D01*
X151999305Y-128253472D01*
X151982602Y-128550893D01*
X151981045Y-128564711D01*
X151931730Y-128854953D01*
X151928636Y-128868510D01*
X151847133Y-129151413D01*
X151842540Y-129164537D01*
X151729879Y-129436527D01*
X151723846Y-129449056D01*
X151581436Y-129706726D01*
X151574038Y-129718500D01*
X151403676Y-129958604D01*
X151395006Y-129969476D01*
X151198830Y-130188997D01*
X151188997Y-130198830D01*
X150969476Y-130395006D01*
X150958604Y-130403676D01*
X150718500Y-130574038D01*
X150706726Y-130581436D01*
X150449056Y-130723846D01*
X150436527Y-130729879D01*
X150164537Y-130842540D01*
X150151413Y-130847133D01*
X149868510Y-130928636D01*
X149854953Y-130931730D01*
X149564711Y-130981045D01*
X149550893Y-130982602D01*
X149253472Y-130999305D01*
X149246519Y-130999500D01*
X103253481Y-130999500D01*
X103246528Y-130999305D01*
X102949106Y-130982602D01*
X102935288Y-130981045D01*
X102645046Y-130931730D01*
X102631489Y-130928636D01*
X102348586Y-130847133D01*
X102335462Y-130842540D01*
X102063472Y-130729879D01*
X102050943Y-130723846D01*
X101793273Y-130581436D01*
X101781499Y-130574038D01*
X101541395Y-130403676D01*
X101530523Y-130395006D01*
X101311002Y-130198830D01*
X101301169Y-130188997D01*
X101152627Y-130022779D01*
X101104993Y-129969476D01*
X101096323Y-129958604D01*
X100925961Y-129718500D01*
X100918563Y-129706726D01*
X100850783Y-129584088D01*
X100776149Y-129449049D01*
X100770120Y-129436527D01*
X100657459Y-129164537D01*
X100652866Y-129151413D01*
X100571363Y-128868510D01*
X100568269Y-128854953D01*
X100546428Y-128726408D01*
X100518953Y-128564703D01*
X100517397Y-128550900D01*
X100500695Y-128253471D01*
X100500500Y-128246519D01*
X100500500Y-127750003D01*
X102895170Y-127750003D01*
X102914473Y-128081426D01*
X102914474Y-128081437D01*
X102972118Y-128408351D01*
X102972121Y-128408365D01*
X103067336Y-128726408D01*
X103198827Y-129031236D01*
X103198833Y-129031249D01*
X103364824Y-129318755D01*
X103562357Y-129584087D01*
X104635073Y-128511372D01*
X104711890Y-128621078D01*
X104878922Y-128788110D01*
X104988626Y-128864925D01*
X103919289Y-129934263D01*
X104045215Y-130039925D01*
X104322588Y-130222356D01*
X104619252Y-130371347D01*
X104619258Y-130371350D01*
X104931213Y-130484892D01*
X104931234Y-130484899D01*
X105254248Y-130561456D01*
X105254263Y-130561458D01*
X105584012Y-130599999D01*
X105584013Y-130600000D01*
X105915987Y-130600000D01*
X105915987Y-130599999D01*
X106245736Y-130561458D01*
X106245751Y-130561456D01*
X106568765Y-130484899D01*
X106568786Y-130484892D01*
X106880741Y-130371350D01*
X106880747Y-130371347D01*
X107177411Y-130222356D01*
X107454789Y-130039922D01*
X107580708Y-129934263D01*
X107580709Y-129934262D01*
X106511373Y-128864925D01*
X106621078Y-128788110D01*
X106788110Y-128621078D01*
X106864926Y-128511373D01*
X107937641Y-129584088D01*
X108135175Y-129318756D01*
X108301166Y-129031249D01*
X108301172Y-129031236D01*
X108432663Y-128726408D01*
X108527878Y-128408365D01*
X108527881Y-128408351D01*
X108585525Y-128081437D01*
X108585526Y-128081426D01*
X108604830Y-127750003D01*
X144145170Y-127750003D01*
X144164473Y-128081426D01*
X144164474Y-128081437D01*
X144222118Y-128408351D01*
X144222121Y-128408365D01*
X144317336Y-128726408D01*
X144448827Y-129031236D01*
X144448833Y-129031249D01*
X144614824Y-129318755D01*
X144812357Y-129584087D01*
X145885072Y-128511371D01*
X145961890Y-128621078D01*
X146128922Y-128788110D01*
X146238626Y-128864925D01*
X145169289Y-129934263D01*
X145295215Y-130039925D01*
X145572588Y-130222356D01*
X145869252Y-130371347D01*
X145869258Y-130371350D01*
X146181213Y-130484892D01*
X146181234Y-130484899D01*
X146504248Y-130561456D01*
X146504263Y-130561458D01*
X146834012Y-130599999D01*
X146834013Y-130600000D01*
X147165987Y-130600000D01*
X147165987Y-130599999D01*
X147495736Y-130561458D01*
X147495751Y-130561456D01*
X147818765Y-130484899D01*
X147818786Y-130484892D01*
X148130741Y-130371350D01*
X148130747Y-130371347D01*
X148427411Y-130222356D01*
X148704789Y-130039922D01*
X148830708Y-129934263D01*
X148830709Y-129934262D01*
X147761373Y-128864925D01*
X147871078Y-128788110D01*
X148038110Y-128621078D01*
X148114926Y-128511373D01*
X149187641Y-129584088D01*
X149385175Y-129318756D01*
X149551166Y-129031249D01*
X149551172Y-129031236D01*
X149682663Y-128726408D01*
X149777878Y-128408365D01*
X149777881Y-128408351D01*
X149835525Y-128081437D01*
X149835526Y-128081426D01*
X149854830Y-127750003D01*
X149854830Y-127749996D01*
X149835526Y-127418573D01*
X149835525Y-127418562D01*
X149777881Y-127091648D01*
X149777878Y-127091634D01*
X149682663Y-126773591D01*
X149551172Y-126468763D01*
X149551166Y-126468750D01*
X149385172Y-126181239D01*
X149187642Y-125915910D01*
X148114925Y-126988626D01*
X148038110Y-126878922D01*
X147871078Y-126711890D01*
X147761372Y-126635073D01*
X148830709Y-125565736D01*
X148830709Y-125565735D01*
X148704784Y-125460074D01*
X148427411Y-125277643D01*
X148130747Y-125128652D01*
X148130741Y-125128649D01*
X147818786Y-125015107D01*
X147818765Y-125015100D01*
X147495751Y-124938543D01*
X147495736Y-124938541D01*
X147165987Y-124900000D01*
X146834013Y-124900000D01*
X146504263Y-124938541D01*
X146504248Y-124938543D01*
X146181234Y-125015100D01*
X146181213Y-125015107D01*
X145869258Y-125128649D01*
X145869252Y-125128652D01*
X145572581Y-125277646D01*
X145295220Y-125460070D01*
X145295213Y-125460075D01*
X145169289Y-125565735D01*
X146238627Y-126635073D01*
X146128922Y-126711890D01*
X145961890Y-126878922D01*
X145885073Y-126988627D01*
X144812357Y-125915911D01*
X144812356Y-125915911D01*
X144614829Y-126181236D01*
X144614825Y-126181242D01*
X144448833Y-126468750D01*
X144448827Y-126468763D01*
X144317336Y-126773591D01*
X144222121Y-127091634D01*
X144222118Y-127091648D01*
X144164474Y-127418562D01*
X144164473Y-127418573D01*
X144145170Y-127749996D01*
X144145170Y-127750003D01*
X108604830Y-127750003D01*
X108604830Y-127749996D01*
X108585526Y-127418573D01*
X108585525Y-127418562D01*
X108527881Y-127091648D01*
X108527878Y-127091634D01*
X108432663Y-126773591D01*
X108301172Y-126468763D01*
X108301166Y-126468750D01*
X108135172Y-126181239D01*
X107937642Y-125915910D01*
X106864925Y-126988626D01*
X106788110Y-126878922D01*
X106621078Y-126711890D01*
X106511372Y-126635073D01*
X107580709Y-125565736D01*
X107580709Y-125565735D01*
X107454784Y-125460074D01*
X107177411Y-125277643D01*
X106880747Y-125128652D01*
X106880741Y-125128649D01*
X106568786Y-125015107D01*
X106568765Y-125015100D01*
X106245751Y-124938543D01*
X106245736Y-124938541D01*
X105915987Y-124900000D01*
X105584013Y-124900000D01*
X105254263Y-124938541D01*
X105254248Y-124938543D01*
X104931234Y-125015100D01*
X104931213Y-125015107D01*
X104619258Y-125128649D01*
X104619252Y-125128652D01*
X104322581Y-125277646D01*
X104045220Y-125460070D01*
X104045213Y-125460075D01*
X103919289Y-125565735D01*
X104988627Y-126635073D01*
X104878922Y-126711890D01*
X104711890Y-126878922D01*
X104635073Y-126988627D01*
X103562357Y-125915911D01*
X103562356Y-125915911D01*
X103364829Y-126181236D01*
X103364825Y-126181242D01*
X103198833Y-126468750D01*
X103198827Y-126468763D01*
X103067336Y-126773591D01*
X102972121Y-127091634D01*
X102972118Y-127091648D01*
X102914474Y-127418562D01*
X102914473Y-127418573D01*
X102895170Y-127749996D01*
X102895170Y-127750003D01*
X100500500Y-127750003D01*
X100500500Y-71250002D01*
X105415677Y-71250002D01*
X105434929Y-71470062D01*
X105434930Y-71470070D01*
X105492104Y-71683445D01*
X105492105Y-71683447D01*
X105492106Y-71683450D01*
X105585466Y-71883662D01*
X105585468Y-71883666D01*
X105666894Y-71999954D01*
X105712174Y-72064620D01*
X105868380Y-72220826D01*
X105979625Y-72298720D01*
X106023248Y-72353294D01*
X106032500Y-72400293D01*
X106032500Y-112239994D01*
X106030732Y-112256005D01*
X106030974Y-112256028D01*
X106030240Y-112263794D01*
X106032439Y-112333762D01*
X106032500Y-112337657D01*
X106032500Y-112366420D01*
X106032501Y-112366438D01*
X106033053Y-112370811D01*
X106033968Y-112382441D01*
X106035402Y-112428067D01*
X106035403Y-112428070D01*
X106041323Y-112448448D01*
X106045268Y-112467496D01*
X106047928Y-112488554D01*
X106047931Y-112488565D01*
X106064737Y-112531014D01*
X106068520Y-112542063D01*
X106081254Y-112585895D01*
X106081255Y-112585897D01*
X106092060Y-112604166D01*
X106100617Y-112621634D01*
X106106226Y-112635800D01*
X106108432Y-112641372D01*
X106135266Y-112678306D01*
X106141678Y-112688068D01*
X106164919Y-112727365D01*
X106164923Y-112727369D01*
X106179925Y-112742371D01*
X106192563Y-112757169D01*
X106205033Y-112774333D01*
X106205036Y-112774337D01*
X106240213Y-112803437D01*
X106248854Y-112811300D01*
X114724395Y-121286841D01*
X114757880Y-121348164D01*
X114752896Y-121417856D01*
X114711024Y-121473789D01*
X114645560Y-121498206D01*
X114625913Y-121498051D01*
X114620000Y-121497534D01*
X114619998Y-121497534D01*
X114393400Y-121517358D01*
X114393389Y-121517360D01*
X114173682Y-121576230D01*
X114173673Y-121576234D01*
X113967516Y-121672366D01*
X113967512Y-121672368D01*
X113894526Y-121723473D01*
X113894526Y-121723474D01*
X114575599Y-122404546D01*
X114494852Y-122417335D01*
X114381955Y-122474859D01*
X114292359Y-122564455D01*
X114234835Y-122677352D01*
X114222046Y-122758098D01*
X113540974Y-122077026D01*
X113540973Y-122077026D01*
X113489868Y-122150012D01*
X113489868Y-122150013D01*
X113462657Y-122208367D01*
X113416484Y-122260806D01*
X113349290Y-122279957D01*
X113282409Y-122259741D01*
X113237893Y-122208365D01*
X113210682Y-122150012D01*
X113210568Y-122149766D01*
X113080047Y-121963361D01*
X113080045Y-121963358D01*
X112919141Y-121802454D01*
X112732734Y-121671932D01*
X112732732Y-121671931D01*
X112526497Y-121575761D01*
X112526488Y-121575758D01*
X112306697Y-121516866D01*
X112306693Y-121516865D01*
X112306692Y-121516865D01*
X112306691Y-121516864D01*
X112306686Y-121516864D01*
X112080002Y-121497032D01*
X112079998Y-121497032D01*
X111853313Y-121516864D01*
X111853302Y-121516866D01*
X111633511Y-121575758D01*
X111633502Y-121575761D01*
X111427267Y-121671931D01*
X111427265Y-121671932D01*
X111240858Y-121802454D01*
X111079954Y-121963358D01*
X110949432Y-122149765D01*
X110949431Y-122149767D01*
X110922382Y-122207775D01*
X110876209Y-122260214D01*
X110809016Y-122279366D01*
X110742135Y-122259150D01*
X110697618Y-122207775D01*
X110670683Y-122150013D01*
X110670568Y-122149766D01*
X110540047Y-121963361D01*
X110540045Y-121963358D01*
X110379141Y-121802454D01*
X110192734Y-121671932D01*
X110192732Y-121671931D01*
X109986497Y-121575761D01*
X109986488Y-121575758D01*
X109766697Y-121516866D01*
X109766693Y-121516865D01*
X109766692Y-121516865D01*
X109766691Y-121516864D01*
X109766686Y-121516864D01*
X109540002Y-121497032D01*
X109539998Y-121497032D01*
X109313313Y-121516864D01*
X109313302Y-121516866D01*
X109093511Y-121575758D01*
X109093502Y-121575761D01*
X108887267Y-121671931D01*
X108887265Y-121671932D01*
X108700858Y-121802454D01*
X108539954Y-121963358D01*
X108522725Y-121987964D01*
X108468147Y-122031588D01*
X108398648Y-122038780D01*
X108336294Y-122007257D01*
X108300882Y-121947026D01*
X108297861Y-121930091D01*
X108294091Y-121895016D01*
X108243797Y-121760171D01*
X108243793Y-121760164D01*
X108157547Y-121644955D01*
X108157544Y-121644952D01*
X108042335Y-121558706D01*
X108042328Y-121558702D01*
X107907482Y-121508408D01*
X107907483Y-121508408D01*
X107847883Y-121502001D01*
X107847881Y-121502000D01*
X107847873Y-121502000D01*
X107847864Y-121502000D01*
X106152129Y-121502000D01*
X106152123Y-121502001D01*
X106092516Y-121508408D01*
X105957671Y-121558702D01*
X105957664Y-121558706D01*
X105842455Y-121644952D01*
X105842452Y-121644955D01*
X105756206Y-121760164D01*
X105756202Y-121760171D01*
X105705908Y-121895017D01*
X105699501Y-121954616D01*
X105699500Y-121954635D01*
X105699500Y-123650370D01*
X105699501Y-123650376D01*
X105705908Y-123709983D01*
X105756202Y-123844828D01*
X105756206Y-123844835D01*
X105842452Y-123960044D01*
X105842455Y-123960047D01*
X105957664Y-124046293D01*
X105957671Y-124046297D01*
X106092517Y-124096591D01*
X106092516Y-124096591D01*
X106099444Y-124097335D01*
X106152127Y-124103000D01*
X107847872Y-124102999D01*
X107907483Y-124096591D01*
X108042331Y-124046296D01*
X108157546Y-123960046D01*
X108243796Y-123844831D01*
X108294091Y-123709983D01*
X108297862Y-123674901D01*
X108324599Y-123610355D01*
X108381990Y-123570506D01*
X108451816Y-123568011D01*
X108511905Y-123603663D01*
X108522726Y-123617036D01*
X108539956Y-123641643D01*
X108700858Y-123802545D01*
X108700861Y-123802547D01*
X108887266Y-123933068D01*
X109093504Y-124029239D01*
X109313308Y-124088135D01*
X109475230Y-124102301D01*
X109539998Y-124107968D01*
X109540000Y-124107968D01*
X109540002Y-124107968D01*
X109596807Y-124102998D01*
X109766692Y-124088135D01*
X109986496Y-124029239D01*
X110192734Y-123933068D01*
X110379139Y-123802547D01*
X110540047Y-123641639D01*
X110670568Y-123455234D01*
X110697618Y-123397224D01*
X110743790Y-123344785D01*
X110810983Y-123325633D01*
X110877865Y-123345848D01*
X110922382Y-123397225D01*
X110949429Y-123455228D01*
X110949432Y-123455234D01*
X111079954Y-123641641D01*
X111240858Y-123802545D01*
X111240861Y-123802547D01*
X111427266Y-123933068D01*
X111633504Y-124029239D01*
X111853308Y-124088135D01*
X112015230Y-124102301D01*
X112079998Y-124107968D01*
X112080000Y-124107968D01*
X112080002Y-124107968D01*
X112136807Y-124102998D01*
X112306692Y-124088135D01*
X112526496Y-124029239D01*
X112732734Y-123933068D01*
X112919139Y-123802547D01*
X113080047Y-123641639D01*
X113210568Y-123455234D01*
X113237893Y-123396634D01*
X113284065Y-123344195D01*
X113351258Y-123325043D01*
X113418139Y-123345258D01*
X113462657Y-123396634D01*
X113489864Y-123454980D01*
X113540974Y-123527972D01*
X114222046Y-122846900D01*
X114234835Y-122927648D01*
X114292359Y-123040545D01*
X114381955Y-123130141D01*
X114494852Y-123187665D01*
X114575599Y-123200453D01*
X113894526Y-123881525D01*
X113967513Y-123932632D01*
X113967521Y-123932636D01*
X114173668Y-124028764D01*
X114173682Y-124028769D01*
X114393389Y-124087639D01*
X114393400Y-124087641D01*
X114619998Y-124107466D01*
X114620002Y-124107466D01*
X114846599Y-124087641D01*
X114846610Y-124087639D01*
X115066317Y-124028769D01*
X115066331Y-124028764D01*
X115272478Y-123932636D01*
X115345471Y-123881524D01*
X114664400Y-123200453D01*
X114745148Y-123187665D01*
X114858045Y-123130141D01*
X114947641Y-123040545D01*
X115005165Y-122927648D01*
X115017953Y-122846900D01*
X115699024Y-123527971D01*
X115750133Y-123454982D01*
X115777341Y-123396635D01*
X115823513Y-123344196D01*
X115890707Y-123325043D01*
X115957588Y-123345258D01*
X116002105Y-123396632D01*
X116029432Y-123455234D01*
X116029433Y-123455235D01*
X116159954Y-123641641D01*
X116320858Y-123802545D01*
X116320861Y-123802547D01*
X116507266Y-123933068D01*
X116713504Y-124029239D01*
X116933308Y-124088135D01*
X117095230Y-124102301D01*
X117159998Y-124107968D01*
X117160000Y-124107968D01*
X117160002Y-124107968D01*
X117216807Y-124102998D01*
X117386692Y-124088135D01*
X117606496Y-124029239D01*
X117812734Y-123933068D01*
X117999139Y-123802547D01*
X118160047Y-123641639D01*
X118290568Y-123455234D01*
X118317618Y-123397224D01*
X118363790Y-123344785D01*
X118430983Y-123325633D01*
X118497865Y-123345848D01*
X118542382Y-123397225D01*
X118569429Y-123455228D01*
X118569432Y-123455234D01*
X118699954Y-123641641D01*
X118860858Y-123802545D01*
X118860861Y-123802547D01*
X119047266Y-123933068D01*
X119253504Y-124029239D01*
X119473308Y-124088135D01*
X119635230Y-124102301D01*
X119699998Y-124107968D01*
X119700000Y-124107968D01*
X119700002Y-124107968D01*
X119756807Y-124102998D01*
X119926692Y-124088135D01*
X120146496Y-124029239D01*
X120352734Y-123933068D01*
X120539139Y-123802547D01*
X120700047Y-123641639D01*
X120830568Y-123455234D01*
X120857618Y-123397224D01*
X120903790Y-123344785D01*
X120970983Y-123325633D01*
X121037865Y-123345848D01*
X121082382Y-123397225D01*
X121109429Y-123455228D01*
X121109432Y-123455234D01*
X121239954Y-123641641D01*
X121400858Y-123802545D01*
X121400861Y-123802547D01*
X121587266Y-123933068D01*
X121793504Y-124029239D01*
X122013308Y-124088135D01*
X122175230Y-124102301D01*
X122239998Y-124107968D01*
X122240000Y-124107968D01*
X122240002Y-124107968D01*
X122296807Y-124102998D01*
X122466692Y-124088135D01*
X122686496Y-124029239D01*
X122892734Y-123933068D01*
X123079139Y-123802547D01*
X123240047Y-123641639D01*
X123370568Y-123455234D01*
X123397618Y-123397224D01*
X123443790Y-123344785D01*
X123510983Y-123325633D01*
X123577865Y-123345848D01*
X123622382Y-123397225D01*
X123649429Y-123455228D01*
X123649432Y-123455234D01*
X123779954Y-123641641D01*
X123940858Y-123802545D01*
X123940861Y-123802547D01*
X124127266Y-123933068D01*
X124333504Y-124029239D01*
X124553308Y-124088135D01*
X124715230Y-124102301D01*
X124779998Y-124107968D01*
X124780000Y-124107968D01*
X124780002Y-124107968D01*
X124836807Y-124102998D01*
X125006692Y-124088135D01*
X125226496Y-124029239D01*
X125432734Y-123933068D01*
X125619139Y-123802547D01*
X125780047Y-123641639D01*
X125910568Y-123455234D01*
X125937618Y-123397224D01*
X125983790Y-123344785D01*
X126050983Y-123325633D01*
X126117865Y-123345848D01*
X126162382Y-123397225D01*
X126189429Y-123455228D01*
X126189432Y-123455234D01*
X126319954Y-123641641D01*
X126480858Y-123802545D01*
X126480861Y-123802547D01*
X126667266Y-123933068D01*
X126873504Y-124029239D01*
X127093308Y-124088135D01*
X127255230Y-124102301D01*
X127319998Y-124107968D01*
X127320000Y-124107968D01*
X127320002Y-124107968D01*
X127376807Y-124102998D01*
X127546692Y-124088135D01*
X127766496Y-124029239D01*
X127972734Y-123933068D01*
X128159139Y-123802547D01*
X128320047Y-123641639D01*
X128450568Y-123455234D01*
X128477618Y-123397224D01*
X128523790Y-123344785D01*
X128590983Y-123325633D01*
X128657865Y-123345848D01*
X128702382Y-123397225D01*
X128729429Y-123455228D01*
X128729432Y-123455234D01*
X128859954Y-123641641D01*
X129020858Y-123802545D01*
X129020861Y-123802547D01*
X129207266Y-123933068D01*
X129413504Y-124029239D01*
X129633308Y-124088135D01*
X129795230Y-124102301D01*
X129859998Y-124107968D01*
X129860000Y-124107968D01*
X129860002Y-124107968D01*
X129916807Y-124102998D01*
X130086692Y-124088135D01*
X130306496Y-124029239D01*
X130512734Y-123933068D01*
X130699139Y-123802547D01*
X130860047Y-123641639D01*
X130990568Y-123455234D01*
X131017618Y-123397224D01*
X131063790Y-123344785D01*
X131130983Y-123325633D01*
X131197865Y-123345848D01*
X131242382Y-123397225D01*
X131269429Y-123455228D01*
X131269432Y-123455234D01*
X131399954Y-123641641D01*
X131560858Y-123802545D01*
X131560861Y-123802547D01*
X131747266Y-123933068D01*
X131953504Y-124029239D01*
X132173308Y-124088135D01*
X132335230Y-124102301D01*
X132399998Y-124107968D01*
X132400000Y-124107968D01*
X132400002Y-124107968D01*
X132456807Y-124102998D01*
X132626692Y-124088135D01*
X132846496Y-124029239D01*
X133052734Y-123933068D01*
X133239139Y-123802547D01*
X133400047Y-123641639D01*
X133530568Y-123455234D01*
X133557618Y-123397224D01*
X133603790Y-123344785D01*
X133670983Y-123325633D01*
X133737865Y-123345848D01*
X133782382Y-123397225D01*
X133809429Y-123455228D01*
X133809432Y-123455234D01*
X133939954Y-123641641D01*
X134100858Y-123802545D01*
X134100861Y-123802547D01*
X134287266Y-123933068D01*
X134493504Y-124029239D01*
X134713308Y-124088135D01*
X134875230Y-124102301D01*
X134939998Y-124107968D01*
X134940000Y-124107968D01*
X134940002Y-124107968D01*
X134996807Y-124102998D01*
X135166692Y-124088135D01*
X135386496Y-124029239D01*
X135592734Y-123933068D01*
X135779139Y-123802547D01*
X135940047Y-123641639D01*
X136070568Y-123455234D01*
X136097618Y-123397224D01*
X136143790Y-123344785D01*
X136210983Y-123325633D01*
X136277865Y-123345848D01*
X136322382Y-123397225D01*
X136349429Y-123455228D01*
X136349432Y-123455234D01*
X136479954Y-123641641D01*
X136640858Y-123802545D01*
X136640861Y-123802547D01*
X136827266Y-123933068D01*
X137033504Y-124029239D01*
X137253308Y-124088135D01*
X137415230Y-124102301D01*
X137479998Y-124107968D01*
X137480000Y-124107968D01*
X137480002Y-124107968D01*
X137536807Y-124102998D01*
X137706692Y-124088135D01*
X137926496Y-124029239D01*
X138132734Y-123933068D01*
X138319139Y-123802547D01*
X138480047Y-123641639D01*
X138610568Y-123455234D01*
X138637618Y-123397224D01*
X138683790Y-123344785D01*
X138750983Y-123325633D01*
X138817865Y-123345848D01*
X138862382Y-123397225D01*
X138889429Y-123455228D01*
X138889432Y-123455234D01*
X139019954Y-123641641D01*
X139180858Y-123802545D01*
X139180861Y-123802547D01*
X139367266Y-123933068D01*
X139573504Y-124029239D01*
X139793308Y-124088135D01*
X139955230Y-124102301D01*
X140019998Y-124107968D01*
X140020000Y-124107968D01*
X140020002Y-124107968D01*
X140076807Y-124102998D01*
X140246692Y-124088135D01*
X140466496Y-124029239D01*
X140672734Y-123933068D01*
X140859139Y-123802547D01*
X141020047Y-123641639D01*
X141150568Y-123455234D01*
X141177618Y-123397224D01*
X141223790Y-123344785D01*
X141290983Y-123325633D01*
X141357865Y-123345848D01*
X141402382Y-123397225D01*
X141429429Y-123455228D01*
X141429432Y-123455234D01*
X141559954Y-123641641D01*
X141720858Y-123802545D01*
X141720861Y-123802547D01*
X141907266Y-123933068D01*
X142113504Y-124029239D01*
X142333308Y-124088135D01*
X142495230Y-124102301D01*
X142559998Y-124107968D01*
X142560000Y-124107968D01*
X142560002Y-124107968D01*
X142616807Y-124102998D01*
X142786692Y-124088135D01*
X143006496Y-124029239D01*
X143212734Y-123933068D01*
X143399139Y-123802547D01*
X143560047Y-123641639D01*
X143690568Y-123455234D01*
X143717618Y-123397224D01*
X143763790Y-123344785D01*
X143830983Y-123325633D01*
X143897865Y-123345848D01*
X143942382Y-123397225D01*
X143969429Y-123455228D01*
X143969432Y-123455234D01*
X144099954Y-123641641D01*
X144260858Y-123802545D01*
X144260861Y-123802547D01*
X144447266Y-123933068D01*
X144653504Y-124029239D01*
X144873308Y-124088135D01*
X145035230Y-124102301D01*
X145099998Y-124107968D01*
X145100000Y-124107968D01*
X145100002Y-124107968D01*
X145156807Y-124102998D01*
X145326692Y-124088135D01*
X145546496Y-124029239D01*
X145752734Y-123933068D01*
X145939139Y-123802547D01*
X146100047Y-123641639D01*
X146230568Y-123455234D01*
X146326739Y-123248996D01*
X146385635Y-123029192D01*
X146405468Y-122802500D01*
X146385635Y-122575808D01*
X146326739Y-122356004D01*
X146230568Y-122149766D01*
X146100047Y-121963361D01*
X146100045Y-121963358D01*
X145939141Y-121802454D01*
X145752734Y-121671932D01*
X145752732Y-121671931D01*
X145546497Y-121575761D01*
X145546488Y-121575758D01*
X145326697Y-121516866D01*
X145326693Y-121516865D01*
X145326692Y-121516865D01*
X145326691Y-121516864D01*
X145326686Y-121516864D01*
X145100002Y-121497032D01*
X145099998Y-121497032D01*
X144873313Y-121516864D01*
X144873299Y-121516867D01*
X144832834Y-121527709D01*
X144762984Y-121526045D01*
X144713061Y-121495615D01*
X139316819Y-116099373D01*
X139283334Y-116038050D01*
X139280500Y-116011692D01*
X139280500Y-103767249D01*
X139300185Y-103700210D01*
X139352989Y-103654455D01*
X139422147Y-103644511D01*
X139456901Y-103654865D01*
X139573504Y-103709239D01*
X139793308Y-103768135D01*
X139955230Y-103782301D01*
X140019998Y-103787968D01*
X140020000Y-103787968D01*
X140020002Y-103787968D01*
X140076673Y-103783009D01*
X140246692Y-103768135D01*
X140466496Y-103709239D01*
X140672734Y-103613068D01*
X140859139Y-103482547D01*
X141020047Y-103321639D01*
X141150568Y-103135234D01*
X141177618Y-103077224D01*
X141223790Y-103024785D01*
X141290983Y-103005633D01*
X141357865Y-103025848D01*
X141402382Y-103077225D01*
X141429429Y-103135228D01*
X141429432Y-103135234D01*
X141559954Y-103321641D01*
X141720858Y-103482545D01*
X141720861Y-103482547D01*
X141907266Y-103613068D01*
X142113504Y-103709239D01*
X142333308Y-103768135D01*
X142495230Y-103782301D01*
X142559998Y-103787968D01*
X142560000Y-103787968D01*
X142560002Y-103787968D01*
X142616673Y-103783009D01*
X142786692Y-103768135D01*
X143006496Y-103709239D01*
X143212734Y-103613068D01*
X143399139Y-103482547D01*
X143560047Y-103321639D01*
X143690568Y-103135234D01*
X143717618Y-103077224D01*
X143763790Y-103024785D01*
X143830983Y-103005633D01*
X143897865Y-103025848D01*
X143942382Y-103077225D01*
X143969429Y-103135228D01*
X143969432Y-103135234D01*
X144099954Y-103321641D01*
X144260858Y-103482545D01*
X144260861Y-103482547D01*
X144447266Y-103613068D01*
X144653504Y-103709239D01*
X144873308Y-103768135D01*
X145035230Y-103782301D01*
X145099998Y-103787968D01*
X145100000Y-103787968D01*
X145100002Y-103787968D01*
X145156673Y-103783009D01*
X145326692Y-103768135D01*
X145546496Y-103709239D01*
X145752734Y-103613068D01*
X145939139Y-103482547D01*
X146100047Y-103321639D01*
X146230568Y-103135234D01*
X146326739Y-102928996D01*
X146385635Y-102709192D01*
X146405468Y-102482500D01*
X146385635Y-102255808D01*
X146326739Y-102036004D01*
X146230568Y-101829766D01*
X146100047Y-101643361D01*
X146100045Y-101643358D01*
X145939141Y-101482454D01*
X145752734Y-101351932D01*
X145752732Y-101351931D01*
X145546497Y-101255761D01*
X145546488Y-101255758D01*
X145326697Y-101196866D01*
X145326693Y-101196865D01*
X145326692Y-101196865D01*
X145326691Y-101196864D01*
X145326686Y-101196864D01*
X145100002Y-101177032D01*
X145099998Y-101177032D01*
X144873313Y-101196864D01*
X144873299Y-101196867D01*
X144832834Y-101207709D01*
X144762984Y-101206045D01*
X144713061Y-101175615D01*
X144240372Y-100702926D01*
X144206887Y-100641603D01*
X144204053Y-100615245D01*
X144204053Y-99240644D01*
X144223738Y-99173605D01*
X144276542Y-99127850D01*
X144345700Y-99117906D01*
X144380458Y-99128262D01*
X144497226Y-99182711D01*
X144497235Y-99182715D01*
X144693552Y-99235318D01*
X144693553Y-99235317D01*
X144693553Y-98272132D01*
X144705508Y-98284087D01*
X144818405Y-98341611D01*
X144912072Y-98356446D01*
X144975034Y-98356446D01*
X145068701Y-98341611D01*
X145181598Y-98284087D01*
X145193553Y-98272132D01*
X145193553Y-99235318D01*
X145389870Y-99182715D01*
X145389879Y-99182711D01*
X145596035Y-99086580D01*
X145782373Y-98956103D01*
X145943210Y-98795266D01*
X146073687Y-98608928D01*
X146169818Y-98402772D01*
X146169822Y-98402763D01*
X146222425Y-98206446D01*
X145259239Y-98206446D01*
X145271194Y-98194491D01*
X145328718Y-98081594D01*
X145348539Y-97956446D01*
X145328718Y-97831298D01*
X145271194Y-97718401D01*
X145259239Y-97706446D01*
X146222425Y-97706446D01*
X146222425Y-97706445D01*
X146169822Y-97510128D01*
X146169818Y-97510119D01*
X146073687Y-97303963D01*
X145943210Y-97117625D01*
X145782373Y-96956788D01*
X145596035Y-96826311D01*
X145389881Y-96730180D01*
X145193553Y-96677573D01*
X145193553Y-97640760D01*
X145181598Y-97628805D01*
X145068701Y-97571281D01*
X144975034Y-97556446D01*
X144912072Y-97556446D01*
X144818405Y-97571281D01*
X144705508Y-97628805D01*
X144693553Y-97640760D01*
X144693553Y-96677573D01*
X144497222Y-96730181D01*
X144380457Y-96784629D01*
X144311379Y-96795121D01*
X144247596Y-96766601D01*
X144209357Y-96708124D01*
X144204053Y-96672247D01*
X144204053Y-95126760D01*
X144206250Y-95103522D01*
X144207929Y-95094721D01*
X144204298Y-95037010D01*
X144204053Y-95029224D01*
X144204053Y-95012629D01*
X144204053Y-95012628D01*
X144201971Y-94996150D01*
X144201240Y-94988408D01*
X144200503Y-94976692D01*
X144197609Y-94930693D01*
X144194836Y-94922161D01*
X144189746Y-94899382D01*
X144188624Y-94890495D01*
X144167331Y-94836715D01*
X144164692Y-94829384D01*
X144162783Y-94823509D01*
X144146821Y-94774382D01*
X144144883Y-94771329D01*
X144142016Y-94766810D01*
X144131421Y-94746019D01*
X144128121Y-94737682D01*
X144094131Y-94690899D01*
X144089754Y-94684458D01*
X144058757Y-94635615D01*
X144058756Y-94635613D01*
X144052215Y-94629471D01*
X144036789Y-94611973D01*
X144031516Y-94604716D01*
X143986934Y-94567834D01*
X143981108Y-94562697D01*
X143938943Y-94523102D01*
X143931086Y-94518783D01*
X143911785Y-94505666D01*
X143904880Y-94499953D01*
X143904878Y-94499952D01*
X143852543Y-94475324D01*
X143845606Y-94471790D01*
X143794919Y-94443925D01*
X143786227Y-94441693D01*
X143764285Y-94433794D01*
X143756166Y-94429974D01*
X143756159Y-94429972D01*
X143699343Y-94419133D01*
X143691742Y-94417434D01*
X143635735Y-94403053D01*
X143635730Y-94403053D01*
X143626763Y-94403053D01*
X143603531Y-94400857D01*
X143594723Y-94399177D01*
X143594720Y-94399176D01*
X143537010Y-94402808D01*
X143529224Y-94403053D01*
X130575122Y-94403053D01*
X130508083Y-94383368D01*
X130487441Y-94366734D01*
X127785629Y-91664922D01*
X127752144Y-91603599D01*
X127757128Y-91533907D01*
X127799000Y-91477974D01*
X127811914Y-91470273D01*
X127811596Y-91469722D01*
X127816278Y-91467018D01*
X127816287Y-91467014D01*
X128002692Y-91336493D01*
X128163600Y-91175585D01*
X128294121Y-90989180D01*
X128321171Y-90931170D01*
X128367343Y-90878731D01*
X128434536Y-90859579D01*
X128501418Y-90879794D01*
X128545935Y-90931171D01*
X128572982Y-90989174D01*
X128572985Y-90989180D01*
X128703507Y-91175587D01*
X128864411Y-91336491D01*
X128901151Y-91362216D01*
X129050819Y-91467014D01*
X129257057Y-91563185D01*
X129257062Y-91563186D01*
X129257064Y-91563187D01*
X129309968Y-91577362D01*
X129476861Y-91622081D01*
X129638783Y-91636247D01*
X129703551Y-91641914D01*
X129703553Y-91641914D01*
X129703555Y-91641914D01*
X129760226Y-91636955D01*
X129930245Y-91622081D01*
X130150049Y-91563185D01*
X130356287Y-91467014D01*
X130542692Y-91336493D01*
X130703600Y-91175585D01*
X130834121Y-90989180D01*
X130861171Y-90931170D01*
X130907343Y-90878731D01*
X130974536Y-90859579D01*
X131041418Y-90879794D01*
X131085935Y-90931171D01*
X131112982Y-90989174D01*
X131112985Y-90989180D01*
X131243507Y-91175587D01*
X131404411Y-91336491D01*
X131441151Y-91362216D01*
X131590819Y-91467014D01*
X131797057Y-91563185D01*
X131797062Y-91563186D01*
X131797064Y-91563187D01*
X131849968Y-91577362D01*
X132016861Y-91622081D01*
X132178783Y-91636247D01*
X132243551Y-91641914D01*
X132243553Y-91641914D01*
X132243555Y-91641914D01*
X132300226Y-91636955D01*
X132470245Y-91622081D01*
X132690049Y-91563185D01*
X132896287Y-91467014D01*
X133082692Y-91336493D01*
X133243600Y-91175585D01*
X133374121Y-90989180D01*
X133401171Y-90931170D01*
X133447343Y-90878731D01*
X133514536Y-90859579D01*
X133581418Y-90879794D01*
X133625935Y-90931171D01*
X133652982Y-90989174D01*
X133652985Y-90989180D01*
X133783507Y-91175587D01*
X133944411Y-91336491D01*
X133981151Y-91362216D01*
X134130819Y-91467014D01*
X134337057Y-91563185D01*
X134337062Y-91563186D01*
X134337064Y-91563187D01*
X134389968Y-91577362D01*
X134556861Y-91622081D01*
X134718783Y-91636247D01*
X134783551Y-91641914D01*
X134783553Y-91641914D01*
X134783555Y-91641914D01*
X134840226Y-91636955D01*
X135010245Y-91622081D01*
X135230049Y-91563185D01*
X135436287Y-91467014D01*
X135622692Y-91336493D01*
X135783600Y-91175585D01*
X135914121Y-90989180D01*
X135941171Y-90931170D01*
X135987343Y-90878731D01*
X136054536Y-90859579D01*
X136121418Y-90879794D01*
X136165935Y-90931171D01*
X136192982Y-90989174D01*
X136192985Y-90989180D01*
X136323507Y-91175587D01*
X136484411Y-91336491D01*
X136521151Y-91362216D01*
X136670819Y-91467014D01*
X136877057Y-91563185D01*
X136877062Y-91563186D01*
X136877064Y-91563187D01*
X136929968Y-91577362D01*
X137096861Y-91622081D01*
X137258783Y-91636247D01*
X137323551Y-91641914D01*
X137323553Y-91641914D01*
X137323555Y-91641914D01*
X137380226Y-91636955D01*
X137550245Y-91622081D01*
X137770049Y-91563185D01*
X137976287Y-91467014D01*
X138162692Y-91336493D01*
X138323600Y-91175585D01*
X138454121Y-90989180D01*
X138481171Y-90931170D01*
X138527343Y-90878731D01*
X138594536Y-90859579D01*
X138661418Y-90879794D01*
X138705935Y-90931171D01*
X138732982Y-90989174D01*
X138732985Y-90989180D01*
X138863507Y-91175587D01*
X139024411Y-91336491D01*
X139061151Y-91362216D01*
X139210819Y-91467014D01*
X139417057Y-91563185D01*
X139417062Y-91563186D01*
X139417064Y-91563187D01*
X139469968Y-91577362D01*
X139636861Y-91622081D01*
X139798783Y-91636247D01*
X139863551Y-91641914D01*
X139863553Y-91641914D01*
X139863555Y-91641914D01*
X139920226Y-91636955D01*
X140090245Y-91622081D01*
X140310049Y-91563185D01*
X140516287Y-91467014D01*
X140702692Y-91336493D01*
X140863600Y-91175585D01*
X140994121Y-90989180D01*
X141021171Y-90931170D01*
X141067343Y-90878731D01*
X141134536Y-90859579D01*
X141201418Y-90879794D01*
X141245935Y-90931171D01*
X141272982Y-90989174D01*
X141272985Y-90989180D01*
X141403507Y-91175587D01*
X141564411Y-91336491D01*
X141601151Y-91362216D01*
X141750819Y-91467014D01*
X141957057Y-91563185D01*
X141957062Y-91563186D01*
X141957064Y-91563187D01*
X142009968Y-91577362D01*
X142176861Y-91622081D01*
X142338783Y-91636247D01*
X142403551Y-91641914D01*
X142403553Y-91641914D01*
X142403555Y-91641914D01*
X142460226Y-91636955D01*
X142630245Y-91622081D01*
X142850049Y-91563185D01*
X143056287Y-91467014D01*
X143242692Y-91336493D01*
X143403600Y-91175585D01*
X143534121Y-90989180D01*
X143561171Y-90931170D01*
X143607343Y-90878731D01*
X143674536Y-90859579D01*
X143741418Y-90879794D01*
X143785935Y-90931171D01*
X143812982Y-90989174D01*
X143812985Y-90989180D01*
X143943507Y-91175587D01*
X144104411Y-91336491D01*
X144141151Y-91362216D01*
X144290819Y-91467014D01*
X144497057Y-91563185D01*
X144497062Y-91563186D01*
X144497064Y-91563187D01*
X144549968Y-91577362D01*
X144716861Y-91622081D01*
X144878783Y-91636247D01*
X144943551Y-91641914D01*
X144943553Y-91641914D01*
X144943555Y-91641914D01*
X145000226Y-91636955D01*
X145170245Y-91622081D01*
X145390049Y-91563185D01*
X145596287Y-91467014D01*
X145738362Y-91367533D01*
X145804568Y-91345206D01*
X145872336Y-91362216D01*
X145897166Y-91381427D01*
X147086835Y-92571096D01*
X147120320Y-92632419D01*
X147122682Y-92669583D01*
X147108085Y-92836442D01*
X147108085Y-92836447D01*
X147127917Y-93063132D01*
X147127919Y-93063143D01*
X147186811Y-93282934D01*
X147186814Y-93282943D01*
X147282984Y-93489178D01*
X147282985Y-93489180D01*
X147413507Y-93675587D01*
X147574411Y-93836491D01*
X147574414Y-93836493D01*
X147760819Y-93967014D01*
X147776528Y-93974339D01*
X147828967Y-94020510D01*
X147848120Y-94087703D01*
X147827905Y-94154584D01*
X147776532Y-94199102D01*
X147761067Y-94206313D01*
X147761065Y-94206314D01*
X147688079Y-94257419D01*
X147688079Y-94257420D01*
X148369152Y-94938492D01*
X148288405Y-94951281D01*
X148175508Y-95008805D01*
X148085912Y-95098401D01*
X148028388Y-95211298D01*
X148015599Y-95292044D01*
X147334527Y-94610972D01*
X147334526Y-94610972D01*
X147283421Y-94683958D01*
X147283419Y-94683962D01*
X147187287Y-94890119D01*
X147187283Y-94890128D01*
X147128413Y-95109835D01*
X147128411Y-95109846D01*
X147108587Y-95336443D01*
X147108587Y-95336448D01*
X147128411Y-95563045D01*
X147128413Y-95563056D01*
X147187283Y-95782763D01*
X147187288Y-95782777D01*
X147283416Y-95988924D01*
X147334527Y-96061918D01*
X148015599Y-95380846D01*
X148028388Y-95461594D01*
X148085912Y-95574491D01*
X148175508Y-95664087D01*
X148288405Y-95721611D01*
X148369152Y-95734399D01*
X147688079Y-96415471D01*
X147761066Y-96466578D01*
X147761074Y-96466582D01*
X147967221Y-96562710D01*
X147967235Y-96562715D01*
X148186942Y-96621585D01*
X148186953Y-96621587D01*
X148413551Y-96641412D01*
X148413555Y-96641412D01*
X148640152Y-96621587D01*
X148640163Y-96621585D01*
X148859870Y-96562715D01*
X148859884Y-96562710D01*
X149066031Y-96466582D01*
X149139024Y-96415470D01*
X148457953Y-95734399D01*
X148538701Y-95721611D01*
X148651598Y-95664087D01*
X148741194Y-95574491D01*
X148798718Y-95461594D01*
X148811506Y-95380846D01*
X149492577Y-96061917D01*
X149543689Y-95988924D01*
X149639817Y-95782777D01*
X149639822Y-95782763D01*
X149698692Y-95563056D01*
X149698694Y-95563045D01*
X149718519Y-95336448D01*
X149718519Y-95336443D01*
X149698694Y-95109846D01*
X149698692Y-95109835D01*
X149639822Y-94890128D01*
X149639817Y-94890114D01*
X149543689Y-94683967D01*
X149543685Y-94683959D01*
X149492578Y-94610972D01*
X148811506Y-95292044D01*
X148798718Y-95211298D01*
X148741194Y-95098401D01*
X148651598Y-95008805D01*
X148538701Y-94951281D01*
X148457954Y-94938492D01*
X149139025Y-94257420D01*
X149066033Y-94206310D01*
X149050577Y-94199103D01*
X148998138Y-94152930D01*
X148978986Y-94085736D01*
X148999202Y-94018855D01*
X149050576Y-93974339D01*
X149066287Y-93967014D01*
X149252692Y-93836493D01*
X149413600Y-93675585D01*
X149544121Y-93489180D01*
X149640292Y-93282942D01*
X149699188Y-93063138D01*
X149719021Y-92836446D01*
X149699188Y-92609754D01*
X149640292Y-92389950D01*
X149544121Y-92183712D01*
X149413600Y-91997307D01*
X149413598Y-91997304D01*
X149252694Y-91836400D01*
X149066287Y-91705878D01*
X149066285Y-91705877D01*
X148860050Y-91609707D01*
X148860041Y-91609704D01*
X148640250Y-91550812D01*
X148640246Y-91550811D01*
X148640245Y-91550811D01*
X148640244Y-91550810D01*
X148640239Y-91550810D01*
X148413555Y-91530978D01*
X148413550Y-91530978D01*
X148246690Y-91545575D01*
X148178190Y-91531808D01*
X148148203Y-91509728D01*
X146489282Y-89850807D01*
X146477502Y-89837176D01*
X146463163Y-89817916D01*
X146425204Y-89786065D01*
X146417239Y-89778764D01*
X146413333Y-89774857D01*
X146388996Y-89755614D01*
X146386200Y-89753336D01*
X146328767Y-89705144D01*
X146322733Y-89701175D01*
X146322765Y-89701126D01*
X146316406Y-89697074D01*
X146316375Y-89697125D01*
X146310233Y-89693337D01*
X146310231Y-89693336D01*
X146310230Y-89693335D01*
X146242241Y-89661630D01*
X146239000Y-89660061D01*
X146208083Y-89644534D01*
X146171986Y-89626406D01*
X146171984Y-89626405D01*
X146171983Y-89626405D01*
X146165198Y-89623935D01*
X146165218Y-89623879D01*
X146158102Y-89621405D01*
X146158084Y-89621461D01*
X146151225Y-89619188D01*
X146077739Y-89604014D01*
X146074222Y-89603234D01*
X146052456Y-89598076D01*
X145991762Y-89563464D01*
X145979473Y-89548540D01*
X145960150Y-89520944D01*
X145943600Y-89497307D01*
X145943599Y-89497306D01*
X145943597Y-89497303D01*
X145782694Y-89336400D01*
X145596287Y-89205878D01*
X145596285Y-89205877D01*
X145390050Y-89109707D01*
X145390041Y-89109704D01*
X145170250Y-89050812D01*
X145170246Y-89050811D01*
X145170245Y-89050811D01*
X145170244Y-89050810D01*
X145170239Y-89050810D01*
X144943555Y-89030978D01*
X144938329Y-89030978D01*
X144871290Y-89011293D01*
X144825535Y-88958489D01*
X144815591Y-88889331D01*
X144844616Y-88825775D01*
X144850648Y-88819297D01*
X145656943Y-88013002D01*
X146473653Y-87196291D01*
X146534974Y-87162808D01*
X146593422Y-87164198D01*
X146764592Y-87210063D01*
X146952918Y-87226539D01*
X146999999Y-87230659D01*
X147000000Y-87230659D01*
X147000001Y-87230659D01*
X147039234Y-87227226D01*
X147235408Y-87210063D01*
X147463663Y-87148903D01*
X147677829Y-87049035D01*
X147871401Y-86913495D01*
X148038495Y-86746401D01*
X148174035Y-86552829D01*
X148273903Y-86338663D01*
X148335063Y-86110408D01*
X148350500Y-85933966D01*
X148350500Y-85566034D01*
X148335063Y-85389592D01*
X148329311Y-85368125D01*
X148330974Y-85298277D01*
X148340426Y-85276292D01*
X148359627Y-85241368D01*
X148364905Y-85220806D01*
X148371207Y-85202399D01*
X148379635Y-85182927D01*
X148386777Y-85137825D01*
X148389140Y-85126418D01*
X148400500Y-85082177D01*
X148400500Y-85060949D01*
X148402027Y-85041549D01*
X148405346Y-85020595D01*
X148401050Y-84975147D01*
X148400500Y-84963478D01*
X148400500Y-81274499D01*
X148420185Y-81207460D01*
X148472989Y-81161705D01*
X148524500Y-81150499D01*
X148697871Y-81150499D01*
X148697872Y-81150499D01*
X148757483Y-81144091D01*
X148892331Y-81093796D01*
X149007546Y-81007546D01*
X149093796Y-80892331D01*
X149144091Y-80757483D01*
X149150500Y-80697873D01*
X149150499Y-78802128D01*
X149145299Y-78753757D01*
X149144091Y-78742516D01*
X149093797Y-78607671D01*
X149093793Y-78607664D01*
X149007547Y-78492455D01*
X149007544Y-78492452D01*
X148892335Y-78406206D01*
X148892328Y-78406202D01*
X148812094Y-78376277D01*
X148756160Y-78334406D01*
X148731743Y-78268941D01*
X148746595Y-78200668D01*
X148764190Y-78176121D01*
X148858979Y-78073153D01*
X148985924Y-77878849D01*
X149079157Y-77666300D01*
X149136134Y-77441305D01*
X149155300Y-77210000D01*
X149155300Y-77209993D01*
X149136135Y-76978702D01*
X149136133Y-76978691D01*
X149079157Y-76753699D01*
X148985924Y-76541151D01*
X148858983Y-76346852D01*
X148858980Y-76346849D01*
X148858979Y-76346847D01*
X148701784Y-76176087D01*
X148701779Y-76176083D01*
X148701777Y-76176081D01*
X148518634Y-76033535D01*
X148518623Y-76033528D01*
X148465481Y-76004768D01*
X148415891Y-75955548D01*
X148400500Y-75895714D01*
X148400500Y-73990048D01*
X148420185Y-73923009D01*
X148436814Y-73902371D01*
X148500047Y-73839139D01*
X148630568Y-73652734D01*
X148726739Y-73446496D01*
X148785635Y-73226692D01*
X148805468Y-73000000D01*
X148805223Y-72997204D01*
X148785635Y-72773313D01*
X148785635Y-72773308D01*
X148726739Y-72553504D01*
X148630568Y-72347266D01*
X148500047Y-72160861D01*
X148500045Y-72160858D01*
X148339141Y-71999954D01*
X148152734Y-71869432D01*
X148152728Y-71869429D01*
X148094725Y-71842382D01*
X148042285Y-71796210D01*
X148023133Y-71729017D01*
X148043348Y-71662135D01*
X148094725Y-71617618D01*
X148152734Y-71590568D01*
X148339139Y-71460047D01*
X148500047Y-71299139D01*
X148630568Y-71112734D01*
X148726739Y-70906496D01*
X148785635Y-70686692D01*
X148805468Y-70460000D01*
X148805030Y-70454998D01*
X148789648Y-70279175D01*
X148785635Y-70233308D01*
X148726739Y-70013504D01*
X148630568Y-69807266D01*
X148500047Y-69620861D01*
X148500045Y-69620858D01*
X148339141Y-69459954D01*
X148152734Y-69329432D01*
X148152732Y-69329431D01*
X147946497Y-69233261D01*
X147946488Y-69233258D01*
X147726697Y-69174366D01*
X147726693Y-69174365D01*
X147726692Y-69174365D01*
X147726691Y-69174364D01*
X147726686Y-69174364D01*
X147500002Y-69154532D01*
X147499998Y-69154532D01*
X147273313Y-69174364D01*
X147273302Y-69174366D01*
X147053511Y-69233258D01*
X147053502Y-69233261D01*
X146847267Y-69329431D01*
X146847265Y-69329432D01*
X146660858Y-69459954D01*
X146499954Y-69620858D01*
X146478413Y-69651623D01*
X146423836Y-69695248D01*
X146376838Y-69704500D01*
X145126663Y-69704500D01*
X145059624Y-69684815D01*
X145025088Y-69651623D01*
X145000045Y-69615858D01*
X144839141Y-69454954D01*
X144652734Y-69324432D01*
X144652732Y-69324431D01*
X144446497Y-69228261D01*
X144446488Y-69228258D01*
X144226697Y-69169366D01*
X144226693Y-69169365D01*
X144226692Y-69169365D01*
X144226691Y-69169364D01*
X144226686Y-69169364D01*
X144000002Y-69149532D01*
X143999998Y-69149532D01*
X143773313Y-69169364D01*
X143773302Y-69169366D01*
X143553511Y-69228258D01*
X143553502Y-69228261D01*
X143347267Y-69324431D01*
X143347265Y-69324432D01*
X143160858Y-69454954D01*
X142999954Y-69615858D01*
X142974912Y-69651623D01*
X142920335Y-69695248D01*
X142873337Y-69704500D01*
X141626663Y-69704500D01*
X141559624Y-69684815D01*
X141525088Y-69651623D01*
X141500045Y-69615858D01*
X141339141Y-69454954D01*
X141152734Y-69324432D01*
X141152732Y-69324431D01*
X140946497Y-69228261D01*
X140946488Y-69228258D01*
X140726697Y-69169366D01*
X140726693Y-69169365D01*
X140726692Y-69169365D01*
X140726691Y-69169364D01*
X140726686Y-69169364D01*
X140500002Y-69149532D01*
X140499998Y-69149532D01*
X140273313Y-69169364D01*
X140273302Y-69169366D01*
X140053511Y-69228258D01*
X140053502Y-69228261D01*
X139847267Y-69324431D01*
X139847265Y-69324432D01*
X139660858Y-69454954D01*
X139499954Y-69615858D01*
X139474912Y-69651623D01*
X139420335Y-69695248D01*
X139373337Y-69704500D01*
X138126663Y-69704500D01*
X138059624Y-69684815D01*
X138025088Y-69651623D01*
X138000045Y-69615858D01*
X137839141Y-69454954D01*
X137652734Y-69324432D01*
X137652732Y-69324431D01*
X137446497Y-69228261D01*
X137446488Y-69228258D01*
X137226697Y-69169366D01*
X137226693Y-69169365D01*
X137226692Y-69169365D01*
X137226691Y-69169364D01*
X137226686Y-69169364D01*
X137000002Y-69149532D01*
X136999998Y-69149532D01*
X136773313Y-69169364D01*
X136773302Y-69169366D01*
X136553511Y-69228258D01*
X136553502Y-69228261D01*
X136347267Y-69324431D01*
X136347265Y-69324432D01*
X136160858Y-69454954D01*
X135999954Y-69615858D01*
X135869432Y-69802265D01*
X135869431Y-69802267D01*
X135773261Y-70008502D01*
X135773258Y-70008511D01*
X135714366Y-70228302D01*
X135714364Y-70228313D01*
X135694532Y-70454998D01*
X135694532Y-70455001D01*
X135714364Y-70681686D01*
X135714366Y-70681697D01*
X135773258Y-70901488D01*
X135773261Y-70901497D01*
X135869431Y-71107732D01*
X135869432Y-71107734D01*
X135999954Y-71294141D01*
X136160858Y-71455045D01*
X136160861Y-71455047D01*
X136347266Y-71585568D01*
X136405275Y-71612618D01*
X136457714Y-71658791D01*
X136476866Y-71725984D01*
X136456650Y-71792865D01*
X136405275Y-71837382D01*
X136347267Y-71864431D01*
X136347265Y-71864432D01*
X136160858Y-71994954D01*
X135999954Y-72155858D01*
X135869430Y-72342268D01*
X135869427Y-72342273D01*
X135812640Y-72464051D01*
X135773151Y-72511958D01*
X135766167Y-72517032D01*
X135766165Y-72517034D01*
X135737056Y-72552219D01*
X135729196Y-72560856D01*
X132472200Y-75817852D01*
X132410877Y-75851337D01*
X132350243Y-75847806D01*
X132349951Y-75848960D01*
X132344987Y-75847703D01*
X132343321Y-75847425D01*
X132116049Y-75809500D01*
X131883951Y-75809500D01*
X131838164Y-75817140D01*
X131655015Y-75847702D01*
X131435504Y-75923061D01*
X131435495Y-75923064D01*
X131231371Y-76033531D01*
X131231365Y-76033535D01*
X131048222Y-76176081D01*
X131048219Y-76176084D01*
X130891016Y-76346852D01*
X130764075Y-76541151D01*
X130670842Y-76753699D01*
X130613866Y-76978691D01*
X130613864Y-76978702D01*
X130594700Y-77209993D01*
X130594700Y-77210006D01*
X130613864Y-77441297D01*
X130613866Y-77441308D01*
X130670842Y-77666300D01*
X130764075Y-77878848D01*
X130891016Y-78073147D01*
X130891019Y-78073151D01*
X130891021Y-78073153D01*
X130985803Y-78176114D01*
X131016724Y-78238767D01*
X131008864Y-78308193D01*
X130964716Y-78362348D01*
X130937906Y-78376277D01*
X130857669Y-78406203D01*
X130857664Y-78406206D01*
X130742455Y-78492452D01*
X130742452Y-78492455D01*
X130656206Y-78607664D01*
X130656202Y-78607671D01*
X130605908Y-78742517D01*
X130599501Y-78802116D01*
X130599501Y-78802123D01*
X130599500Y-78802135D01*
X130599500Y-80697870D01*
X130599501Y-80697876D01*
X130605908Y-80757483D01*
X130656202Y-80892328D01*
X130656206Y-80892335D01*
X130742452Y-81007544D01*
X130742455Y-81007547D01*
X130857664Y-81093793D01*
X130857671Y-81093797D01*
X130992517Y-81144091D01*
X130992516Y-81144091D01*
X130999444Y-81144835D01*
X131052127Y-81150500D01*
X132947872Y-81150499D01*
X133007483Y-81144091D01*
X133142331Y-81093796D01*
X133257546Y-81007546D01*
X133343796Y-80892331D01*
X133379214Y-80797371D01*
X133421085Y-80741437D01*
X133486549Y-80717020D01*
X133554822Y-80731871D01*
X133583077Y-80753023D01*
X136892873Y-84062819D01*
X136926358Y-84124142D01*
X136921374Y-84193834D01*
X136879502Y-84249767D01*
X136814038Y-84274184D01*
X136805192Y-84274500D01*
X136349998Y-84274500D01*
X136349980Y-84274501D01*
X136247203Y-84285000D01*
X136247200Y-84285001D01*
X136080668Y-84340185D01*
X136080663Y-84340187D01*
X135931342Y-84432289D01*
X135807289Y-84556342D01*
X135715187Y-84705663D01*
X135715185Y-84705668D01*
X135687349Y-84789670D01*
X135660001Y-84872203D01*
X135660001Y-84872204D01*
X135660000Y-84872204D01*
X135649500Y-84974983D01*
X135649500Y-84974996D01*
X135649501Y-86300500D01*
X135629816Y-86367539D01*
X135577013Y-86413294D01*
X135525501Y-86424500D01*
X130510503Y-86424500D01*
X130494492Y-86422732D01*
X130494470Y-86422974D01*
X130486703Y-86422240D01*
X130486702Y-86422240D01*
X130416736Y-86424439D01*
X130412841Y-86424500D01*
X130384074Y-86424500D01*
X130384071Y-86424500D01*
X130384056Y-86424501D01*
X130379686Y-86425053D01*
X130368058Y-86425968D01*
X130322434Y-86427402D01*
X130322424Y-86427404D01*
X130302048Y-86433323D01*
X130283007Y-86437266D01*
X130261952Y-86439926D01*
X130261936Y-86439930D01*
X130219490Y-86456735D01*
X130208444Y-86460517D01*
X130164601Y-86473255D01*
X130146331Y-86484060D01*
X130128862Y-86492618D01*
X130109127Y-86500432D01*
X130109125Y-86500433D01*
X130072200Y-86527260D01*
X130062441Y-86533671D01*
X130023131Y-86556920D01*
X130008125Y-86571926D01*
X129993335Y-86584558D01*
X129976166Y-86597032D01*
X129976164Y-86597034D01*
X129947055Y-86632219D01*
X129939195Y-86640856D01*
X127550490Y-89029561D01*
X127489167Y-89063046D01*
X127430716Y-89061655D01*
X127390250Y-89050812D01*
X127390246Y-89050811D01*
X127390245Y-89050811D01*
X127390244Y-89050810D01*
X127390239Y-89050810D01*
X127163555Y-89030978D01*
X127163551Y-89030978D01*
X126936866Y-89050810D01*
X126936855Y-89050812D01*
X126820146Y-89082084D01*
X126750296Y-89080421D01*
X126692434Y-89041258D01*
X126664930Y-88977029D01*
X126664053Y-88962309D01*
X126664053Y-67808435D01*
X126683738Y-67741396D01*
X126697655Y-67723557D01*
X126715898Y-67704130D01*
X126718545Y-67701399D01*
X126738912Y-67681034D01*
X126741607Y-67677559D01*
X126749186Y-67668682D01*
X126780448Y-67635393D01*
X126790674Y-67616789D01*
X126801347Y-67600541D01*
X126814363Y-67583763D01*
X126832491Y-67541870D01*
X126837627Y-67531382D01*
X126859627Y-67491368D01*
X126864904Y-67470808D01*
X126871206Y-67452403D01*
X126879636Y-67432926D01*
X126886779Y-67387820D01*
X126889143Y-67376405D01*
X126900500Y-67332177D01*
X126900500Y-67310955D01*
X126902027Y-67291555D01*
X126902208Y-67290413D01*
X126905347Y-67270595D01*
X126901050Y-67225136D01*
X126900500Y-67213467D01*
X126900500Y-66605501D01*
X126902268Y-66589488D01*
X126902026Y-66589466D01*
X126902759Y-66581706D01*
X126902760Y-66581703D01*
X126901866Y-66553282D01*
X126919434Y-66485660D01*
X126970774Y-66438267D01*
X127039585Y-66426155D01*
X127078207Y-66437003D01*
X127086550Y-66440894D01*
X127299932Y-66498070D01*
X127433953Y-66509795D01*
X127519998Y-66517323D01*
X127520000Y-66517323D01*
X127520002Y-66517323D01*
X127575151Y-66512498D01*
X127740068Y-66498070D01*
X127953450Y-66440894D01*
X128153662Y-66347534D01*
X128334620Y-66220826D01*
X128490826Y-66064620D01*
X128617534Y-65883662D01*
X128677618Y-65754811D01*
X128723790Y-65702371D01*
X128790983Y-65683219D01*
X128857865Y-65703435D01*
X128902382Y-65754811D01*
X128962464Y-65883658D01*
X128962468Y-65883666D01*
X129089170Y-66064615D01*
X129089175Y-66064621D01*
X129245378Y-66220824D01*
X129245384Y-66220829D01*
X129426333Y-66347531D01*
X129426335Y-66347532D01*
X129426338Y-66347534D01*
X129626550Y-66440894D01*
X129839932Y-66498070D01*
X129973953Y-66509795D01*
X130059998Y-66517323D01*
X130060000Y-66517323D01*
X130060002Y-66517323D01*
X130115151Y-66512498D01*
X130280068Y-66498070D01*
X130493450Y-66440894D01*
X130693662Y-66347534D01*
X130874620Y-66220826D01*
X131030826Y-66064620D01*
X131157534Y-65883662D01*
X131217618Y-65754811D01*
X131263790Y-65702371D01*
X131330983Y-65683219D01*
X131397865Y-65703435D01*
X131442382Y-65754811D01*
X131502464Y-65883658D01*
X131502468Y-65883666D01*
X131629170Y-66064615D01*
X131629175Y-66064621D01*
X131785378Y-66220824D01*
X131785384Y-66220829D01*
X131966333Y-66347531D01*
X131966335Y-66347532D01*
X131966338Y-66347534D01*
X132166550Y-66440894D01*
X132379932Y-66498070D01*
X132513953Y-66509795D01*
X132599998Y-66517323D01*
X132600000Y-66517323D01*
X132600002Y-66517323D01*
X132655151Y-66512498D01*
X132820068Y-66498070D01*
X133033450Y-66440894D01*
X133233662Y-66347534D01*
X133414620Y-66220826D01*
X133570826Y-66064620D01*
X133697534Y-65883662D01*
X133757618Y-65754811D01*
X133803790Y-65702371D01*
X133870983Y-65683219D01*
X133937865Y-65703435D01*
X133982382Y-65754811D01*
X134042464Y-65883658D01*
X134042468Y-65883666D01*
X134169170Y-66064615D01*
X134169175Y-66064621D01*
X134325378Y-66220824D01*
X134325384Y-66220829D01*
X134506333Y-66347531D01*
X134506335Y-66347532D01*
X134506338Y-66347534D01*
X134706550Y-66440894D01*
X134919932Y-66498070D01*
X135053953Y-66509795D01*
X135139998Y-66517323D01*
X135140000Y-66517323D01*
X135140002Y-66517323D01*
X135195151Y-66512498D01*
X135360068Y-66498070D01*
X135573450Y-66440894D01*
X135773662Y-66347534D01*
X135954620Y-66220826D01*
X136110826Y-66064620D01*
X136237534Y-65883662D01*
X136330894Y-65683450D01*
X136388070Y-65470068D01*
X136407323Y-65250000D01*
X136404532Y-65218102D01*
X136391274Y-65066554D01*
X136388070Y-65029932D01*
X136330894Y-64816550D01*
X136237534Y-64616339D01*
X136142734Y-64480950D01*
X136110827Y-64435381D01*
X136055962Y-64380516D01*
X135954620Y-64279174D01*
X135954616Y-64279171D01*
X135954615Y-64279170D01*
X135773666Y-64152468D01*
X135773662Y-64152466D01*
X135726457Y-64130454D01*
X135573450Y-64059106D01*
X135573447Y-64059105D01*
X135573445Y-64059104D01*
X135360070Y-64001930D01*
X135360062Y-64001929D01*
X135140002Y-63982677D01*
X135139998Y-63982677D01*
X134919937Y-64001929D01*
X134919929Y-64001930D01*
X134706554Y-64059104D01*
X134706550Y-64059106D01*
X134701506Y-64061458D01*
X134506340Y-64152465D01*
X134506338Y-64152466D01*
X134325377Y-64279175D01*
X134169175Y-64435377D01*
X134042466Y-64616338D01*
X134042465Y-64616340D01*
X133982382Y-64745189D01*
X133936209Y-64797628D01*
X133869016Y-64816780D01*
X133802135Y-64796564D01*
X133757618Y-64745189D01*
X133729727Y-64685377D01*
X133697534Y-64616339D01*
X133602734Y-64480950D01*
X133570827Y-64435381D01*
X133515962Y-64380516D01*
X133414620Y-64279174D01*
X133414616Y-64279171D01*
X133414615Y-64279170D01*
X133233666Y-64152468D01*
X133233662Y-64152466D01*
X133186457Y-64130454D01*
X133033450Y-64059106D01*
X133033447Y-64059105D01*
X133033445Y-64059104D01*
X132820070Y-64001930D01*
X132820062Y-64001929D01*
X132600002Y-63982677D01*
X132599998Y-63982677D01*
X132379937Y-64001929D01*
X132379929Y-64001930D01*
X132166554Y-64059104D01*
X132166550Y-64059106D01*
X132161506Y-64061458D01*
X131966340Y-64152465D01*
X131966338Y-64152466D01*
X131785377Y-64279175D01*
X131629175Y-64435377D01*
X131502466Y-64616338D01*
X131502465Y-64616340D01*
X131442382Y-64745189D01*
X131396209Y-64797628D01*
X131329016Y-64816780D01*
X131262135Y-64796564D01*
X131217618Y-64745189D01*
X131189727Y-64685377D01*
X131157534Y-64616339D01*
X131062734Y-64480950D01*
X131030827Y-64435381D01*
X130975962Y-64380516D01*
X130874620Y-64279174D01*
X130874616Y-64279171D01*
X130874615Y-64279170D01*
X130693666Y-64152468D01*
X130693662Y-64152466D01*
X130646457Y-64130454D01*
X130493450Y-64059106D01*
X130493447Y-64059105D01*
X130493445Y-64059104D01*
X130280070Y-64001930D01*
X130280062Y-64001929D01*
X130060002Y-63982677D01*
X130059998Y-63982677D01*
X129839937Y-64001929D01*
X129839929Y-64001930D01*
X129626554Y-64059104D01*
X129626550Y-64059106D01*
X129621506Y-64061458D01*
X129426340Y-64152465D01*
X129426338Y-64152466D01*
X129245377Y-64279175D01*
X129089175Y-64435377D01*
X128962466Y-64616338D01*
X128962465Y-64616340D01*
X128902382Y-64745189D01*
X128856209Y-64797628D01*
X128789016Y-64816780D01*
X128722135Y-64796564D01*
X128677618Y-64745189D01*
X128649727Y-64685377D01*
X128617534Y-64616339D01*
X128522734Y-64480950D01*
X128490827Y-64435381D01*
X128435962Y-64380516D01*
X128334620Y-64279174D01*
X128334616Y-64279171D01*
X128334615Y-64279170D01*
X128153666Y-64152468D01*
X128153662Y-64152466D01*
X128106457Y-64130454D01*
X127953450Y-64059106D01*
X127953447Y-64059105D01*
X127953445Y-64059104D01*
X127740070Y-64001930D01*
X127740062Y-64001929D01*
X127520002Y-63982677D01*
X127519998Y-63982677D01*
X127299937Y-64001929D01*
X127299929Y-64001930D01*
X127086554Y-64059104D01*
X127086550Y-64059106D01*
X127081506Y-64061458D01*
X126886340Y-64152465D01*
X126886338Y-64152466D01*
X126705377Y-64279175D01*
X126549175Y-64435377D01*
X126422466Y-64616338D01*
X126422465Y-64616340D01*
X126362382Y-64745189D01*
X126316209Y-64797628D01*
X126249016Y-64816780D01*
X126182135Y-64796564D01*
X126137618Y-64745189D01*
X126109727Y-64685377D01*
X126077534Y-64616339D01*
X125982734Y-64480950D01*
X125950827Y-64435381D01*
X125895962Y-64380516D01*
X125794620Y-64279174D01*
X125794616Y-64279171D01*
X125794615Y-64279170D01*
X125613666Y-64152468D01*
X125613662Y-64152466D01*
X125566457Y-64130454D01*
X125413450Y-64059106D01*
X125413447Y-64059105D01*
X125413445Y-64059104D01*
X125200070Y-64001930D01*
X125200062Y-64001929D01*
X124980002Y-63982677D01*
X124979998Y-63982677D01*
X124759937Y-64001929D01*
X124759929Y-64001930D01*
X124546554Y-64059104D01*
X124546550Y-64059106D01*
X124541506Y-64061458D01*
X124346340Y-64152465D01*
X124346338Y-64152466D01*
X124165377Y-64279175D01*
X124009175Y-64435377D01*
X123882466Y-64616338D01*
X123882465Y-64616340D01*
X123822382Y-64745189D01*
X123776209Y-64797628D01*
X123709016Y-64816780D01*
X123642135Y-64796564D01*
X123597618Y-64745189D01*
X123569727Y-64685377D01*
X123537534Y-64616339D01*
X123442734Y-64480950D01*
X123410827Y-64435381D01*
X123355962Y-64380516D01*
X123254620Y-64279174D01*
X123254616Y-64279171D01*
X123254615Y-64279170D01*
X123073666Y-64152468D01*
X123073662Y-64152466D01*
X123026457Y-64130454D01*
X122873450Y-64059106D01*
X122873447Y-64059105D01*
X122873445Y-64059104D01*
X122660070Y-64001930D01*
X122660062Y-64001929D01*
X122440002Y-63982677D01*
X122439998Y-63982677D01*
X122219937Y-64001929D01*
X122219929Y-64001930D01*
X122006554Y-64059104D01*
X122006550Y-64059106D01*
X122001506Y-64061458D01*
X121806340Y-64152465D01*
X121806338Y-64152466D01*
X121625377Y-64279175D01*
X121469175Y-64435377D01*
X121342467Y-64616337D01*
X121282105Y-64745782D01*
X121235932Y-64798221D01*
X121168738Y-64817372D01*
X121101857Y-64797156D01*
X121057341Y-64745780D01*
X120997098Y-64616589D01*
X120997097Y-64616587D01*
X120951741Y-64551811D01*
X120951740Y-64551810D01*
X120284903Y-65218648D01*
X120284949Y-65218102D01*
X120253734Y-65094838D01*
X120184187Y-64988388D01*
X120083843Y-64910287D01*
X119963578Y-64869000D01*
X119927448Y-64869000D01*
X120598188Y-64198259D01*
X120598187Y-64198258D01*
X120533411Y-64152901D01*
X120533405Y-64152898D01*
X120333284Y-64059580D01*
X120333270Y-64059575D01*
X120119986Y-64002426D01*
X120119976Y-64002424D01*
X119900001Y-63983179D01*
X119899999Y-63983179D01*
X119680023Y-64002424D01*
X119680013Y-64002426D01*
X119466729Y-64059575D01*
X119466720Y-64059579D01*
X119266590Y-64152901D01*
X119201811Y-64198258D01*
X119872553Y-64869000D01*
X119868431Y-64869000D01*
X119774579Y-64884661D01*
X119662749Y-64945180D01*
X119576629Y-65038731D01*
X119525552Y-65155177D01*
X119519894Y-65223447D01*
X118848257Y-64551810D01*
X118848075Y-64552072D01*
X118793498Y-64595698D01*
X118724000Y-64602892D01*
X118661645Y-64571370D01*
X118626230Y-64511141D01*
X118622499Y-64480950D01*
X118622499Y-64440129D01*
X118622498Y-64440123D01*
X118622497Y-64440116D01*
X118616091Y-64380517D01*
X118589456Y-64309106D01*
X118565797Y-64245671D01*
X118565793Y-64245664D01*
X118479547Y-64130455D01*
X118479544Y-64130452D01*
X118364335Y-64044206D01*
X118364328Y-64044202D01*
X118229482Y-63993908D01*
X118229483Y-63993908D01*
X118169883Y-63987501D01*
X118169881Y-63987500D01*
X118169873Y-63987500D01*
X118169864Y-63987500D01*
X116550129Y-63987500D01*
X116550123Y-63987501D01*
X116490516Y-63993908D01*
X116355671Y-64044202D01*
X116355664Y-64044206D01*
X116240455Y-64130452D01*
X116240452Y-64130455D01*
X116154206Y-64245664D01*
X116154202Y-64245671D01*
X116103908Y-64380517D01*
X116098010Y-64435380D01*
X116097501Y-64440123D01*
X116097500Y-64440135D01*
X116097500Y-66059870D01*
X116097501Y-66059876D01*
X116103908Y-66119483D01*
X116154202Y-66254328D01*
X116154206Y-66254335D01*
X116240452Y-66369544D01*
X116240455Y-66369547D01*
X116355664Y-66455793D01*
X116355671Y-66455797D01*
X116490517Y-66506091D01*
X116490516Y-66506091D01*
X116497444Y-66506835D01*
X116550127Y-66512500D01*
X118169872Y-66512499D01*
X118229483Y-66506091D01*
X118364331Y-66455796D01*
X118479546Y-66369546D01*
X118565796Y-66254331D01*
X118616091Y-66119483D01*
X118622500Y-66059873D01*
X118622499Y-66019048D01*
X118642182Y-65952012D01*
X118694985Y-65906256D01*
X118764143Y-65896311D01*
X118827700Y-65925334D01*
X118848074Y-65947925D01*
X118848258Y-65948187D01*
X118848259Y-65948188D01*
X119515096Y-65281350D01*
X119515051Y-65281898D01*
X119546266Y-65405162D01*
X119615813Y-65511612D01*
X119716157Y-65589713D01*
X119836422Y-65631000D01*
X119872553Y-65631000D01*
X119201810Y-66301740D01*
X119266590Y-66347099D01*
X119266592Y-66347100D01*
X119466715Y-66440419D01*
X119466729Y-66440424D01*
X119680013Y-66497573D01*
X119680023Y-66497575D01*
X119899999Y-66516821D01*
X119900001Y-66516821D01*
X120119976Y-66497575D01*
X120119986Y-66497573D01*
X120333270Y-66440424D01*
X120333284Y-66440419D01*
X120533407Y-66347100D01*
X120533417Y-66347094D01*
X120598188Y-66301741D01*
X119927448Y-65631000D01*
X119931569Y-65631000D01*
X120025421Y-65615339D01*
X120137251Y-65554820D01*
X120223371Y-65461269D01*
X120274448Y-65344823D01*
X120280105Y-65276552D01*
X120951741Y-65948188D01*
X120997094Y-65883417D01*
X120997095Y-65883416D01*
X121057340Y-65754219D01*
X121103512Y-65701780D01*
X121170706Y-65682627D01*
X121237587Y-65702842D01*
X121282105Y-65754218D01*
X121342466Y-65883662D01*
X121342468Y-65883666D01*
X121469170Y-66064615D01*
X121469174Y-66064620D01*
X121625380Y-66220826D01*
X121736625Y-66298720D01*
X121780248Y-66353294D01*
X121789500Y-66400293D01*
X121789500Y-66676789D01*
X121787304Y-66700020D01*
X121785624Y-66708826D01*
X121785624Y-66708830D01*
X121789255Y-66766542D01*
X121789500Y-66774328D01*
X121789500Y-66790930D01*
X121791579Y-66807398D01*
X121792311Y-66815140D01*
X121795943Y-66872859D01*
X121798714Y-66881384D01*
X121803804Y-66904156D01*
X121804252Y-66907702D01*
X121804928Y-66913053D01*
X121804930Y-66913060D01*
X121826221Y-66966839D01*
X121828857Y-66974162D01*
X121846731Y-67029169D01*
X121846733Y-67029174D01*
X121851534Y-67036738D01*
X121862129Y-67057530D01*
X121865432Y-67065871D01*
X121865436Y-67065878D01*
X121899434Y-67112672D01*
X121903802Y-67119098D01*
X121911355Y-67131000D01*
X121934797Y-67167939D01*
X121941332Y-67174076D01*
X121956761Y-67191577D01*
X121962033Y-67198833D01*
X121962035Y-67198836D01*
X122006600Y-67235703D01*
X122012439Y-67240850D01*
X122054607Y-67280448D01*
X122054609Y-67280449D01*
X122054612Y-67280451D01*
X122062459Y-67284765D01*
X122081763Y-67297883D01*
X122088674Y-67303600D01*
X122088675Y-67303601D01*
X122104304Y-67310955D01*
X122141007Y-67328226D01*
X122147934Y-67331755D01*
X122198632Y-67359627D01*
X122207321Y-67361858D01*
X122229271Y-67369760D01*
X122237387Y-67373579D01*
X122294207Y-67384417D01*
X122301777Y-67386109D01*
X122357823Y-67400500D01*
X122366790Y-67400500D01*
X122390022Y-67402696D01*
X122391706Y-67403017D01*
X122398830Y-67404376D01*
X122398831Y-67404375D01*
X122398832Y-67404376D01*
X122456543Y-67400745D01*
X122464329Y-67400500D01*
X123956298Y-67400500D01*
X124023337Y-67420185D01*
X124043979Y-67436819D01*
X124826734Y-68219574D01*
X124860219Y-68280897D01*
X124863053Y-68307255D01*
X124863053Y-74843745D01*
X124843368Y-74910784D01*
X124790564Y-74956539D01*
X124721406Y-74966483D01*
X124657850Y-74937458D01*
X124651372Y-74931426D01*
X124086818Y-74366872D01*
X124053333Y-74305549D01*
X124050499Y-74279191D01*
X124050499Y-73099998D01*
X124050498Y-73099981D01*
X124039999Y-72997203D01*
X124039998Y-72997200D01*
X124039268Y-72994998D01*
X123984814Y-72830666D01*
X123892712Y-72681344D01*
X123768656Y-72557288D01*
X123619334Y-72465186D01*
X123452797Y-72410001D01*
X123452795Y-72410000D01*
X123350010Y-72399500D01*
X121749998Y-72399500D01*
X121749981Y-72399501D01*
X121647203Y-72410000D01*
X121647200Y-72410001D01*
X121480668Y-72465185D01*
X121480663Y-72465187D01*
X121331342Y-72557289D01*
X121207289Y-72681342D01*
X121115187Y-72830663D01*
X121115186Y-72830666D01*
X121060001Y-72997203D01*
X121060001Y-72997204D01*
X121060000Y-72997204D01*
X121049500Y-73099983D01*
X121049500Y-74400001D01*
X121049501Y-74400018D01*
X121060000Y-74502796D01*
X121060001Y-74502799D01*
X121081176Y-74566699D01*
X121115186Y-74669334D01*
X121207288Y-74818656D01*
X121331344Y-74942712D01*
X121461512Y-75023000D01*
X121486558Y-75038448D01*
X121533283Y-75090396D01*
X121544506Y-75159358D01*
X121516663Y-75223441D01*
X121509144Y-75231668D01*
X121361891Y-75378921D01*
X121226399Y-75572421D01*
X121126570Y-75786507D01*
X121126567Y-75786513D01*
X121069364Y-75999999D01*
X121069364Y-76000000D01*
X122116314Y-76000000D01*
X122090507Y-76040156D01*
X122050000Y-76178111D01*
X122050000Y-76321889D01*
X122090507Y-76459844D01*
X122116314Y-76500000D01*
X121069364Y-76500000D01*
X121126567Y-76713486D01*
X121126570Y-76713492D01*
X121226399Y-76927577D01*
X121226400Y-76927579D01*
X121361886Y-77121073D01*
X121361891Y-77121079D01*
X121528920Y-77288108D01*
X121528926Y-77288113D01*
X121722420Y-77423599D01*
X121722422Y-77423600D01*
X121936507Y-77523429D01*
X121936516Y-77523433D01*
X122164673Y-77584567D01*
X122164684Y-77584569D01*
X122299999Y-77596407D01*
X122300000Y-77596407D01*
X122300000Y-76685501D01*
X122407685Y-76734680D01*
X122514237Y-76750000D01*
X122585763Y-76750000D01*
X122692315Y-76734680D01*
X122800000Y-76685501D01*
X122800000Y-77596407D01*
X122935315Y-77584569D01*
X122935326Y-77584567D01*
X123163483Y-77523433D01*
X123163492Y-77523429D01*
X123377577Y-77423600D01*
X123377579Y-77423599D01*
X123571073Y-77288113D01*
X123571079Y-77288108D01*
X123738105Y-77121082D01*
X123873600Y-76927578D01*
X123973429Y-76713492D01*
X123973433Y-76713483D01*
X124034567Y-76485326D01*
X124034569Y-76485315D01*
X124038006Y-76446035D01*
X124063458Y-76380966D01*
X124120049Y-76339987D01*
X124189811Y-76336109D01*
X124249215Y-76369161D01*
X124313181Y-76433127D01*
X124346666Y-76494450D01*
X124349500Y-76520808D01*
X124349500Y-86380192D01*
X124329815Y-86447231D01*
X124277011Y-86492986D01*
X124207853Y-86502930D01*
X124144297Y-86473905D01*
X124137819Y-86467873D01*
X122386818Y-84716872D01*
X122353333Y-84655549D01*
X122350499Y-84629191D01*
X122350499Y-83352129D01*
X122350498Y-83352123D01*
X122350497Y-83352116D01*
X122344091Y-83292517D01*
X122293796Y-83157669D01*
X122293795Y-83157668D01*
X122293793Y-83157664D01*
X122207547Y-83042455D01*
X122207544Y-83042452D01*
X122092335Y-82956206D01*
X122092328Y-82956202D01*
X121957482Y-82905908D01*
X121957483Y-82905908D01*
X121897883Y-82899501D01*
X121897881Y-82899500D01*
X121897873Y-82899500D01*
X121897864Y-82899500D01*
X120102129Y-82899500D01*
X120102123Y-82899501D01*
X120042516Y-82905908D01*
X119907671Y-82956202D01*
X119907664Y-82956206D01*
X119792455Y-83042452D01*
X119792452Y-83042455D01*
X119706206Y-83157664D01*
X119706202Y-83157671D01*
X119655908Y-83292517D01*
X119649501Y-83352116D01*
X119649501Y-83352123D01*
X119649500Y-83352135D01*
X119649500Y-85147870D01*
X119649501Y-85147876D01*
X119655908Y-85207483D01*
X119706202Y-85342328D01*
X119706206Y-85342335D01*
X119792452Y-85457544D01*
X119792455Y-85457547D01*
X119907664Y-85543793D01*
X119907671Y-85543797D01*
X120039081Y-85592810D01*
X120095015Y-85634681D01*
X120119432Y-85700145D01*
X120104580Y-85768418D01*
X120083430Y-85796673D01*
X119961503Y-85918600D01*
X119825965Y-86112169D01*
X119825964Y-86112171D01*
X119726098Y-86326335D01*
X119726094Y-86326344D01*
X119664938Y-86554586D01*
X119664936Y-86554596D01*
X119644341Y-86789999D01*
X119644341Y-86790000D01*
X119664936Y-87025403D01*
X119664938Y-87025413D01*
X119726094Y-87253655D01*
X119726096Y-87253659D01*
X119726097Y-87253663D01*
X119799400Y-87410861D01*
X119825965Y-87467830D01*
X119825967Y-87467834D01*
X119961501Y-87661395D01*
X119961506Y-87661402D01*
X120128597Y-87828493D01*
X120128603Y-87828498D01*
X120314158Y-87958425D01*
X120357783Y-88013002D01*
X120364977Y-88082500D01*
X120333454Y-88144855D01*
X120314158Y-88161575D01*
X120128597Y-88291505D01*
X119961505Y-88458597D01*
X119825965Y-88652169D01*
X119825964Y-88652171D01*
X119726098Y-88866335D01*
X119726094Y-88866344D01*
X119664938Y-89094586D01*
X119664936Y-89094596D01*
X119644341Y-89329999D01*
X119644341Y-89330000D01*
X119664936Y-89565403D01*
X119664938Y-89565413D01*
X119726094Y-89793655D01*
X119726096Y-89793659D01*
X119726097Y-89793663D01*
X119772525Y-89893227D01*
X119825965Y-90007830D01*
X119825967Y-90007834D01*
X119961501Y-90201395D01*
X119961506Y-90201402D01*
X120128597Y-90368493D01*
X120128603Y-90368498D01*
X120314594Y-90498730D01*
X120358219Y-90553307D01*
X120365413Y-90622805D01*
X120333890Y-90685160D01*
X120314595Y-90701880D01*
X120128922Y-90831890D01*
X120128920Y-90831891D01*
X119961891Y-90998920D01*
X119961886Y-90998926D01*
X119826400Y-91192420D01*
X119826399Y-91192422D01*
X119726570Y-91406507D01*
X119726567Y-91406513D01*
X119669364Y-91619999D01*
X119669364Y-91620000D01*
X120566314Y-91620000D01*
X120540507Y-91660156D01*
X120500000Y-91798111D01*
X120500000Y-91941889D01*
X120540507Y-92079844D01*
X120566314Y-92120000D01*
X119645902Y-92120000D01*
X119642809Y-92122258D01*
X119573063Y-92126406D01*
X119513192Y-92093246D01*
X116747247Y-89327301D01*
X116713762Y-89265978D01*
X116718746Y-89196286D01*
X116747245Y-89151940D01*
X116810047Y-89089139D01*
X116940568Y-88902734D01*
X117036739Y-88696496D01*
X117095635Y-88476692D01*
X117115468Y-88250000D01*
X117113572Y-88228334D01*
X117106269Y-88144855D01*
X117095635Y-88023308D01*
X117036739Y-87803504D01*
X116940568Y-87597266D01*
X116810047Y-87410861D01*
X116810045Y-87410858D01*
X116649141Y-87249954D01*
X116462734Y-87119432D01*
X116462732Y-87119431D01*
X116256497Y-87023261D01*
X116256488Y-87023258D01*
X116036697Y-86964366D01*
X116036693Y-86964365D01*
X116036692Y-86964365D01*
X116036691Y-86964364D01*
X116036686Y-86964364D01*
X115810002Y-86944532D01*
X115809998Y-86944532D01*
X115583313Y-86964364D01*
X115583302Y-86964366D01*
X115363511Y-87023258D01*
X115363502Y-87023261D01*
X115157267Y-87119431D01*
X115157265Y-87119432D01*
X114970858Y-87249954D01*
X114809954Y-87410858D01*
X114679432Y-87597265D01*
X114679431Y-87597267D01*
X114583261Y-87803502D01*
X114583258Y-87803511D01*
X114524366Y-88023302D01*
X114524364Y-88023313D01*
X114504532Y-88249998D01*
X114504532Y-88250001D01*
X114524364Y-88476686D01*
X114524366Y-88476697D01*
X114583258Y-88696488D01*
X114583261Y-88696497D01*
X114679431Y-88902732D01*
X114679432Y-88902734D01*
X114809954Y-89089141D01*
X114970858Y-89250045D01*
X115116272Y-89351864D01*
X115159897Y-89406440D01*
X115164225Y-89418842D01*
X115168322Y-89432943D01*
X115172268Y-89451996D01*
X115174928Y-89473054D01*
X115174931Y-89473065D01*
X115191737Y-89515514D01*
X115195520Y-89526563D01*
X115208254Y-89570395D01*
X115208255Y-89570397D01*
X115219060Y-89588666D01*
X115227617Y-89606134D01*
X115233226Y-89620300D01*
X115235432Y-89625872D01*
X115262266Y-89662806D01*
X115268678Y-89672568D01*
X115283201Y-89697125D01*
X115291919Y-89711865D01*
X115291923Y-89711869D01*
X115306925Y-89726871D01*
X115319563Y-89741669D01*
X115332033Y-89758833D01*
X115332036Y-89758837D01*
X115367213Y-89787937D01*
X115375854Y-89795800D01*
X115597937Y-90017883D01*
X115631422Y-90079206D01*
X115626438Y-90148898D01*
X115584566Y-90204831D01*
X115542350Y-90225339D01*
X115363508Y-90273259D01*
X115363502Y-90273261D01*
X115157267Y-90369431D01*
X115157265Y-90369432D01*
X114970858Y-90499954D01*
X114809954Y-90660858D01*
X114679432Y-90847265D01*
X114679431Y-90847267D01*
X114583261Y-91053502D01*
X114583258Y-91053511D01*
X114524366Y-91273302D01*
X114524364Y-91273313D01*
X114504532Y-91499998D01*
X114504532Y-91500001D01*
X114524364Y-91726686D01*
X114524366Y-91726697D01*
X114583258Y-91946488D01*
X114583261Y-91946497D01*
X114679431Y-92152732D01*
X114679432Y-92152734D01*
X114809954Y-92339141D01*
X114970858Y-92500045D01*
X114970861Y-92500047D01*
X115157266Y-92630568D01*
X115363504Y-92726739D01*
X115583308Y-92785635D01*
X115745230Y-92799801D01*
X115809998Y-92805468D01*
X115810000Y-92805468D01*
X115810002Y-92805468D01*
X115866673Y-92800509D01*
X116036692Y-92785635D01*
X116256496Y-92726739D01*
X116442278Y-92640106D01*
X116511353Y-92629615D01*
X116575137Y-92658134D01*
X116582362Y-92664808D01*
X124883845Y-100966291D01*
X124917330Y-101027614D01*
X124912346Y-101097306D01*
X124870474Y-101153239D01*
X124805010Y-101177656D01*
X124785362Y-101177501D01*
X124783238Y-101177315D01*
X124780000Y-101177032D01*
X124779999Y-101177032D01*
X124779998Y-101177032D01*
X124553313Y-101196864D01*
X124553299Y-101196867D01*
X124512834Y-101207709D01*
X124442984Y-101206045D01*
X124393061Y-101175615D01*
X117567934Y-94350488D01*
X117557861Y-94337914D01*
X117557674Y-94338070D01*
X117552698Y-94332054D01*
X117501667Y-94284134D01*
X117498869Y-94281423D01*
X117478535Y-94261089D01*
X117475048Y-94258384D01*
X117466169Y-94250800D01*
X117432896Y-94219554D01*
X117432888Y-94219548D01*
X117414292Y-94209325D01*
X117398031Y-94198644D01*
X117381263Y-94185637D01*
X117364909Y-94178560D01*
X117339353Y-94167501D01*
X117328894Y-94162377D01*
X117288868Y-94140373D01*
X117288865Y-94140372D01*
X117268301Y-94135092D01*
X117249896Y-94128790D01*
X117230427Y-94120365D01*
X117230421Y-94120363D01*
X117185337Y-94113223D01*
X117173898Y-94110854D01*
X117129680Y-94099500D01*
X117129677Y-94099500D01*
X117108455Y-94099500D01*
X117089055Y-94097973D01*
X117084585Y-94097265D01*
X117082511Y-94096936D01*
X117068096Y-94094653D01*
X117068095Y-94094653D01*
X117032975Y-94097973D01*
X117022640Y-94098950D01*
X117010970Y-94099500D01*
X117006683Y-94099500D01*
X116939644Y-94079815D01*
X116905108Y-94046623D01*
X116810045Y-93910858D01*
X116649141Y-93749954D01*
X116462734Y-93619432D01*
X116462732Y-93619431D01*
X116256497Y-93523261D01*
X116256488Y-93523258D01*
X116036697Y-93464366D01*
X116036693Y-93464365D01*
X116036692Y-93464365D01*
X116036691Y-93464364D01*
X116036686Y-93464364D01*
X115810002Y-93444532D01*
X115809998Y-93444532D01*
X115583313Y-93464364D01*
X115583302Y-93464366D01*
X115363511Y-93523258D01*
X115363502Y-93523261D01*
X115157267Y-93619431D01*
X115157265Y-93619432D01*
X114970858Y-93749954D01*
X114809954Y-93910858D01*
X114679432Y-94097265D01*
X114679431Y-94097267D01*
X114583261Y-94303502D01*
X114583258Y-94303511D01*
X114524366Y-94523302D01*
X114524364Y-94523313D01*
X114504532Y-94749998D01*
X114504532Y-94750001D01*
X114524364Y-94976686D01*
X114524366Y-94976697D01*
X114583258Y-95196488D01*
X114583261Y-95196497D01*
X114679431Y-95402732D01*
X114679432Y-95402734D01*
X114809954Y-95589141D01*
X114970858Y-95750045D01*
X114970861Y-95750047D01*
X115157266Y-95880568D01*
X115363504Y-95976739D01*
X115583308Y-96035635D01*
X115745230Y-96049801D01*
X115809998Y-96055468D01*
X115810000Y-96055468D01*
X115810002Y-96055468D01*
X115866673Y-96050509D01*
X116036692Y-96035635D01*
X116256496Y-95976739D01*
X116462734Y-95880568D01*
X116649139Y-95750047D01*
X116800690Y-95598495D01*
X116862012Y-95565012D01*
X116931703Y-95569996D01*
X116976051Y-95598497D01*
X122343845Y-100966291D01*
X122377330Y-101027614D01*
X122372346Y-101097306D01*
X122330474Y-101153239D01*
X122265010Y-101177656D01*
X122245362Y-101177501D01*
X122243238Y-101177315D01*
X122240000Y-101177032D01*
X122239999Y-101177032D01*
X122239998Y-101177032D01*
X122013313Y-101196864D01*
X122013302Y-101196866D01*
X121793511Y-101255758D01*
X121793502Y-101255761D01*
X121587267Y-101351931D01*
X121587265Y-101351932D01*
X121400858Y-101482454D01*
X121239954Y-101643358D01*
X121109432Y-101829765D01*
X121109431Y-101829767D01*
X121082382Y-101887775D01*
X121036209Y-101940214D01*
X120969016Y-101959366D01*
X120902135Y-101939150D01*
X120857618Y-101887775D01*
X120830568Y-101829767D01*
X120830567Y-101829765D01*
X120700045Y-101643358D01*
X120539141Y-101482454D01*
X120352734Y-101351932D01*
X120352732Y-101351931D01*
X120146497Y-101255761D01*
X120146488Y-101255758D01*
X119926697Y-101196866D01*
X119926693Y-101196865D01*
X119926692Y-101196865D01*
X119926691Y-101196864D01*
X119926686Y-101196864D01*
X119700002Y-101177032D01*
X119699998Y-101177032D01*
X119473313Y-101196864D01*
X119473302Y-101196866D01*
X119253511Y-101255758D01*
X119253502Y-101255761D01*
X119047267Y-101351931D01*
X119047265Y-101351932D01*
X118860858Y-101482454D01*
X118699954Y-101643358D01*
X118569432Y-101829765D01*
X118569431Y-101829767D01*
X118542382Y-101887775D01*
X118496209Y-101940214D01*
X118429016Y-101959366D01*
X118362135Y-101939150D01*
X118317618Y-101887775D01*
X118290568Y-101829767D01*
X118290567Y-101829765D01*
X118160045Y-101643358D01*
X117999141Y-101482454D01*
X117812734Y-101351932D01*
X117812732Y-101351931D01*
X117606497Y-101255761D01*
X117606488Y-101255758D01*
X117386697Y-101196866D01*
X117386693Y-101196865D01*
X117386692Y-101196865D01*
X117386691Y-101196864D01*
X117386686Y-101196864D01*
X117160002Y-101177032D01*
X117159998Y-101177032D01*
X116933313Y-101196864D01*
X116933302Y-101196866D01*
X116713511Y-101255758D01*
X116713502Y-101255761D01*
X116507267Y-101351931D01*
X116507265Y-101351932D01*
X116320858Y-101482454D01*
X116159954Y-101643358D01*
X116029432Y-101829765D01*
X116029431Y-101829767D01*
X115933261Y-102036002D01*
X115933258Y-102036011D01*
X115874366Y-102255802D01*
X115874364Y-102255813D01*
X115854532Y-102482498D01*
X115854532Y-102482501D01*
X115874364Y-102709186D01*
X115874366Y-102709197D01*
X115933258Y-102928988D01*
X115933261Y-102928997D01*
X116029431Y-103135232D01*
X116029432Y-103135234D01*
X116159954Y-103321641D01*
X116320858Y-103482545D01*
X116320861Y-103482547D01*
X116507266Y-103613068D01*
X116713504Y-103709239D01*
X116933308Y-103768135D01*
X117095230Y-103782301D01*
X117159998Y-103787968D01*
X117160000Y-103787968D01*
X117160002Y-103787968D01*
X117216673Y-103783009D01*
X117386692Y-103768135D01*
X117606496Y-103709239D01*
X117812734Y-103613068D01*
X117999139Y-103482547D01*
X118160047Y-103321639D01*
X118290568Y-103135234D01*
X118317618Y-103077224D01*
X118363790Y-103024785D01*
X118430983Y-103005633D01*
X118497865Y-103025848D01*
X118542382Y-103077225D01*
X118569429Y-103135228D01*
X118569432Y-103135234D01*
X118699954Y-103321641D01*
X118860858Y-103482545D01*
X118860861Y-103482547D01*
X119047266Y-103613068D01*
X119253504Y-103709239D01*
X119473308Y-103768135D01*
X119635230Y-103782301D01*
X119699998Y-103787968D01*
X119700000Y-103787968D01*
X119700002Y-103787968D01*
X119756673Y-103783009D01*
X119926692Y-103768135D01*
X120146496Y-103709239D01*
X120352734Y-103613068D01*
X120539139Y-103482547D01*
X120700047Y-103321639D01*
X120830568Y-103135234D01*
X120857618Y-103077224D01*
X120903790Y-103024785D01*
X120970983Y-103005633D01*
X121037865Y-103025848D01*
X121082382Y-103077225D01*
X121109429Y-103135228D01*
X121109432Y-103135234D01*
X121239954Y-103321641D01*
X121400858Y-103482545D01*
X121400861Y-103482547D01*
X121587266Y-103613068D01*
X121793504Y-103709239D01*
X122013308Y-103768135D01*
X122175230Y-103782301D01*
X122239998Y-103787968D01*
X122240000Y-103787968D01*
X122240002Y-103787968D01*
X122296673Y-103783009D01*
X122466692Y-103768135D01*
X122686496Y-103709239D01*
X122892734Y-103613068D01*
X123079139Y-103482547D01*
X123240047Y-103321639D01*
X123370568Y-103135234D01*
X123397618Y-103077224D01*
X123443790Y-103024785D01*
X123510983Y-103005633D01*
X123577865Y-103025848D01*
X123622382Y-103077225D01*
X123649429Y-103135228D01*
X123649432Y-103135234D01*
X123779954Y-103321641D01*
X123940858Y-103482545D01*
X123940861Y-103482547D01*
X124127266Y-103613068D01*
X124333504Y-103709239D01*
X124553308Y-103768135D01*
X124715230Y-103782301D01*
X124779998Y-103787968D01*
X124780000Y-103787968D01*
X124780002Y-103787968D01*
X124836673Y-103783009D01*
X125006692Y-103768135D01*
X125226496Y-103709239D01*
X125432734Y-103613068D01*
X125619139Y-103482547D01*
X125780047Y-103321639D01*
X125910568Y-103135234D01*
X125937618Y-103077224D01*
X125983790Y-103024785D01*
X126050983Y-103005633D01*
X126117865Y-103025848D01*
X126162382Y-103077225D01*
X126189429Y-103135228D01*
X126189432Y-103135234D01*
X126319954Y-103321641D01*
X126480858Y-103482545D01*
X126480861Y-103482547D01*
X126667266Y-103613068D01*
X126873504Y-103709239D01*
X127093308Y-103768135D01*
X127255230Y-103782301D01*
X127319998Y-103787968D01*
X127320000Y-103787968D01*
X127320002Y-103787968D01*
X127376673Y-103783009D01*
X127546692Y-103768135D01*
X127766496Y-103709239D01*
X127972734Y-103613068D01*
X128159139Y-103482547D01*
X128320047Y-103321639D01*
X128450568Y-103135234D01*
X128467911Y-103098041D01*
X128514081Y-103045604D01*
X128581274Y-103026451D01*
X128643408Y-103043712D01*
X128648736Y-103046862D01*
X128654974Y-103049562D01*
X128708683Y-103094251D01*
X128718112Y-103110959D01*
X128729430Y-103135231D01*
X128859954Y-103321641D01*
X129020858Y-103482545D01*
X129020861Y-103482547D01*
X129207266Y-103613068D01*
X129413504Y-103709239D01*
X129633308Y-103768135D01*
X129795230Y-103782301D01*
X129859998Y-103787968D01*
X129860000Y-103787968D01*
X129860002Y-103787968D01*
X129916673Y-103783009D01*
X130086692Y-103768135D01*
X130203408Y-103736861D01*
X130273256Y-103738524D01*
X130331119Y-103777686D01*
X130358623Y-103841915D01*
X130359500Y-103856636D01*
X130359500Y-116246994D01*
X130357732Y-116263005D01*
X130357974Y-116263028D01*
X130357240Y-116270794D01*
X130359439Y-116340762D01*
X130359500Y-116344657D01*
X130359500Y-116373420D01*
X130359501Y-116373438D01*
X130360053Y-116377811D01*
X130360968Y-116389441D01*
X130362402Y-116435067D01*
X130362403Y-116435070D01*
X130368323Y-116455448D01*
X130372268Y-116474496D01*
X130374928Y-116495554D01*
X130374931Y-116495565D01*
X130391737Y-116538014D01*
X130395520Y-116549063D01*
X130408254Y-116592895D01*
X130408255Y-116592897D01*
X130419060Y-116611166D01*
X130427617Y-116628634D01*
X130433226Y-116642800D01*
X130435432Y-116648372D01*
X130462266Y-116685306D01*
X130468678Y-116695068D01*
X130491919Y-116734365D01*
X130491923Y-116734369D01*
X130506925Y-116749371D01*
X130519563Y-116764169D01*
X130532033Y-116781333D01*
X130532036Y-116781337D01*
X130567213Y-116810437D01*
X130575854Y-116818300D01*
X135043846Y-121286291D01*
X135077331Y-121347614D01*
X135072347Y-121417306D01*
X135030475Y-121473239D01*
X134965011Y-121497656D01*
X134945364Y-121497501D01*
X134940000Y-121497032D01*
X134939998Y-121497032D01*
X134713313Y-121516864D01*
X134713302Y-121516866D01*
X134493511Y-121575758D01*
X134493502Y-121575761D01*
X134287267Y-121671931D01*
X134287265Y-121671932D01*
X134100858Y-121802454D01*
X133939954Y-121963358D01*
X133809432Y-122149765D01*
X133809431Y-122149767D01*
X133782382Y-122207775D01*
X133736209Y-122260214D01*
X133669016Y-122279366D01*
X133602135Y-122259150D01*
X133557618Y-122207775D01*
X133530683Y-122150013D01*
X133530568Y-122149766D01*
X133400047Y-121963361D01*
X133400045Y-121963358D01*
X133239141Y-121802454D01*
X133052734Y-121671932D01*
X133052732Y-121671931D01*
X132846497Y-121575761D01*
X132846488Y-121575758D01*
X132626697Y-121516866D01*
X132626693Y-121516865D01*
X132626692Y-121516865D01*
X132626691Y-121516864D01*
X132626686Y-121516864D01*
X132400002Y-121497032D01*
X132399998Y-121497032D01*
X132173313Y-121516864D01*
X132173302Y-121516866D01*
X131953511Y-121575758D01*
X131953502Y-121575761D01*
X131747267Y-121671931D01*
X131747265Y-121671932D01*
X131560858Y-121802454D01*
X131399954Y-121963358D01*
X131269432Y-122149765D01*
X131269431Y-122149767D01*
X131242382Y-122207775D01*
X131196209Y-122260214D01*
X131129016Y-122279366D01*
X131062135Y-122259150D01*
X131017618Y-122207775D01*
X130990683Y-122150013D01*
X130990568Y-122149766D01*
X130860047Y-121963361D01*
X130860045Y-121963358D01*
X130699141Y-121802454D01*
X130512734Y-121671932D01*
X130512732Y-121671931D01*
X130306497Y-121575761D01*
X130306488Y-121575758D01*
X130086697Y-121516866D01*
X130086693Y-121516865D01*
X130086692Y-121516865D01*
X130086691Y-121516864D01*
X130086686Y-121516864D01*
X129860002Y-121497032D01*
X129859998Y-121497032D01*
X129633313Y-121516864D01*
X129633302Y-121516866D01*
X129413511Y-121575758D01*
X129413502Y-121575761D01*
X129207267Y-121671931D01*
X129207265Y-121671932D01*
X129020858Y-121802454D01*
X128859954Y-121963358D01*
X128729432Y-122149765D01*
X128729431Y-122149767D01*
X128702382Y-122207775D01*
X128656209Y-122260214D01*
X128589016Y-122279366D01*
X128522135Y-122259150D01*
X128477618Y-122207775D01*
X128450683Y-122150013D01*
X128450568Y-122149766D01*
X128320047Y-121963361D01*
X128320045Y-121963358D01*
X128159141Y-121802454D01*
X127972734Y-121671932D01*
X127972732Y-121671931D01*
X127766497Y-121575761D01*
X127766488Y-121575758D01*
X127546697Y-121516866D01*
X127546693Y-121516865D01*
X127546692Y-121516865D01*
X127546691Y-121516864D01*
X127546686Y-121516864D01*
X127320002Y-121497032D01*
X127319998Y-121497032D01*
X127093313Y-121516864D01*
X127093302Y-121516866D01*
X126873511Y-121575758D01*
X126873502Y-121575761D01*
X126667267Y-121671931D01*
X126667265Y-121671932D01*
X126480858Y-121802454D01*
X126319954Y-121963358D01*
X126189432Y-122149765D01*
X126189431Y-122149767D01*
X126162382Y-122207775D01*
X126116209Y-122260214D01*
X126049016Y-122279366D01*
X125982135Y-122259150D01*
X125937618Y-122207775D01*
X125910683Y-122150013D01*
X125910568Y-122149766D01*
X125780047Y-121963361D01*
X125780045Y-121963358D01*
X125619141Y-121802454D01*
X125432734Y-121671932D01*
X125432732Y-121671931D01*
X125226497Y-121575761D01*
X125226488Y-121575758D01*
X125006697Y-121516866D01*
X125006693Y-121516865D01*
X125006692Y-121516865D01*
X125006691Y-121516864D01*
X125006686Y-121516864D01*
X124780002Y-121497032D01*
X124779998Y-121497032D01*
X124553313Y-121516864D01*
X124553302Y-121516866D01*
X124333511Y-121575758D01*
X124333502Y-121575761D01*
X124127267Y-121671931D01*
X124127265Y-121671932D01*
X123940858Y-121802454D01*
X123779954Y-121963358D01*
X123649432Y-122149765D01*
X123649431Y-122149767D01*
X123622382Y-122207775D01*
X123576209Y-122260214D01*
X123509016Y-122279366D01*
X123442135Y-122259150D01*
X123397618Y-122207775D01*
X123370683Y-122150013D01*
X123370568Y-122149766D01*
X123240047Y-121963361D01*
X123240045Y-121963358D01*
X123079141Y-121802454D01*
X122892734Y-121671932D01*
X122892732Y-121671931D01*
X122686497Y-121575761D01*
X122686488Y-121575758D01*
X122466697Y-121516866D01*
X122466693Y-121516865D01*
X122466692Y-121516865D01*
X122466691Y-121516864D01*
X122466686Y-121516864D01*
X122240002Y-121497032D01*
X122239998Y-121497032D01*
X122013313Y-121516864D01*
X122013302Y-121516866D01*
X121793511Y-121575758D01*
X121793502Y-121575761D01*
X121587267Y-121671931D01*
X121587265Y-121671932D01*
X121400858Y-121802454D01*
X121239954Y-121963358D01*
X121109432Y-122149765D01*
X121109431Y-122149767D01*
X121082382Y-122207775D01*
X121036209Y-122260214D01*
X120969016Y-122279366D01*
X120902135Y-122259150D01*
X120857618Y-122207775D01*
X120830683Y-122150013D01*
X120830568Y-122149766D01*
X120700047Y-121963361D01*
X120700045Y-121963358D01*
X120539141Y-121802454D01*
X120352734Y-121671932D01*
X120352732Y-121671931D01*
X120146497Y-121575761D01*
X120146488Y-121575758D01*
X119926697Y-121516866D01*
X119926693Y-121516865D01*
X119926692Y-121516865D01*
X119926691Y-121516864D01*
X119926686Y-121516864D01*
X119700002Y-121497032D01*
X119699998Y-121497032D01*
X119473313Y-121516864D01*
X119473302Y-121516866D01*
X119253511Y-121575758D01*
X119253502Y-121575761D01*
X119047267Y-121671931D01*
X119047265Y-121671932D01*
X118860858Y-121802454D01*
X118699954Y-121963358D01*
X118569432Y-122149765D01*
X118569431Y-122149767D01*
X118542382Y-122207775D01*
X118496209Y-122260214D01*
X118429016Y-122279366D01*
X118362135Y-122259150D01*
X118317618Y-122207775D01*
X118290683Y-122150013D01*
X118290568Y-122149766D01*
X118160047Y-121963361D01*
X118160045Y-121963358D01*
X117999141Y-121802454D01*
X117812734Y-121671932D01*
X117812732Y-121671931D01*
X117606497Y-121575761D01*
X117606488Y-121575758D01*
X117386697Y-121516866D01*
X117386693Y-121516865D01*
X117386692Y-121516865D01*
X117386691Y-121516864D01*
X117386686Y-121516864D01*
X117160002Y-121497032D01*
X117159998Y-121497032D01*
X116933313Y-121516864D01*
X116933299Y-121516867D01*
X116892834Y-121527709D01*
X116822984Y-121526045D01*
X116773061Y-121495615D01*
X107369819Y-112092373D01*
X107336334Y-112031050D01*
X107333500Y-112004692D01*
X107333500Y-95976090D01*
X107353185Y-95909051D01*
X107405989Y-95863296D01*
X107475147Y-95853352D01*
X107528623Y-95874516D01*
X107537266Y-95880568D01*
X107743504Y-95976739D01*
X107963308Y-96035635D01*
X108125230Y-96049801D01*
X108189998Y-96055468D01*
X108190000Y-96055468D01*
X108190002Y-96055468D01*
X108246673Y-96050509D01*
X108416692Y-96035635D01*
X108636496Y-95976739D01*
X108842734Y-95880568D01*
X109029139Y-95750047D01*
X109190047Y-95589139D01*
X109320568Y-95402734D01*
X109416739Y-95196496D01*
X109475635Y-94976692D01*
X109495468Y-94750000D01*
X109475635Y-94523308D01*
X109464790Y-94482834D01*
X109466453Y-94412984D01*
X109496882Y-94363062D01*
X112649513Y-91210431D01*
X112662079Y-91200365D01*
X112661925Y-91200178D01*
X112667933Y-91195205D01*
X112667940Y-91195202D01*
X112698194Y-91162984D01*
X112715865Y-91144167D01*
X112718578Y-91141367D01*
X112738911Y-91121035D01*
X112741606Y-91117560D01*
X112749199Y-91108669D01*
X112780448Y-91075393D01*
X112790674Y-91056790D01*
X112801353Y-91040533D01*
X112814362Y-91023764D01*
X112832498Y-90981850D01*
X112837620Y-90971395D01*
X112859627Y-90931368D01*
X112864907Y-90910802D01*
X112871209Y-90892395D01*
X112879635Y-90872926D01*
X112886777Y-90827824D01*
X112889145Y-90816397D01*
X112900500Y-90772177D01*
X112900500Y-90750955D01*
X112902027Y-90731555D01*
X112905347Y-90710595D01*
X112901050Y-90665140D01*
X112900500Y-90653470D01*
X112900500Y-83024499D01*
X112920185Y-82957460D01*
X112972989Y-82911705D01*
X113024500Y-82900499D01*
X113197871Y-82900499D01*
X113197872Y-82900499D01*
X113257483Y-82894091D01*
X113392331Y-82843796D01*
X113507546Y-82757546D01*
X113593796Y-82642331D01*
X113644091Y-82507483D01*
X113650500Y-82447873D01*
X113650499Y-80552128D01*
X113644091Y-80492517D01*
X113593796Y-80357669D01*
X113593795Y-80357668D01*
X113593793Y-80357664D01*
X113507547Y-80242455D01*
X113483687Y-80224593D01*
X113441816Y-80168658D01*
X113436833Y-80098967D01*
X113454191Y-80057504D01*
X113485484Y-80009607D01*
X113578682Y-79797135D01*
X113635638Y-79572218D01*
X113654798Y-79341005D01*
X113654798Y-79340994D01*
X113635638Y-79109781D01*
X113578682Y-78884864D01*
X113485484Y-78672393D01*
X113401186Y-78543365D01*
X112694449Y-79250101D01*
X112693673Y-79239735D01*
X112644113Y-79113459D01*
X112559535Y-79007401D01*
X112447453Y-78930984D01*
X112339698Y-78897746D01*
X112724179Y-78513265D01*
X112771595Y-78483666D01*
X112814503Y-78468936D01*
X113018626Y-78358470D01*
X113021917Y-78355909D01*
X113133653Y-78268941D01*
X113201784Y-78215913D01*
X113358979Y-78045153D01*
X113485924Y-77850849D01*
X113579157Y-77638300D01*
X113636134Y-77413305D01*
X113642579Y-77335524D01*
X113655300Y-77182006D01*
X113655300Y-77181993D01*
X113636135Y-76950702D01*
X113636133Y-76950691D01*
X113579157Y-76725699D01*
X113485924Y-76513151D01*
X113358983Y-76318852D01*
X113358980Y-76318849D01*
X113358979Y-76318847D01*
X113237128Y-76186480D01*
X113206207Y-76123828D01*
X113214067Y-76054402D01*
X113237127Y-76018520D01*
X113358979Y-75886153D01*
X113485924Y-75691849D01*
X113579157Y-75479300D01*
X113636134Y-75254305D01*
X113638010Y-75231668D01*
X113655300Y-75023006D01*
X113655300Y-75022993D01*
X113636135Y-74791702D01*
X113636133Y-74791691D01*
X113579157Y-74566699D01*
X113485924Y-74354151D01*
X113358983Y-74159852D01*
X113358980Y-74159849D01*
X113358979Y-74159847D01*
X113201784Y-73989087D01*
X113201779Y-73989083D01*
X113201777Y-73989081D01*
X113018634Y-73846535D01*
X113018628Y-73846531D01*
X112814504Y-73736064D01*
X112814495Y-73736061D01*
X112594984Y-73660702D01*
X112423282Y-73632050D01*
X112366049Y-73622500D01*
X112133951Y-73622500D01*
X112088164Y-73630140D01*
X111905015Y-73660702D01*
X111685504Y-73736061D01*
X111685495Y-73736064D01*
X111481371Y-73846531D01*
X111481365Y-73846535D01*
X111298222Y-73989081D01*
X111298219Y-73989084D01*
X111298216Y-73989086D01*
X111298216Y-73989087D01*
X111250581Y-74040833D01*
X111141016Y-74159852D01*
X111014075Y-74354151D01*
X110920842Y-74566699D01*
X110863866Y-74791691D01*
X110863864Y-74791702D01*
X110844700Y-75022993D01*
X110844700Y-75023006D01*
X110863865Y-75254301D01*
X110894031Y-75373425D01*
X110891406Y-75443245D01*
X110861506Y-75491546D01*
X107790483Y-78562569D01*
X107777910Y-78572643D01*
X107778065Y-78572830D01*
X107772058Y-78577799D01*
X107724133Y-78628833D01*
X107721427Y-78631625D01*
X107701090Y-78651963D01*
X107701077Y-78651978D01*
X107698373Y-78655463D01*
X107690806Y-78664322D01*
X107659552Y-78697607D01*
X107649322Y-78716213D01*
X107638646Y-78732464D01*
X107625640Y-78749232D01*
X107625636Y-78749238D01*
X107607508Y-78791130D01*
X107602369Y-78801619D01*
X107580372Y-78841630D01*
X107580372Y-78841632D01*
X107577603Y-78852416D01*
X107541863Y-78912453D01*
X107479339Y-78943637D01*
X107409880Y-78936067D01*
X107355541Y-78892146D01*
X107333573Y-78825820D01*
X107333500Y-78821575D01*
X107333500Y-72400293D01*
X107353185Y-72333254D01*
X107386372Y-72298721D01*
X107497620Y-72220826D01*
X107653826Y-72064620D01*
X107718281Y-71972567D01*
X107772857Y-71928943D01*
X107842356Y-71921749D01*
X107904711Y-71953271D01*
X107940125Y-72013501D01*
X107939631Y-72075784D01*
X107884931Y-72279926D01*
X107884929Y-72279937D01*
X107865677Y-72499997D01*
X107865677Y-72500002D01*
X107884929Y-72720062D01*
X107884930Y-72720070D01*
X107942104Y-72933445D01*
X107942105Y-72933447D01*
X107942106Y-72933450D01*
X108019768Y-73099998D01*
X108035466Y-73133662D01*
X108035468Y-73133666D01*
X108162170Y-73314615D01*
X108162175Y-73314621D01*
X108318378Y-73470824D01*
X108318384Y-73470829D01*
X108499333Y-73597531D01*
X108499335Y-73597532D01*
X108499338Y-73597534D01*
X108699550Y-73690894D01*
X108912932Y-73748070D01*
X109070123Y-73761822D01*
X109132998Y-73767323D01*
X109133000Y-73767323D01*
X109133002Y-73767323D01*
X109188017Y-73762509D01*
X109353068Y-73748070D01*
X109566450Y-73690894D01*
X109766662Y-73597534D01*
X109947620Y-73470826D01*
X110103826Y-73314620D01*
X110230534Y-73133662D01*
X110323894Y-72933450D01*
X110381070Y-72720068D01*
X110396080Y-72548502D01*
X110400323Y-72500002D01*
X110400323Y-72499997D01*
X110386524Y-72342273D01*
X110381070Y-72279932D01*
X110323894Y-72066550D01*
X110230534Y-71866339D01*
X110103826Y-71685380D01*
X109947620Y-71529174D01*
X109947616Y-71529171D01*
X109947615Y-71529170D01*
X109766666Y-71402468D01*
X109766662Y-71402466D01*
X109766660Y-71402465D01*
X109566450Y-71309106D01*
X109566447Y-71309105D01*
X109566445Y-71309104D01*
X109353070Y-71251930D01*
X109353062Y-71251929D01*
X109133002Y-71232677D01*
X109132998Y-71232677D01*
X108912937Y-71251929D01*
X108912929Y-71251930D01*
X108699554Y-71309104D01*
X108699548Y-71309107D01*
X108499340Y-71402465D01*
X108499338Y-71402466D01*
X108318377Y-71529175D01*
X108162177Y-71685375D01*
X108097718Y-71777433D01*
X108043141Y-71821057D01*
X107973642Y-71828250D01*
X107911288Y-71796728D01*
X107875874Y-71736498D01*
X107876367Y-71674217D01*
X107931070Y-71470068D01*
X107950323Y-71250000D01*
X107948807Y-71232677D01*
X107938314Y-71112732D01*
X107931070Y-71029932D01*
X107873894Y-70816550D01*
X107780534Y-70616339D01*
X107653826Y-70435380D01*
X107497620Y-70279174D01*
X107497616Y-70279171D01*
X107497615Y-70279170D01*
X107316666Y-70152468D01*
X107316662Y-70152466D01*
X107316660Y-70152465D01*
X107116450Y-70059106D01*
X107116447Y-70059105D01*
X107116445Y-70059104D01*
X106903070Y-70001930D01*
X106903062Y-70001929D01*
X106683002Y-69982677D01*
X106682998Y-69982677D01*
X106462937Y-70001929D01*
X106462929Y-70001930D01*
X106249554Y-70059104D01*
X106249548Y-70059107D01*
X106049340Y-70152465D01*
X106049338Y-70152466D01*
X105868377Y-70279175D01*
X105712175Y-70435377D01*
X105585466Y-70616338D01*
X105585465Y-70616340D01*
X105492107Y-70816548D01*
X105492104Y-70816554D01*
X105434930Y-71029929D01*
X105434929Y-71029937D01*
X105415677Y-71249997D01*
X105415677Y-71250002D01*
X100500500Y-71250002D01*
X100500500Y-66500000D01*
X105421000Y-66500000D01*
X106395283Y-66500000D01*
X106359629Y-66538731D01*
X106308552Y-66655177D01*
X106298051Y-66781898D01*
X106329266Y-66905162D01*
X106391227Y-67000000D01*
X105421001Y-67000000D01*
X105421001Y-67207609D01*
X105423917Y-67250632D01*
X105423917Y-67250634D01*
X105470165Y-67436602D01*
X105555307Y-67608275D01*
X105675365Y-67757633D01*
X105675366Y-67757634D01*
X105824725Y-67877692D01*
X105824724Y-67877692D01*
X105996397Y-67962834D01*
X106182361Y-68009081D01*
X106182357Y-68009081D01*
X106225395Y-68011999D01*
X106432999Y-68011999D01*
X106433000Y-68011998D01*
X106433000Y-67038220D01*
X106499157Y-67089713D01*
X106619422Y-67131000D01*
X106714569Y-67131000D01*
X106808421Y-67115339D01*
X106920251Y-67054820D01*
X106933000Y-67040970D01*
X106933000Y-68011999D01*
X107140607Y-68011999D01*
X107140609Y-68011998D01*
X107183632Y-68009082D01*
X107183634Y-68009082D01*
X107369602Y-67962834D01*
X107541275Y-67877692D01*
X107690633Y-67757634D01*
X107690634Y-67757633D01*
X107810692Y-67608275D01*
X107895834Y-67436602D01*
X107942081Y-67250640D01*
X107945000Y-67207604D01*
X107945000Y-67000000D01*
X106970717Y-67000000D01*
X107006371Y-66961269D01*
X107057448Y-66844823D01*
X107067949Y-66718102D01*
X107036734Y-66594838D01*
X106974773Y-66500000D01*
X107944999Y-66500000D01*
X107944999Y-66396487D01*
X107964684Y-66329448D01*
X108017488Y-66283693D01*
X108086646Y-66273749D01*
X108150202Y-66302774D01*
X108158218Y-66310919D01*
X108158346Y-66310792D01*
X108318378Y-66470824D01*
X108318384Y-66470829D01*
X108499333Y-66597531D01*
X108499335Y-66597532D01*
X108499338Y-66597534D01*
X108699550Y-66690894D01*
X108912932Y-66748070D01*
X109070123Y-66761822D01*
X109132998Y-66767323D01*
X109133000Y-66767323D01*
X109133002Y-66767323D01*
X109188017Y-66762509D01*
X109353068Y-66748070D01*
X109566450Y-66690894D01*
X109766662Y-66597534D01*
X109947620Y-66470826D01*
X110103826Y-66314620D01*
X110230534Y-66133662D01*
X110323894Y-65933450D01*
X110381070Y-65720068D01*
X110400323Y-65500000D01*
X110399528Y-65490918D01*
X110381070Y-65279937D01*
X110381070Y-65279932D01*
X110323894Y-65066550D01*
X110230534Y-64866339D01*
X110146118Y-64745780D01*
X110103827Y-64685381D01*
X110034783Y-64616337D01*
X109947620Y-64529174D01*
X109947616Y-64529171D01*
X109947615Y-64529170D01*
X109766666Y-64402468D01*
X109766662Y-64402466D01*
X109719590Y-64380516D01*
X109566450Y-64309106D01*
X109566447Y-64309105D01*
X109566445Y-64309104D01*
X109353070Y-64251930D01*
X109353062Y-64251929D01*
X109133002Y-64232677D01*
X109132998Y-64232677D01*
X108912937Y-64251929D01*
X108912929Y-64251930D01*
X108699554Y-64309104D01*
X108699548Y-64309107D01*
X108499340Y-64402465D01*
X108499338Y-64402466D01*
X108318377Y-64529175D01*
X108162175Y-64685377D01*
X108035466Y-64866338D01*
X108035465Y-64866340D01*
X107942107Y-65066548D01*
X107942104Y-65066554D01*
X107884930Y-65279929D01*
X107884929Y-65279937D01*
X107865677Y-65499997D01*
X107865677Y-65500002D01*
X107876393Y-65622488D01*
X107862626Y-65690988D01*
X107814011Y-65741171D01*
X107745982Y-65757104D01*
X107680139Y-65733729D01*
X107675178Y-65729942D01*
X107541274Y-65622307D01*
X107541275Y-65622307D01*
X107369602Y-65537165D01*
X107183638Y-65490918D01*
X107183642Y-65490918D01*
X107140605Y-65488000D01*
X106933000Y-65488000D01*
X106933000Y-66461779D01*
X106866843Y-66410287D01*
X106746578Y-66369000D01*
X106651431Y-66369000D01*
X106557579Y-66384661D01*
X106445749Y-66445180D01*
X106433000Y-66459029D01*
X106433000Y-65488000D01*
X106225394Y-65488000D01*
X106225390Y-65488001D01*
X106182367Y-65490917D01*
X106182365Y-65490917D01*
X105996397Y-65537165D01*
X105824724Y-65622307D01*
X105675366Y-65742365D01*
X105675365Y-65742366D01*
X105555307Y-65891724D01*
X105470165Y-66063397D01*
X105423918Y-66249359D01*
X105421000Y-66292395D01*
X105421000Y-66500000D01*
X100500500Y-66500000D01*
X100500500Y-61250003D01*
X102895170Y-61250003D01*
X102914473Y-61581426D01*
X102914474Y-61581437D01*
X102972118Y-61908351D01*
X102972121Y-61908365D01*
X103067336Y-62226408D01*
X103198827Y-62531236D01*
X103198833Y-62531249D01*
X103364824Y-62818755D01*
X103562357Y-63084087D01*
X104635073Y-62011372D01*
X104711890Y-62121078D01*
X104878922Y-62288110D01*
X104988626Y-62364925D01*
X103919289Y-63434263D01*
X104045215Y-63539925D01*
X104322588Y-63722356D01*
X104619252Y-63871347D01*
X104619258Y-63871350D01*
X104931213Y-63984892D01*
X104931234Y-63984899D01*
X105254248Y-64061456D01*
X105254263Y-64061458D01*
X105584012Y-64099999D01*
X105584013Y-64100000D01*
X105915987Y-64100000D01*
X105915987Y-64099999D01*
X106245736Y-64061458D01*
X106245751Y-64061456D01*
X106568765Y-63984899D01*
X106568786Y-63984892D01*
X106880741Y-63871350D01*
X106880747Y-63871347D01*
X107177411Y-63722356D01*
X107454789Y-63539922D01*
X107580708Y-63434263D01*
X107580709Y-63434262D01*
X106511373Y-62364925D01*
X106621078Y-62288110D01*
X106788110Y-62121078D01*
X106864926Y-62011373D01*
X107937641Y-63084088D01*
X108135175Y-62818756D01*
X108301166Y-62531249D01*
X108301172Y-62531236D01*
X108432663Y-62226408D01*
X108527878Y-61908365D01*
X108527881Y-61908351D01*
X108585525Y-61581437D01*
X108585526Y-61581426D01*
X108604830Y-61250003D01*
X144145170Y-61250003D01*
X144164473Y-61581426D01*
X144164474Y-61581437D01*
X144222118Y-61908351D01*
X144222121Y-61908365D01*
X144317336Y-62226408D01*
X144448827Y-62531236D01*
X144448833Y-62531249D01*
X144614824Y-62818755D01*
X144812357Y-63084087D01*
X145885072Y-62011371D01*
X145961890Y-62121078D01*
X146128922Y-62288110D01*
X146238626Y-62364925D01*
X145169289Y-63434263D01*
X145295215Y-63539925D01*
X145572588Y-63722356D01*
X145869252Y-63871347D01*
X145869258Y-63871350D01*
X146181213Y-63984892D01*
X146181234Y-63984899D01*
X146504248Y-64061456D01*
X146504263Y-64061458D01*
X146834012Y-64099999D01*
X146834013Y-64100000D01*
X147165987Y-64100000D01*
X147165987Y-64099999D01*
X147495736Y-64061458D01*
X147495751Y-64061456D01*
X147818765Y-63984899D01*
X147818786Y-63984892D01*
X148130741Y-63871350D01*
X148130747Y-63871347D01*
X148427411Y-63722356D01*
X148704789Y-63539922D01*
X148830708Y-63434263D01*
X148830709Y-63434262D01*
X147761373Y-62364925D01*
X147871078Y-62288110D01*
X148038110Y-62121078D01*
X148114926Y-62011373D01*
X149187641Y-63084088D01*
X149385175Y-62818756D01*
X149551166Y-62531249D01*
X149551172Y-62531236D01*
X149682663Y-62226408D01*
X149777878Y-61908365D01*
X149777881Y-61908351D01*
X149835525Y-61581437D01*
X149835526Y-61581426D01*
X149854830Y-61250003D01*
X149854830Y-61249996D01*
X149835526Y-60918573D01*
X149835525Y-60918562D01*
X149777881Y-60591648D01*
X149777878Y-60591634D01*
X149682663Y-60273591D01*
X149551172Y-59968763D01*
X149551166Y-59968750D01*
X149385172Y-59681239D01*
X149187642Y-59415910D01*
X148114925Y-60488626D01*
X148038110Y-60378922D01*
X147871078Y-60211890D01*
X147761372Y-60135073D01*
X148830709Y-59065736D01*
X148830709Y-59065735D01*
X148704784Y-58960074D01*
X148427411Y-58777643D01*
X148130747Y-58628652D01*
X148130741Y-58628649D01*
X147818786Y-58515107D01*
X147818765Y-58515100D01*
X147495751Y-58438543D01*
X147495736Y-58438541D01*
X147165987Y-58400000D01*
X146834013Y-58400000D01*
X146504263Y-58438541D01*
X146504248Y-58438543D01*
X146181234Y-58515100D01*
X146181213Y-58515107D01*
X145869258Y-58628649D01*
X145869252Y-58628652D01*
X145572581Y-58777646D01*
X145295220Y-58960070D01*
X145295213Y-58960075D01*
X145169289Y-59065735D01*
X146238627Y-60135073D01*
X146128922Y-60211890D01*
X145961890Y-60378922D01*
X145885073Y-60488627D01*
X144812357Y-59415911D01*
X144812356Y-59415911D01*
X144614829Y-59681236D01*
X144614825Y-59681242D01*
X144448833Y-59968750D01*
X144448827Y-59968763D01*
X144317336Y-60273591D01*
X144222121Y-60591634D01*
X144222118Y-60591648D01*
X144164474Y-60918562D01*
X144164473Y-60918573D01*
X144145170Y-61249996D01*
X144145170Y-61250003D01*
X108604830Y-61250003D01*
X108604830Y-61249996D01*
X108585526Y-60918573D01*
X108585525Y-60918562D01*
X108527881Y-60591648D01*
X108527878Y-60591634D01*
X108432663Y-60273591D01*
X108301172Y-59968763D01*
X108301166Y-59968750D01*
X108135172Y-59681239D01*
X107937642Y-59415910D01*
X106864925Y-60488626D01*
X106788110Y-60378922D01*
X106621078Y-60211890D01*
X106511372Y-60135073D01*
X107580709Y-59065736D01*
X107580709Y-59065735D01*
X107454784Y-58960074D01*
X107177411Y-58777643D01*
X106880747Y-58628652D01*
X106880741Y-58628649D01*
X106568786Y-58515107D01*
X106568765Y-58515100D01*
X106245751Y-58438543D01*
X106245736Y-58438541D01*
X105915987Y-58400000D01*
X105584013Y-58400000D01*
X105254263Y-58438541D01*
X105254248Y-58438543D01*
X104931234Y-58515100D01*
X104931213Y-58515107D01*
X104619258Y-58628649D01*
X104619252Y-58628652D01*
X104322581Y-58777646D01*
X104045220Y-58960070D01*
X104045213Y-58960075D01*
X103919289Y-59065735D01*
X104988627Y-60135073D01*
X104878922Y-60211890D01*
X104711890Y-60378922D01*
X104635073Y-60488627D01*
X103562357Y-59415911D01*
X103562356Y-59415911D01*
X103364829Y-59681236D01*
X103364825Y-59681242D01*
X103198833Y-59968750D01*
X103198827Y-59968763D01*
X103067336Y-60273591D01*
X102972121Y-60591634D01*
X102972118Y-60591648D01*
X102914474Y-60918562D01*
X102914473Y-60918573D01*
X102895170Y-61249996D01*
X102895170Y-61250003D01*
X100500500Y-61250003D01*
X100500500Y-60753480D01*
X100500695Y-60746528D01*
X100501886Y-60725326D01*
X100517398Y-60449097D01*
X100518952Y-60435298D01*
X100568269Y-60145041D01*
X100571363Y-60131489D01*
X100618248Y-59968750D01*
X100652867Y-59848582D01*
X100657459Y-59835462D01*
X100678981Y-59783502D01*
X100770123Y-59563463D01*
X100776145Y-59550957D01*
X100918566Y-59293267D01*
X100925961Y-59281499D01*
X100932503Y-59272279D01*
X101096330Y-59041385D01*
X101104985Y-59030531D01*
X101301179Y-58810991D01*
X101310991Y-58801179D01*
X101530531Y-58604985D01*
X101541385Y-58596330D01*
X101781504Y-58425957D01*
X101793267Y-58418566D01*
X102050957Y-58276145D01*
X102063463Y-58270123D01*
X102335462Y-58157459D01*
X102348582Y-58152867D01*
X102631494Y-58071361D01*
X102645041Y-58068269D01*
X102935298Y-58018952D01*
X102949097Y-58017398D01*
X103209562Y-58002770D01*
X103246529Y-58000695D01*
X103253481Y-58000500D01*
X103294170Y-58000500D01*
X149205830Y-58000500D01*
X149246519Y-58000500D01*
X149253471Y-58000695D01*
G37*
%TD.AperFunction*%
%TD*%
M02*
