%TF.GenerationSoftware,KiCad,Pcbnew,7.0.10*%
%TF.CreationDate,2024-03-15T10:23:30-04:00*%
%TF.ProjectId,Kicad V7,4b696361-6420-4563-972e-6b696361645f,v2*%
%TF.SameCoordinates,Original*%
%TF.FileFunction,Legend,Top*%
%TF.FilePolarity,Positive*%
%FSLAX46Y46*%
G04 Gerber Fmt 4.6, Leading zero omitted, Abs format (unit mm)*
G04 Created by KiCad (PCBNEW 7.0.10) date 2024-03-15 10:23:30*
%MOMM*%
%LPD*%
G01*
G04 APERTURE LIST*
%ADD10C,0.150000*%
%ADD11C,0.100000*%
%ADD12C,0.120000*%
G04 APERTURE END LIST*
D10*
X119000000Y-124750000D02*
X132500000Y-124750000D01*
X132500000Y-130500000D01*
X119000000Y-130500000D01*
X119000000Y-124750000D01*
X123539160Y-86834104D02*
X124015350Y-86834104D01*
X123443922Y-87119819D02*
X123777255Y-86119819D01*
X123777255Y-86119819D02*
X124110588Y-87119819D01*
X124872493Y-86453152D02*
X124872493Y-87119819D01*
X124443922Y-86453152D02*
X124443922Y-86976961D01*
X124443922Y-86976961D02*
X124491541Y-87072200D01*
X124491541Y-87072200D02*
X124586779Y-87119819D01*
X124586779Y-87119819D02*
X124729636Y-87119819D01*
X124729636Y-87119819D02*
X124824874Y-87072200D01*
X124824874Y-87072200D02*
X124872493Y-87024580D01*
X125253446Y-87119819D02*
X125777255Y-86453152D01*
X125253446Y-86453152D02*
X125777255Y-87119819D01*
X126872494Y-86215057D02*
X126920113Y-86167438D01*
X126920113Y-86167438D02*
X127015351Y-86119819D01*
X127015351Y-86119819D02*
X127253446Y-86119819D01*
X127253446Y-86119819D02*
X127348684Y-86167438D01*
X127348684Y-86167438D02*
X127396303Y-86215057D01*
X127396303Y-86215057D02*
X127443922Y-86310295D01*
X127443922Y-86310295D02*
X127443922Y-86405533D01*
X127443922Y-86405533D02*
X127396303Y-86548390D01*
X127396303Y-86548390D02*
X126824875Y-87119819D01*
X126824875Y-87119819D02*
X127443922Y-87119819D01*
X122666779Y-88848866D02*
X123428684Y-88848866D01*
X123047731Y-89229819D02*
X123047731Y-88467914D01*
X124381064Y-88229819D02*
X123904874Y-88229819D01*
X123904874Y-88229819D02*
X123857255Y-88706009D01*
X123857255Y-88706009D02*
X123904874Y-88658390D01*
X123904874Y-88658390D02*
X124000112Y-88610771D01*
X124000112Y-88610771D02*
X124238207Y-88610771D01*
X124238207Y-88610771D02*
X124333445Y-88658390D01*
X124333445Y-88658390D02*
X124381064Y-88706009D01*
X124381064Y-88706009D02*
X124428683Y-88801247D01*
X124428683Y-88801247D02*
X124428683Y-89039342D01*
X124428683Y-89039342D02*
X124381064Y-89134580D01*
X124381064Y-89134580D02*
X124333445Y-89182200D01*
X124333445Y-89182200D02*
X124238207Y-89229819D01*
X124238207Y-89229819D02*
X124000112Y-89229819D01*
X124000112Y-89229819D02*
X123904874Y-89182200D01*
X123904874Y-89182200D02*
X123857255Y-89134580D01*
X124714398Y-88229819D02*
X125047731Y-89229819D01*
X125047731Y-89229819D02*
X125381064Y-88229819D01*
X125096779Y-74869819D02*
X125096779Y-73869819D01*
X125096779Y-74346009D02*
X125668207Y-74346009D01*
X125668207Y-74869819D02*
X125668207Y-73869819D01*
X126287255Y-74869819D02*
X126192017Y-74822200D01*
X126192017Y-74822200D02*
X126144398Y-74774580D01*
X126144398Y-74774580D02*
X126096779Y-74679342D01*
X126096779Y-74679342D02*
X126096779Y-74393628D01*
X126096779Y-74393628D02*
X126144398Y-74298390D01*
X126144398Y-74298390D02*
X126192017Y-74250771D01*
X126192017Y-74250771D02*
X126287255Y-74203152D01*
X126287255Y-74203152D02*
X126430112Y-74203152D01*
X126430112Y-74203152D02*
X126525350Y-74250771D01*
X126525350Y-74250771D02*
X126572969Y-74298390D01*
X126572969Y-74298390D02*
X126620588Y-74393628D01*
X126620588Y-74393628D02*
X126620588Y-74679342D01*
X126620588Y-74679342D02*
X126572969Y-74774580D01*
X126572969Y-74774580D02*
X126525350Y-74822200D01*
X126525350Y-74822200D02*
X126430112Y-74869819D01*
X126430112Y-74869819D02*
X126287255Y-74869819D01*
X127049160Y-74869819D02*
X127049160Y-74203152D01*
X127049160Y-74298390D02*
X127096779Y-74250771D01*
X127096779Y-74250771D02*
X127192017Y-74203152D01*
X127192017Y-74203152D02*
X127334874Y-74203152D01*
X127334874Y-74203152D02*
X127430112Y-74250771D01*
X127430112Y-74250771D02*
X127477731Y-74346009D01*
X127477731Y-74346009D02*
X127477731Y-74869819D01*
X127477731Y-74346009D02*
X127525350Y-74250771D01*
X127525350Y-74250771D02*
X127620588Y-74203152D01*
X127620588Y-74203152D02*
X127763445Y-74203152D01*
X127763445Y-74203152D02*
X127858684Y-74250771D01*
X127858684Y-74250771D02*
X127906303Y-74346009D01*
X127906303Y-74346009D02*
X127906303Y-74869819D01*
X128763445Y-74822200D02*
X128668207Y-74869819D01*
X128668207Y-74869819D02*
X128477731Y-74869819D01*
X128477731Y-74869819D02*
X128382493Y-74822200D01*
X128382493Y-74822200D02*
X128334874Y-74726961D01*
X128334874Y-74726961D02*
X128334874Y-74346009D01*
X128334874Y-74346009D02*
X128382493Y-74250771D01*
X128382493Y-74250771D02*
X128477731Y-74203152D01*
X128477731Y-74203152D02*
X128668207Y-74203152D01*
X128668207Y-74203152D02*
X128763445Y-74250771D01*
X128763445Y-74250771D02*
X128811064Y-74346009D01*
X128811064Y-74346009D02*
X128811064Y-74441247D01*
X128811064Y-74441247D02*
X128334874Y-74536485D01*
X124110588Y-91167438D02*
X124015350Y-91119819D01*
X124015350Y-91119819D02*
X123872493Y-91119819D01*
X123872493Y-91119819D02*
X123729636Y-91167438D01*
X123729636Y-91167438D02*
X123634398Y-91262676D01*
X123634398Y-91262676D02*
X123586779Y-91357914D01*
X123586779Y-91357914D02*
X123539160Y-91548390D01*
X123539160Y-91548390D02*
X123539160Y-91691247D01*
X123539160Y-91691247D02*
X123586779Y-91881723D01*
X123586779Y-91881723D02*
X123634398Y-91976961D01*
X123634398Y-91976961D02*
X123729636Y-92072200D01*
X123729636Y-92072200D02*
X123872493Y-92119819D01*
X123872493Y-92119819D02*
X123967731Y-92119819D01*
X123967731Y-92119819D02*
X124110588Y-92072200D01*
X124110588Y-92072200D02*
X124158207Y-92024580D01*
X124158207Y-92024580D02*
X124158207Y-91691247D01*
X124158207Y-91691247D02*
X123967731Y-91691247D01*
X123539160Y-84334104D02*
X124015350Y-84334104D01*
X123443922Y-84619819D02*
X123777255Y-83619819D01*
X123777255Y-83619819D02*
X124110588Y-84619819D01*
X124872493Y-83953152D02*
X124872493Y-84619819D01*
X124443922Y-83953152D02*
X124443922Y-84476961D01*
X124443922Y-84476961D02*
X124491541Y-84572200D01*
X124491541Y-84572200D02*
X124586779Y-84619819D01*
X124586779Y-84619819D02*
X124729636Y-84619819D01*
X124729636Y-84619819D02*
X124824874Y-84572200D01*
X124824874Y-84572200D02*
X124872493Y-84524580D01*
X125253446Y-84619819D02*
X125777255Y-83953152D01*
X125253446Y-83953152D02*
X125777255Y-84619819D01*
X127443922Y-84619819D02*
X126872494Y-84619819D01*
X127158208Y-84619819D02*
X127158208Y-83619819D01*
X127158208Y-83619819D02*
X127062970Y-83762676D01*
X127062970Y-83762676D02*
X126967732Y-83857914D01*
X126967732Y-83857914D02*
X126872494Y-83905533D01*
X139836779Y-83119819D02*
X139836779Y-82119819D01*
X139836779Y-82119819D02*
X140170112Y-82834104D01*
X140170112Y-82834104D02*
X140503445Y-82119819D01*
X140503445Y-82119819D02*
X140503445Y-83119819D01*
X141170112Y-82119819D02*
X141360588Y-82119819D01*
X141360588Y-82119819D02*
X141455826Y-82167438D01*
X141455826Y-82167438D02*
X141551064Y-82262676D01*
X141551064Y-82262676D02*
X141598683Y-82453152D01*
X141598683Y-82453152D02*
X141598683Y-82786485D01*
X141598683Y-82786485D02*
X141551064Y-82976961D01*
X141551064Y-82976961D02*
X141455826Y-83072200D01*
X141455826Y-83072200D02*
X141360588Y-83119819D01*
X141360588Y-83119819D02*
X141170112Y-83119819D01*
X141170112Y-83119819D02*
X141074874Y-83072200D01*
X141074874Y-83072200D02*
X140979636Y-82976961D01*
X140979636Y-82976961D02*
X140932017Y-82786485D01*
X140932017Y-82786485D02*
X140932017Y-82453152D01*
X140932017Y-82453152D02*
X140979636Y-82262676D01*
X140979636Y-82262676D02*
X141074874Y-82167438D01*
X141074874Y-82167438D02*
X141170112Y-82119819D01*
X141884398Y-82119819D02*
X142455826Y-82119819D01*
X142170112Y-83119819D02*
X142170112Y-82119819D01*
X142979636Y-82119819D02*
X143170112Y-82119819D01*
X143170112Y-82119819D02*
X143265350Y-82167438D01*
X143265350Y-82167438D02*
X143360588Y-82262676D01*
X143360588Y-82262676D02*
X143408207Y-82453152D01*
X143408207Y-82453152D02*
X143408207Y-82786485D01*
X143408207Y-82786485D02*
X143360588Y-82976961D01*
X143360588Y-82976961D02*
X143265350Y-83072200D01*
X143265350Y-83072200D02*
X143170112Y-83119819D01*
X143170112Y-83119819D02*
X142979636Y-83119819D01*
X142979636Y-83119819D02*
X142884398Y-83072200D01*
X142884398Y-83072200D02*
X142789160Y-82976961D01*
X142789160Y-82976961D02*
X142741541Y-82786485D01*
X142741541Y-82786485D02*
X142741541Y-82453152D01*
X142741541Y-82453152D02*
X142789160Y-82262676D01*
X142789160Y-82262676D02*
X142884398Y-82167438D01*
X142884398Y-82167438D02*
X142979636Y-82119819D01*
X144408207Y-83119819D02*
X144074874Y-82643628D01*
X143836779Y-83119819D02*
X143836779Y-82119819D01*
X143836779Y-82119819D02*
X144217731Y-82119819D01*
X144217731Y-82119819D02*
X144312969Y-82167438D01*
X144312969Y-82167438D02*
X144360588Y-82215057D01*
X144360588Y-82215057D02*
X144408207Y-82310295D01*
X144408207Y-82310295D02*
X144408207Y-82453152D01*
X144408207Y-82453152D02*
X144360588Y-82548390D01*
X144360588Y-82548390D02*
X144312969Y-82596009D01*
X144312969Y-82596009D02*
X144217731Y-82643628D01*
X144217731Y-82643628D02*
X143836779Y-82643628D01*
X147333333Y-68704819D02*
X147000000Y-68228628D01*
X146761905Y-68704819D02*
X146761905Y-67704819D01*
X146761905Y-67704819D02*
X147142857Y-67704819D01*
X147142857Y-67704819D02*
X147238095Y-67752438D01*
X147238095Y-67752438D02*
X147285714Y-67800057D01*
X147285714Y-67800057D02*
X147333333Y-67895295D01*
X147333333Y-67895295D02*
X147333333Y-68038152D01*
X147333333Y-68038152D02*
X147285714Y-68133390D01*
X147285714Y-68133390D02*
X147238095Y-68181009D01*
X147238095Y-68181009D02*
X147142857Y-68228628D01*
X147142857Y-68228628D02*
X146761905Y-68228628D01*
X148190476Y-68038152D02*
X148190476Y-68704819D01*
X147952381Y-67657200D02*
X147714286Y-68371485D01*
X147714286Y-68371485D02*
X148333333Y-68371485D01*
X123651648Y-95454819D02*
X123651648Y-96264342D01*
X123651648Y-96264342D02*
X123699267Y-96359580D01*
X123699267Y-96359580D02*
X123746886Y-96407200D01*
X123746886Y-96407200D02*
X123842124Y-96454819D01*
X123842124Y-96454819D02*
X124032600Y-96454819D01*
X124032600Y-96454819D02*
X124127838Y-96407200D01*
X124127838Y-96407200D02*
X124175457Y-96359580D01*
X124175457Y-96359580D02*
X124223076Y-96264342D01*
X124223076Y-96264342D02*
X124223076Y-95454819D01*
X125223076Y-96454819D02*
X124651648Y-96454819D01*
X124937362Y-96454819D02*
X124937362Y-95454819D01*
X124937362Y-95454819D02*
X124842124Y-95597676D01*
X124842124Y-95597676D02*
X124746886Y-95692914D01*
X124746886Y-95692914D02*
X124651648Y-95740533D01*
X120666666Y-80954819D02*
X120666666Y-81669104D01*
X120666666Y-81669104D02*
X120619047Y-81811961D01*
X120619047Y-81811961D02*
X120523809Y-81907200D01*
X120523809Y-81907200D02*
X120380952Y-81954819D01*
X120380952Y-81954819D02*
X120285714Y-81954819D01*
X121047619Y-80954819D02*
X121666666Y-80954819D01*
X121666666Y-80954819D02*
X121333333Y-81335771D01*
X121333333Y-81335771D02*
X121476190Y-81335771D01*
X121476190Y-81335771D02*
X121571428Y-81383390D01*
X121571428Y-81383390D02*
X121619047Y-81431009D01*
X121619047Y-81431009D02*
X121666666Y-81526247D01*
X121666666Y-81526247D02*
X121666666Y-81764342D01*
X121666666Y-81764342D02*
X121619047Y-81859580D01*
X121619047Y-81859580D02*
X121571428Y-81907200D01*
X121571428Y-81907200D02*
X121476190Y-81954819D01*
X121476190Y-81954819D02*
X121190476Y-81954819D01*
X121190476Y-81954819D02*
X121095238Y-81907200D01*
X121095238Y-81907200D02*
X121047619Y-81859580D01*
D11*
X110416667Y-69409800D02*
X110559524Y-69457419D01*
X110559524Y-69457419D02*
X110797619Y-69457419D01*
X110797619Y-69457419D02*
X110892857Y-69409800D01*
X110892857Y-69409800D02*
X110940476Y-69362180D01*
X110940476Y-69362180D02*
X110988095Y-69266942D01*
X110988095Y-69266942D02*
X110988095Y-69171704D01*
X110988095Y-69171704D02*
X110940476Y-69076466D01*
X110940476Y-69076466D02*
X110892857Y-69028847D01*
X110892857Y-69028847D02*
X110797619Y-68981228D01*
X110797619Y-68981228D02*
X110607143Y-68933609D01*
X110607143Y-68933609D02*
X110511905Y-68885990D01*
X110511905Y-68885990D02*
X110464286Y-68838371D01*
X110464286Y-68838371D02*
X110416667Y-68743133D01*
X110416667Y-68743133D02*
X110416667Y-68647895D01*
X110416667Y-68647895D02*
X110464286Y-68552657D01*
X110464286Y-68552657D02*
X110511905Y-68505038D01*
X110511905Y-68505038D02*
X110607143Y-68457419D01*
X110607143Y-68457419D02*
X110845238Y-68457419D01*
X110845238Y-68457419D02*
X110988095Y-68505038D01*
X111321429Y-68457419D02*
X111559524Y-69457419D01*
X111559524Y-69457419D02*
X111750000Y-68743133D01*
X111750000Y-68743133D02*
X111940476Y-69457419D01*
X111940476Y-69457419D02*
X112178572Y-68457419D01*
X113083333Y-69457419D02*
X112511905Y-69457419D01*
X112797619Y-69457419D02*
X112797619Y-68457419D01*
X112797619Y-68457419D02*
X112702381Y-68600276D01*
X112702381Y-68600276D02*
X112607143Y-68695514D01*
X112607143Y-68695514D02*
X112511905Y-68743133D01*
D10*
X140333333Y-68699819D02*
X140000000Y-68223628D01*
X139761905Y-68699819D02*
X139761905Y-67699819D01*
X139761905Y-67699819D02*
X140142857Y-67699819D01*
X140142857Y-67699819D02*
X140238095Y-67747438D01*
X140238095Y-67747438D02*
X140285714Y-67795057D01*
X140285714Y-67795057D02*
X140333333Y-67890295D01*
X140333333Y-67890295D02*
X140333333Y-68033152D01*
X140333333Y-68033152D02*
X140285714Y-68128390D01*
X140285714Y-68128390D02*
X140238095Y-68176009D01*
X140238095Y-68176009D02*
X140142857Y-68223628D01*
X140142857Y-68223628D02*
X139761905Y-68223628D01*
X140714286Y-67795057D02*
X140761905Y-67747438D01*
X140761905Y-67747438D02*
X140857143Y-67699819D01*
X140857143Y-67699819D02*
X141095238Y-67699819D01*
X141095238Y-67699819D02*
X141190476Y-67747438D01*
X141190476Y-67747438D02*
X141238095Y-67795057D01*
X141238095Y-67795057D02*
X141285714Y-67890295D01*
X141285714Y-67890295D02*
X141285714Y-67985533D01*
X141285714Y-67985533D02*
X141238095Y-68128390D01*
X141238095Y-68128390D02*
X140666667Y-68699819D01*
X140666667Y-68699819D02*
X141285714Y-68699819D01*
X131261905Y-75704819D02*
X131261905Y-74704819D01*
X131261905Y-74704819D02*
X131500000Y-74704819D01*
X131500000Y-74704819D02*
X131642857Y-74752438D01*
X131642857Y-74752438D02*
X131738095Y-74847676D01*
X131738095Y-74847676D02*
X131785714Y-74942914D01*
X131785714Y-74942914D02*
X131833333Y-75133390D01*
X131833333Y-75133390D02*
X131833333Y-75276247D01*
X131833333Y-75276247D02*
X131785714Y-75466723D01*
X131785714Y-75466723D02*
X131738095Y-75561961D01*
X131738095Y-75561961D02*
X131642857Y-75657200D01*
X131642857Y-75657200D02*
X131500000Y-75704819D01*
X131500000Y-75704819D02*
X131261905Y-75704819D01*
X132785714Y-75704819D02*
X132214286Y-75704819D01*
X132500000Y-75704819D02*
X132500000Y-74704819D01*
X132500000Y-74704819D02*
X132404762Y-74847676D01*
X132404762Y-74847676D02*
X132309524Y-74942914D01*
X132309524Y-74942914D02*
X132214286Y-74990533D01*
X105643333Y-95204819D02*
X105310000Y-94728628D01*
X105071905Y-95204819D02*
X105071905Y-94204819D01*
X105071905Y-94204819D02*
X105452857Y-94204819D01*
X105452857Y-94204819D02*
X105548095Y-94252438D01*
X105548095Y-94252438D02*
X105595714Y-94300057D01*
X105595714Y-94300057D02*
X105643333Y-94395295D01*
X105643333Y-94395295D02*
X105643333Y-94538152D01*
X105643333Y-94538152D02*
X105595714Y-94633390D01*
X105595714Y-94633390D02*
X105548095Y-94681009D01*
X105548095Y-94681009D02*
X105452857Y-94728628D01*
X105452857Y-94728628D02*
X105071905Y-94728628D01*
X105976667Y-94204819D02*
X106643333Y-94204819D01*
X106643333Y-94204819D02*
X106214762Y-95204819D01*
X122166666Y-69204819D02*
X122166666Y-69919104D01*
X122166666Y-69919104D02*
X122119047Y-70061961D01*
X122119047Y-70061961D02*
X122023809Y-70157200D01*
X122023809Y-70157200D02*
X121880952Y-70204819D01*
X121880952Y-70204819D02*
X121785714Y-70204819D01*
X123166666Y-70204819D02*
X122595238Y-70204819D01*
X122880952Y-70204819D02*
X122880952Y-69204819D01*
X122880952Y-69204819D02*
X122785714Y-69347676D01*
X122785714Y-69347676D02*
X122690476Y-69442914D01*
X122690476Y-69442914D02*
X122595238Y-69490533D01*
X147011905Y-75704819D02*
X147011905Y-74704819D01*
X147011905Y-74704819D02*
X147250000Y-74704819D01*
X147250000Y-74704819D02*
X147392857Y-74752438D01*
X147392857Y-74752438D02*
X147488095Y-74847676D01*
X147488095Y-74847676D02*
X147535714Y-74942914D01*
X147535714Y-74942914D02*
X147583333Y-75133390D01*
X147583333Y-75133390D02*
X147583333Y-75276247D01*
X147583333Y-75276247D02*
X147535714Y-75466723D01*
X147535714Y-75466723D02*
X147488095Y-75561961D01*
X147488095Y-75561961D02*
X147392857Y-75657200D01*
X147392857Y-75657200D02*
X147250000Y-75704819D01*
X147250000Y-75704819D02*
X147011905Y-75704819D01*
X148440476Y-75038152D02*
X148440476Y-75704819D01*
X148202381Y-74657200D02*
X147964286Y-75371485D01*
X147964286Y-75371485D02*
X148583333Y-75371485D01*
X141761905Y-75704819D02*
X141761905Y-74704819D01*
X141761905Y-74704819D02*
X142000000Y-74704819D01*
X142000000Y-74704819D02*
X142142857Y-74752438D01*
X142142857Y-74752438D02*
X142238095Y-74847676D01*
X142238095Y-74847676D02*
X142285714Y-74942914D01*
X142285714Y-74942914D02*
X142333333Y-75133390D01*
X142333333Y-75133390D02*
X142333333Y-75276247D01*
X142333333Y-75276247D02*
X142285714Y-75466723D01*
X142285714Y-75466723D02*
X142238095Y-75561961D01*
X142238095Y-75561961D02*
X142142857Y-75657200D01*
X142142857Y-75657200D02*
X142000000Y-75704819D01*
X142000000Y-75704819D02*
X141761905Y-75704819D01*
X142666667Y-74704819D02*
X143285714Y-74704819D01*
X143285714Y-74704819D02*
X142952381Y-75085771D01*
X142952381Y-75085771D02*
X143095238Y-75085771D01*
X143095238Y-75085771D02*
X143190476Y-75133390D01*
X143190476Y-75133390D02*
X143238095Y-75181009D01*
X143238095Y-75181009D02*
X143285714Y-75276247D01*
X143285714Y-75276247D02*
X143285714Y-75514342D01*
X143285714Y-75514342D02*
X143238095Y-75609580D01*
X143238095Y-75609580D02*
X143190476Y-75657200D01*
X143190476Y-75657200D02*
X143095238Y-75704819D01*
X143095238Y-75704819D02*
X142809524Y-75704819D01*
X142809524Y-75704819D02*
X142714286Y-75657200D01*
X142714286Y-75657200D02*
X142666667Y-75609580D01*
X132416666Y-85254819D02*
X132416666Y-85969104D01*
X132416666Y-85969104D02*
X132369047Y-86111961D01*
X132369047Y-86111961D02*
X132273809Y-86207200D01*
X132273809Y-86207200D02*
X132130952Y-86254819D01*
X132130952Y-86254819D02*
X132035714Y-86254819D01*
X132845238Y-85350057D02*
X132892857Y-85302438D01*
X132892857Y-85302438D02*
X132988095Y-85254819D01*
X132988095Y-85254819D02*
X133226190Y-85254819D01*
X133226190Y-85254819D02*
X133321428Y-85302438D01*
X133321428Y-85302438D02*
X133369047Y-85350057D01*
X133369047Y-85350057D02*
X133416666Y-85445295D01*
X133416666Y-85445295D02*
X133416666Y-85540533D01*
X133416666Y-85540533D02*
X133369047Y-85683390D01*
X133369047Y-85683390D02*
X132797619Y-86254819D01*
X132797619Y-86254819D02*
X133416666Y-86254819D01*
X105643333Y-91954819D02*
X105310000Y-91478628D01*
X105071905Y-91954819D02*
X105071905Y-90954819D01*
X105071905Y-90954819D02*
X105452857Y-90954819D01*
X105452857Y-90954819D02*
X105548095Y-91002438D01*
X105548095Y-91002438D02*
X105595714Y-91050057D01*
X105595714Y-91050057D02*
X105643333Y-91145295D01*
X105643333Y-91145295D02*
X105643333Y-91288152D01*
X105643333Y-91288152D02*
X105595714Y-91383390D01*
X105595714Y-91383390D02*
X105548095Y-91431009D01*
X105548095Y-91431009D02*
X105452857Y-91478628D01*
X105452857Y-91478628D02*
X105071905Y-91478628D01*
X106500476Y-90954819D02*
X106310000Y-90954819D01*
X106310000Y-90954819D02*
X106214762Y-91002438D01*
X106214762Y-91002438D02*
X106167143Y-91050057D01*
X106167143Y-91050057D02*
X106071905Y-91192914D01*
X106071905Y-91192914D02*
X106024286Y-91383390D01*
X106024286Y-91383390D02*
X106024286Y-91764342D01*
X106024286Y-91764342D02*
X106071905Y-91859580D01*
X106071905Y-91859580D02*
X106119524Y-91907200D01*
X106119524Y-91907200D02*
X106214762Y-91954819D01*
X106214762Y-91954819D02*
X106405238Y-91954819D01*
X106405238Y-91954819D02*
X106500476Y-91907200D01*
X106500476Y-91907200D02*
X106548095Y-91859580D01*
X106548095Y-91859580D02*
X106595714Y-91764342D01*
X106595714Y-91764342D02*
X106595714Y-91526247D01*
X106595714Y-91526247D02*
X106548095Y-91431009D01*
X106548095Y-91431009D02*
X106500476Y-91383390D01*
X106500476Y-91383390D02*
X106405238Y-91335771D01*
X106405238Y-91335771D02*
X106214762Y-91335771D01*
X106214762Y-91335771D02*
X106119524Y-91383390D01*
X106119524Y-91383390D02*
X106071905Y-91431009D01*
X106071905Y-91431009D02*
X106024286Y-91526247D01*
X136511905Y-75704819D02*
X136511905Y-74704819D01*
X136511905Y-74704819D02*
X136750000Y-74704819D01*
X136750000Y-74704819D02*
X136892857Y-74752438D01*
X136892857Y-74752438D02*
X136988095Y-74847676D01*
X136988095Y-74847676D02*
X137035714Y-74942914D01*
X137035714Y-74942914D02*
X137083333Y-75133390D01*
X137083333Y-75133390D02*
X137083333Y-75276247D01*
X137083333Y-75276247D02*
X137035714Y-75466723D01*
X137035714Y-75466723D02*
X136988095Y-75561961D01*
X136988095Y-75561961D02*
X136892857Y-75657200D01*
X136892857Y-75657200D02*
X136750000Y-75704819D01*
X136750000Y-75704819D02*
X136511905Y-75704819D01*
X137464286Y-74800057D02*
X137511905Y-74752438D01*
X137511905Y-74752438D02*
X137607143Y-74704819D01*
X137607143Y-74704819D02*
X137845238Y-74704819D01*
X137845238Y-74704819D02*
X137940476Y-74752438D01*
X137940476Y-74752438D02*
X137988095Y-74800057D01*
X137988095Y-74800057D02*
X138035714Y-74895295D01*
X138035714Y-74895295D02*
X138035714Y-74990533D01*
X138035714Y-74990533D02*
X137988095Y-75133390D01*
X137988095Y-75133390D02*
X137416667Y-75704819D01*
X137416667Y-75704819D02*
X138035714Y-75704819D01*
X115761905Y-78704819D02*
X115761905Y-77704819D01*
X115761905Y-77704819D02*
X116000000Y-77704819D01*
X116000000Y-77704819D02*
X116142857Y-77752438D01*
X116142857Y-77752438D02*
X116238095Y-77847676D01*
X116238095Y-77847676D02*
X116285714Y-77942914D01*
X116285714Y-77942914D02*
X116333333Y-78133390D01*
X116333333Y-78133390D02*
X116333333Y-78276247D01*
X116333333Y-78276247D02*
X116285714Y-78466723D01*
X116285714Y-78466723D02*
X116238095Y-78561961D01*
X116238095Y-78561961D02*
X116142857Y-78657200D01*
X116142857Y-78657200D02*
X116000000Y-78704819D01*
X116000000Y-78704819D02*
X115761905Y-78704819D01*
X117238095Y-77704819D02*
X116761905Y-77704819D01*
X116761905Y-77704819D02*
X116714286Y-78181009D01*
X116714286Y-78181009D02*
X116761905Y-78133390D01*
X116761905Y-78133390D02*
X116857143Y-78085771D01*
X116857143Y-78085771D02*
X117095238Y-78085771D01*
X117095238Y-78085771D02*
X117190476Y-78133390D01*
X117190476Y-78133390D02*
X117238095Y-78181009D01*
X117238095Y-78181009D02*
X117285714Y-78276247D01*
X117285714Y-78276247D02*
X117285714Y-78514342D01*
X117285714Y-78514342D02*
X117238095Y-78609580D01*
X117238095Y-78609580D02*
X117190476Y-78657200D01*
X117190476Y-78657200D02*
X117095238Y-78704819D01*
X117095238Y-78704819D02*
X116857143Y-78704819D01*
X116857143Y-78704819D02*
X116761905Y-78657200D01*
X116761905Y-78657200D02*
X116714286Y-78609580D01*
X136833333Y-68699819D02*
X136500000Y-68223628D01*
X136261905Y-68699819D02*
X136261905Y-67699819D01*
X136261905Y-67699819D02*
X136642857Y-67699819D01*
X136642857Y-67699819D02*
X136738095Y-67747438D01*
X136738095Y-67747438D02*
X136785714Y-67795057D01*
X136785714Y-67795057D02*
X136833333Y-67890295D01*
X136833333Y-67890295D02*
X136833333Y-68033152D01*
X136833333Y-68033152D02*
X136785714Y-68128390D01*
X136785714Y-68128390D02*
X136738095Y-68176009D01*
X136738095Y-68176009D02*
X136642857Y-68223628D01*
X136642857Y-68223628D02*
X136261905Y-68223628D01*
X137785714Y-68699819D02*
X137214286Y-68699819D01*
X137500000Y-68699819D02*
X137500000Y-67699819D01*
X137500000Y-67699819D02*
X137404762Y-67842676D01*
X137404762Y-67842676D02*
X137309524Y-67937914D01*
X137309524Y-67937914D02*
X137214286Y-67985533D01*
X143833333Y-68699819D02*
X143500000Y-68223628D01*
X143261905Y-68699819D02*
X143261905Y-67699819D01*
X143261905Y-67699819D02*
X143642857Y-67699819D01*
X143642857Y-67699819D02*
X143738095Y-67747438D01*
X143738095Y-67747438D02*
X143785714Y-67795057D01*
X143785714Y-67795057D02*
X143833333Y-67890295D01*
X143833333Y-67890295D02*
X143833333Y-68033152D01*
X143833333Y-68033152D02*
X143785714Y-68128390D01*
X143785714Y-68128390D02*
X143738095Y-68176009D01*
X143738095Y-68176009D02*
X143642857Y-68223628D01*
X143642857Y-68223628D02*
X143261905Y-68223628D01*
X144166667Y-67699819D02*
X144785714Y-67699819D01*
X144785714Y-67699819D02*
X144452381Y-68080771D01*
X144452381Y-68080771D02*
X144595238Y-68080771D01*
X144595238Y-68080771D02*
X144690476Y-68128390D01*
X144690476Y-68128390D02*
X144738095Y-68176009D01*
X144738095Y-68176009D02*
X144785714Y-68271247D01*
X144785714Y-68271247D02*
X144785714Y-68509342D01*
X144785714Y-68509342D02*
X144738095Y-68604580D01*
X144738095Y-68604580D02*
X144690476Y-68652200D01*
X144690476Y-68652200D02*
X144595238Y-68699819D01*
X144595238Y-68699819D02*
X144309524Y-68699819D01*
X144309524Y-68699819D02*
X144214286Y-68652200D01*
X144214286Y-68652200D02*
X144166667Y-68604580D01*
D11*
X125535714Y-60921704D02*
X126011904Y-60921704D01*
X125440476Y-61207419D02*
X125773809Y-60207419D01*
X125773809Y-60207419D02*
X126107142Y-61207419D01*
X126392857Y-60302657D02*
X126440476Y-60255038D01*
X126440476Y-60255038D02*
X126535714Y-60207419D01*
X126535714Y-60207419D02*
X126773809Y-60207419D01*
X126773809Y-60207419D02*
X126869047Y-60255038D01*
X126869047Y-60255038D02*
X126916666Y-60302657D01*
X126916666Y-60302657D02*
X126964285Y-60397895D01*
X126964285Y-60397895D02*
X126964285Y-60493133D01*
X126964285Y-60493133D02*
X126916666Y-60635990D01*
X126916666Y-60635990D02*
X126345238Y-61207419D01*
X126345238Y-61207419D02*
X126964285Y-61207419D01*
D10*
X105643333Y-88704819D02*
X105310000Y-88228628D01*
X105071905Y-88704819D02*
X105071905Y-87704819D01*
X105071905Y-87704819D02*
X105452857Y-87704819D01*
X105452857Y-87704819D02*
X105548095Y-87752438D01*
X105548095Y-87752438D02*
X105595714Y-87800057D01*
X105595714Y-87800057D02*
X105643333Y-87895295D01*
X105643333Y-87895295D02*
X105643333Y-88038152D01*
X105643333Y-88038152D02*
X105595714Y-88133390D01*
X105595714Y-88133390D02*
X105548095Y-88181009D01*
X105548095Y-88181009D02*
X105452857Y-88228628D01*
X105452857Y-88228628D02*
X105071905Y-88228628D01*
X106548095Y-87704819D02*
X106071905Y-87704819D01*
X106071905Y-87704819D02*
X106024286Y-88181009D01*
X106024286Y-88181009D02*
X106071905Y-88133390D01*
X106071905Y-88133390D02*
X106167143Y-88085771D01*
X106167143Y-88085771D02*
X106405238Y-88085771D01*
X106405238Y-88085771D02*
X106500476Y-88133390D01*
X106500476Y-88133390D02*
X106548095Y-88181009D01*
X106548095Y-88181009D02*
X106595714Y-88276247D01*
X106595714Y-88276247D02*
X106595714Y-88514342D01*
X106595714Y-88514342D02*
X106548095Y-88609580D01*
X106548095Y-88609580D02*
X106500476Y-88657200D01*
X106500476Y-88657200D02*
X106405238Y-88704819D01*
X106405238Y-88704819D02*
X106167143Y-88704819D01*
X106167143Y-88704819D02*
X106071905Y-88657200D01*
X106071905Y-88657200D02*
X106024286Y-88609580D01*
X148246886Y-90696026D02*
X148199267Y-90743646D01*
X148199267Y-90743646D02*
X148056410Y-90791265D01*
X148056410Y-90791265D02*
X147961172Y-90791265D01*
X147961172Y-90791265D02*
X147818315Y-90743646D01*
X147818315Y-90743646D02*
X147723077Y-90648407D01*
X147723077Y-90648407D02*
X147675458Y-90553169D01*
X147675458Y-90553169D02*
X147627839Y-90362693D01*
X147627839Y-90362693D02*
X147627839Y-90219836D01*
X147627839Y-90219836D02*
X147675458Y-90029360D01*
X147675458Y-90029360D02*
X147723077Y-89934122D01*
X147723077Y-89934122D02*
X147818315Y-89838884D01*
X147818315Y-89838884D02*
X147961172Y-89791265D01*
X147961172Y-89791265D02*
X148056410Y-89791265D01*
X148056410Y-89791265D02*
X148199267Y-89838884D01*
X148199267Y-89838884D02*
X148246886Y-89886503D01*
X149199267Y-90791265D02*
X148627839Y-90791265D01*
X148913553Y-90791265D02*
X148913553Y-89791265D01*
X148913553Y-89791265D02*
X148818315Y-89934122D01*
X148818315Y-89934122D02*
X148723077Y-90029360D01*
X148723077Y-90029360D02*
X148627839Y-90076979D01*
X115535714Y-100169104D02*
X116011904Y-100169104D01*
X115440476Y-100454819D02*
X115773809Y-99454819D01*
X115773809Y-99454819D02*
X116107142Y-100454819D01*
X116964285Y-100454819D02*
X116392857Y-100454819D01*
X116678571Y-100454819D02*
X116678571Y-99454819D01*
X116678571Y-99454819D02*
X116583333Y-99597676D01*
X116583333Y-99597676D02*
X116488095Y-99692914D01*
X116488095Y-99692914D02*
X116392857Y-99740533D01*
D12*
%TO.C,R4*%
X147500000Y-71830000D02*
X147500000Y-71900000D01*
X148870000Y-70460000D02*
G75*
G03*
X146130000Y-70460000I-1370000J0D01*
G01*
X146130000Y-70460000D02*
G75*
G03*
X148870000Y-70460000I1370000J0D01*
G01*
%TO.C,U1*%
X125833553Y-96796446D02*
X146273553Y-96796446D01*
X146273553Y-96796446D02*
X146273553Y-91496446D01*
X125833553Y-95146446D02*
X125833553Y-96796446D01*
X125833553Y-91496446D02*
X125833553Y-93146446D01*
X146273553Y-91496446D02*
X125833553Y-91496446D01*
X125833553Y-95146446D02*
G75*
G03*
X125833553Y-93146446I0J1000000D01*
G01*
%TO.C,J3*%
X119670000Y-82920000D02*
X121000000Y-82920000D01*
X119670000Y-84250000D02*
X119670000Y-82920000D01*
X119670000Y-85520000D02*
X119670000Y-93200000D01*
X119670000Y-85520000D02*
X122330000Y-85520000D01*
X119670000Y-93200000D02*
X122330000Y-93200000D01*
X122330000Y-85520000D02*
X122330000Y-93200000D01*
D11*
%TO.C,SW1*%
X109971000Y-64640000D02*
X103783000Y-64640000D01*
X103783000Y-64640000D02*
X103783000Y-73360000D01*
X103783000Y-73360000D02*
X109971000Y-73360000D01*
X109971000Y-73360000D02*
X109971000Y-64640000D01*
X103783000Y-67222000D02*
X103529000Y-67222000D01*
X103529000Y-67222000D02*
X103529000Y-70778000D01*
X103529000Y-70778000D02*
X103783000Y-70778000D01*
X103783000Y-70778000D02*
X103783000Y-67222000D01*
D12*
%TO.C,R2*%
X140500000Y-71825000D02*
X140500000Y-71895000D01*
X141870000Y-70455000D02*
G75*
G03*
X139130000Y-70455000I-1370000J0D01*
G01*
X139130000Y-70455000D02*
G75*
G03*
X141870000Y-70455000I1370000J0D01*
G01*
%TO.C,D1*%
X130764000Y-80040000D02*
X130920000Y-80040000D01*
X133080000Y-80040000D02*
X133236000Y-80040000D01*
X130921392Y-76807666D02*
G75*
G03*
X130764485Y-80039999I1078608J-1672334D01*
G01*
X130920164Y-77438871D02*
G75*
G03*
X130920001Y-79520960I1079836J-1041129D01*
G01*
X133079999Y-79520960D02*
G75*
G03*
X133079836Y-77438871I-1079999J1040960D01*
G01*
X133235515Y-80039999D02*
G75*
G03*
X133078608Y-76807666I-1235515J1559999D01*
G01*
%TO.C,R7*%
X115270000Y-96120000D02*
X108730000Y-96120000D01*
X115270000Y-95790000D02*
X115270000Y-96120000D01*
X115270000Y-93710000D02*
X115270000Y-93380000D01*
X115270000Y-93380000D02*
X108730000Y-93380000D01*
X108730000Y-96120000D02*
X108730000Y-95790000D01*
X108730000Y-93380000D02*
X108730000Y-93710000D01*
%TO.C,J1*%
X122440000Y-70840000D02*
X119940000Y-70840000D01*
X119940000Y-70840000D02*
X119940000Y-73340000D01*
X124260000Y-71140000D02*
X120240000Y-71140000D01*
X122550000Y-71140000D02*
X122550000Y-71640000D01*
X121740000Y-71140000D02*
X121740000Y-72140000D01*
X120240000Y-71140000D02*
X120240000Y-78860000D01*
X123760000Y-71640000D02*
X123760000Y-78360000D01*
X122550000Y-71640000D02*
X123760000Y-71640000D01*
X121740000Y-72140000D02*
X120240000Y-72140000D01*
X121740000Y-77860000D02*
X120240000Y-77860000D01*
X123760000Y-78360000D02*
X122550000Y-78360000D01*
X122550000Y-78360000D02*
X122550000Y-78860000D01*
X124260000Y-78860000D02*
X124260000Y-71140000D01*
X121740000Y-78860000D02*
X121740000Y-77860000D01*
X120240000Y-78860000D02*
X124260000Y-78860000D01*
%TO.C,D4*%
X146514000Y-80040000D02*
X146670000Y-80040000D01*
X148830000Y-80040000D02*
X148986000Y-80040000D01*
X146671392Y-76807666D02*
G75*
G03*
X146514485Y-80039999I1078608J-1672334D01*
G01*
X146670164Y-77438871D02*
G75*
G03*
X146670001Y-79520960I1079836J-1041129D01*
G01*
X148829999Y-79520960D02*
G75*
G03*
X148829836Y-77438871I-1079999J1040960D01*
G01*
X148985515Y-80039999D02*
G75*
G03*
X148828608Y-76807666I-1235515J1559999D01*
G01*
%TO.C,D3*%
X141264000Y-80040000D02*
X141420000Y-80040000D01*
X143580000Y-80040000D02*
X143736000Y-80040000D01*
X141421392Y-76807666D02*
G75*
G03*
X141264485Y-80039999I1078608J-1672334D01*
G01*
X141420164Y-77438871D02*
G75*
G03*
X141420001Y-79520960I1079836J-1041129D01*
G01*
X143579999Y-79520960D02*
G75*
G03*
X143579836Y-77438871I-1079999J1040960D01*
G01*
X143735515Y-80039999D02*
G75*
G03*
X143578608Y-76807666I-1235515J1559999D01*
G01*
%TO.C,J2*%
X134090000Y-85860000D02*
X134090000Y-88360000D01*
X134090000Y-88360000D02*
X136590000Y-88360000D01*
X134390000Y-84040000D02*
X134390000Y-88060000D01*
X134390000Y-85750000D02*
X134890000Y-85750000D01*
X134390000Y-86560000D02*
X135390000Y-86560000D01*
X134390000Y-88060000D02*
X149610000Y-88060000D01*
X134890000Y-84540000D02*
X149110000Y-84540000D01*
X134890000Y-85750000D02*
X134890000Y-84540000D01*
X135390000Y-86560000D02*
X135390000Y-88060000D01*
X148610000Y-86560000D02*
X148610000Y-88060000D01*
X149110000Y-84540000D02*
X149110000Y-85750000D01*
X149110000Y-85750000D02*
X149610000Y-85750000D01*
X149610000Y-84040000D02*
X134390000Y-84040000D01*
X149610000Y-86560000D02*
X148610000Y-86560000D01*
X149610000Y-88060000D02*
X149610000Y-84040000D01*
%TO.C,R6*%
X115270000Y-92870000D02*
X108730000Y-92870000D01*
X115270000Y-92540000D02*
X115270000Y-92870000D01*
X115270000Y-90460000D02*
X115270000Y-90130000D01*
X115270000Y-90130000D02*
X108730000Y-90130000D01*
X108730000Y-92870000D02*
X108730000Y-92540000D01*
X108730000Y-90130000D02*
X108730000Y-90460000D01*
%TO.C,D2*%
X136014000Y-80040000D02*
X136170000Y-80040000D01*
X138330000Y-80040000D02*
X138486000Y-80040000D01*
X136171392Y-76807666D02*
G75*
G03*
X136014485Y-80039999I1078608J-1672334D01*
G01*
X136170164Y-77438871D02*
G75*
G03*
X136170001Y-79520960I1079836J-1041129D01*
G01*
X138329999Y-79520960D02*
G75*
G03*
X138329836Y-77438871I-1079999J1040960D01*
G01*
X138485515Y-80039999D02*
G75*
G03*
X138328608Y-76807666I-1235515J1559999D01*
G01*
%TO.C,D5*%
X110705000Y-80821500D02*
X111170000Y-80821500D01*
X113330000Y-80821500D02*
X113795000Y-80821500D01*
X111169173Y-75473686D02*
G75*
G03*
X110705170Y-80821499I1080827J-2787814D01*
G01*
X111169572Y-76007022D02*
G75*
G03*
X111170000Y-80516183I1080428J-2254478D01*
G01*
X113330000Y-80516184D02*
G75*
G03*
X113330429Y-76007021I-1080000J2254684D01*
G01*
X113794830Y-80821499D02*
G75*
G03*
X113330827Y-75473686I-1544830J2559999D01*
G01*
%TO.C,R1*%
X137000000Y-71825000D02*
X137000000Y-71895000D01*
X138370000Y-70455000D02*
G75*
G03*
X135630000Y-70455000I-1370000J0D01*
G01*
X135630000Y-70455000D02*
G75*
G03*
X138370000Y-70455000I1370000J0D01*
G01*
%TO.C,G\u002A\u002A\u002A*%
G36*
X131679957Y-125917729D02*
G01*
X131717874Y-125965488D01*
X131735389Y-126044138D01*
X131736607Y-126077821D01*
X131732478Y-126140428D01*
X131714786Y-126185036D01*
X131675570Y-126231022D01*
X131672351Y-126234256D01*
X131621792Y-126277019D01*
X131574014Y-126295377D01*
X131535335Y-126297937D01*
X131478622Y-126292664D01*
X131434109Y-126280467D01*
X131429501Y-126278099D01*
X131400793Y-126247152D01*
X131397945Y-126212469D01*
X131419593Y-126187734D01*
X131438951Y-126183382D01*
X131515314Y-126180082D01*
X131561782Y-126175243D01*
X131586183Y-126164944D01*
X131596344Y-126145266D01*
X131600093Y-126112291D01*
X131600880Y-126102308D01*
X131599936Y-126049944D01*
X131589996Y-126013166D01*
X131586706Y-126008759D01*
X131570476Y-125974836D01*
X131566518Y-125945104D01*
X131573665Y-125913611D01*
X131602405Y-125902375D01*
X131622143Y-125901637D01*
X131679957Y-125917729D01*
G37*
G36*
X125902776Y-126659287D02*
G01*
X125915333Y-126699518D01*
X125909597Y-126727315D01*
X125893510Y-126786529D01*
X125868431Y-126872637D01*
X125835718Y-126981119D01*
X125796730Y-127107451D01*
X125752825Y-127247112D01*
X125718784Y-127353839D01*
X125662251Y-127528725D01*
X125615279Y-127670821D01*
X125576594Y-127783549D01*
X125544921Y-127870329D01*
X125518985Y-127934582D01*
X125497511Y-127979730D01*
X125479224Y-128009193D01*
X125470840Y-128019150D01*
X125404358Y-128074699D01*
X125332373Y-128112579D01*
X125263639Y-128130062D01*
X125206911Y-128124418D01*
X125182500Y-128109018D01*
X125161872Y-128075917D01*
X125172423Y-128045151D01*
X125216469Y-128013187D01*
X125259040Y-127992367D01*
X125334417Y-127949437D01*
X125383562Y-127901802D01*
X125388828Y-127893386D01*
X125402149Y-127862424D01*
X125425548Y-127800320D01*
X125457342Y-127711856D01*
X125495850Y-127601811D01*
X125539390Y-127474967D01*
X125586280Y-127336104D01*
X125611997Y-127259020D01*
X125659601Y-127117497D01*
X125704590Y-126987089D01*
X125745340Y-126872255D01*
X125780222Y-126777453D01*
X125807613Y-126707143D01*
X125825884Y-126665782D01*
X125831597Y-126656869D01*
X125870742Y-126642520D01*
X125902776Y-126659287D01*
G37*
G36*
X131675901Y-128901099D02*
G01*
X131682690Y-128914550D01*
X131695473Y-128985719D01*
X131677502Y-129066196D01*
X131631233Y-129147240D01*
X131610213Y-129172574D01*
X131542797Y-129230780D01*
X131447039Y-129291088D01*
X131331815Y-129349013D01*
X131206002Y-129400069D01*
X131084598Y-129438166D01*
X130977480Y-129459509D01*
X130845538Y-129475101D01*
X130699599Y-129484643D01*
X130550492Y-129487838D01*
X130409045Y-129484386D01*
X130286087Y-129473989D01*
X130215552Y-129462138D01*
X130117415Y-129435869D01*
X130022321Y-129402585D01*
X129937104Y-129365567D01*
X129868596Y-129328097D01*
X129823630Y-129293457D01*
X129808928Y-129266854D01*
X129824310Y-129237571D01*
X129867099Y-129227489D01*
X129932260Y-129236415D01*
X130014756Y-129264156D01*
X130041401Y-129275782D01*
X130169505Y-129324938D01*
X130305259Y-129356839D01*
X130457444Y-129372849D01*
X130634842Y-129374332D01*
X130668824Y-129373212D01*
X130778861Y-129366794D01*
X130884515Y-129356684D01*
X130974007Y-129344204D01*
X131027902Y-129332903D01*
X131180589Y-129281812D01*
X131313339Y-129218478D01*
X131421638Y-129145901D01*
X131500971Y-129067085D01*
X131545562Y-128988695D01*
X131578859Y-128914206D01*
X131612835Y-128874153D01*
X131645759Y-128869472D01*
X131675901Y-128901099D01*
G37*
G36*
X124103543Y-126636371D02*
G01*
X124120095Y-126673400D01*
X124120435Y-126680619D01*
X124114895Y-126708073D01*
X124098991Y-126767967D01*
X124073833Y-126856727D01*
X124040526Y-126970776D01*
X124000179Y-127106542D01*
X123953901Y-127260448D01*
X123902798Y-127428920D01*
X123847979Y-127608384D01*
X123790551Y-127795264D01*
X123731622Y-127985985D01*
X123672300Y-128176974D01*
X123613693Y-128364654D01*
X123556909Y-128545452D01*
X123503056Y-128715792D01*
X123453240Y-128872100D01*
X123408571Y-129010801D01*
X123370156Y-129128319D01*
X123339103Y-129221081D01*
X123316520Y-129285511D01*
X123303514Y-129318035D01*
X123302565Y-129319765D01*
X123260068Y-129369645D01*
X123207327Y-129406914D01*
X123201520Y-129409534D01*
X123135916Y-129429040D01*
X123071951Y-129435243D01*
X123020798Y-129428258D01*
X122993633Y-129408201D01*
X122993293Y-129407366D01*
X122990229Y-129361435D01*
X123013939Y-129329633D01*
X123041672Y-129322321D01*
X123116959Y-129305325D01*
X123174345Y-129255853D01*
X123202880Y-129201393D01*
X123213346Y-129170484D01*
X123234225Y-129106718D01*
X123264498Y-129013267D01*
X123303148Y-128893301D01*
X123349159Y-128749992D01*
X123401512Y-128586511D01*
X123459190Y-128406030D01*
X123521176Y-128211720D01*
X123586453Y-128006752D01*
X123621851Y-127895461D01*
X123688107Y-127687781D01*
X123751523Y-127490385D01*
X123811104Y-127306280D01*
X123865856Y-127138473D01*
X123914787Y-126989970D01*
X123956901Y-126863779D01*
X123991204Y-126762906D01*
X124016703Y-126690359D01*
X124032404Y-126649146D01*
X124036584Y-126640831D01*
X124071402Y-126623472D01*
X124103543Y-126636371D01*
G37*
G36*
X130868160Y-125974159D02*
G01*
X130930520Y-125985431D01*
X131003259Y-126002579D01*
X131046474Y-126016764D01*
X131067754Y-126032185D01*
X131074687Y-126053042D01*
X131075149Y-126065469D01*
X131072192Y-126095106D01*
X131056424Y-126107239D01*
X131017492Y-126106911D01*
X130994829Y-126104607D01*
X130929955Y-126095614D01*
X130850192Y-126081954D01*
X130801116Y-126072376D01*
X130643722Y-126057084D01*
X130471847Y-126070865D01*
X130291567Y-126111074D01*
X130108958Y-126175067D01*
X129930095Y-126260199D01*
X129761056Y-126363823D01*
X129607914Y-126483296D01*
X129476748Y-126615972D01*
X129435891Y-126666704D01*
X129329604Y-126832516D01*
X129244196Y-127018113D01*
X129182044Y-127214822D01*
X129145528Y-127413972D01*
X129137025Y-127606892D01*
X129146967Y-127720280D01*
X129194833Y-127936545D01*
X129274173Y-128139503D01*
X129386960Y-128333069D01*
X129535168Y-128521157D01*
X129569409Y-128558650D01*
X129643637Y-128642112D01*
X129689614Y-128704280D01*
X129708394Y-128747732D01*
X129701032Y-128775043D01*
X129668585Y-128788789D01*
X129663992Y-128789518D01*
X129633754Y-128782927D01*
X129590332Y-128754026D01*
X129529727Y-128699854D01*
X129489804Y-128660420D01*
X129323439Y-128469533D01*
X129192625Y-128268224D01*
X129096005Y-128054216D01*
X129059473Y-127939507D01*
X129042630Y-127861427D01*
X129032297Y-127768352D01*
X129027696Y-127651436D01*
X129027325Y-127574181D01*
X129034045Y-127407404D01*
X129054692Y-127256880D01*
X129092131Y-127111112D01*
X129149229Y-126958605D01*
X129217734Y-126810258D01*
X129330160Y-126624103D01*
X129474316Y-126455097D01*
X129647139Y-126305612D01*
X129845569Y-126178023D01*
X130066544Y-126074702D01*
X130243601Y-126015028D01*
X130391651Y-125983046D01*
X130554484Y-125965169D01*
X130718016Y-125962004D01*
X130868160Y-125974159D01*
G37*
G36*
X121675765Y-125864797D02*
G01*
X121691294Y-125870444D01*
X121691649Y-125870581D01*
X121697691Y-125891317D01*
X121703108Y-125946257D01*
X121707899Y-126031811D01*
X121712066Y-126144391D01*
X121715609Y-126280406D01*
X121718529Y-126436268D01*
X121720825Y-126608387D01*
X121722498Y-126793175D01*
X121723550Y-126987043D01*
X121723979Y-127186401D01*
X121723787Y-127387660D01*
X121722974Y-127587231D01*
X121721540Y-127781526D01*
X121719486Y-127966954D01*
X121716813Y-128139926D01*
X121713520Y-128296854D01*
X121709609Y-128434149D01*
X121705079Y-128548221D01*
X121699931Y-128635481D01*
X121694166Y-128692341D01*
X121691300Y-128707324D01*
X121628169Y-128878386D01*
X121534075Y-129034396D01*
X121413617Y-129170774D01*
X121271389Y-129282939D01*
X121111990Y-129366313D01*
X120990500Y-129405618D01*
X120802395Y-129438226D01*
X120626374Y-129442281D01*
X120566990Y-129436549D01*
X120449998Y-129414347D01*
X120344437Y-129381741D01*
X120260111Y-129342221D01*
X120219529Y-129312835D01*
X120177784Y-129265887D01*
X120169534Y-129234433D01*
X120193628Y-129218863D01*
X120248912Y-129219566D01*
X120334236Y-129236933D01*
X120393982Y-129253861D01*
X120587356Y-129296100D01*
X120773102Y-129303416D01*
X120948600Y-129276426D01*
X121111227Y-129215747D01*
X121258363Y-129121996D01*
X121360732Y-129026260D01*
X121434959Y-128938109D01*
X121489686Y-128853650D01*
X121533902Y-128757385D01*
X121561724Y-128679762D01*
X121568438Y-128657527D01*
X121574259Y-128632084D01*
X121579266Y-128600639D01*
X121583539Y-128560394D01*
X121587155Y-128508554D01*
X121590195Y-128442324D01*
X121592738Y-128358908D01*
X121594861Y-128255509D01*
X121596646Y-128129333D01*
X121598169Y-127977584D01*
X121599512Y-127797465D01*
X121600752Y-127586182D01*
X121601969Y-127340938D01*
X121602432Y-127240356D01*
X121603646Y-126976920D01*
X121604833Y-126748805D01*
X121606155Y-126553533D01*
X121607774Y-126388627D01*
X121609851Y-126251611D01*
X121612547Y-126140007D01*
X121616023Y-126051339D01*
X121620442Y-125983129D01*
X121625963Y-125932901D01*
X121632749Y-125898178D01*
X121640961Y-125876483D01*
X121650760Y-125865339D01*
X121662308Y-125862270D01*
X121675765Y-125864797D01*
G37*
G36*
X126213845Y-125811867D02*
G01*
X126222787Y-125832808D01*
X126243275Y-125886881D01*
X126274394Y-125971533D01*
X126315234Y-126084209D01*
X126364883Y-126222358D01*
X126422427Y-126383424D01*
X126486955Y-126564855D01*
X126557554Y-126764096D01*
X126633313Y-126978594D01*
X126713319Y-127205796D01*
X126796661Y-127443148D01*
X126802022Y-127458440D01*
X126902562Y-127745416D01*
X126991179Y-127998971D01*
X127068540Y-128221323D01*
X127135314Y-128414691D01*
X127192167Y-128581291D01*
X127239765Y-128723344D01*
X127278777Y-128843066D01*
X127309869Y-128942676D01*
X127333708Y-129024393D01*
X127350961Y-129090434D01*
X127362297Y-129143018D01*
X127368381Y-129184363D01*
X127369881Y-129216687D01*
X127367464Y-129242209D01*
X127361796Y-129263145D01*
X127353547Y-129281716D01*
X127351523Y-129285570D01*
X127339535Y-129306316D01*
X127325530Y-129323740D01*
X127306319Y-129338132D01*
X127278711Y-129349782D01*
X127239518Y-129358980D01*
X127185550Y-129366014D01*
X127113616Y-129371174D01*
X127020527Y-129374751D01*
X126903093Y-129377034D01*
X126758125Y-129378313D01*
X126582432Y-129378877D01*
X126372825Y-129379015D01*
X126322443Y-129379018D01*
X126113026Y-129378911D01*
X125938284Y-129378524D01*
X125795097Y-129377756D01*
X125680342Y-129376504D01*
X125590899Y-129374667D01*
X125523646Y-129372143D01*
X125475462Y-129368832D01*
X125443226Y-129364631D01*
X125423815Y-129359438D01*
X125414109Y-129353154D01*
X125411853Y-129349399D01*
X125410760Y-129314588D01*
X125417558Y-129302710D01*
X125439498Y-129299052D01*
X125495556Y-129295448D01*
X125582053Y-129291991D01*
X125695310Y-129288774D01*
X125831646Y-129285889D01*
X125987383Y-129283429D01*
X126158842Y-129281486D01*
X126306342Y-129280357D01*
X126510941Y-129279050D01*
X126681099Y-129277731D01*
X126820173Y-129276246D01*
X126931520Y-129274445D01*
X127018497Y-129272176D01*
X127084460Y-129269285D01*
X127132767Y-129265621D01*
X127166774Y-129261033D01*
X127189837Y-129255367D01*
X127205315Y-129248473D01*
X127216563Y-129240197D01*
X127217823Y-129239072D01*
X127247686Y-129196813D01*
X127257589Y-129158487D01*
X127251398Y-129134431D01*
X127233422Y-129077372D01*
X127204557Y-128989912D01*
X127165701Y-128874655D01*
X127117750Y-128734204D01*
X127061599Y-128571163D01*
X126998147Y-128388134D01*
X126928289Y-128187721D01*
X126852922Y-127972527D01*
X126772942Y-127745155D01*
X126689246Y-127508208D01*
X126689111Y-127507827D01*
X126587725Y-127221023D01*
X126498517Y-126967821D01*
X126420832Y-126746268D01*
X126354020Y-126554410D01*
X126297426Y-126390296D01*
X126250399Y-126251974D01*
X126212284Y-126137490D01*
X126182429Y-126044892D01*
X126160182Y-125972229D01*
X126144890Y-125917547D01*
X126135899Y-125878894D01*
X126132557Y-125854317D01*
X126133098Y-125844996D01*
X126152952Y-125800619D01*
X126182313Y-125789541D01*
X126213845Y-125811867D01*
G37*
G36*
X121687279Y-125247474D02*
G01*
X121792159Y-125294508D01*
X121893462Y-125369404D01*
X121980763Y-125462853D01*
X122043635Y-125565545D01*
X122043752Y-125565803D01*
X122088765Y-125665401D01*
X122088765Y-127139509D01*
X122088765Y-128613616D01*
X122026286Y-128793154D01*
X121930880Y-129020284D01*
X121812858Y-129220147D01*
X121673633Y-129391381D01*
X121514618Y-129532628D01*
X121337224Y-129642529D01*
X121142865Y-129719723D01*
X121035953Y-129746408D01*
X120944218Y-129759618D01*
X120828597Y-129768551D01*
X120702800Y-129772837D01*
X120580535Y-129772104D01*
X120475512Y-129765982D01*
X120444568Y-129762388D01*
X120237274Y-129717056D01*
X120048167Y-129641994D01*
X119880226Y-129539239D01*
X119736428Y-129410830D01*
X119619754Y-129258803D01*
X119566022Y-129161315D01*
X119507112Y-129001069D01*
X119483440Y-128844024D01*
X119795502Y-128844024D01*
X119817922Y-128960880D01*
X119866786Y-129078545D01*
X119905997Y-129142848D01*
X119989191Y-129235407D01*
X120105061Y-129317808D01*
X120255331Y-129391148D01*
X120354101Y-129428308D01*
X120524370Y-129475289D01*
X120684255Y-129492740D01*
X120846270Y-129481200D01*
X120972120Y-129455026D01*
X121159787Y-129388560D01*
X121326476Y-129290941D01*
X121471313Y-129163025D01*
X121593428Y-129005664D01*
X121691948Y-128819714D01*
X121734896Y-128708110D01*
X121786384Y-128556919D01*
X121786384Y-127205654D01*
X121786174Y-126981128D01*
X121785567Y-126766273D01*
X121784597Y-126564296D01*
X121783299Y-126378407D01*
X121781706Y-126211815D01*
X121779855Y-126067726D01*
X121777777Y-125949351D01*
X121775509Y-125859897D01*
X121773085Y-125802573D01*
X121771142Y-125782391D01*
X121739132Y-125704649D01*
X121682384Y-125630453D01*
X121611807Y-125571550D01*
X121547819Y-125541932D01*
X121449549Y-125533863D01*
X121354064Y-125559077D01*
X121269952Y-125613507D01*
X121205802Y-125693085D01*
X121198126Y-125707552D01*
X121191369Y-125722799D01*
X121185490Y-125741261D01*
X121180405Y-125765630D01*
X121176032Y-125798597D01*
X121172285Y-125842853D01*
X121169082Y-125901091D01*
X121166338Y-125976003D01*
X121163971Y-126070278D01*
X121161896Y-126186611D01*
X121160030Y-126327691D01*
X121158288Y-126496212D01*
X121156589Y-126694864D01*
X121154846Y-126926339D01*
X121153274Y-127150326D01*
X121143824Y-128521858D01*
X121086891Y-128633150D01*
X121020561Y-128737104D01*
X120942181Y-128807841D01*
X120845525Y-128849493D01*
X120736529Y-128865595D01*
X120628746Y-128862698D01*
X120533650Y-128838362D01*
X120443777Y-128788892D01*
X120351659Y-128710589D01*
X120287859Y-128643390D01*
X120203944Y-128557791D01*
X120131869Y-128503880D01*
X120066707Y-128479469D01*
X120003530Y-128482372D01*
X119960643Y-128498132D01*
X119882096Y-128555033D01*
X119828069Y-128635430D01*
X119799044Y-128733651D01*
X119795502Y-128844024D01*
X119483440Y-128844024D01*
X119483001Y-128841111D01*
X119493223Y-128685666D01*
X119537311Y-128538961D01*
X119614796Y-128405220D01*
X119655072Y-128356262D01*
X119740092Y-128276775D01*
X119828947Y-128227269D01*
X119932746Y-128202926D01*
X120019345Y-128198280D01*
X120117620Y-128203791D01*
X120203824Y-128223632D01*
X120286377Y-128261777D01*
X120373700Y-128322196D01*
X120474210Y-128408862D01*
X120483033Y-128417011D01*
X120572460Y-128494912D01*
X120643324Y-128543670D01*
X120699814Y-128564324D01*
X120746121Y-128557911D01*
X120786435Y-128525470D01*
X120807269Y-128497372D01*
X120813798Y-128485576D01*
X120819484Y-128469707D01*
X120824411Y-128447116D01*
X120828661Y-128415153D01*
X120832315Y-128371170D01*
X120835456Y-128312517D01*
X120838166Y-128236546D01*
X120840527Y-128140606D01*
X120842622Y-128022050D01*
X120844532Y-127878227D01*
X120846341Y-127706488D01*
X120848129Y-127504185D01*
X120849979Y-127268668D01*
X120851416Y-127074220D01*
X120853336Y-126803923D01*
X120855076Y-126568697D01*
X120856903Y-126365821D01*
X120859090Y-126192571D01*
X120861904Y-126046225D01*
X120865615Y-125924059D01*
X120870494Y-125823351D01*
X120876809Y-125741378D01*
X120884830Y-125675418D01*
X120894827Y-125622746D01*
X120907069Y-125580641D01*
X120921825Y-125546379D01*
X120939366Y-125517238D01*
X120959961Y-125490494D01*
X120983879Y-125463426D01*
X121011390Y-125433309D01*
X121014167Y-125430228D01*
X121125978Y-125333139D01*
X121257445Y-125265025D01*
X121401960Y-125227682D01*
X121552917Y-125222902D01*
X121687279Y-125247474D01*
G37*
G36*
X130792528Y-125235892D02*
G01*
X130950072Y-125249411D01*
X131099000Y-125274730D01*
X131253554Y-125314128D01*
X131386509Y-125355879D01*
X131568155Y-125423339D01*
X131716486Y-125494663D01*
X131835978Y-125572993D01*
X131931106Y-125661468D01*
X132006347Y-125763229D01*
X132032127Y-125808832D01*
X132057971Y-125862283D01*
X132073937Y-125910244D01*
X132082358Y-125964930D01*
X132085568Y-126038554D01*
X132085955Y-126090625D01*
X132084661Y-126181613D01*
X132079096Y-126246699D01*
X132067239Y-126297711D01*
X132047070Y-126346478D01*
X132039733Y-126361194D01*
X131960942Y-126476652D01*
X131859148Y-126565004D01*
X131739434Y-126624440D01*
X131606882Y-126653152D01*
X131466572Y-126649331D01*
X131330283Y-126613753D01*
X131278572Y-126593931D01*
X131204358Y-126565274D01*
X131120345Y-126532691D01*
X131083272Y-126518269D01*
X130886986Y-126454377D01*
X130704643Y-126422346D01*
X130530335Y-126421868D01*
X130358153Y-126452639D01*
X130279470Y-126476710D01*
X130112309Y-126553201D01*
X129956256Y-126661484D01*
X129816151Y-126796076D01*
X129696832Y-126951494D01*
X129603140Y-127122256D01*
X129539913Y-127302879D01*
X129535972Y-127319047D01*
X129508250Y-127513116D01*
X129517661Y-127700525D01*
X129564038Y-127880740D01*
X129647217Y-128053226D01*
X129767032Y-128217445D01*
X129837063Y-128292733D01*
X129991647Y-128426783D01*
X130153082Y-128524787D01*
X130325189Y-128588374D01*
X130511792Y-128619172D01*
X130611374Y-128622786D01*
X130747144Y-128615886D01*
X130876083Y-128593850D01*
X131009351Y-128553880D01*
X131158108Y-128493181D01*
X131193770Y-128476884D01*
X131282162Y-128436870D01*
X131347877Y-128410873D01*
X131402005Y-128395926D01*
X131455638Y-128389066D01*
X131519865Y-128387325D01*
X131528720Y-128387320D01*
X131648875Y-128396094D01*
X131746172Y-128425271D01*
X131832106Y-128479482D01*
X131889751Y-128532841D01*
X131962335Y-128619032D01*
X132010273Y-128706983D01*
X132037441Y-128807225D01*
X132047712Y-128930292D01*
X132048092Y-128963244D01*
X132043819Y-129077663D01*
X132027896Y-129167332D01*
X131996198Y-129244543D01*
X131944596Y-129321586D01*
X131915892Y-129356974D01*
X131850259Y-129418553D01*
X131755012Y-129485682D01*
X131637210Y-129554766D01*
X131503911Y-129622209D01*
X131362177Y-129684416D01*
X131219066Y-129737792D01*
X131094048Y-129775537D01*
X130985769Y-129796961D01*
X130850809Y-129813046D01*
X130699952Y-129823456D01*
X130543982Y-129827853D01*
X130393683Y-129825898D01*
X130259838Y-129817253D01*
X130168006Y-129804572D01*
X129892650Y-129733958D01*
X129628586Y-129630424D01*
X129378826Y-129496715D01*
X129146385Y-129335581D01*
X128934278Y-129149768D01*
X128745518Y-128942025D01*
X128583119Y-128715099D01*
X128450096Y-128471737D01*
X128349463Y-128214687D01*
X128322518Y-128122247D01*
X128289835Y-127956174D01*
X128271942Y-127766993D01*
X128268945Y-127566423D01*
X128273532Y-127489873D01*
X128568884Y-127489873D01*
X128569870Y-127739960D01*
X128605154Y-127984509D01*
X128617693Y-128037202D01*
X128698229Y-128277394D01*
X128812558Y-128506570D01*
X128957474Y-128721451D01*
X129129772Y-128918762D01*
X129326248Y-129095227D01*
X129543698Y-129247568D01*
X129778916Y-129372509D01*
X130010362Y-129461103D01*
X130270319Y-129525922D01*
X130524093Y-129554287D01*
X130775017Y-129546325D01*
X131026424Y-129502163D01*
X131034928Y-129500049D01*
X131187442Y-129454014D01*
X131333373Y-129395379D01*
X131466748Y-129327609D01*
X131581590Y-129254167D01*
X131671924Y-129178516D01*
X131731774Y-129104121D01*
X131738196Y-129092420D01*
X131769641Y-128995697D01*
X131764653Y-128904268D01*
X131724555Y-128821626D01*
X131650671Y-128751262D01*
X131596950Y-128719479D01*
X131549803Y-128698640D01*
X131505713Y-128688006D01*
X131457566Y-128688661D01*
X131398249Y-128701688D01*
X131320650Y-128728170D01*
X131217656Y-128769189D01*
X131186966Y-128781900D01*
X131018842Y-128843701D01*
X130860865Y-128882659D01*
X130698556Y-128901284D01*
X130517437Y-128902090D01*
X130498735Y-128901331D01*
X130361872Y-128892072D01*
X130252927Y-128876863D01*
X130162294Y-128854293D01*
X130149107Y-128849991D01*
X129935754Y-128759351D01*
X129746437Y-128639779D01*
X129582135Y-128492294D01*
X129443829Y-128317919D01*
X129332501Y-128117673D01*
X129258333Y-127923143D01*
X129237017Y-127845737D01*
X129223728Y-127771088D01*
X129216888Y-127686177D01*
X129214924Y-127577986D01*
X129214936Y-127564732D01*
X129219960Y-127412967D01*
X129236446Y-127282692D01*
X129267631Y-127160375D01*
X129316750Y-127032486D01*
X129368594Y-126922172D01*
X129412372Y-126838503D01*
X129455254Y-126769140D01*
X129504904Y-126703822D01*
X129568986Y-126632289D01*
X129638046Y-126561428D01*
X129720725Y-126480415D01*
X129788496Y-126420229D01*
X129851426Y-126373326D01*
X129919579Y-126332162D01*
X129997917Y-126291704D01*
X130172864Y-126217092D01*
X130342345Y-126170979D01*
X130521059Y-126149895D01*
X130608200Y-126147649D01*
X130845788Y-126165375D01*
X131079831Y-126219900D01*
X131226339Y-126273230D01*
X131337227Y-126319017D01*
X131419320Y-126351717D01*
X131478778Y-126372625D01*
X131521759Y-126383036D01*
X131554423Y-126384244D01*
X131582930Y-126377545D01*
X131613439Y-126364232D01*
X131627257Y-126357504D01*
X131714235Y-126296366D01*
X131772666Y-126215888D01*
X131801367Y-126122809D01*
X131799153Y-126023864D01*
X131764840Y-125925790D01*
X131715591Y-125854866D01*
X131666996Y-125805262D01*
X131613049Y-125764117D01*
X131545980Y-125727179D01*
X131458014Y-125690196D01*
X131341381Y-125648915D01*
X131335594Y-125646975D01*
X131053672Y-125570969D01*
X130774346Y-125531938D01*
X130499323Y-125529620D01*
X130230314Y-125563754D01*
X129969026Y-125634078D01*
X129717169Y-125740332D01*
X129476452Y-125882253D01*
X129389406Y-125944615D01*
X129194614Y-126113326D01*
X129023042Y-126306536D01*
X128876273Y-126519953D01*
X128755891Y-126749287D01*
X128663477Y-126990245D01*
X128600614Y-127238537D01*
X128568884Y-127489873D01*
X128273532Y-127489873D01*
X128280945Y-127366181D01*
X128308046Y-127177988D01*
X128313965Y-127148958D01*
X128394464Y-126857759D01*
X128507381Y-126581731D01*
X128650648Y-126323577D01*
X128822195Y-126085999D01*
X129019953Y-125871701D01*
X129241852Y-125683386D01*
X129485825Y-125523756D01*
X129607204Y-125459567D01*
X129803695Y-125371447D01*
X129989744Y-125307176D01*
X130176621Y-125264200D01*
X130375598Y-125239964D01*
X130597946Y-125231916D01*
X130612128Y-125231893D01*
X130792528Y-125235892D01*
G37*
G36*
X124288434Y-125224044D02*
G01*
X124423362Y-125261260D01*
X124547613Y-125329074D01*
X124608687Y-125379232D01*
X124636540Y-125407161D01*
X124661698Y-125437572D01*
X124686125Y-125474720D01*
X124711785Y-125522859D01*
X124740643Y-125586247D01*
X124774664Y-125669139D01*
X124815812Y-125775790D01*
X124866051Y-125910455D01*
X124913464Y-126039456D01*
X125080264Y-126494934D01*
X125156494Y-126250257D01*
X125192055Y-126135776D01*
X125230522Y-126011382D01*
X125266956Y-125893072D01*
X125293280Y-125807143D01*
X125331365Y-125687475D01*
X125364775Y-125597046D01*
X125397483Y-125528300D01*
X125433461Y-125473683D01*
X125476683Y-125425638D01*
X125510161Y-125394690D01*
X125614608Y-125320629D01*
X125731294Y-125274321D01*
X125867779Y-125253270D01*
X125944122Y-125251418D01*
X126108968Y-125268289D01*
X126251592Y-125315214D01*
X126371322Y-125391799D01*
X126467482Y-125497653D01*
X126518931Y-125585875D01*
X126533444Y-125620660D01*
X126559509Y-125688391D01*
X126596144Y-125786355D01*
X126642366Y-125911839D01*
X126697192Y-126062129D01*
X126759640Y-126234513D01*
X126828727Y-126426278D01*
X126903472Y-126634710D01*
X126982892Y-126857097D01*
X127066003Y-127090725D01*
X127151824Y-127332881D01*
X127162284Y-127362458D01*
X127262361Y-127645678D01*
X127350490Y-127895560D01*
X127427419Y-128114370D01*
X127493894Y-128304372D01*
X127550663Y-128467829D01*
X127598474Y-128607008D01*
X127638073Y-128724171D01*
X127670209Y-128821583D01*
X127695629Y-128901510D01*
X127715079Y-128966215D01*
X127729308Y-129017963D01*
X127739063Y-129059018D01*
X127745091Y-129091645D01*
X127748140Y-129118108D01*
X127748958Y-129139960D01*
X127731466Y-129274195D01*
X127680634Y-129393936D01*
X127598929Y-129496793D01*
X127488820Y-129580377D01*
X127352772Y-129642298D01*
X127193254Y-129680166D01*
X127190857Y-129680515D01*
X127139048Y-129685081D01*
X127054462Y-129689021D01*
X126942112Y-129692332D01*
X126807014Y-129695008D01*
X126654182Y-129697047D01*
X126488630Y-129698443D01*
X126315374Y-129699193D01*
X126139429Y-129699292D01*
X125965808Y-129698737D01*
X125799526Y-129697522D01*
X125645599Y-129695645D01*
X125509040Y-129693100D01*
X125394865Y-129689883D01*
X125308087Y-129685991D01*
X125259412Y-129682125D01*
X125174974Y-129670665D01*
X125094769Y-129656818D01*
X125034308Y-129643308D01*
X125027758Y-129641436D01*
X124936560Y-129597809D01*
X124849609Y-129527375D01*
X124778501Y-129440404D01*
X124755705Y-129400522D01*
X124740415Y-129364076D01*
X124714643Y-129296018D01*
X124679892Y-129200583D01*
X124637663Y-129082008D01*
X124589458Y-128944526D01*
X124536778Y-128792375D01*
X124481125Y-128629789D01*
X124451418Y-128542257D01*
X124396447Y-128380238D01*
X124345201Y-128230034D01*
X124298936Y-128095267D01*
X124258908Y-127979561D01*
X124226376Y-127886538D01*
X124202596Y-127819822D01*
X124188825Y-127783036D01*
X124185858Y-127776855D01*
X124179271Y-127795356D01*
X124162340Y-127846217D01*
X124136248Y-127925797D01*
X124102177Y-128030460D01*
X124061308Y-128156567D01*
X124014825Y-128300478D01*
X123963910Y-128458556D01*
X123923190Y-128585268D01*
X123868429Y-128754967D01*
X123815944Y-128915967D01*
X123767107Y-129064172D01*
X123723290Y-129195489D01*
X123685868Y-129305823D01*
X123656211Y-129391082D01*
X123635695Y-129447170D01*
X123627708Y-129466468D01*
X123555675Y-129575915D01*
X123454947Y-129671316D01*
X123358527Y-129732274D01*
X123296483Y-129759916D01*
X123233853Y-129776593D01*
X123156192Y-129785427D01*
X123099851Y-129788141D01*
X123019603Y-129788933D01*
X122948849Y-129786112D01*
X122899984Y-129780273D01*
X122891964Y-129778194D01*
X122761842Y-129718951D01*
X122649632Y-129635058D01*
X122561772Y-129532512D01*
X122504878Y-129417838D01*
X122485419Y-129340521D01*
X122478060Y-129254950D01*
X122480210Y-129164193D01*
X122480417Y-129161681D01*
X122785331Y-129161681D01*
X122790429Y-129274234D01*
X122823893Y-129370663D01*
X122883090Y-129445213D01*
X122929467Y-129476838D01*
X122999302Y-129504885D01*
X123064923Y-129508247D01*
X123139553Y-129489520D01*
X123239808Y-129441156D01*
X123317384Y-129368654D01*
X123360304Y-129304474D01*
X123374812Y-129271125D01*
X123399503Y-129204978D01*
X123433280Y-129109308D01*
X123475047Y-128987394D01*
X123523705Y-128842512D01*
X123578158Y-128677937D01*
X123637309Y-128496948D01*
X123700060Y-128302821D01*
X123765315Y-128098832D01*
X123789658Y-128022194D01*
X123854353Y-127818911D01*
X123915933Y-127626941D01*
X123973428Y-127449210D01*
X124025867Y-127288645D01*
X124072282Y-127148171D01*
X124111702Y-127030713D01*
X124143157Y-126939197D01*
X124165679Y-126876549D01*
X124178297Y-126845694D01*
X124180507Y-126842981D01*
X124188633Y-126862652D01*
X124207854Y-126915153D01*
X124237137Y-126997515D01*
X124275452Y-127106769D01*
X124321768Y-127239946D01*
X124375055Y-127394076D01*
X124434280Y-127566190D01*
X124498414Y-127753318D01*
X124566425Y-127952491D01*
X124601710Y-128056101D01*
X124682432Y-128293184D01*
X124752055Y-128497132D01*
X124811589Y-128670617D01*
X124862047Y-128816310D01*
X124904437Y-128936881D01*
X124939772Y-129035002D01*
X124969061Y-129113343D01*
X124993316Y-129174575D01*
X125013547Y-129221370D01*
X125030764Y-129256397D01*
X125045979Y-129282329D01*
X125060202Y-129301836D01*
X125074444Y-129317590D01*
X125081800Y-129324808D01*
X125163438Y-129384187D01*
X125252115Y-129414578D01*
X125300096Y-129420377D01*
X125385441Y-129425262D01*
X125507729Y-129429224D01*
X125666537Y-129432254D01*
X125861444Y-129434344D01*
X126092026Y-129435485D01*
X126271777Y-129435714D01*
X126482006Y-129435687D01*
X126657847Y-129435510D01*
X126802707Y-129435038D01*
X126919996Y-129434127D01*
X127013123Y-129432633D01*
X127085495Y-129430412D01*
X127140522Y-129427318D01*
X127181613Y-129423208D01*
X127212175Y-129417938D01*
X127235619Y-129411362D01*
X127255353Y-129403336D01*
X127274784Y-129393717D01*
X127275810Y-129393192D01*
X127357826Y-129334103D01*
X127406787Y-129257147D01*
X127423543Y-129160754D01*
X127422107Y-129123884D01*
X127414888Y-129093895D01*
X127396078Y-129031413D01*
X127366758Y-128939555D01*
X127328013Y-128821437D01*
X127280925Y-128680176D01*
X127226578Y-128518887D01*
X127166055Y-128340687D01*
X127100439Y-128148693D01*
X127030813Y-127946020D01*
X126958261Y-127735785D01*
X126883865Y-127521105D01*
X126808709Y-127305096D01*
X126733875Y-127090873D01*
X126660448Y-126881554D01*
X126589510Y-126680255D01*
X126522144Y-126490091D01*
X126459434Y-126314181D01*
X126402462Y-126155638D01*
X126352312Y-126017581D01*
X126310068Y-125903126D01*
X126276811Y-125815388D01*
X126253626Y-125757484D01*
X126246294Y-125740997D01*
X126182510Y-125645837D01*
X126119818Y-125593148D01*
X126025591Y-125552065D01*
X125925867Y-125544152D01*
X125828385Y-125567172D01*
X125740881Y-125618889D01*
X125671092Y-125697069D01*
X125653457Y-125727917D01*
X125640830Y-125758957D01*
X125617594Y-125822263D01*
X125584999Y-125914213D01*
X125544296Y-126031183D01*
X125496732Y-126169550D01*
X125443559Y-126325691D01*
X125386024Y-126495983D01*
X125325379Y-126676804D01*
X125300257Y-126752083D01*
X125229785Y-126963909D01*
X125170469Y-127143186D01*
X125121357Y-127293168D01*
X125081496Y-127417112D01*
X125049934Y-127518273D01*
X125025717Y-127599907D01*
X125007892Y-127665269D01*
X124995507Y-127717615D01*
X124987610Y-127760201D01*
X124983246Y-127796282D01*
X124981464Y-127829113D01*
X124981261Y-127842035D01*
X124983157Y-127921727D01*
X124991868Y-127975853D01*
X125009836Y-128016393D01*
X125019818Y-128031024D01*
X125081749Y-128096124D01*
X125154341Y-128144326D01*
X125225562Y-128168188D01*
X125243656Y-128169494D01*
X125296664Y-128160807D01*
X125361088Y-128138899D01*
X125387056Y-128126971D01*
X125431928Y-128101850D01*
X125471036Y-128072870D01*
X125506395Y-128036110D01*
X125540020Y-127987651D01*
X125573924Y-127923573D01*
X125610124Y-127839955D01*
X125650634Y-127732877D01*
X125697468Y-127598419D01*
X125752642Y-127432661D01*
X125768030Y-127385700D01*
X125812494Y-127250659D01*
X125853473Y-127127996D01*
X125889448Y-127022112D01*
X125918902Y-126937412D01*
X125940316Y-126878298D01*
X125952173Y-126849173D01*
X125953803Y-126846878D01*
X125963184Y-126863579D01*
X125982317Y-126909653D01*
X126008712Y-126978714D01*
X126039875Y-127064376D01*
X126051408Y-127096986D01*
X126078063Y-127172492D01*
X126115445Y-127277796D01*
X126161496Y-127407129D01*
X126214157Y-127554718D01*
X126271367Y-127714794D01*
X126331069Y-127881585D01*
X126391203Y-128049322D01*
X126393635Y-128056101D01*
X126449884Y-128213001D01*
X126502476Y-128359973D01*
X126549958Y-128492939D01*
X126590878Y-128607818D01*
X126623783Y-128700532D01*
X126647221Y-128767000D01*
X126659739Y-128803144D01*
X126661106Y-128807329D01*
X126674273Y-128849851D01*
X126190141Y-128849851D01*
X126033556Y-128849629D01*
X125909863Y-128848414D01*
X125814159Y-128845383D01*
X125741539Y-128839712D01*
X125687100Y-128830577D01*
X125645937Y-128817156D01*
X125613146Y-128798625D01*
X125583823Y-128774160D01*
X125553063Y-128742938D01*
X125552999Y-128742870D01*
X125509487Y-128683752D01*
X125463779Y-128599681D01*
X125421651Y-128502650D01*
X125388883Y-128404652D01*
X125387370Y-128399113D01*
X125370211Y-128351149D01*
X125360460Y-128336241D01*
X125714704Y-128336241D01*
X125724317Y-128380991D01*
X125727587Y-128391372D01*
X125750635Y-128453896D01*
X125777506Y-128497164D01*
X125815219Y-128524664D01*
X125870796Y-128539883D01*
X125951259Y-128546312D01*
X126041748Y-128547470D01*
X126255627Y-128547470D01*
X126210410Y-128429352D01*
X126139356Y-128244688D01*
X126080800Y-128094557D01*
X126034830Y-127979176D01*
X126001533Y-127898762D01*
X125980996Y-127853532D01*
X125974917Y-127843455D01*
X125961845Y-127851626D01*
X125942369Y-127887465D01*
X125926092Y-127928500D01*
X125872022Y-128062924D01*
X125812387Y-128177943D01*
X125754655Y-128261111D01*
X125723491Y-128302658D01*
X125714704Y-128336241D01*
X125360460Y-128336241D01*
X125352074Y-128323420D01*
X125346059Y-128320684D01*
X125334757Y-128334741D01*
X125338597Y-128353757D01*
X125357750Y-128411224D01*
X125378647Y-128486074D01*
X125399231Y-128569124D01*
X125417447Y-128651192D01*
X125431240Y-128723095D01*
X125438553Y-128775651D01*
X125438121Y-128798300D01*
X125410947Y-128825556D01*
X125388535Y-128830952D01*
X125372274Y-128825657D01*
X125355656Y-128806467D01*
X125336371Y-128768426D01*
X125312108Y-128706576D01*
X125280557Y-128615962D01*
X125261069Y-128557542D01*
X125225624Y-128451863D01*
X125198564Y-128376471D01*
X125177022Y-128325571D01*
X125158131Y-128293366D01*
X125139023Y-128274060D01*
X125116833Y-128261856D01*
X125114294Y-128260786D01*
X125032806Y-128212376D01*
X124956058Y-128141876D01*
X124899316Y-128063499D01*
X124896389Y-128057890D01*
X124860051Y-127963242D01*
X124847072Y-127862891D01*
X124856574Y-127746167D01*
X124866330Y-127693189D01*
X124896094Y-127549091D01*
X124611270Y-126712859D01*
X124553529Y-126542165D01*
X124499950Y-126381508D01*
X124451717Y-126234605D01*
X124410017Y-126105177D01*
X124376034Y-125996939D01*
X124350954Y-125913611D01*
X124335962Y-125858910D01*
X124332084Y-125837160D01*
X124352898Y-125802860D01*
X124387604Y-125791915D01*
X124416404Y-125792101D01*
X124436822Y-125806053D01*
X124455490Y-125841629D01*
X124475319Y-125895858D01*
X124528713Y-126050341D01*
X124584514Y-126211128D01*
X124641311Y-126374213D01*
X124697695Y-126535591D01*
X124752256Y-126691257D01*
X124803584Y-126837207D01*
X124850269Y-126969435D01*
X124890903Y-127083936D01*
X124924074Y-127176705D01*
X124948373Y-127243736D01*
X124962390Y-127281026D01*
X124965079Y-127287229D01*
X124979543Y-127288452D01*
X124991073Y-127268724D01*
X124988280Y-127242051D01*
X124973748Y-127184453D01*
X124949038Y-127100387D01*
X124915714Y-126994308D01*
X124875339Y-126870672D01*
X124829473Y-126733933D01*
X124779681Y-126588548D01*
X124727525Y-126438972D01*
X124674567Y-126289660D01*
X124622370Y-126145069D01*
X124572496Y-126009653D01*
X124526508Y-125887867D01*
X124485969Y-125784169D01*
X124452441Y-125703012D01*
X124427487Y-125648853D01*
X124416308Y-125629844D01*
X124339154Y-125556939D01*
X124246809Y-125515633D01*
X124146514Y-125507936D01*
X124058063Y-125530295D01*
X123994725Y-125570562D01*
X123929151Y-125634490D01*
X123872124Y-125710253D01*
X123841346Y-125767970D01*
X123831474Y-125795745D01*
X123811085Y-125856863D01*
X123781049Y-125948622D01*
X123742232Y-126068322D01*
X123695501Y-126213262D01*
X123641725Y-126380742D01*
X123581769Y-126568061D01*
X123516502Y-126772518D01*
X123446791Y-126991412D01*
X123373502Y-127222044D01*
X123303784Y-127441890D01*
X123198626Y-127774790D01*
X123105426Y-128071918D01*
X123024161Y-128333348D01*
X122954807Y-128559157D01*
X122897342Y-128749419D01*
X122851743Y-128904212D01*
X122817987Y-129023609D01*
X122796051Y-129107688D01*
X122785913Y-129156524D01*
X122785331Y-129161681D01*
X122480417Y-129161681D01*
X122482643Y-129134694D01*
X122487279Y-129100759D01*
X122494801Y-129060057D01*
X122505888Y-129010253D01*
X122521220Y-128949015D01*
X122541479Y-128874009D01*
X122567343Y-128782903D01*
X122599495Y-128673362D01*
X122638613Y-128543055D01*
X122685379Y-128389648D01*
X122740473Y-128210807D01*
X122804575Y-128004200D01*
X122878365Y-127767493D01*
X122962525Y-127498353D01*
X123012762Y-127337946D01*
X123089524Y-127093413D01*
X123163770Y-126857818D01*
X123234637Y-126633842D01*
X123301263Y-126424167D01*
X123362788Y-126231476D01*
X123418349Y-126058451D01*
X123467084Y-125907773D01*
X123508133Y-125782125D01*
X123540634Y-125684189D01*
X123563724Y-125616647D01*
X123576543Y-125582181D01*
X123577369Y-125580357D01*
X123655337Y-125457590D01*
X123757207Y-125358677D01*
X123877215Y-125284742D01*
X124009597Y-125236909D01*
X124148591Y-125216301D01*
X124288434Y-125224044D01*
G37*
%TO.C,R3*%
X144000000Y-71825000D02*
X144000000Y-71895000D01*
X145370000Y-70455000D02*
G75*
G03*
X142630000Y-70455000I-1370000J0D01*
G01*
X142630000Y-70455000D02*
G75*
G03*
X145370000Y-70455000I1370000J0D01*
G01*
D10*
%TO.C,A2*%
X113550000Y-63200000D02*
X138950000Y-63200000D01*
X138950000Y-63200000D02*
X138950000Y-67190000D01*
X138950000Y-67190000D02*
X113550000Y-67190000D01*
X113550000Y-67190000D02*
X113550000Y-63200000D01*
D12*
%TO.C,R5*%
X115270000Y-89620000D02*
X108730000Y-89620000D01*
X115270000Y-89290000D02*
X115270000Y-89620000D01*
X115270000Y-87210000D02*
X115270000Y-86880000D01*
X115270000Y-86880000D02*
X108730000Y-86880000D01*
X108730000Y-89620000D02*
X108730000Y-89290000D01*
X108730000Y-86880000D02*
X108730000Y-87210000D01*
%TO.C,C1*%
X149833553Y-92066446D02*
X149208553Y-92066446D01*
X149833553Y-92066446D02*
X149833553Y-96106446D01*
X147618553Y-92066446D02*
X146993553Y-92066446D01*
X146993553Y-92066446D02*
X146993553Y-96106446D01*
X149833553Y-96106446D02*
X149208553Y-96106446D01*
X147618553Y-96106446D02*
X146993553Y-96106446D01*
%TO.C,A1*%
X108000000Y-124502500D02*
X106000000Y-124502500D01*
X103190000Y-124182500D02*
X148910000Y-124182500D01*
X100540000Y-103752500D02*
X100540000Y-121532500D01*
X151560000Y-103752500D02*
X151560000Y-121532500D01*
X103190000Y-101102500D02*
X148910000Y-101102500D01*
X100540000Y-121532500D02*
G75*
G03*
X103190000Y-124182500I2650000J0D01*
G01*
X148910000Y-124182500D02*
G75*
G03*
X151560000Y-121532500I0J2650000D01*
G01*
X103190000Y-101102500D02*
G75*
G03*
X100540000Y-103752500I0J-2650000D01*
G01*
X151560000Y-103752500D02*
G75*
G03*
X148910000Y-101102500I-2650000J0D01*
G01*
%TD*%
M02*
